<svg id="Group_101134" data-name="Group 101134" xmlns="http://www.w3.org/2000/svg" width="27.15" height="41.496" viewBox="0 0 27.15 41.496">
  <g id="Group_101110" data-name="Group 101110">
    <path id="Path_3298" data-name="Path 3298" d="M0,0H27.15V41.5L0,27.15Z" fill="#191919"/>
  </g>
  <g id="star" transform="translate(5.721 7.158)">
    <path id="Path_3194" data-name="Path 3194" d="M7.834,15.223l1.905,4.509,4.877.419a.385.385,0,0,1,.219.673l-3.7,3.205L12.244,28.8a.384.384,0,0,1-.573.416L7.48,26.686,3.288,29.214a.384.384,0,0,1-.573-.416l1.109-4.768-3.7-3.206a.384.384,0,0,1,.219-.673l4.877-.419,1.905-4.508a.384.384,0,0,1,.708,0Z" transform="translate(0.009 -14.987)" fill="#fbfbf8"/>
  </g>
</svg>
