<svg xmlns="http://www.w3.org/2000/svg" width="28.738" height="12.507" viewBox="0 0 28.738 12.507">
  <g id="car-trip" transform="translate(0 -172.824)">
    <path id="Path_3188" data-name="Path 3188" d="M27.673,177.67c-.528-.176-4.2-.978-4.2-.978s-6.8-3.868-7.619-3.868l-6.416,0c-1.368,0-2.512,1.043-3.835,2.25a25.361,25.361,0,0,1-2.072,1.751L.7,177.2a1.013,1.013,0,0,0-.7.965v3.241a1.013,1.013,0,0,0,1.013,1.013H2.957a3.185,3.185,0,0,0,6.346,0h9.283a3.185,3.185,0,0,0,6.346,0h1.6c1.265,0,1.884-.547,2.039-1.06C28.96,180.065,28.678,178.006,27.673,177.67ZM6.13,183.8a1.65,1.65,0,1,1,1.65-1.65A1.652,1.652,0,0,1,6.13,183.8Zm6.126-7.1H6.721c.4-.316.771-.652,1.112-.963.9-.817,1.67-1.523,2.6-1.523h1.827v2.487Zm1.348-2.487h1.6c.763,0,3.857,1.8,5.018,2.488H13.6v-2.487Zm8.154,9.591a1.65,1.65,0,1,1,1.65-1.65A1.652,1.652,0,0,1,21.758,183.8Z" transform="translate(0 0)" fill="#191919"/>
  </g>
</svg>
