<svg xmlns="http://www.w3.org/2000/svg" width="18.676" height="17.509" viewBox="0 0 18.676 17.509">
  <g id="printer-" transform="translate(0 -0.5)">
    <g id="Group_101029" data-name="Group 101029" transform="translate(0 0.5)">
      <path id="Path_3247" data-name="Path 3247" d="M4,12.835v3.5h9.338V10.5H4Zm1.167-1.167h7v1.167h-7Zm0,2.335h7v1.167h-7Z" transform="translate(0.669 1.173)" fill="#191919"/>
      <path id="Path_3248" data-name="Path 3248" d="M13.338,4V.5H4V6.336h9.338Z" transform="translate(0.669 -0.5)" fill="#191919"/>
      <path id="Path_3249" data-name="Path 3249" d="M16.342,3.5H15.174V7H3.5V3.5H2.335A2.511,2.511,0,0,0,0,5.835v5.836a2.511,2.511,0,0,0,2.335,2.335H3.5V10.5H15.174v3.5h1.167a2.511,2.511,0,0,0,2.335-2.335V5.835A2.511,2.511,0,0,0,16.342,3.5Z" transform="translate(0 0.002)" fill="#191919"/>
    </g>
  </g>
</svg>
