<svg id="Group_101135" data-name="Group 101135" xmlns="http://www.w3.org/2000/svg" width="27.48" height="42" viewBox="0 0 27.48 42">
  <g id="Group_101110" data-name="Group 101110">
    <path id="Path_3298" data-name="Path 3298" d="M0,0H27.48V42L0,27.48Z" fill="#6e6e6e"/>
  </g>
  <g id="XMLID_121_" transform="translate(6.709 6.932)">
    <path id="XMLID_125_" d="M97,263.9a4.991,4.991,0,0,0,2.216-5.168c-.294-1.188-.991-2.216-2.216-2.216a2.007,2.007,0,0,0-1.971,2.2,2.991,2.991,0,0,0,.532,1.4A8.19,8.19,0,0,1,97,263.9Z" transform="translate(-89.577 -256.513)" fill="#fbfbf8"/>
    <path id="XMLID_126_" d="M90.848,386.88a4.768,4.768,0,0,0-2.195,3.151,4.512,4.512,0,0,0-.022,2.017c.293,1.188.992,2.217,2.217,2.217a2.008,2.008,0,0,0,1.971-2.2,2.993,2.993,0,0,0-.531-1.394A8.167,8.167,0,0,1,90.848,386.88Z" transform="translate(-83.523 -377.894)" fill="#fbfbf8"/>
    <path id="XMLID_127_" d="M18.494,305.005c1.124.111,2.956-.216,4.7.679a1.461,1.461,0,0,0-.042-.448,5.035,5.035,0,0,0-3.325-4.055,2.493,2.493,0,0,0-3.029.811A2.052,2.052,0,0,0,18.494,305.005Z" transform="translate(-16.487 -297.942)" fill="#fbfbf8"/>
    <path id="XMLID_128_" d="M136.561,382.334h0a7.781,7.781,0,0,1-3.956-.647c-.018,2.464,2.572,5.238,5.05,4.628A2.37,2.37,0,0,0,139,385.38C139.714,384.135,139.013,382.334,136.561,382.334Z" transform="translate(-124.559 -373.06)" fill="#fbfbf8"/>
    <path id="XMLID_129_" d="M22.577,372.745a4.589,4.589,0,0,0-3.377-.434,4.824,4.824,0,0,0-2.207,1.1c-1.522,1.459-1.287,3-.157,3.708a2.14,2.14,0,0,0,2.235-.075C20.133,376.431,20.423,374.124,22.577,372.745Z" transform="translate(-15.92 -364.203)" fill="#fbfbf8"/>
    <path id="XMLID_130_" d="M136.475,307.81a5.067,5.067,0,0,0,2.444-1.155c1.071-1.03,1.513-2.369.514-3.419a2.084,2.084,0,0,0-2.6-.215c-1.059.612-1.35,2.921-3.5,4.3A4.626,4.626,0,0,0,136.475,307.81Z" transform="translate(-125.242 -299.492)" fill="#fbfbf8"/>
  </g>
</svg>
