<svg id="directionswalk" xmlns="http://www.w3.org/2000/svg" width="11.487" height="19.262" viewBox="0 0 11.487 19.262">
  <path id="Path_3187" data-name="Path 3187" d="M119.269,3.181a1.59,1.59,0,1,0-1.59-1.59A1.584,1.584,0,0,0,119.269,3.181Zm.088,5.478h4.33V7.069h-3.181l-1.767-2.916a1.642,1.642,0,0,0-1.325-.8.8.8,0,0,0-.442.088l-4.771,1.5V9.543h1.59V6.273l1.856-.619L112.2,19.262h1.59l2.562-7.157,2.032,2.739v4.418h1.59V13.607l-2.209-3.976.618-2.562Z" transform="translate(-112.2)" fill="#191919"/>
</svg>
