<svg id="Group_1865" data-name="Group 1865" xmlns="http://www.w3.org/2000/svg" width="13.887" height="14.879" viewBox="0 0 13.887 14.879">
  <path id="Path_120" data-name="Path 120" d="M13.639.992H11.9V.248A.234.234,0,0,0,11.655,0H9.919a.234.234,0,0,0-.248.248V.992H4.216V.248A.234.234,0,0,0,3.968,0H2.232a.234.234,0,0,0-.248.248V.992H.248A.234.234,0,0,0,0,1.24V14.631a.234.234,0,0,0,.248.248H13.639a.234.234,0,0,0,.248-.248V1.24A.234.234,0,0,0,13.639.992ZM10.167.5h1.24V1.984h-1.24V.5ZM2.48.5H3.72V1.984H2.48V.5ZM.5,1.488H1.984v.744a.234.234,0,0,0,.248.248H3.968a.234.234,0,0,0,.248-.248V1.488H9.671v.744a.234.234,0,0,0,.248.248h1.736a.234.234,0,0,0,.248-.248V1.488h1.488V3.72H.5Zm0,12.9V4.216h12.9V14.383Z" transform="translate(0)" fill="#33312d"/>
  <path id="Path_121" data-name="Path 121" d="M15.7,23H9v7.191h9.423V23H15.7Zm-1.736.5H15.7v1.736H13.96ZM15.7,27.464H13.96V25.728H15.7Zm-3.968-1.736h1.736v1.736H11.728Zm0-2.232h1.736v1.736H11.728ZM9.5,23.5h1.736v1.736H9.5Zm0,2.232h1.736v1.736H9.5ZM11.232,29.7H9.5V27.96h1.736Zm2.232,0H11.728V27.96h1.736Zm2.232,0H13.96V27.96H15.7Zm2.232,0H16.191V27.96h1.736Zm0-2.232H16.191V25.728h1.736Zm0-3.968v1.736H16.191V23.5Z" transform="translate(-6.768 -17.296)" fill="#33312d"/>
</svg>
