<svg xmlns="http://www.w3.org/2000/svg" width="274.02" height="274.036" viewBox="0 0 274.02 274.036">
  <g id="Layer_2" data-name="Layer 2" transform="translate(0.25 0.25)">
    <g id="Drawing" transform="translate(0 0)">
      <path id="Path_17812" data-name="Path 17812" d="M163.053,177.71a2.406,2.406,0,1,0,2.4,2.406A2.406,2.406,0,0,0,163.053,177.71Zm.864,4.107a.691.691,0,0,1-.152.159.6.6,0,0,1-.214.069.353.353,0,0,1-.228-.048.755.755,0,0,1,.138-.173.692.692,0,0,1,.138-.111.919.919,0,0,1,.166-.076.76.76,0,0,1,.214-.048.353.353,0,0,1-.062.228Zm.36-.622a4.344,4.344,0,0,0,.27-.691,1.922,1.922,0,0,0,.062-.691,1.549,1.549,0,0,0-.207-.691,1.521,1.521,0,0,0-.512-.539,1.1,1.1,0,0,1,.691.4,1.432,1.432,0,0,1,.318.781,1.563,1.563,0,0,1-.145.816A1.646,1.646,0,0,1,164.277,181.2Z" transform="translate(-49.559 -54.825)" fill="#d0a262" stroke="#d0a262" stroke-width="0.5"/>
      <path id="Path_17813" data-name="Path 17813" d="M101.431,206.767l-9.038-.055h0l-.1-15.061.118.111c-1.189.1-2.379.124-3.568.131l-3.575-.035H78.149l.187-.194c.035,1.618,0,3.215-.041,4.84v4.8c0,1.6,0,3.209-.041,4.84a26.664,26.664,0,0,0,.124,4.764l-.235-.194c3.229-.118,6.431.152,9.619,0a.249.249,0,0,1,.263.235h0c.055,3.921-.083,7.835.062,11.755l-.29-.27c1.563-.069,3.119-.048,4.681,0l-.3.277c.1-3.914-.062-7.835-.069-11.755a.318.318,0,0,1,.318-.318h0l37.984.145q18.988.041,37.984,0l-.2.194.124-5.076c0-1.687.145-3.381,0-5.048a.173.173,0,0,1,.152-.194,21.642,21.642,0,0,1,4.149.041,28.721,28.721,0,0,0,4.08-.1.138.138,0,0,1,.145.111h0c-.076,3.416.138,6.839,0,10.262l-.062-.062h31.649l-31.649.131a.062.062,0,0,1-.062-.062h0c.1-3.416-.159-6.832-.131-10.262l.145.131a28.3,28.3,0,0,1-4.149.166,22.822,22.822,0,0,0-4.066,0l.152-.194a50.153,50.153,0,0,1,0,5.1l-.1,5.069a.207.207,0,0,1-.2.2q-19,.18-37.984.207h-19c-6.327,0-12.661-.048-18.988-.1l.318-.311c0,3.914.124,7.848,0,11.79a.283.283,0,0,1-.3.277h0c-1.542-.09-3.084-.111-4.619-.048a.277.277,0,0,1-.29-.27h0c-.131-3.928,0-7.841,0-11.755l.263.249c-3.222.159-6.438-.124-9.626,0a.235.235,0,0,1-.235-.2,27.584,27.584,0,0,1-.1-4.84c.055-1.6.048-3.2.069-4.806l.041-4.84c0-1.6.1-3.215.062-4.8a.194.194,0,0,1,.18-.194h3.561l3.568.062,3.554.083c1.189,0,2.372,0,3.554-.076h0a.1.1,0,0,1,.118.1h0L92.442,206.7h0Z" transform="translate(-23.984 -59.092)" fill="#d0a262" stroke="#d0a262" stroke-width="0.5"/>
      <path id="Path_17814" data-name="Path 17814" d="M218.973,210.65c7.53-.159,15.074-.346,22.6,0a.062.062,0,0,1,.062.069c0,1.521.09,3.043.055,4.571s.076,3.036.131,4.564,0,3.049,0,4.571v2.289a4.884,4.884,0,0,0,0,.553c0,.1,0,.194,0,.3a.63.63,0,0,1-.035.18.325.325,0,0,1-.159.159,3.161,3.161,0,0,1-1.182.048l-9.141.076h-6.853c-.754,0-1.514.069-2.3,0l.187-.173.055,3.948-.18-.18h24.14l-.207.2v-7.178c0-2.386-.062-4.806.055-7.191,0-.595.069-1.2.083-1.791l-.1-1.784c0-.6-.1-1.189-.083-1.8v-.913a1.673,1.673,0,0,1,.048-.5.325.325,0,0,1,.173-.221.5.5,0,0,1,.207-.048h.235c2.393,0,4.785-.041,7.178-.055l-.235.242-.09-3.948.242.235-7.53-.076a.242.242,0,0,1-.242-.249h0l.09-10.49.263.256h-4.9l.263-.277c.069,1.743.166,3.457.2,5.221,0,.871-.118,1.743-.111,2.6l.035,2.586h0a.27.27,0,0,1-.27.277h0a33.682,33.682,0,0,0-5.158.207.29.29,0,0,1-.311-.249h0l.035-2.628c0-.878.041-1.756,0-2.628a43.872,43.872,0,0,1,0-5.311l.27.318a27.853,27.853,0,0,0-4.681.041l.27-.3.09,5.235c.055,1.749,0,3.492,0,5.235h0a.3.3,0,0,1-.277.3,40.11,40.11,0,0,1-6.182.062c-2.074-.1-4.073-.131-6.113-.048s-4.087.187-6.168.1a41.058,41.058,0,0,0-6.078-.214h0a.325.325,0,0,1-.36-.29v-.035l.076-10.372a.339.339,0,0,1,.346-.332h0l4.882.055h2.441a11.969,11.969,0,0,0,2.365-.062l-.249.277a16.306,16.306,0,0,0,0-2.185l.048-2.234.367.325a25.409,25.409,0,0,1-3.734-.145,17.9,17.9,0,0,0-1.819.048h-1.867l-6.915-.118a6.182,6.182,0,0,0,0,.871v.934c0,.622,0,1.245-.042,1.846-.048,1.21.035,2.427.083,3.665.062,2.489-.076,4.937.076,7.378a.3.3,0,0,1-.284.318h0L192,206.68a.29.29,0,0,1-.29-.27c-.27-3.582.449-7.115,0-10.573l.277.242-17.488-.055.256-.27c.09,3.54.131,7.095-.048,10.642h0a.235.235,0,0,1-.242.228l-11.887.152c-1.985,0-3.962.083-5.947.048l-5.947-.124a.228.228,0,0,1-.221-.221l-.1-10.794.221.207-4.8.062.214-.207-.083,10.884a.194.194,0,0,1-.187.194c-4.253.118-8.505.124-12.751-.152a.173.173,0,0,1-.173-.173c-.041-3.623.118-7.233.076-10.836l.173.159-4.84.131.145-.152.159,10.587h0a.111.111,0,0,1-.111.118l-6.624.124a.1.1,0,0,1-.1-.1h0l.069-10.856.069.062-4.495.27.048-.048v10.8h0l-5.269-.159,5.269.131h0v-10.8a.042.042,0,0,1,.041-.048l4.495-.3a.076.076,0,0,1,.069.062h0V206.5l-.1-.09,6.618-.166-.111.124-.228-10.6a.138.138,0,0,1,.138-.145h0l4.84-.166a.159.159,0,0,1,.166.159h0c.069,3.616-.1,7.226-.042,10.836l-.173-.18c4.232.27,8.478.249,12.716.124l-.187.194.035-10.87a.2.2,0,0,1,.2-.2h0l4.771-.069h0a.207.207,0,0,1,.214.207h0l.124,10.8-.221-.221,5.94.1c1.978,0,3.962-.041,5.94-.055l11.88-.173-.242.235c.173-3.534.124-7.067,0-10.607a.256.256,0,0,1,.256-.263h17.488a.27.27,0,0,1,.277.235c.484,3.589-.235,7.129.048,10.607l-.29-.27,10.787.083-.3.318c-.159-2.476,0-4.951-.1-7.385-.048-1.224-.131-2.469-.083-3.713,0-.629.042-1.238.042-1.853v-.913a6.491,6.491,0,0,1,0-.975.265.265,0,0,1,.055-.18.519.519,0,0,1,.187-.228.8.8,0,0,1,.353-.111,2.655,2.655,0,0,1,.519,0h2.759l3.693.055h1.826a16.819,16.819,0,0,1,1.874-.048,26.1,26.1,0,0,0,3.637.138h0a.332.332,0,0,1,.353.29h0l-.042,2.247a14.911,14.911,0,0,1,0,2.282h0a.325.325,0,0,1-.249.27,11.673,11.673,0,0,1-2.524.09H212.3l-4.916-.118.36-.332-.1,10.372-.366-.325a38.342,38.342,0,0,1,6.182.228c2.033.111,4.066-.035,6.113-.09s4.149-.041,6.161.069a39.69,39.69,0,0,0,6.085-.048l-.27.311c0-1.743.062-3.457,0-5.235l-.083-5.235a.3.3,0,0,1,.27-.3,29.04,29.04,0,0,1,4.778,0,.29.29,0,0,1,.27.311h0a44.072,44.072,0,0,0,0,5.235v2.648l-.042,2.648-.311-.29a34.854,34.854,0,0,1,5.235-.111l-.284.284v-2.621c0-.871.1-1.736.111-2.593-.035-1.708-.124-3.457-.187-5.186a.263.263,0,0,1,.249-.277h4.882a.256.256,0,0,1,.256.249h0l-.111,10.511-.242-.256,7.51.09h0a.242.242,0,0,1,.235.235l.09,3.948a.249.249,0,0,1-.235.242h0c-2.4,0-4.8.062-7.191.035h-.214c.041,0,.048-.062.041-.041a2.077,2.077,0,0,0,0,.394v.878c0,.581.055,1.2.076,1.791l.1,1.8c0,.6-.055,1.2-.083,1.8-.124,2.4-.062,4.771-.076,7.178V231.8a.2.2,0,0,1-.2.2h-24.14a.18.18,0,0,1-.18-.18l-.042-3.948a.166.166,0,0,1,.166-.173h4.557l4.564.035h9.141a3.52,3.52,0,0,0,1.086,0c.069,0,.055-.235.041-.408a5.423,5.423,0,0,1,0-.581l.035-2.282c0-1.528.055-3.049.035-4.571s-.173-3.043-.1-4.571,0-3.043,0-4.564l.069.069C234.047,210.387,226.51,210.539,218.973,210.65Z" transform="translate(-34.587 -58.951)" fill="#d0a262" stroke="#d0a262" stroke-width="0.5"/>
      <path id="Path_17815" data-name="Path 17815" d="M84.419,198.39a18.877,18.877,0,0,1,3.852-.284,5.03,5.03,0,0,1,.968.062h.242a.4.4,0,0,1,.214.069.47.47,0,0,1,.124.228,4.072,4.072,0,0,1,.09.491,15.518,15.518,0,0,1,.09,1.95c.048,2.565.041,5.124,0,7.689h0a.339.339,0,0,1-.339.339L85.774,209H84.592a.574.574,0,0,1-.27-.055.463.463,0,0,1-.235-.3.69.69,0,0,1,0-.187v-2.316c0-1.307.09-2.607.152-3.9S84.364,199.683,84.419,198.39Zm0,0c.1,1.293.118,2.593.145,3.893s0,2.593.041,3.886l.062,1.943v.415a.166.166,0,0,0-.09-.1q-.073,0,0,0H85.8l3.9-.09-.339.346c0-2.565.048-5.138.131-7.7a17.336,17.336,0,0,0,0-1.895,1.728,1.728,0,0,0-.062-.456c-.041,0,.118.035,0,0l-.235-.035-.947-.111a22.819,22.819,0,0,0-3.824-.09Z" transform="translate(-25.94 -61.115)" fill="#d0a262" stroke="#d0a262" stroke-width="0.5"/>
      <path id="Path_17816" data-name="Path 17816" d="M303.791,200.72c.249,1.625.4,3.264.512,4.9s.159,3.278.173,4.923,0,3.278-.138,4.916l-.18,2.455c-.09.816-.166,1.639-.29,2.448-.035-.823,0-1.639-.048-2.462V205.63C303.771,204,303.757,202.366,303.791,200.72Z" transform="translate(-93.717 -61.924)" fill="#d0a262" stroke="#d0a262" stroke-width="0.5"/>
      <path id="Path_17817" data-name="Path 17817" d="M303.989,232.16a37.786,37.786,0,0,1,.249,5.442,36.938,36.938,0,0,1-.449,5.435,43.377,43.377,0,0,1,.2-10.877Z" transform="translate(-93.645 -71.624)" fill="#d0a262" stroke="#d0a262" stroke-width="0.5"/>
      <path id="Path_17818" data-name="Path 17818" d="M301.928,227.14a6.223,6.223,0,0,1,.29,2.171,6,6,0,0,1-.4,2.144,6.173,6.173,0,0,1-.29-2.164,6.355,6.355,0,0,1,.4-2.151Z" transform="translate(-93.022 -70.075)" fill="#d0a262" stroke="#d0a262" stroke-width="0.5"/>
      <path id="Path_17819" data-name="Path 17819" d="M290.035,203.14a15.3,15.3,0,0,1,.408,3.831,15.572,15.572,0,0,1-.443,3.824,23.09,23.09,0,0,1-.242-3.831,23.836,23.836,0,0,1,.277-3.824Z" transform="translate(-89.392 -62.671)" fill="#d0a262" stroke="#d0a262" stroke-width="0.5"/>
      <path id="Path_17820" data-name="Path 17820" d="M245.138,206.334a54.067,54.067,0,0,1-.691-5.891c-.131-1.971-.145-3.955-.09-5.933a2.767,2.767,0,0,1,.1-.823,1.01,1.01,0,0,1,.747-.691,2.607,2.607,0,0,1,.844,0l.733.076c.975.1,1.957.166,2.932.242,1.964.118,3.928.138,5.905.131-.975.152-1.964.235-2.953.318s-1.978.076-2.966.076-1.985-.048-2.973-.118l-.74-.062a2.137,2.137,0,0,0-.629,0c-.138.035-.194.09-.249.263a2.814,2.814,0,0,0-.055.643c-.076,1.964-.083,3.928-.076,5.9S245.082,204.363,245.138,206.334Z" transform="translate(-75.377 -59.53)" fill="#d0a262" stroke="#d0a262" stroke-width="0.5"/>
      <path id="Path_17821" data-name="Path 17821" d="M225.429,202.25a25.3,25.3,0,0,1,.512,5.041,24.333,24.333,0,0,1-.429,5.048,57.606,57.606,0,0,1-.083-10.089Z" transform="translate(-69.491 -62.396)" fill="#d0a262" stroke="#d0a262" stroke-width="0.5"/>
      <path id="Path_17822" data-name="Path 17822" d="M207.216,211.05a1.328,1.328,0,0,1,.346.92,1.3,1.3,0,0,1-.346.913,1.387,1.387,0,0,1,0-1.832Z" transform="translate(-63.822 -65.111)" fill="#d0a262" stroke="#d0a262" stroke-width="0.5"/>
      <path id="Path_17823" data-name="Path 17823" d="M232.93,217.885c2.517-.242,5.027-.263,7.537-.256s5.013.083,7.53.263a50.976,50.976,0,0,1-7.537.429,70.285,70.285,0,0,1-7.53-.436Z" transform="translate(-71.861 -67.141)" fill="#d0a262" stroke="#d0a262" stroke-width="0.5"/>
      <path id="Path_17824" data-name="Path 17824" d="M268.91,215.217a39.754,39.754,0,0,1,10.462-.166A39.754,39.754,0,0,1,268.91,215.217Z" transform="translate(-82.962 -66.263)" fill="#d0a262" stroke="#d0a262" stroke-width="0.5"/>
      <path id="Path_17825" data-name="Path 17825" d="M165.6,200.73a41.094,41.094,0,0,1,.242,10.69,35.674,35.674,0,0,1-.463-5.338,37.468,37.468,0,0,1,.221-5.352Z" transform="translate(-51.017 -61.927)" fill="#d0a262" stroke="#d0a262" stroke-width="0.5"/>
      <path id="Path_17826" data-name="Path 17826" d="M164.264,211.45a7.433,7.433,0,0,1,.277,2.386,7.2,7.2,0,0,1-.408,2.358,8.236,8.236,0,0,1,.131-4.744Z" transform="translate(-50.548 -65.235)" fill="#d0a262" stroke="#d0a262" stroke-width="0.5"/>
      <path id="Path_17827" data-name="Path 17827" d="M140.1,203.14a12.115,12.115,0,0,1-.138,5.746,12.115,12.115,0,0,1,.138-5.746Z" transform="translate(-43.094 -62.671)" fill="#d0a262" stroke="#d0a262" stroke-width="0.5"/>
      <path id="Path_17828" data-name="Path 17828" d="M121.348,200.82a30.957,30.957,0,0,1,.159,4.993,31.668,31.668,0,0,1-.526,4.965,31.747,31.747,0,0,1-.166-4.993,32.622,32.622,0,0,1,.532-4.965Z" transform="translate(-37.263 -61.955)" fill="#d0a262" stroke="#d0a262" stroke-width="0.5"/>
      <path id="Path_17829" data-name="Path 17829" d="M97.023,193.767a12.826,12.826,0,0,1,.318,3.112,12.5,12.5,0,0,1-.373,3.1,14.148,14.148,0,0,1,.055-6.223Z" transform="translate(-29.817 -59.777)" fill="#d0a262" stroke="#d0a262" stroke-width="0.5"/>
      <path id="Path_17830" data-name="Path 17830" d="M81.053,207a12.827,12.827,0,0,1,.318,3.112,12.5,12.5,0,0,1-.373,3.1,14.148,14.148,0,0,1,.055-6.223Z" transform="translate(-24.89 -63.859)" fill="#d0a262" stroke="#d0a262" stroke-width="0.5"/>
      <path id="Path_17831" data-name="Path 17831" d="M96.818,204.3a1,1,0,0,1,.283.691.989.989,0,0,1-.332.691.823.823,0,0,1-.36-.691A.837.837,0,0,1,96.818,204.3Z" transform="translate(-29.743 -63.029)" fill="#d0a262" stroke="#d0a262" stroke-width="0.5"/>
      <path id="Path_17832" data-name="Path 17832" d="M129.6,217.413a56.185,56.185,0,0,1,12.447-.138,56.184,56.184,0,0,1-12.447.138Z" transform="translate(-39.983 -66.945)" fill="#d0a262" stroke="#d0a262" stroke-width="0.5"/>
      <path id="Path_17833" data-name="Path 17833" d="M96.7,222.79a16.915,16.915,0,0,1,.277,3.63,16.478,16.478,0,0,1-.408,3.617,18.975,18.975,0,0,1,.131-7.247Z" transform="translate(-29.705 -68.733)" fill="#d0a262" stroke="#d0a262" stroke-width="0.5"/>
      <path id="Path_17834" data-name="Path 17834" d="M204.23,199.524a16.115,16.115,0,0,1,2.648-.36,15.648,15.648,0,0,1,2.669,0,7.226,7.226,0,0,1-5.318.353Z" transform="translate(-63.007 -61.427)" fill="#d0a262" stroke="#d0a262" stroke-width="0.5"/>
      <path id="Path_17835" data-name="Path 17835" d="M18.228,204.826A135.532,135.532,0,0,1,1.383,156.042c-.588-4.28-1.051-8.6-1.217-12.9l-.083-1.625V139.9L0,136.631l.152-6.493a137.455,137.455,0,0,1,3.679-25.675A136.869,136.869,0,0,1,136.452,0a139.19,139.19,0,0,1,25.855,2.413A136.783,136.783,0,0,1,150.62,272.848a139.066,139.066,0,0,1-51.454-4.55A133.076,133.076,0,0,1,75.04,258.79a138.423,138.423,0,0,1-40.8-31.615A138.228,138.228,0,0,0,75.11,258.638a133.375,133.375,0,0,0,24.119,9.418,140.248,140.248,0,0,0,51.35,4.391A136.334,136.334,0,0,0,271.589,155.585a139.729,139.729,0,0,0,1.12-25.834A136.317,136.317,0,0,0,4.149,104.539,137.482,137.482,0,0,0,.4,130.124L.221,136.6l.041,3.243v1.618l.111,1.673c.159,4.322.609,8.63,1.176,12.91a135.6,135.6,0,0,0,16.679,48.778Z" transform="translate(0 0)" fill="#d0a262" stroke="#d0a262" stroke-width="0.5"/>
      <path id="Path_17836" data-name="Path 17836" d="M107.77,44.9l6.168-3.485.041.076Z" transform="translate(-33.248 -12.775)" fill="#d0a262" stroke="#d0a262" stroke-width="0.5"/>
      <path id="Path_17837" data-name="Path 17837" d="M134.72,31.275a113.445,113.445,0,0,1,13.048-4.225l.1.36a126.966,126.966,0,0,0-13.055,4.107Z" transform="translate(-41.563 -8.345)" fill="#d0a262" stroke="#d0a262" stroke-width="0.5"/>
      <path id="Path_17838" data-name="Path 17838" d="M173.05,22.629a120.716,120.716,0,0,1,13.671-1.169v.491a121.623,121.623,0,0,0-13.629,1.1Z" transform="translate(-53.388 -6.621)" fill="#d0a262" stroke="#d0a262" stroke-width="0.5"/>
      <path id="Path_17839" data-name="Path 17839" d="M212.648,22a121.862,121.862,0,0,1,13.6,1.9l-.118.588A122.137,122.137,0,0,0,212.6,22.546Z" transform="translate(-65.589 -6.787)" fill="#d0a262" stroke="#d0a262" stroke-width="0.5"/>
      <path id="Path_17840" data-name="Path 17840" d="M251.481,29.7a112.714,112.714,0,0,1,12.82,4.937l-.27.6a127.612,127.612,0,0,0-12.751-4.91Z" transform="translate(-77.523 -9.163)" fill="#d0a262" stroke="#d0a262" stroke-width="0.5"/>
      <path id="Path_17841" data-name="Path 17841" d="M287.571,46.06a125.156,125.156,0,0,1,11.368,7.7l-.332.436a122.568,122.568,0,0,0-11.347-7.606Z" transform="translate(-88.623 -14.21)" fill="#d0a262" stroke="#d0a262" stroke-width="0.5"/>
      <path id="Path_17842" data-name="Path 17842" d="M319.089,70.1a123.445,123.445,0,0,1,9.37,10.027l-.325.277a122.615,122.615,0,0,0-9.384-9.944Z" transform="translate(-98.338 -21.627)" fill="#d0a262" stroke="#d0a262" stroke-width="0.5"/>
      <path id="Path_17843" data-name="Path 17843" d="M344.523,100.51a115.848,115.848,0,0,1,6.915,11.866l-.228.118a130.677,130.677,0,0,0-6.97-11.755Z" transform="translate(-106.202 -31.008)" fill="#d0a262" stroke="#d0a262" stroke-width="0.5"/>
      <path id="Path_17844" data-name="Path 17844" d="M362.493,135.84l2.261,6.707-2.344-6.68Z" transform="translate(-111.807 -41.908)" fill="#d0a262" stroke="#d0a262" stroke-width="0.5"/>
      <path id="Path_17845" data-name="Path 17845" d="M43.567,283.016l-3.457-6.223a.069.069,0,0,1,.118-.062h0Z" transform="translate(-12.374 -85.368)" fill="#d0a262" stroke="#d0a262" stroke-width="0.5"/>
      <path id="Path_17846" data-name="Path 17846" d="M30.243,252.709a121.087,121.087,0,0,1-4.087-13.138.263.263,0,0,1,.194-.325.256.256,0,0,1,.318.194h0A119.21,119.21,0,0,0,30.6,252.578a.194.194,0,0,1-.118.242.187.187,0,0,1-.235-.111Z" transform="translate(-8.067 -73.807)" fill="#d0a262" stroke="#d0a262" stroke-width="0.5"/>
      <path id="Path_17847" data-name="Path 17847" d="M22.042,213.915A123.083,123.083,0,0,1,21.06,200.2a.346.346,0,1,1,.692,0h0a121.875,121.875,0,0,0,.934,13.65.323.323,0,1,1-.643.069Z" transform="translate(-6.497 -61.656)" fill="#d0a262" stroke="#d0a262" stroke-width="0.5"/>
      <path id="Path_17848" data-name="Path 17848" d="M21.883,174.3a120.185,120.185,0,0,1,2.151-13.588.307.307,0,0,1,.6.124,120.887,120.887,0,0,0-2.074,13.532.347.347,0,1,1-.691-.069Z" transform="translate(-6.746 -49.505)" fill="#d0a262" stroke="#d0a262" stroke-width="0.5"/>
      <path id="Path_17849" data-name="Path 17849" d="M30.292,135.923a120.963,120.963,0,0,1,5.193-12.73.194.194,0,0,1,.249-.09.2.2,0,0,1,.1.256A122.131,122.131,0,0,0,30.769,136.1a.266.266,0,0,1-.5-.166Z" transform="translate(-9.333 -37.974)" fill="#d0a262" stroke="#d0a262" stroke-width="0.5"/>
      <path id="Path_17850" data-name="Path 17850" d="M47.395,103.225l3.941-5.885-3.824,5.988h0a.07.07,0,0,1-.118-.076Z" transform="translate(-14.618 -30.03)" fill="#d0a262" stroke="#d0a262" stroke-width="0.5"/>
      <path id="Path_17851" data-name="Path 17851" d="M194.468,373.821l-7.088-.1.014-.214Z" transform="translate(-57.809 -115.232)" fill="#d0a262" stroke="#d0a262" stroke-width="0.5"/>
      <path id="Path_17852" data-name="Path 17852" d="M156.861,368.984a116.673,116.673,0,0,1-15.821-4.149l.207-.615a125.706,125.706,0,0,0,15.711,4.239Z" transform="translate(-43.512 -112.366)" fill="#d0a262" stroke="#d0a262" stroke-width="0.5"/>
      <path id="Path_17853" data-name="Path 17853" d="M112.926,352.107a116.489,116.489,0,0,1-14.086-8.3l.3-.429a126.652,126.652,0,0,0,14.079,8.153Z" transform="translate(-30.493 -105.936)" fill="#d0a262" stroke="#d0a262" stroke-width="0.5"/>
      <path id="Path_17854" data-name="Path 17854" d="M78.106,327.134,73.03,322.19l5.214,4.792Z" transform="translate(-22.531 -99.399)" fill="#d0a262" stroke="#d0a262" stroke-width="0.5"/>
      <path id="Path_17855" data-name="Path 17855" d="M365.8,145.54l1.957,6.811-.1.021Z" transform="translate(-112.853 -44.901)" fill="#d0a262" stroke="#d0a262" stroke-width="0.5"/>
      <path id="Path_17856" data-name="Path 17856" d="M372.284,174.5a117.936,117.936,0,0,1,1.1,13.436h-.394a129.908,129.908,0,0,0-.989-13.4Z" transform="translate(-114.766 -53.835)" fill="#d0a262" stroke="#d0a262" stroke-width="0.5"/>
      <path id="Path_17857" data-name="Path 17857" d="M372.316,213.392a124.087,124.087,0,0,1-1.888,13.353l-.519-.1a122.594,122.594,0,0,0,1.95-13.29Z" transform="translate(-114.121 -65.821)" fill="#d0a262" stroke="#d0a262" stroke-width="0.5"/>
      <path id="Path_17858" data-name="Path 17858" d="M363.384,251.54a121.23,121.23,0,0,1-4.792,12.613l-.6-.27a120.942,120.942,0,0,0,4.84-12.523Z" transform="translate(-110.444 -77.547)" fill="#d0a262" stroke="#d0a262" stroke-width="0.5"/>
      <path id="Path_17859" data-name="Path 17859" d="M346.34,287.052a123.254,123.254,0,0,1-7.5,11.216l-.477-.36a121.453,121.453,0,0,0,7.413-11.188Z" transform="translate(-104.388 -88.456)" fill="#d0a262" stroke="#d0a262" stroke-width="0.5"/>
      <path id="Path_17860" data-name="Path 17860" d="M321.991,318.18a121.607,121.607,0,0,1-9.764,9.3l-.3-.346a121.83,121.83,0,0,0,9.681-9.314Z" transform="translate(-96.234 -98.051)" fill="#d0a262" stroke="#d0a262" stroke-width="0.5"/>
      <path id="Path_17861" data-name="Path 17861" d="M291.643,343.466a115.6,115.6,0,0,1-11.555,6.915l-.138-.263a130.238,130.238,0,0,0,11.472-7Z" transform="translate(-86.368 -105.856)" fill="#d0a262" stroke="#d0a262" stroke-width="0.5"/>
      <path id="Path_17862" data-name="Path 17862" d="M259.443,361.65l-6.673,2.372,6.638-2.462Z" transform="translate(-77.982 -111.545)" fill="#d0a262" stroke="#d0a262" stroke-width="0.5"/>
      <path id="Path_17863" data-name="Path 17863" d="M55.16,247.736l14.985-.166,14.978-.1,29.962-.083,29.955.076,14.978.1,14.985.166-14.985.166-14.978.1-29.955.083L85.122,248l-14.978-.1Z" transform="translate(-17.017 -76.322)" fill="#d0a262" stroke="#d0a262" stroke-width="0.5"/>
      <path id="Path_17864" data-name="Path 17864" d="M48.64,168.636l24.313-.166,24.32-.062,48.632-.118,48.632.118,24.313.062,24.32.166-24.32.173-24.313.055-48.632.118-48.632-.118-24.32-.062Z" transform="translate(-15.006 -51.919)" fill="#d0a262" stroke="#d0a262" stroke-width="0.5"/>
      <path id="Path_17865" data-name="Path 17865" d="M112.88,161.546l13.484-.166,13.484-.1,26.975-.083,26.975.076,13.491.1,13.484.166-13.484.166-13.491.1-26.975.083-26.975-.083-13.484-.1Z" transform="translate(-34.825 -49.732)" fill="#d0a262" stroke="#d0a262" stroke-width="0.5"/>
      <path id="Path_17866" data-name="Path 17866" d="M146.55,54.47c.436,1.3.864,2.614,1.259,3.928s.8,2.635,1.169,3.955c.761,2.641,1.466,5.3,2.151,7.966l-.415-.221c1.424-.47,2.863-.9,4.294-1.341s2.877-.851,4.322-1.245c-1.383.574-2.766,1.127-4.19,1.646s-2.807,1.051-4.218,1.542l-.318.111-.09-.325q-1.12-3.976-2.123-7.973c-.346-1.328-.643-2.676-.961-4.011S146.82,55.818,146.55,54.47Z" transform="translate(-45.212 -16.805)" fill="#d0a262" stroke="#d0a262" stroke-width="0.5"/>
      <path id="Path_17867" data-name="Path 17867" d="M238.869,65.587a9.2,9.2,0,0,1-1.653,5.49,6.555,6.555,0,0,1-2.185,1.943,6.383,6.383,0,0,1-2.856.691,10.843,10.843,0,0,1-2.939-.339A6.507,6.507,0,0,1,226.581,72a8.1,8.1,0,0,1-2.3-5.449,8.464,8.464,0,0,1,.27-2.994,6.756,6.756,0,0,1,1.487-2.628,7.876,7.876,0,0,1,5.359-2.365,8.664,8.664,0,0,1,2.925.3,6.161,6.161,0,0,1,2.538,1.445,6.092,6.092,0,0,1,1.563,2.441,8.4,8.4,0,0,1,.443,2.835Zm0,0a8.512,8.512,0,0,0-.491-2.849,5.975,5.975,0,0,0-1.584-2.379,6.915,6.915,0,0,0-5.366-1.5,7.5,7.5,0,0,0-4.944,2.413,6,6,0,0,0-1.307,2.427,7.876,7.876,0,0,0-.207,2.766,7.5,7.5,0,0,0,2.019,5.069,6.223,6.223,0,0,0,2.372,1.383,10.821,10.821,0,0,0,2.8.449,5.94,5.94,0,0,0,4.958-2.393,9.1,9.1,0,0,0,1.749-5.387Z" transform="translate(-69.184 -18.061)" fill="#d0a262" stroke="#d0a262" stroke-width="0.5"/>
      <path id="Path_17868" data-name="Path 17868" d="M195.225,65.507a6.14,6.14,0,0,1-3.554,2.552,7.489,7.489,0,0,1-2.247.18c-.373,0-.747-.076-1.12-.1a5.742,5.742,0,0,1-1.113-.249,6.687,6.687,0,0,1-2.074-1.01,6.784,6.784,0,0,1-1.563-1.7,9.916,9.916,0,0,1-1.113-6.624,7.281,7.281,0,0,1,.837-2.151,6.991,6.991,0,0,1,3.5-2.856,8.1,8.1,0,0,1,2.2-.526,9.052,9.052,0,0,1,2.247,0,6.223,6.223,0,0,1,3.941,2.04,6.334,6.334,0,0,0-3.935-1.666,8.8,8.8,0,0,0-4.2.691,6.756,6.756,0,0,0-3.16,2.69,6.824,6.824,0,0,0-.733,1.957,10.179,10.179,0,0,0,1.03,6.12,6.064,6.064,0,0,0,1.383,1.556,7.3,7.3,0,0,0,1.853.975,10.374,10.374,0,0,0,1.037.277c.353.041.691.131,1.065.145a7.42,7.42,0,0,0,2.144-.069A6.223,6.223,0,0,0,195.225,65.507Z" transform="translate(-56.236 -16.335)" fill="#d0a262" stroke="#d0a262" stroke-width="0.5"/>
      <path id="Path_17869" data-name="Path 17869" d="M299.462,124.559c-2.24-2.413-4.4-4.882-6.569-7.351l-.173-.2.194-.187,5.871-5.622,5.954-5.532.235-.207.187.242c2,2.593,4.011,5.193,5.94,7.848-2.178-2.462-4.28-4.979-6.382-7.5h.415l-5.871,5.622-5.954,5.532v-.394C295.4,119.394,297.464,121.945,299.462,124.559Z" transform="translate(-90.307 -32.536)" fill="#d0a262" stroke="#d0a262" stroke-width="0.5"/>
      <path id="Path_17870" data-name="Path 17870" d="M308.312,121.854a32.877,32.877,0,0,1-3.506-3.644,32,32,0,0,1-2.966-4.08,36.883,36.883,0,0,1,6.472,7.724Z" transform="translate(-93.121 -35.21)" fill="#d0a262" stroke="#d0a262" stroke-width="0.5"/>
      <path id="Path_17871" data-name="Path 17871" d="M260.69,88.53l1.909-2.911,1.922-2.9,3.9-5.76.47-.691.055.844.691,10.981-.443-.311,10.082-3,.809-.242-.491.691-4,5.532c-1.383,1.839-2.69,3.679-4.059,5.532,1.238-1.915,2.5-3.8,3.762-5.7l3.824-5.656.318.436L269.4,88.482l-.422.131v-.436l-.615-10.988.526.152-4.066,5.636-2.074,2.807Z" transform="translate(-80.426 -23.53)" fill="#d0a262" stroke="#d0a262" stroke-width="0.5"/>
      <path id="Path_17872" data-name="Path 17872" d="M73.576,105c3.423,2.932,6.777,5.926,10.137,8.92l.546.491h-.74l-11.237.1.339-.408,1.922,10.372.152.83-.629-.56-5.082-4.564-2.524-2.3-2.51-2.316,2.641,2.164,2.635,2.178,5.221,4.4-.47.27-2.033-10.324-.076-.408H83.54l-.194.5C80.055,111.223,76.784,108.16,73.576,105Z" transform="translate(-19.729 -32.394)" fill="#d0a262" stroke="#d0a262" stroke-width="0.5"/>
      <path id="Path_17873" data-name="Path 17873" d="M117.719,84.458c-2.406,2.234-4.84,4.4-7.344,6.562l-.2.18-.187-.2-5.622-5.871-5.532-5.954-.214-.228.242-.187c2.6-2.005,5.193-4.011,7.848-5.94-2.455,2.171-4.979,4.28-7.5,6.382v-.415l5.615,5.871,5.532,5.954h-.387C112.56,88.524,115.112,86.456,117.719,84.458Z" transform="translate(-30.425 -22.466)" fill="#d0a262" stroke="#d0a262" stroke-width="0.5"/>
      <path id="Path_17874" data-name="Path 17874" d="M115.014,80.92a32.758,32.758,0,0,1-3.637,3.513,32.314,32.314,0,0,1-4.087,2.973,32.229,32.229,0,0,1,3.644-3.5A32.748,32.748,0,0,1,115.014,80.92Z" transform="translate(-33.1 -24.965)" fill="#d0a262" stroke="#d0a262" stroke-width="0.5"/>
      <path id="Path_17875" data-name="Path 17875" d="M210.307,121.349a9.2,9.2,0,0,1-1.666,5.49,6.7,6.7,0,0,1-2.185,1.943,6.41,6.41,0,0,1-2.856.691,10.925,10.925,0,0,1-2.946-.339,6.486,6.486,0,0,1-2.635-1.438,8.146,8.146,0,0,1-2.3-5.449,8.63,8.63,0,0,1,.277-2.994,6.756,6.756,0,0,1,1.487-2.628,7.862,7.862,0,0,1,5.359-2.365,8.7,8.7,0,0,1,2.925.3,6.223,6.223,0,0,1,2.538,1.445,6.092,6.092,0,0,1,1.563,2.441A8.755,8.755,0,0,1,210.307,121.349Zm0,0a8.512,8.512,0,0,0-.491-2.849,5.975,5.975,0,0,0-1.584-2.379,6.915,6.915,0,0,0-5.366-1.48,7.517,7.517,0,0,0-4.951,2.413,6.175,6.175,0,0,0-1.321,2.413,7.875,7.875,0,0,0-.2,2.766,7.5,7.5,0,0,0,2.019,5.069,6.224,6.224,0,0,0,2.365,1.418,10.926,10.926,0,0,0,2.807.449,5.94,5.94,0,0,0,4.958-2.393A9.148,9.148,0,0,0,210.307,121.349Z" transform="translate(-60.372 -35.245)" fill="#d0a262" stroke="#d0a262" stroke-width="0.5"/>
      <path id="Path_17876" data-name="Path 17876" d="M167.05,114.606a76.755,76.755,0,0,1,14.521,0,76.755,76.755,0,0,1-14.521,0Z" transform="translate(-51.537 -35.251)" fill="#d0a262" stroke="#d0a262" stroke-width="0.5"/>
      <path id="Path_17877" data-name="Path 17877" d="M177.425,129.337a67.76,67.76,0,0,1-.346-7.288,65.933,65.933,0,0,1,.346-7.288,76.989,76.989,0,0,1,0,14.577Z" transform="translate(-54.63 -35.405)" fill="#d0a262" stroke="#d0a262" stroke-width="0.5"/>
      <path id="Path_17878" data-name="Path 17878" d="M81.14,133.374a88.558,88.558,0,0,1,14.037-18.449A87.8,87.8,0,0,1,123.75,95.2c1.8-.691,3.589-1.487,5.435-2.074s3.7-1.176,5.532-1.722a85.358,85.358,0,0,1,23.013-2.766l-2.9.124c-.968.048-1.936.055-2.9.173-1.922.18-3.852.318-5.753.643a85.561,85.561,0,0,0-11.327,2.358A96.015,96.015,0,0,0,124,95.8a93.62,93.62,0,0,0-10.269,5.311A96.809,96.809,0,0,0,95.564,115.3a98.245,98.245,0,0,0-7.745,8.609,82.147,82.147,0,0,0-6.68,9.467Z" transform="translate(-25.033 -27.341)" fill="#d0a262" stroke="#d0a262" stroke-width="0.5"/>
      <path id="Path_17879" data-name="Path 17879" d="M270.11,133.374a81.252,81.252,0,0,0-6.666-9.466A100.516,100.516,0,0,0,255.7,115.3a96.643,96.643,0,0,0-18.179-14.217A93.518,93.518,0,0,0,227.259,95.8a95.649,95.649,0,0,0-10.891-3.872,85.225,85.225,0,0,0-11.32-2.351c-1.909-.325-3.831-.463-5.76-.643-.961-.118-1.922-.124-2.89-.173l-2.9-.124A85.385,85.385,0,0,1,216.513,91.4c1.86.546,3.741,1.037,5.532,1.722s3.637,1.383,5.435,2.074a88.183,88.183,0,0,1,28.6,19.728A88.089,88.089,0,0,1,270.11,133.374Z" transform="translate(-59.697 -27.341)" fill="#d0a262" stroke="#d0a262" stroke-width="0.5"/>
      <path id="Path_17880" data-name="Path 17880" d="M270.126,291.74a88.09,88.09,0,0,1-14.03,18.449A94.6,94.6,0,0,1,237.9,324.627a92.572,92.572,0,0,1-10.372,5.29c-1.8.726-3.589,1.487-5.435,2.074s-3.7,1.176-5.532,1.722a85.386,85.386,0,0,1-23.013,2.766l2.9-.124c.968-.048,1.929-.055,2.89-.173,1.929-.18,3.852-.318,5.76-.643a85.226,85.226,0,0,0,11.32-2.358,95.636,95.636,0,0,0,10.891-3.872A94.683,94.683,0,0,0,237.57,324a96.96,96.96,0,0,0,18.179-14.224,100.494,100.494,0,0,0,7.745-8.609,81.251,81.251,0,0,0,6.631-9.432Z" transform="translate(-59.712 -90.005)" fill="#d0a262" stroke="#d0a262" stroke-width="0.5"/>
      <path id="Path_17881" data-name="Path 17881" d="M81.14,291.74a82.144,82.144,0,0,0,6.673,9.466,98.234,98.234,0,0,0,7.752,8.609,97.139,97.139,0,0,0,18.172,14.224,94.792,94.792,0,0,0,10.269,5.3,96.013,96.013,0,0,0,10.884,3.872,85.562,85.562,0,0,0,11.327,2.358c1.9.325,3.831.463,5.753.643.961.118,1.929.124,2.9.173l2.9.124a85.358,85.358,0,0,1-23.013-2.766c-1.86-.546-3.741-1.037-5.532-1.722s-3.637-1.383-5.435-2.074a92.583,92.583,0,0,1-10.372-5.29,94.636,94.636,0,0,1-18.2-14.438A88.559,88.559,0,0,1,81.14,291.74Z" transform="translate(-25.033 -90.005)" fill="#d0a262" stroke="#d0a262" stroke-width="0.5"/>
      <path id="Path_17882" data-name="Path 17882" d="M74.65,256.766l86.526-.18,86.533-.069.823-.007-.685.463L164.44,313.122l-2.2,1.48L164,312.624l44.435-49.656.366.463L122.992,308.51l-1.051.553.8-.878,39.629-43.571.1.2-52.138,4.412,52.118-4.654.311-.028-.207.235-39.5,43.681-.249-.325L208.522,262.9l1.48-.781-1.113,1.252-44.387,49.7-.436-.5,83.5-56.011.138.456-86.533-.069Z" transform="translate(-23.03 -79.136)" fill="#d0a262" stroke="#d0a262" stroke-width="0.5"/>
      <path id="Path_17883" data-name="Path 17883" d="M265.545,348a118.675,118.675,0,0,1-11.32,7.606l-2.953,1.708-3.036,1.556c-2.005,1.079-4.094,1.978-6.168,2.911a124.806,124.806,0,0,1-26.055,8.007,150.253,150.253,0,0,1-27.141,2.559c-2.275.083-4.55-.042-6.818-.09l-3.409-.1-3.4-.242-3.4-.263c-.567-.048-1.134-.083-1.7-.138l-1.694-.2-6.763-.8,6.784.629,1.694.159c.56.042,1.134.062,1.694.1l3.4.173,3.4.194,3.4.048c2.268,0,4.536.111,6.8,0a155.985,155.985,0,0,0,27.017-2.711,128.084,128.084,0,0,0,25.979-7.814c2.074-.906,4.149-1.763,6.182-2.814l3.063-1.563,2.966-1.66A118.293,118.293,0,0,0,265.545,348Z" transform="translate(-49.883 -107.362)" fill="#d0a262" stroke="#d0a262" stroke-width="0.5"/>
      <path id="Path_17884" data-name="Path 17884" d="M150.46,13.462a6.611,6.611,0,0,1,1.756-.871c.615-.235,1.252-.415,1.888-.6,1.279-.346,2.572-.622,3.872-.871,2.607-.484,5.228-.83,7.862-1.1A141.246,141.246,0,0,1,181.7,9.466a149.858,149.858,0,0,1,15.842,1.169A151.617,151.617,0,0,1,213.178,13.4a134.459,134.459,0,0,1,29.831,10.773,119.037,119.037,0,0,1,13.65,8.111,116.122,116.122,0,0,1,12.419,9.9,115.291,115.291,0,0,0-12.571-9.632A119.218,119.218,0,0,0,242.8,24.644a136.583,136.583,0,0,0-29.734-10.573,157.361,157.361,0,0,0-31.338-4.094,141.981,141.981,0,0,0-15.814.36c-2.635.207-5.262.5-7.862.927-1.307.221-2.6.47-3.879.788-.643.166-1.279.339-1.9.553a6.8,6.8,0,0,0-1.812.857Z" transform="translate(-46.418 -2.91)" fill="#d0a262" stroke="#d0a262" stroke-width="0.5"/>
    </g>
  </g>
</svg>
