<svg xmlns="http://www.w3.org/2000/svg" width="238.695" height="238.84" viewBox="0 0 238.695 238.84">
  <g id="Layer_2" data-name="Layer 2" transform="translate(0.002 47.637) rotate(-14)">
    <g id="Drawing" transform="translate(0 -0.01)">
      <path id="Path_17813" data-name="Path 17813" d="M34.718,36.556a1.73,1.73,0,1,0,1.729,1.73,1.73,1.73,0,0,0-1.729-1.73Zm.624,2.951a.346.346,0,0,1-.262.164.272.272,0,0,1-.167-.035.572.572,0,0,1,.1-.123.532.532,0,0,1,.1-.081.6.6,0,0,1,.116-.054.612.612,0,0,1,.156-.037.274.274,0,0,1-.044.166Zm.26-.448a3.133,3.133,0,0,0,.192-.514,1.521,1.521,0,0,0,.047-.512,1.182,1.182,0,0,0-.151-.48,1.127,1.127,0,0,0-.365-.386.767.767,0,0,1,.5.288,1.034,1.034,0,0,1,.23.559,1.2,1.2,0,0,1-.1.588,1.181,1.181,0,0,1-.354.456Z" transform="translate(46.963 52.066)" fill="#d0a262"/>
      <path id="Path_17814" data-name="Path 17814" d="M33.186,50.494l-6.493-.03a.024.024,0,0,1-.024-.024l-.175-10.816.215.194c-1.719.159-3.436.111-5.141.114l-5.11.026.335-.345.012,6.923L16.785,50a19.243,19.243,0,0,0,.11,3.371l-.474-.4c2.342-.094,4.643.068,6.9-.052a.514.514,0,0,1,.541.486v.024c.04,2.829-.057,5.639.051,8.423l-.565-.522c1.135-.052,2.267-.038,3.4.021l-.582.536c.071-2.8-.045-5.615-.052-8.453a.577.577,0,0,1,.575-.578H26.7l27.294.024q13.647.011,27.3.166l-.379.374.115-3.647a35.8,35.8,0,0,0,.024-3.605.321.321,0,0,1,.27-.344,15.281,15.281,0,0,1,3,.05,19.948,19.948,0,0,0,2.91-.045.226.226,0,0,1,.253.2v.035c-.077,2.444.056,4.91-.074,7.375l-.109-.113,22.748.062L87.3,53.541a.109.109,0,0,1-.109-.108v-.006c.048-2.452-.164-4.9-.167-7.374l.253.231a20.339,20.339,0,0,1-2.981.144,16.9,16.9,0,0,0-2.889.021l.269-.343a36.107,36.107,0,0,1,.045,3.682l-.048,3.646a.384.384,0,0,1-.38.374q-13.649.152-27.3.172l-27.3.029.582-.578c-.011,2.808.089,5.638,0,8.483a.551.551,0,0,1-.564.538h-.019c-1.1-.064-2.2-.084-3.287-.04a.541.541,0,0,1-.565-.514V61.89c-.092-2.839.023-5.655,0-8.451l.541.509c-2.347.121-4.657-.113-6.924-.052a.47.47,0,0,1-.475-.4,20.042,20.042,0,0,1-.056-3.527L16,46.523l.114-6.9V39.61a.335.335,0,0,1,.336-.33c1.712,0,3.421.029,5.129.086s3.406.154,5.094.053h.013a.192.192,0,0,1,.2.18v.015l-.175,10.827-.024-.024Z" transform="translate(22.589 55.946)" fill="#d0a262"/>
      <path id="Path_17815" data-name="Path 17815" d="M99.873,53.531l16.247-.053a.121.121,0,0,1,.115.121c.02,2.194.064,4.387.158,6.565l.007,3.289-.008,1.642a3.643,3.643,0,0,0,.007.391c-.034.121.144.318-.2.584a2.351,2.351,0,0,1-.907.052l-13.16.131.33-.307.043,2.837-.315-.315,17.347-.041-.357.353-.022-5.157c0-1.7-.047-3.462.037-5.174a14.418,14.418,0,0,0-.022-2.557c-.017-.435-.074-.839-.059-1.3l.008-.677a1.4,1.4,0,0,1,.041-.41.5.5,0,0,1,.24-.3.554.554,0,0,1,.252-.061l.182,0,5.154-.048-.411.425-.073-2.834.422.407-5.42-.047a.425.425,0,0,1-.422-.429v-.016l.052-7.531.468.447-3.531.033.462-.485.149,3.766c-.08,1.272-.082,2.494-.046,3.713a.486.486,0,0,1-.471.5h-.03l-3.66.091h-.036a.5.5,0,0,1-.509-.485v-.022c.051-2.488.046-5.034.021-7.61l.47.556-3.312.039.472-.526c.042,2.508.12,5.017.075,7.524v.018a.539.539,0,0,1-.479.526,29.312,29.312,0,0,1-4.493.052c-1.47-.085-2.906-.076-4.39-.022-1.484.018-2.914.116-4.442.069a27.4,27.4,0,0,0-4.31-.151.575.575,0,0,1-.644-.5l0-.078.048-7.48a.591.591,0,0,1,.6-.587h.032l3.505.087,1.753.008a8.589,8.589,0,0,0,1.617-.032l-.442.485.052-3.118.641.569a18.262,18.262,0,0,1-2.734-.105c-.808-.021-1.726.078-2.638.026l-2.649-.046-1.32-.024-.691-.025a1.526,1.526,0,0,0-.232,0c-.018,0-.029.02.077-.04.175-.137.17-.253.167-.224.012.684.011,1.775-.033,2.574-.034.854.021,1.715.054,2.615l.046,5.3v.026a.527.527,0,0,1-.523.533h-.011l-7.745-.089a.513.513,0,0,1-.5-.468c-.194-2.632.325-5.162,0-7.584l.482.422L67.88,43.3l.456-.467L68.287,50.5a.422.422,0,0,1-.418.413l-8.551.1c-2.849.067-5.7.007-8.555-.066a.394.394,0,0,1-.383-.388l-.061-7.758.387.367-3.46.037.368-.356-.054,7.8v.018a.327.327,0,0,1-.33.325h0l-9.182-.121a.308.308,0,0,1-.3-.313l.074-7.787.3.284-3.484.078.254-.26.083,7.6a.211.211,0,0,1-.2.215l-4.76.066a.167.167,0,0,1-.173-.16v-.008l.087-7.8.117.11-3.23.177.081-.087-.06,7.765a.029.029,0,0,1-.029.028h0l-3.79-.131,3.792.074-.029.028-.057-7.762a.088.088,0,0,1,.081-.088l3.228-.226a.11.11,0,0,1,.118.1v.008l.03,7.8L30,50.407l4.757-.138-.2.214-.2-7.623a.264.264,0,0,1,.255-.261l3.483-.13a.284.284,0,0,1,.3.27v.014l-.015,7.786-.3-.312,9.121.073-.331.343.013-7.813a.357.357,0,0,1,.351-.357h.017l3.417-.054a.372.372,0,0,1,.388.357v.01l.1,7.759-.383-.388c2.841.059,5.681.1,8.526.022l8.531-.139-.418.413.009-7.6a.466.466,0,0,1,.456-.467l12.569,0a.487.487,0,0,1,.482.422c.355,2.64-.16,5.195.046,7.634l-.5-.467,7.752.048-.533.557-.075-5.319c-.035-.867-.1-1.775-.068-2.69.05-.967.016-1.651.035-2.731a.734.734,0,0,1,.314-.509.891.891,0,0,1,.392-.135,2.484,2.484,0,0,1,.431-.01c.247.018.374.018.634.021l1.333.017,2.659.032c.858.047,1.706-.056,2.666-.04a18.167,18.167,0,0,0,2.563.1l.015,0a.567.567,0,0,1,.624.5l0,.069-.048,3.311a.493.493,0,0,1-.385.474l-.057.012a8.612,8.612,0,0,1-1.9.075H95.068l-3.54-.079.626-.587-.085,7.433-.648-.573a27.858,27.858,0,0,1,4.5.168c1.413.051,2.926-.037,4.384-.048,1.459-.048,2.966-.047,4.435.046a28.379,28.379,0,0,0,4.326-.024l-.479.544c.058-2.508-.007-5.017-.037-7.525v-.045a.476.476,0,0,1,.47-.481h0l3.484-.017a.467.467,0,0,1,.47.465v.091c.019,2.477.008,4.984-.056,7.549l-.544-.5,3.805-.077-.5.5c-.032-1.276-.02-2.547.064-3.763l-.129-3.71a.465.465,0,0,1,.444-.485h.018l3.5-.015h.024a.443.443,0,0,1,.444.441v.008l-.09,7.565-.421-.445,5.388.073h.013a.417.417,0,0,1,.41.408l.058,2.836a.412.412,0,0,1-.4.425h-.01l-5.174.021-.141,0s0,.011.095-.031a.346.346,0,0,0,.152-.169,2.243,2.243,0,0,0-.009.231l-.009.614c-.019.4.037.855.052,1.28a14.852,14.852,0,0,1,.009,2.6c-.092,1.726-.051,3.412-.063,5.152l0,5.172a.353.353,0,0,1-.354.353h0L102.193,69.1a.318.318,0,0,1-.315-.315l-.028-2.836a.3.3,0,0,1,.3-.307h.032c2.174-.043,4.356.013,6.54.03l6.572.016a2.887,2.887,0,0,0,.723,0c-.048.17-.039-.4-.037-.6l.033-1.642.042-3.279c-.062-2.2-.073-4.384-.06-6.57l.114.121Z" transform="translate(32.762 55.8)" fill="#d0a262"/>
      <path id="Path_17816" data-name="Path 17816" d="M17.724,41.043a12.344,12.344,0,0,1,2.778-.374c.236-.006.471.006.707.017l.177.01a.48.48,0,0,1,.428.38l.04.357.153,1.444c.1,1.84.1,3.676.107,5.513v.019a.594.594,0,0,1-.589.595l-2.787.023-.7-.009-.178,0a.674.674,0,0,1-.674-.472,1.683,1.683,0,0,1-.024-.5c.011-.49.037-.98.073-1.464C17.352,44.631,17.521,42.742,17.724,41.043Zm0,0c.188,2.029.343,3.868.442,5.653.033.448.055.89.063,1.333,0,.048.018.362,0,.19a.418.418,0,0,0-.411-.3l.172-.008.7-.035,2.805-.082-.588.614c.027-1.849.055-3.7.179-5.544l.02-1.317.006-.333c0,.066.148.2.192.175l-.167-.03-.67-.1a18.419,18.419,0,0,0-2.74-.212Z" transform="translate(24.423 57.919)" fill="#d0a262"/>
      <path id="Path_17817" data-name="Path 17817" d="M62.556,41.274a30.622,30.622,0,0,1,.053,14.114,54.761,54.761,0,0,1-.413-7.055,55.828,55.828,0,0,1,.36-7.059Z" transform="translate(88.539 58.783)" fill="#d0a262"/>
      <path id="Path_17818" data-name="Path 17818" d="M62.824,47.72a11.888,11.888,0,0,1,.535,3.92,11.744,11.744,0,0,1-.676,3.9,11.738,11.738,0,0,1-.535-3.92,11.89,11.89,0,0,1,.676-3.9Z" transform="translate(88.466 67.96)" fill="#d0a262"/>
      <path id="Path_17819" data-name="Path 17819" d="M62.376,46.691a2.286,2.286,0,0,1,.566,1.567,2.258,2.258,0,0,1-.645,1.536,2.261,2.261,0,0,1-.566-1.567,2.287,2.287,0,0,1,.645-1.536Z" transform="translate(87.881 66.496)" fill="#d0a262"/>
      <path id="Path_17820" data-name="Path 17820" d="M59.91,41.77a6.055,6.055,0,0,1,.592,2.754,5.983,5.983,0,0,1-.619,2.748,6.135,6.135,0,0,1-.592-2.754,6.221,6.221,0,0,1,.619-2.748Z" transform="translate(84.407 59.489)" fill="#d0a262"/>
      <path id="Path_17821" data-name="Path 17821" d="M50.931,49.5a29.624,29.624,0,0,1-.9-8.513,2.566,2.566,0,0,1,.088-.682,1.094,1.094,0,0,1,.8-.757,4.7,4.7,0,0,1,1.244.061l2.087.234,4.234.372a19.841,19.841,0,0,1-4.266.56,21.424,21.424,0,0,1-2.157-.022c-.315-.009-.846-.081-.873-.051.01.02.115-.1.079-.048a1.949,1.949,0,0,0-.024.372C51.127,43.839,51.113,46.638,50.931,49.5Z" transform="translate(71.192 56.309)" fill="#d0a262"/>
      <path id="Path_17822" data-name="Path 17822" d="M46.628,41.588a10.168,10.168,0,0,1,.636,3.619,10.039,10.039,0,0,1-.575,3.63,10.281,10.281,0,0,1-.636-3.619,10.407,10.407,0,0,1,.575-3.629Z" transform="translate(65.56 59.23)" fill="#d0a262"/>
      <path id="Path_17823" data-name="Path 17823" d="M42.926,43.393c.472.218.582.438.606.656-.022.218-.131.436-.606.656-.475-.218-.584-.438-.606-.656C42.345,43.831,42.455,43.612,42.926,43.393Z" transform="translate(60.248 61.8)" fill="#d0a262"/>
      <path id="Path_17824" data-name="Path 17824" d="M47.81,45.171a24.5,24.5,0,0,1,10.829.007,21.9,21.9,0,0,1-5.407.6,22.361,22.361,0,0,1-5.422-.609Z" transform="translate(68.064 63.473)" fill="#d0a262"/>
      <path id="Path_17825" data-name="Path 17825" d="M55.189,44.679a11.027,11.027,0,0,1,3.75-.664,10.893,10.893,0,0,1,3.769.547,10.887,10.887,0,0,1-3.75.664,11.028,11.028,0,0,1-3.769-.547Z" transform="translate(78.569 62.677)" fill="#d0a262"/>
      <path id="Path_17826" data-name="Path 17826" d="M34.338,41.275a11.492,11.492,0,0,1,.69,3.829,11.349,11.349,0,0,1-.521,3.855,11.344,11.344,0,0,1-.69-3.829,11.5,11.5,0,0,1,.52-3.855Z" transform="translate(48.134 58.785)" fill="#d0a262"/>
      <path id="Path_17827" data-name="Path 17827" d="M34.153,43.474a2.658,2.658,0,0,1,.557,1.721,2.627,2.627,0,0,1-.653,1.688,2.625,2.625,0,0,1-.557-1.721A2.66,2.66,0,0,1,34.153,43.474Z" transform="translate(47.69 61.916)" fill="#d0a262"/>
      <path id="Path_17828" data-name="Path 17828" d="M29.2,41.77a3.671,3.671,0,0,1,.557,2.079A3.628,3.628,0,0,1,29.1,45.9a3.623,3.623,0,0,1-.557-2.079A3.673,3.673,0,0,1,29.2,41.77Z" transform="translate(40.635 59.489)" fill="#d0a262"/>
      <path id="Path_17829" data-name="Path 17829" d="M25.424,41.295a10.043,10.043,0,0,1,.472,3.6,9.91,9.91,0,0,1-.738,3.555,9.915,9.915,0,0,1-.472-3.6,10.041,10.041,0,0,1,.738-3.555Z" transform="translate(35.124 58.813)" fill="#d0a262"/>
      <path id="Path_17830" data-name="Path 17830" d="M20.344,39.849a4.176,4.176,0,0,1,.587,2.238,4.122,4.122,0,0,1-.624,2.228,4.2,4.2,0,0,1-.587-2.238A4.247,4.247,0,0,1,20.344,39.849Z" transform="translate(28.072 56.754)" fill="#d0a262"/>
      <path id="Path_17831" data-name="Path 17831" d="M17.069,42.553a4.172,4.172,0,0,1,.587,2.238,4.124,4.124,0,0,1-.624,2.228,4.191,4.191,0,0,1-.587-2.238,4.243,4.243,0,0,1,.624-2.228Z" transform="translate(23.41 60.604)" fill="#d0a262"/>
      <path id="Path_17832" data-name="Path 17832" d="M20.3,42.008c.462.233.57.375.588.525-.026.148-.143.283-.622.485-.468-.134-.573-.337-.588-.525C19.708,42.305,19.826,42.11,20.3,42.008Z" transform="translate(28.014 59.828)" fill="#d0a262"/>
      <path id="Path_17833" data-name="Path 17833" d="M26.623,45.122a15.456,15.456,0,0,1,4.467-.654,15.251,15.251,0,0,1,4.48.557,15.177,15.177,0,0,1-4.467.654,15.364,15.364,0,0,1-4.48-.557Z" transform="translate(37.901 63.323)" fill="#d0a262"/>
      <path id="Path_17834" data-name="Path 17834" d="M20.3,45.8a5.553,5.553,0,0,1,.557,2.618,5.483,5.483,0,0,1-.654,2.594,5.489,5.489,0,0,1-.557-2.618A5.558,5.558,0,0,1,20.3,45.8Z" transform="translate(27.966 65.225)" fill="#d0a262"/>
      <path id="Path_17835" data-name="Path 17835" d="M41.925,41.435A3.909,3.909,0,0,1,43.8,40.82a3.849,3.849,0,0,1,1.944.359,2.759,2.759,0,0,1-1.863.848,2.788,2.788,0,0,1-1.959-.593Z" transform="translate(59.687 58.121)" fill="#d0a262"/>
      <path id="Path_17836" data-name="Path 17836" d="M13.215,147.5A97.5,97.5,0,0,1,1.024,112.464c-.428-3.082-.768-6.18-.9-9.292-.1-1.554-.1-3.112-.127-4.668l.218-4.666.218-4.668c.108-1.553.424-3.085.626-4.629a65.571,65.571,0,0,1,1.721-9.179,98.419,98.419,0,0,1,191.278-.354,100.052,100.052,0,0,1,1.87,37.2,98.219,98.219,0,0,1-171.2,51.333,97.864,97.864,0,0,0,170.2-51.47,98.994,98.994,0,0,0-1.949-36.794A97.63,97.63,0,0,0,3.356,75.5a65.048,65.048,0,0,0-1.784,9.113c-.215,1.535-.542,3.057-.661,4.6L.659,93.859.405,98.5c.019,1.55,0,3.1.091,4.651.1,3.1.418,6.192.821,9.267a97.344,97.344,0,0,0,11.9,35.078Z" transform="translate(0 0.01)" fill="#d0a262"/>
      <path id="Path_17837" data-name="Path 17837" d="M22.146,11.133l4.411-2.542.07.133Z" transform="translate(31.528 12.254)" fill="#d0a262"/>
      <path id="Path_17838" data-name="Path 17838" d="M27.651,8.7,37.023,5.58l.17.659L27.811,9.114Z" transform="translate(39.365 7.968)" fill="#d0a262"/>
      <path id="Path_17839" data-name="Path 17839" d="M35.514,5.284l9.857-.9L45.4,5.393l-9.767.73Z" transform="translate(50.559 6.26)" fill="#d0a262"/>
      <path id="Path_17840" data-name="Path 17840" d="M43.72,4.485,53.54,5.85l-.223,1.108-9.687-1.4Z" transform="translate(62.113 6.409)" fill="#d0a262"/>
      <path id="Path_17841" data-name="Path 17841" d="M51.895,6.067l9.253,3.565-.49,1.081L51.531,7.194Z" transform="translate(73.362 8.661)" fill="#d0a262"/>
      <path id="Path_17842" data-name="Path 17842" d="M59.46,9.441,67.652,15,67,15.856,58.881,10.41Z" transform="translate(83.825 13.465)" fill="#d0a262"/>
      <path id="Path_17843" data-name="Path 17843" d="M66.015,14.393l6.716,7.273-.65.548L65.315,15.13Z" transform="translate(92.985 20.514)" fill="#d0a262"/>
      <path id="Path_17844" data-name="Path 17844" d="M71.127,20.683l4.893,8.582-.4.206-5.065-8.41Z" transform="translate(100.448 29.469)" fill="#d0a262"/>
      <path id="Path_17845" data-name="Path 17845" d="M74.486,27.963l1.585,4.84-1.728-4.787Z" transform="translate(105.838 39.833)" fill="#d0a262"/>
      <path id="Path_17846" data-name="Path 17846" d="M10.793,61.428l-2.529-4.42a.121.121,0,0,1,.211-.121l.006.011Z" transform="translate(11.742 80.924)" fill="#d0a262"/>
      <path id="Path_17847" data-name="Path 17847" d="M8.336,59.094l-3.02-9.435a.465.465,0,1,1,.885-.283l0,.01.015.053,2.742,9.425.011.036a.332.332,0,1,1-.636.194Z" transform="translate(7.537 69.858)" fill="#d0a262"/>
      <path id="Path_17848" data-name="Path 17848" d="M4.962,51.465l-.737-9.9a.583.583,0,1,1,1.162-.087v.005l0,.065.64,9.776,0,.061a.539.539,0,0,1-1.075.075Z" transform="translate(6.013 58.312)" fill="#d0a262"/>
      <path id="Path_17849" data-name="Path 17849" d="M4.4,43.135l1.571-9.8a.54.54,0,1,1,1.066.166l-.008.061L5.564,43.249l-.01.065A.584.584,0,1,1,4.4,43.141Z" transform="translate(6.253 46.825)" fill="#d0a262"/>
      <path id="Path_17850" data-name="Path 17850" d="M6.178,34.615l3.815-9.147a.333.333,0,0,1,.619.248l-.014.036L7.063,34.913l-.019.048a.467.467,0,1,1-.871-.336Z" transform="translate(8.744 35.993)" fill="#d0a262"/>
      <path id="Path_17851" data-name="Path 17851" d="M9.756,24.266l2.893-4.191L9.964,24.394a.122.122,0,0,1-.215-.117Z" transform="translate(13.858 28.604)" fill="#d0a262"/>
      <path id="Path_17852" data-name="Path 17852" d="M43.567,76.985l-5.1.027.019-.347Z" transform="translate(54.765 109.167)" fill="#d0a262"/>
      <path id="Path_17853" data-name="Path 17853" d="M40.347,78.665A78.906,78.906,0,0,1,28.926,75.75l.365-1.076a96.676,96.676,0,0,0,11.231,3.1Z" transform="translate(41.18 106.333)" fill="#d0a262"/>
      <path id="Path_17854" data-name="Path 17854" d="M30.377,77.242a79.868,79.868,0,0,1-10.12-6.04l.515-.76a97.248,97.248,0,0,0,10.112,5.781Z" transform="translate(28.839 100.309)" fill="#d0a262"/>
      <path id="Path_17855" data-name="Path 17855" d="M18.6,69.809l-3.58-3.628,3.812,3.366Z" transform="translate(21.387 94.242)" fill="#d0a262"/>
      <path id="Path_17856" data-name="Path 17856" d="M75.056,29.96l1.459,4.879-.172.044Z" transform="translate(106.853 42.676)" fill="#d0a262"/>
      <path id="Path_17857" data-name="Path 17857" d="M76.771,35.889l.86,9.668-.742.017-.628-9.617Z" transform="translate(108.57 51.117)" fill="#d0a262"/>
      <path id="Path_17858" data-name="Path 17858" d="M78.122,43.937l-1.328,9.641-1.032-.208,1.432-9.515Z" transform="translate(107.856 62.458)" fill="#d0a262"/>
      <path id="Path_17859" data-name="Path 17859" d="M77.851,51.959,74.4,61.064l-1.076-.482,3.468-8.965Z" transform="translate(104.38 73.508)" fill="#d0a262"/>
      <path id="Path_17860" data-name="Path 17860" d="M75.628,59.437l-5.422,8.083-.894-.669,5.3-8.013Z" transform="translate(98.675 83.788)" fill="#d0a262"/>
      <path id="Path_17861" data-name="Path 17861" d="M71.6,65.915,64.532,72.6l-.608-.71,6.907-6.7Z" transform="translate(91.005 92.835)" fill="#d0a262"/>
      <path id="Path_17862" data-name="Path 17862" d="M66.025,71.017l-8.366,4.927-.242-.456L65.605,70.4Z" transform="translate(81.74 100.254)" fill="#d0a262"/>
      <path id="Path_17863" data-name="Path 17863" d="M56.695,74.4l-4.816,1.658,4.75-1.823Z" transform="translate(73.857 105.705)" fill="#d0a262"/>
      <path id="Path_17864" data-name="Path 17864" d="M11.36,51.3q10.766-.333,21.531-.464L54.423,50.7l21.532.139q10.766.121,21.531.466-10.766.337-21.531.466l-21.532.139-21.531-.142Q22.125,51.644,11.36,51.3Z" transform="translate(16.173 72.197)" fill="#d0a262"/>
      <path id="Path_17865" data-name="Path 17865" d="M10.021,35.082q17.476-.333,34.952-.464l34.952-.141,34.952.139q17.476.121,34.952.466-17.474.336-34.952.466l-34.952.139-34.952-.142Q27.5,35.425,10.021,35.082Z" transform="translate(14.266 49.107)" fill="#d0a262"/>
      <path id="Path_17866" data-name="Path 17866" d="M23.194,33.628q9.693-.333,19.386-.464l19.386-.142,19.386.139q9.693.122,19.386.466-9.693.336-19.386.466l-19.386.139L42.58,34.092Q32.887,33.971,23.194,33.628Z" transform="translate(33.019 47.036)" fill="#d0a262"/>
      <path id="Path_17867" data-name="Path 17867" d="M30.1,11.285A56.936,56.936,0,0,1,32.15,16.87c.593,1.886,1.1,3.8,1.554,5.72l-.719-.384a57.307,57.307,0,0,1,6.3-1.545,57.33,57.33,0,0,1-5.938,2.6l-.542.207-.177-.591c-.568-1.893-1.084-3.8-1.513-5.73A56.762,56.762,0,0,1,30.1,11.285Z" transform="translate(42.849 16.089)" fill="#d0a262"/>
      <path id="Path_17868" data-name="Path 17868" d="M56.753,17.311a6.974,6.974,0,0,1-1.16,3.975,4.629,4.629,0,0,1-3.66,2.068,5.85,5.85,0,0,1-4.221-1.235,5.935,5.935,0,0,1-1.8-4.112,5.385,5.385,0,0,1,1.392-4.276,5.877,5.877,0,0,1,4.067-1.671,4.874,4.874,0,0,1,5.38,5.252Zm0,0a4.361,4.361,0,0,0-5.332-4.645,5.164,5.164,0,0,0-3.34,1.765,4.61,4.61,0,0,0-.96,3.49,5.3,5.3,0,0,0,1.306,3.442,5.122,5.122,0,0,0,3.506,1.387,4.171,4.171,0,0,0,3.526-1.566,6.248,6.248,0,0,0,1.293-3.873Z" transform="translate(65.314 17.153)" fill="#d0a262"/>
      <path id="Path_17869" data-name="Path 17869" d="M46.945,20.143a4.379,4.379,0,0,1-2.521,2,6.9,6.9,0,0,1-3.337-.034,4.746,4.746,0,0,1-2.81-2.025,7.053,7.053,0,0,1-.969-3.287,5.725,5.725,0,0,1,.765-3.38,5.247,5.247,0,0,1,2.706-2.133,5.466,5.466,0,0,1,6.1,1.33,5.608,5.608,0,0,0-5.744-.468,4.417,4.417,0,0,0-2.616,4.582,4.594,4.594,0,0,0,2.851,4.5,5,5,0,0,0,5.577-1.086Z" transform="translate(53.084 15.501)" fill="#d0a262"/>
      <path id="Path_17870" data-name="Path 17870" d="M65.151,35.72c-1.73-1.627-3.335-3.36-4.941-5.091L59.9,30.3l.345-.351q4.1-4.169,8.5-8.015l.424-.371.306.421c1.388,1.909,2.779,3.816,4.042,5.825-1.691-1.665-3.253-3.435-4.818-5.2l.729.05q-4.1,4.165-8.5,8.012l.039-.679C62.4,31.865,63.84,33.74,65.151,35.72Z" transform="translate(85.282 30.72)" fill="#d0a262"/>
      <path id="Path_17871" data-name="Path 17871" d="M66.592,29.07A10.271,10.271,0,0,1,63.8,26.683a10.141,10.141,0,0,1-1.862-3.165A10.139,10.139,0,0,1,64.73,25.9a10.274,10.274,0,0,1,1.862,3.165Z" transform="translate(88.18 33.505)" fill="#d0a262"/>
      <path id="Path_17872" data-name="Path 17872" d="M53.5,25.1c1.677-2.894,3.5-5.687,5.308-8.488l.8-1.232.127,1.492q.336,3.94.575,7.886l-.779-.541c2.413-.725,4.832-1.433,7.263-2.1l1.437-.395-.877,1.165c-1.969,2.616-3.931,5.237-6.035,7.759,1.645-2.842,3.43-5.587,5.208-8.336l.559.77c-2.391.8-4.8,1.554-7.2,2.293l-.734.225-.045-.768c-.155-2.631-.288-5.263-.383-7.9l.924.26C57.638,19.858,55.642,22.529,53.5,25.1Z" transform="translate(76.169 21.92)" fill="#d0a262"/>
      <path id="Path_17873" data-name="Path 17873" d="M20.086,21.647c2.569,1.984,5.025,4.091,7.484,6.195l.965.824-1.3.04c-2.7.084-5.392.115-8.089.129l.593-.718c.465,2.476.912,4.957,1.32,7.444l.242,1.475-1.069-1c-2.392-2.236-4.791-4.464-7.077-6.822,2.653,1.936,5.193,4,7.739,6.059l-.827.476c-.538-2.463-1.036-4.933-1.516-7.407l-.14-.718h.732c2.7,0,5.393.016,8.089.085l-.336.865C24.591,26.3,22.282,24.037,20.086,21.647Z" transform="translate(18.728 30.841)" fill="#d0a262"/>
      <path id="Path_17874" data-name="Path 17874" d="M34.25,23.413c-1.627,1.73-3.36,3.335-5.091,4.941l-.33.306-.351-.345q-4.169-4.1-8.015-8.5l-.371-.424.421-.306c1.909-1.388,3.815-2.779,5.826-4.042-1.666,1.691-3.435,3.253-5.2,4.818l.05-.729q4.165,4.1,8.012,8.5l-.679-.039C30.4,26.161,32.27,24.725,34.25,23.413Z" transform="translate(28.604 21.446)" fill="#d0a262"/>
      <path id="Path_17875" data-name="Path 17875" d="M27.6,16.708A10.276,10.276,0,0,1,25.213,19.5a10.135,10.135,0,0,1-3.165,1.862,10.14,10.14,0,0,1,2.387-2.791A10.272,10.272,0,0,1,27.6,16.708Z" transform="translate(31.388 23.811)" fill="#d0a262"/>
      <path id="Path_17876" data-name="Path 17876" d="M50.9,28.751a6.975,6.975,0,0,1-1.16,3.975,4.629,4.629,0,0,1-3.66,2.068,5.849,5.849,0,0,1-4.221-1.235,5.935,5.935,0,0,1-1.8-4.112,5.386,5.386,0,0,1,1.392-4.276A5.879,5.879,0,0,1,45.517,23.5,4.874,4.874,0,0,1,50.9,28.752Zm0,0a4.361,4.361,0,0,0-5.332-4.645,5.164,5.164,0,0,0-3.34,1.765,4.609,4.609,0,0,0-.96,3.49,5.3,5.3,0,0,0,1.306,3.44,5.122,5.122,0,0,0,3.506,1.387A4.171,4.171,0,0,0,49.6,32.623,6.248,6.248,0,0,0,50.9,28.751Z" transform="translate(56.976 33.439)" fill="#d0a262"/>
      <path id="Path_17877" data-name="Path 17877" d="M34.3,24a20.875,20.875,0,0,1,5.23-.606,20.609,20.609,0,0,1,5.23.606,20.62,20.62,0,0,1-5.23.606A20.874,20.874,0,0,1,34.3,24Z" transform="translate(48.835 33.333)" fill="#d0a262"/>
      <path id="Path_17878" data-name="Path 17878" d="M36.817,34.121a20.911,20.911,0,0,1-.606-5.236,20.656,20.656,0,0,1,.606-5.237,20.646,20.646,0,0,1,.606,5.237,20.934,20.934,0,0,1-.606,5.236Z" transform="translate(51.55 33.69)" fill="#d0a262"/>
      <path id="Path_17879" data-name="Path 17879" d="M16.687,50.463A61.051,61.051,0,0,1,26.58,37.012,64.97,64.97,0,0,1,39.694,26.566a68.271,68.271,0,0,1,7.483-3.837,56.972,56.972,0,0,1,7.977-2.639c1.368-.3,2.7-.754,4.092-.928l4.154-.579a28.649,28.649,0,0,1,4.176-.23l4.174-.073a70.783,70.783,0,0,0-24.137,5.461A73.343,73.343,0,0,0,27.238,37.668l-2.9,2.967c-.9,1.047-1.852,2.057-2.718,3.136a56.84,56.84,0,0,0-4.937,6.692Z" transform="translate(23.756 26.049)" fill="#d0a262"/>
      <path id="Path_17880" data-name="Path 17880" d="M94.788,50.462a56.867,56.867,0,0,0-4.937-6.693c-.867-1.079-1.816-2.089-2.719-3.136l-2.9-2.966A73.337,73.337,0,0,0,63.861,23.742a70.778,70.778,0,0,0-24.136-5.461l4.174.073a28.65,28.65,0,0,1,4.177.23l4.154.579c1.391.173,2.724.627,4.092.928A56.969,56.969,0,0,1,64.3,22.73a68.294,68.294,0,0,1,7.482,3.837A64.976,64.976,0,0,1,84.893,37.013a61.054,61.054,0,0,1,9.895,13.449Z" transform="translate(56.553 26.05)" fill="#d0a262"/>
      <path id="Path_17881" data-name="Path 17881" d="M94.788,59.937a61.054,61.054,0,0,1-9.894,13.451A64.986,64.986,0,0,1,71.781,83.834,68.334,68.334,0,0,1,64.3,87.671a56.964,56.964,0,0,1-7.977,2.639c-1.367.3-2.7.754-4.092.928l-4.154.578a28.654,28.654,0,0,1-4.177.23l-4.174.073a70.779,70.779,0,0,0,24.136-5.461A73.342,73.342,0,0,0,84.236,72.733l2.9-2.967c.9-1.046,1.852-2.057,2.719-3.136A56.845,56.845,0,0,0,94.788,59.937Z" transform="translate(56.554 85.352)" fill="#d0a262"/>
      <path id="Path_17882" data-name="Path 17882" d="M16.687,59.937a56.822,56.822,0,0,0,4.937,6.693c.866,1.079,1.816,2.089,2.718,3.136l2.9,2.967A73.347,73.347,0,0,0,47.613,86.657a70.783,70.783,0,0,0,24.137,5.461l-4.174-.073a28.647,28.647,0,0,1-4.177-.23l-4.154-.579c-1.391-.174-2.724-.627-4.092-.928a56.972,56.972,0,0,1-7.976-2.638,68.306,68.306,0,0,1-7.483-3.837A64.98,64.98,0,0,1,26.58,73.388a61.052,61.052,0,0,1-9.894-13.451Z" transform="translate(23.756 85.352)" fill="#d0a262"/>
      <path id="Path_17883" data-name="Path 17883" d="M15.355,53.145q15.547-.333,31.1-.464l31.1-.141,31.1.139q15.547.123,31.1.466-15.547.336-31.1.466l-31.1.139-31.1-.141Q30.9,53.488,15.355,53.145Z" transform="translate(21.86 74.821)" fill="#d0a262"/>
      <path id="Path_17884" data-name="Path 17884" d="M107.845,71.466A78.018,78.018,0,0,1,91.076,81.6a88.135,88.135,0,0,1-18.765,5.853,106.13,106.13,0,0,1-19.57,1.766A128.428,128.428,0,0,1,33.2,87.631a179.148,179.148,0,0,0,19.526.658,114.3,114.3,0,0,0,19.355-2.023,93.45,93.45,0,0,0,35.762-14.8Z" transform="translate(47.268 101.766)" fill="#d0a262"/>
      <path id="Path_17885" data-name="Path 17885" d="M30.9,5.108A16.732,16.732,0,0,1,36.3,3.328c1.866-.381,3.755-.665,5.649-.876a99.194,99.194,0,0,1,11.422-.505A109.807,109.807,0,0,1,76.061,4.715a95.239,95.239,0,0,1,21.473,7.853,84.071,84.071,0,0,1,9.784,5.924,87.573,87.573,0,0,1,8.8,7.261A91.408,91.408,0,0,0,97.117,13.4,99.506,99.506,0,0,0,75.785,5.894,115.967,115.967,0,0,0,53.342,2.874,101.232,101.232,0,0,0,42,3.039c-1.89.112-3.777.3-5.65.579A16.62,16.62,0,0,0,30.9,5.108Z" transform="translate(43.991 2.783)" fill="#d0a262"/>
    </g>
  </g>
</svg>
