<svg xmlns="http://www.w3.org/2000/svg" width="63" height="63" viewBox="0 0 63 63">
  <g id="Group_101223" data-name="Group 101223" transform="translate(0 0.14)">
    <g id="gift_1_" data-name="gift (1)" transform="translate(12.764 14.773)">
      <g id="Group_101088" data-name="Group 101088" transform="translate(0 0)">
        <path id="Path_3426" data-name="Path 3426" d="M33.979,25.331H26.812a8.8,8.8,0,0,0,1.264-1.013,4.739,4.739,0,0,0,0-6.665,4.789,4.789,0,0,0-6.644,0c-.981.985-3.588,5-3.228,7.677h-.163c.358-2.68-2.247-6.692-3.228-7.677a4.789,4.789,0,0,0-6.644,0,4.741,4.741,0,0,0,0,6.665,8.964,8.964,0,0,0,1.266,1.013H2.265A2.269,2.269,0,0,0,0,27.6v5.663a1.133,1.133,0,0,0,1.133,1.133H2.265V47.984a2.269,2.269,0,0,0,2.265,2.265H31.714a2.269,2.269,0,0,0,2.265-2.265V34.392h1.133a1.133,1.133,0,0,0,1.133-1.133V27.6A2.269,2.269,0,0,0,33.979,25.331Zm-24.2-6.08a2.415,2.415,0,0,1,3.432,0c1.527,1.536,3.045,5.459,2.517,6.005a.747.747,0,0,1-.419.075c-1.565,0-4.553-1.626-5.53-2.61A2.471,2.471,0,0,1,9.775,19.251ZM16.99,47.984H4.531V34.392H16.99Zm0-15.857H2.265V27.6H16.99Zm6.048-12.876a2.44,2.44,0,0,1,3.432,3.47c-.976.983-3.964,2.61-5.53,2.61a.744.744,0,0,1-.421-.075C19.994,24.71,21.511,20.787,23.038,19.251Zm8.676,28.733H19.255V34.392H31.714Zm2.265-15.857H19.255V27.6H33.979Z" transform="translate(0 -16.314)" fill="#fff"/>
      </g>
    </g>
    <g id="Ellipse_49" data-name="Ellipse 49" transform="translate(0 -0.14)" fill="none" stroke="#866531" stroke-width="3">
      <circle cx="31.5" cy="31.5" r="31.5" stroke="none"/>
      <circle cx="31.5" cy="31.5" r="30" fill="none"/>
    </g>
  </g>
</svg>
