<svg xmlns="http://www.w3.org/2000/svg" width="87" height="87" viewBox="0 0 87 87">
  <g id="Group_101145" data-name="Group 101145" transform="translate(-449.5 -1013)">
    <g id="Ellipse_50" data-name="Ellipse 50" transform="translate(449.5 1013)" fill="none" stroke="#866531" stroke-width="4">
      <circle cx="43.5" cy="43.5" r="43.5" stroke="none"/>
      <circle cx="43.5" cy="43.5" r="41.5" fill="none"/>
    </g>
    <g id="click" transform="translate(464.444 1027.182)">
      <path id="Path_4480" data-name="Path 4480" d="M217.792,208.782l-9.187-9.187,4.505-4.505a1.593,1.593,0,0,0-.623-2.638l-27.032-9.011a1.593,1.593,0,0,0-2.015,2.015l9.011,27.032a1.593,1.593,0,0,0,2.638.623l4.505-4.505,9.187,9.186a1.593,1.593,0,0,0,2.253,0l6.758-6.758A1.593,1.593,0,0,0,217.792,208.782Zm-7.884,5.632-9.187-9.186a1.593,1.593,0,0,0-2.253,0l-3.809,3.809-7.188-21.565,21.565,7.188-3.809,3.809a1.593,1.593,0,0,0,0,2.253l9.187,9.187Z" transform="translate(-163.888 -163.888)" fill="#866531"/>
      <path id="Path_4481" data-name="Path 4481" d="M181.593,12.743a1.593,1.593,0,0,0,1.593-1.593V1.593a1.593,1.593,0,1,0-3.186,0V11.15A1.593,1.593,0,0,0,181.593,12.743Z" transform="translate(-160.885)" fill="#866531"/>
      <path id="Path_4482" data-name="Path 4482" d="M55.44,53.187a1.593,1.593,0,0,0-2.253,2.253L59.945,62.2A1.593,1.593,0,0,0,62.2,59.945Z" transform="translate(-47.122 -47.122)" fill="#866531"/>
      <path id="Path_4483" data-name="Path 4483" d="M59.945,244.106l-6.758,6.758a1.593,1.593,0,0,0,2.253,2.253l6.758-6.758a1.593,1.593,0,0,0-2.253-2.253Z" transform="translate(-47.122 -217.767)" fill="#866531"/>
      <path id="Path_4484" data-name="Path 4484" d="M246.359,62.2l6.758-6.758a1.593,1.593,0,0,0-2.253-2.253l-6.758,6.758a1.593,1.593,0,0,0,2.253,2.253Z" transform="translate(-217.767 -47.122)" fill="#866531"/>
      <path id="Path_4485" data-name="Path 4485" d="M12.743,181.593A1.593,1.593,0,0,0,11.15,180H1.593a1.593,1.593,0,1,0,0,3.186H11.15A1.593,1.593,0,0,0,12.743,181.593Z" transform="translate(0 -160.885)" fill="#866531"/>
    </g>
  </g>
</svg>
