<svg id="rubbish-bin" xmlns="http://www.w3.org/2000/svg" width="12.076" height="16.202" viewBox="0 0 12.076 16.202">
  <g id="Group_101059" data-name="Group 101059" transform="translate(0)">
    <path id="Path_3199" data-name="Path 3199" d="M74.587,110.943a.815.815,0,0,0,.815.781h7.612a.815.815,0,0,0,.815-.781l.544-11.475H74.043Zm6.343-8.625a.331.331,0,0,1,.331-.331h.53a.331.331,0,0,1,.331.331v6.556a.331.331,0,0,1-.331.331h-.53a.331.331,0,0,1-.331-.331Zm-2.318,0a.331.331,0,0,1,.331-.331h.53a.331.331,0,0,1,.331.331v6.556a.331.331,0,0,1-.331.331h-.53a.331.331,0,0,1-.331-.331v-6.556Zm-2.318,0a.331.331,0,0,1,.331-.331h.53a.331.331,0,0,1,.331.331v6.556a.331.331,0,0,1-.331.331h-.53a.331.331,0,0,1-.331-.331Z" transform="translate(-73.169 -95.523)"/>
    <path id="Path_3200" data-name="Path 3200" d="M63.58.835H60.068V.171A.171.171,0,0,0,59.9,0H56.21a.171.171,0,0,0-.171.171V.835H52.528a.512.512,0,0,0-.512.512V2.954H64.092V1.346A.512.512,0,0,0,63.58.835Z" transform="translate(-52.016)"/>
  </g>
</svg>
