<svg id="Group_101169" data-name="Group 101169" xmlns="http://www.w3.org/2000/svg" width="52.52" height="52.52" viewBox="0 0 52.52 52.52">
  <g id="Path_4511" data-name="Path 4511" transform="translate(0 0)" fill="none">
    <path d="M26.26,0A26.26,26.26,0,1,1,0,26.26,26.26,26.26,0,0,1,26.26,0Z" stroke="none"/>
    <path d="M 26.26009750366211 2.999996185302734 C 23.11868667602539 2.999996185302734 20.07282638549805 3.614578247070312 17.20713806152344 4.826656341552734 C 14.43769836425781 5.998039245605469 11.94985580444336 7.675586700439453 9.812728881835938 9.812728881835938 C 7.675586700439453 11.94985580444336 5.998039245605469 14.43769836425781 4.826656341552734 17.20713806152344 C 3.614578247070312 20.07282638549805 2.999996185302734 23.11868667602539 2.999996185302734 26.26009750366211 C 2.999996185302734 29.40150833129883 3.614578247070312 32.44736480712891 4.826656341552734 35.31305694580078 C 5.998039245605469 38.08249664306641 7.675586700439453 40.57033538818359 9.812728881835938 42.70746612548828 C 11.94985580444336 44.84460830688477 14.43769836425781 46.52215576171875 17.20713806152344 47.69353866577148 C 20.07282638549805 48.90561676025391 23.11868667602539 49.52019882202148 26.26009750366211 49.52019882202148 C 29.40150833129883 49.52019882202148 32.44736480712891 48.90561676025391 35.31305694580078 47.69353866577148 C 38.08249664306641 46.52215576171875 40.57033538818359 44.84460830688477 42.70746612548828 42.70746612548828 C 44.84460830688477 40.57033538818359 46.52215576171875 38.08249664306641 47.69353866577148 35.31305694580078 C 48.90561676025391 32.44736480712891 49.52019882202148 29.40150833129883 49.52019882202148 26.26009750366211 C 49.52019882202148 23.11868667602539 48.90561676025391 20.07282638549805 47.69353866577148 17.20713806152344 C 46.52215576171875 14.43769836425781 44.84460830688477 11.94985580444336 42.70746612548828 9.812728881835938 C 40.57033538818359 7.675586700439453 38.08249664306641 5.998039245605469 35.31305694580078 4.826656341552734 C 32.44736480712891 3.614578247070312 29.40150833129883 2.999996185302734 26.26009750366211 2.999996185302734 M 26.26009750366211 -3.814697265625e-06 C 40.76314544677734 -3.814697265625e-06 52.52019882202148 11.75704574584961 52.52019882202148 26.26009750366211 C 52.52019882202148 40.76314544677734 40.76314544677734 52.52019882202148 26.26009750366211 52.52019882202148 C 11.75704574584961 52.52019882202148 -3.814697265625e-06 40.76314544677734 -3.814697265625e-06 26.26009750366211 C -3.814697265625e-06 11.75704574584961 11.75704574584961 -3.814697265625e-06 26.26009750366211 -3.814697265625e-06 Z" stroke="none" fill="#866531"/>
  </g>
  <g id="like" transform="translate(11.634 7.599)">
    <g id="Group_101120" data-name="Group 101120" transform="translate(0 5.872)">
      <g id="Group_101119" data-name="Group 101119">
        <path id="Path_3445" data-name="Path 3445" d="M59.295,105.583a2.9,2.9,0,0,0-2.162-4.839H51.5a18.768,18.768,0,0,0,.8-4.9v-.967A3.876,3.876,0,0,0,48.422,91h-.968a.968.968,0,0,0-.939.733l-.527,2.109c-.739,2.954-3.084,6.213-5.512,6.805a2.908,2.908,0,0,0-2.7-1.84H31.968a.968.968,0,0,0-.968.968V117.2a.968.968,0,0,0,.968.968h5.807A2.907,2.907,0,0,0,40.4,116.51l3.326,1.109a10.623,10.623,0,0,0,3.367.547H55.2a2.9,2.9,0,0,0,2.7-3.973,2.9,2.9,0,0,0,1.4-4.737,2.9,2.9,0,0,0,0-3.872Zm-20.552,9.679a.969.969,0,0,1-.968.968H32.936V100.743h4.839a.969.969,0,0,1,.968.968ZM55.2,106.551h1.936a.968.968,0,0,1,0,1.936H55.2a.968.968,0,0,0,0,1.936h1.936a.968.968,0,1,1,0,1.936H55.2a.968.968,0,0,0,0,1.936.968.968,0,1,1,0,1.936H47.089a8.692,8.692,0,0,1-2.755-.447l-3.655-1.218V102.587a7.8,7.8,0,0,0,4.346-2.824,14.123,14.123,0,0,0,2.841-5.452l.344-1.376h.212a1.938,1.938,0,0,1,1.936,1.936v.967a15.316,15.316,0,0,1-.927,4.9H47.454a.968.968,0,1,0,0,1.936h9.679a.968.968,0,0,1,0,1.936H55.2a.968.968,0,1,0,0,1.936Z" transform="translate(-31 -91)" fill="#866531"/>
      </g>
    </g>
    <g id="Group_101122" data-name="Group 101122" transform="translate(4.206 26.58)">
      <g id="Group_101121" data-name="Group 101121" transform="translate(0 0)">
        <ellipse id="Ellipse_56" data-name="Ellipse 56" cx="1" cy="1.5" rx="1" ry="1.5" transform="translate(0.161 -0.43)" fill="#866531"/>
      </g>
    </g>
    <g id="Group_101124" data-name="Group 101124" transform="translate(17.422)">
      <g id="Group_101123" data-name="Group 101123">
        <path id="Path_3446" data-name="Path 3446" d="M301.968,0A.968.968,0,0,0,301,.968v2a.968.968,0,0,0,1.936,0v-2A.968.968,0,0,0,301.968,0Z" transform="translate(-301 0)" fill="#866531"/>
      </g>
    </g>
    <g id="Group_101126" data-name="Group 101126" transform="translate(11.262 2.616)">
      <g id="Group_101125" data-name="Group 101125">
        <path id="Path_3447" data-name="Path 3447" d="M208.562,42.194l-1.369-1.369a.968.968,0,1,0-1.369,1.369l1.369,1.369a.968.968,0,1,0,1.369-1.369Z" transform="translate(-205.54 -40.542)" fill="#866531"/>
      </g>
    </g>
    <g id="Group_101128" data-name="Group 101128" transform="translate(22.213 2.616)">
      <g id="Group_101127" data-name="Group 101127">
        <path id="Path_3448" data-name="Path 3448" d="M378.268,40.825a.968.968,0,0,0-1.369,0l-1.369,1.369a.968.968,0,0,0,1.369,1.369l1.369-1.369A.968.968,0,0,0,378.268,40.825Z" transform="translate(-375.247 -40.542)" fill="#866531"/>
      </g>
    </g>
  </g>
</svg>
