<svg xmlns="http://www.w3.org/2000/svg" xmlns:xlink="http://www.w3.org/1999/xlink" width="18.199" height="16" viewBox="0 0 18.199 16">
  <defs>
    <clipPath id="clip-path">
      <rect id="Rectangle_3369" data-name="Rectangle 3369" width="18.199" height="16" fill="#463728"/>
    </clipPath>
  </defs>
  <g id="Group_124039" data-name="Group 124039" clip-path="url(#clip-path)">
    <path id="Path_8523" data-name="Path 8523" d="M17.737,10.983a.46.46,0,0,0-.462.46v1.773a1.856,1.856,0,0,1-1.852,1.852H2.776A1.856,1.856,0,0,1,.924,13.216V11.449a.462.462,0,0,0-.924,0V13.22A2.779,2.779,0,0,0,2.777,16H15.419a2.784,2.784,0,0,0,2.78-2.78V11.449A.464.464,0,0,0,17.737,10.983Z" fill="#463728"/>
    <path id="Path_8524" data-name="Path 8524" d="M14.921,12.811H3.273a.462.462,0,0,0,0,.924H14.925a.462.462,0,0,0,0-.924Z" fill="#463728"/>
    <path id="Path_8525" data-name="Path 8525" d="M13.787,6.29a.463.463,0,0,0-.652-.038l0,0L9.56,9.443V.462a.462.462,0,0,0-.924,0V9.444L5.063,6.251a.463.463,0,1,0-.619.69l3.883,3.467a1.157,1.157,0,0,0,1.543,0l3.883-3.467a.461.461,0,0,0,.034-.651" fill="#463728"/>
  </g>
</svg>
