<svg xmlns="http://www.w3.org/2000/svg" viewBox="0 0 50 50.001">
  <defs>
    <style>
      .cls-1 {
        fill: #5c6670;
      }
    </style>
  </defs>
  <g id="Group_3153" data-name="Group 3153" transform="translate(-433 -1597)">
    <g id="Group_2743" data-name="Group 2743" transform="translate(433 1609.5)">
      <g id="Group_2742" data-name="Group 2742" transform="translate(0)">
        <path id="Path_1391" data-name="Path 1391" class="cls-1" d="M27.224,136.626h0l-.556-10.833a.833.833,0,0,0-.832-.791H21.8a8.326,8.326,0,0,0-15.265,0H2.5a.833.833,0,0,0-.833.788L0,156.622a.833.833,0,0,0,.787.877H22.5a.833.833,0,0,0,0-1.667H1.717l.135-2.5H18.336a.833.833,0,1,0,0-1.667H1.942l1.351-25H6a8.323,8.323,0,0,0-.167,1.667.756.756,0,0,0,.029.144,2.5,2.5,0,1,0,1.608,0,.756.756,0,0,0,.029-.144,6.623,6.623,0,0,1,.219-1.667H20.617a6.624,6.624,0,0,1,.219,1.667.756.756,0,0,0,.029.144,2.5,2.5,0,1,0,1.608,0,.756.756,0,0,0,.029-.144,8.323,8.323,0,0,0-.167-1.667h2.708l.515,10.042a.843.843,0,0,0,.875.79A.833.833,0,0,0,27.224,136.626ZM7.5,130.834A.833.833,0,1,1,6.67,130,.833.833,0,0,1,7.5,130.834ZM8.4,125a6.652,6.652,0,0,1,11.53,0Zm14.1,5.833a.833.833,0,1,1-.833-.833A.833.833,0,0,1,22.5,130.834Z" transform="translate(-0.002 -120)"/>
      </g>
    </g>
    <g id="Group_2745" data-name="Group 2745" transform="translate(454.851 1597)">
      <g id="Group_2744" data-name="Group 2744" transform="translate(0 0)">
        <path id="Path_1392" data-name="Path 1392" class="cls-1" d="M236.862,29.118h0L235.426,5.783A.833.833,0,0,0,234.592,5h-4.034a8.326,8.326,0,0,0-15.265,0H211.26a.833.833,0,0,0-.833.775l-.647,9.166a.833.833,0,0,0,.771.891h0a.843.843,0,0,0,.89-.773l.593-8.393h2.723a8.322,8.322,0,0,0-.167,1.667.757.757,0,0,0,.029.144,2.5,2.5,0,1,0,1.608,0,.755.755,0,0,0,.029-.144,6.624,6.624,0,0,1,.219-1.667h12.895a6.624,6.624,0,0,1,.219,1.667.755.755,0,0,0,.029.144,2.5,2.5,0,1,0,1.608,0,.757.757,0,0,0,.029-.144,8.322,8.322,0,0,0-.167-1.667h2.717L235.2,29.219a.833.833,0,0,0,.833.782h.052A.833.833,0,0,0,236.862,29.118Zm-20.6-18.284a.833.833,0,1,1-.833-.833A.833.833,0,0,1,216.26,10.834Zm.9-5.833a6.652,6.652,0,0,1,11.53,0Zm14.1,5.833a.833.833,0,1,1-.833-.833A.833.833,0,0,1,231.259,10.834Z" transform="translate(-209.777 0)"/>
      </g>
    </g>
    <g id="Group_2747" data-name="Group 2747" transform="translate(456.334 1622.001)">
      <g id="Group_2746" data-name="Group 2746">
        <path id="Path_1393" data-name="Path 1393" class="cls-1" d="M249.847,246.682h-6.963c.091-.083.185-.167.272-.26a.833.833,0,1,0-1.189-1.168l-.02.021a4.466,4.466,0,0,1-3.267,1.407h-.5v-.5a4.507,4.507,0,0,1,4.5-4.5h.5v.5a4.54,4.54,0,0,1-.109.988.834.834,0,1,0,1.627.362,6.228,6.228,0,0,0,.148-1.35v-1.333a.833.833,0,0,0-.833-.833H242.68a6.167,6.167,0,0,0-5.333,3.083,6.167,6.167,0,0,0-5.333-3.083h-1.333a.833.833,0,0,0-.833.833v1.333a6.145,6.145,0,0,0,1.966,4.5h-6.966a.833.833,0,0,0-.833.833v5a.833.833,0,0,0,.833.833h.833v10.833a.833.833,0,0,0,.833.833H248.18a.833.833,0,0,0,.833-.833V253.349h.833a.833.833,0,0,0,.833-.833v-5A.833.833,0,0,0,249.847,246.682Zm-18.333-4.5v-.5h.5a4.507,4.507,0,0,1,4.5,4.5v.5h-.5A4.507,4.507,0,0,1,231.514,242.183Zm-5.833,9.5v-3.333h7.5v3.333Zm14.166,11.666h-5v-2.5a.833.833,0,1,0-1.667,0v2.5h-5.833v-10h5.833v4.167a.833.833,0,1,0,1.667,0v-4.167h5Zm0-11.666h-5v-3.333h5Zm9.166,0h-2.5a.833.833,0,0,0,0,1.667h.833v10h-5.833v-10h1.667a.833.833,0,0,0,0-1.667h-1.667v-3.333h7.5Z" transform="translate(-224.014 -240.016)"/>
      </g>
    </g>
    <g id="Group_2749" data-name="Group 2749" transform="translate(453.834 1641.167)">
      <g id="Group_2748" data-name="Group 2748">
        <path id="Path_1394" data-name="Path 1394" class="cls-1" d="M201.681,424.016h-.833a.833.833,0,0,0,0,1.667h.833a.833.833,0,0,0,0-1.667Z" transform="translate(-200.014 -424.016)"/>
      </g>
    </g>
  </g>
</svg>
