<svg xmlns="http://www.w3.org/2000/svg" width="87" height="87" viewBox="0 0 87 87">
  <g id="Group_101110" data-name="Group 101110" transform="translate(-247 -667.086)">
    <g id="Ellipse_50" data-name="Ellipse 50" transform="translate(247 667.086)" fill="none" stroke="#866531" stroke-width="4">
      <circle cx="43.5" cy="43.5" r="43.5" stroke="none"/>
      <circle cx="43.5" cy="43.5" r="41.5" fill="none"/>
    </g>
    <g id="Mail" transform="translate(266.133 683.494)">
      <path id="Path_3440" data-name="Path 3440" d="M42.077,26.112a.855.855,0,0,0,.6-.25l9.674-9.673-1.21-1.21-9.068,9.069-4.232-4.232-1.209,1.209,4.837,4.837A.855.855,0,0,0,42.077,26.112Z" transform="translate(-7.022 -5.595)" fill="#866531" stroke="#866531" stroke-width="1.5"/>
      <path id="Path_3441" data-name="Path 3441" d="M53.3,18.535a14.526,14.526,0,0,0-29.026-.855h-18A4.28,4.28,0,0,0,2,21.955v25.65a4.28,4.28,0,0,0,4.275,4.275h39.33a4.28,4.28,0,0,0,4.275-4.275V27.94h-.053A14.461,14.461,0,0,0,53.3,18.535ZM38.765,33.07A14.464,14.464,0,0,0,48.173,29.6l0,14.7L31.347,33.082l2.1-1.032a14.434,14.434,0,0,0,5.314,1.02Zm0-27.36A12.825,12.825,0,1,1,25.94,18.535,12.825,12.825,0,0,1,38.765,5.71ZM6.275,19.39h18A14.529,14.529,0,0,0,31.5,31.1l-5.546,2.718L3.71,22.24v-.285A2.565,2.565,0,0,1,6.275,19.39ZM20.668,33,3.71,44.346V24.168ZM45.605,50.171H6.275A2.565,2.565,0,0,1,3.71,47.606V46.4L22.4,33.9l3.148,1.64a.855.855,0,0,0,.77.009l3.254-1.6,18.6,12.4v1.253a2.565,2.565,0,0,1-2.565,2.565Z" transform="translate(-2 -4.003)" fill="#866531" stroke="#866531" stroke-width="1.5"/>
    </g>
  </g>
</svg>
