<svg xmlns="http://www.w3.org/2000/svg" width="87" height="87" viewBox="0 0 87 87">
  <g id="Group_101242" data-name="Group 101242" transform="translate(-499 -817)">
    <g id="Ellipse_53" data-name="Ellipse 53" transform="translate(499 817)" fill="none" stroke="#866531" stroke-width="4">
      <circle cx="43.5" cy="43.5" r="43.5" stroke="none"/>
      <circle cx="43.5" cy="43.5" r="41.5" fill="none"/>
    </g>
    <g id="locked" transform="translate(517 833.305)">
      <g id="Group_101109" data-name="Group 101109" transform="translate(0)">
        <g id="Group_101108" data-name="Group 101108" transform="translate(0)">
          <path id="Path_3437" data-name="Path 3437" d="M346.632,195.986a4.634,4.634,0,1,0-7.815,3.814c.083.08.168.158.258.232l-1.52,3.57a1.371,1.371,0,0,0,1.206,1.908c.019,0,.039,0,.058,0h6.4a1.374,1.374,0,0,0,1.264-1.912l-1.52-3.569A4.6,4.6,0,0,0,346.632,195.986Zm-3.6,4.608.838,1.968.406.953h-4.513l.5-1.181.741-1.741a1.69,1.69,0,0,0,.131-.789h0a1.671,1.671,0,0,0-.678-1.225,2.649,2.649,0,0,1-.708-.777,2.639,2.639,0,1,1,3.824.78c-.046.034-.089.07-.13.107A1.671,1.671,0,0,0,343.033,200.594Z" transform="translate(-303.791 -172.654)" fill="#866531" stroke="#866531" stroke-width="1"/>
          <path id="Path_3438" data-name="Path 3438" d="M85.892,417.972a.985.985,0,0,0-.092-.173,1.019,1.019,0,0,0-.125-.152.958.958,0,0,0-.152-.124,1.018,1.018,0,0,0-.172-.092.971.971,0,0,0-.188-.057.985.985,0,0,0-.39,0,.941.941,0,0,0-.187.057.99.99,0,0,0-.173.092.97.97,0,0,0-.276.276.984.984,0,0,0-.092.173,1.011,1.011,0,0,0-.057.187.985.985,0,0,0-.02.195,1.006,1.006,0,0,0,.293.706.955.955,0,0,0,.152.124.982.982,0,0,0,.173.092,1.006,1.006,0,0,0,.187.057.958.958,0,0,0,.39,0,1.04,1.04,0,0,0,.188-.057,1.009,1.009,0,0,0,.172-.092.955.955,0,0,0,.152-.124,1.006,1.006,0,0,0,.293-.706.985.985,0,0,0-.02-.195A1.008,1.008,0,0,0,85.892,417.972Z" transform="translate(-75.695 -375.657)" fill="#866531" stroke="#866531" stroke-width="1"/>
          <path id="Path_3439" data-name="Path 3439" d="M49.454,14.771h-.888V9.191a9.191,9.191,0,1,0-18.383,0v5.579H29.3a2.62,2.62,0,0,0-2.617,2.617v7.76H4.83a3.688,3.688,0,0,0-3.684,3.684V47.47A3.688,3.688,0,0,0,4.83,51.154H38.406A3.688,3.688,0,0,0,42.09,47.47V37.09h4.995A4.991,4.991,0,0,0,52.071,32.1V17.388A2.62,2.62,0,0,0,49.454,14.771ZM32.182,9.191a7.193,7.193,0,1,1,14.386,0v5.579H32.182ZM3.276,28.178l.006-.013q.027-.063.059-.122L3.365,28q.026-.045.054-.089l.029-.043c.02-.029.041-.057.063-.084l.028-.035c.032-.038.065-.075.1-.11l.007-.006c.033-.033.067-.064.1-.094l.037-.029q.04-.032.083-.062l.043-.029c.029-.019.059-.037.09-.054l.04-.023c.044-.023.089-.046.135-.065l0,0c.045-.019.09-.035.137-.05l.046-.013c.034-.01.068-.019.1-.026l.053-.011c.035-.007.071-.012.107-.016l.049-.006c.052,0,.1-.008.158-.008H26.679V32.1a4.962,4.962,0,0,0,1.175,3.21L22.9,38.147a3.24,3.24,0,0,1-2.557,0L18.3,37,3.23,28.3C3.244,28.262,3.259,28.219,3.276,28.178ZM39.96,48.124l-.006.012q-.027.063-.059.123l-.023.041c-.017.03-.035.06-.054.089l-.029.043c-.02.029-.041.057-.063.085l-.027.034c-.032.038-.065.075-.1.11l-.006.005c-.033.033-.068.064-.1.094l-.036.029c-.027.021-.055.042-.083.062l-.043.029c-.029.019-.059.037-.09.054l-.04.023c-.044.023-.089.046-.135.065l0,0c-.045.019-.09.035-.137.05l-.046.013c-.034.01-.068.019-.1.026l-.053.011c-.035.007-.071.012-.107.016l-.049.006c-.052,0-.1.008-.158.008H4.83c-.053,0-.106,0-.158-.008l-.049-.006c-.036,0-.072-.01-.107-.016l-.053-.011c-.035-.008-.069-.017-.1-.026l-.046-.013c-.046-.015-.092-.031-.137-.05l0,0c-.046-.02-.091-.042-.135-.065L4,48.935c-.03-.017-.06-.035-.09-.054l-.043-.029c-.028-.02-.056-.041-.083-.062l-.037-.029c-.036-.03-.07-.061-.1-.094l-.007-.006c-.035-.035-.068-.072-.1-.11l-.028-.035c-.022-.027-.043-.055-.063-.084l-.029-.043c-.019-.029-.037-.058-.054-.088l-.023-.041q-.032-.06-.059-.122l-.006-.013c-.017-.041-.032-.084-.046-.126l4.21-2.429a1,1,0,0,0-1-1.731l-3.3,1.9V30.562L16.3,38.151l-3.31,1.91a1,1,0,0,0,1,1.731L18.3,39.3l.707.408a5.24,5.24,0,0,0,5.222,0l.707-.408L40.006,48C39.992,48.04,39.978,48.083,39.96,48.124Zm.132-2.384L26.935,38.151l2.639-1.522a4.955,4.955,0,0,0,2.091.461h8.428Zm6.993-10.648H31.665A2.993,2.993,0,0,1,28.677,32.1V17.388a.619.619,0,0,1,.619-.619H49.454a.619.619,0,0,1,.619.619V32.1h0A2.991,2.991,0,0,1,47.085,35.092Z" transform="translate(-1.146)" fill="#866531" stroke="#866531" stroke-width="1"/>
        </g>
      </g>
    </g>
  </g>
</svg>
