<svg xmlns="http://www.w3.org/2000/svg" viewBox="0 0 22 22">
	<defs>
		<style>.cls-1{fill:#9D7C37;}.cls-2{fill:#fff;}
		</style>
	</defs>
	<title>black_minus</title>
	<g id="Layer_2" data-name="Layer 2">
		<g id="Layer_1-2" data-name="Layer 1">
			<path class="cls-1" d="M11,0A11,11,0,1,0,22,11,11,11,0,0,0,11,0Z"/>
			<path class="cls-2" d="M17.1772,10.0245c-1.6608.0256-10.9332.0115-12.3754.0061a.7822.7822,0,0,0-.6884.3468,3.0006,3.0006,0,0,0-.2242.4866v.3341a3.0114,3.0114,0,0,0,.2244.486.7821.7821,0,0,0,.6877.3472c1.6785-.006,10.777-.004,12.4706-.0013a.7414.7414,0,0,0,.4873-.1709,1.0383,1.0383,0,0,0,.3857-.91A.9727.9727,0,0,0,17.1772,10.0245Z"/>
		</g>
	</g>
	</svg>