<svg xmlns="http://www.w3.org/2000/svg" viewBox="0 0 22 22.6296"><title>Asset 7</title><g id="Layer_2" data-name="Layer 2"><g id="Layer_1-2" data-name="Layer 1"><path d="M1.0339,6.9646c.7969.0206,1.1628.0045,1.96.0064A1.9587,1.9587,0,0,1,5.0319,9.0128c.0006.18,0,.36,0,.5639H21.9812a5.9292,5.9292,0,0,1-1.1122,4.0989A5.77,5.77,0,0,1,16.52,16.07a.5964.5964,0,0,0-.2639.0783c-.6979.4414-1.3914.89-2.0859,1.3362a1.0239,1.0239,0,0,0-.08.0659c.0606.0427.1095.08.161.113.658.4231,1.3173.8442,1.9734,1.27a.2484.2484,0,0,0,.29.0182,1.8564,1.8564,0,0,1,2.12.1891,1.8354,1.8354,0,0,1,.6937,1.9746,1.8866,1.8866,0,0,1-1.5163,1.4737c-.0414.01-.0811.0268-.1216.04h-.5655c-.01-.0095-.0193-.0254-.0312-.0278a1.9779,1.9779,0,0,1-1.4655-1.1736.2591.2591,0,0,0-.2007-.0994c-1.71-.0054-3.42-.0025-5.13-.0077a.2217.2217,0,0,0-.2345.1632,1.864,1.864,0,0,1-.92.9445c-.174.0818-.3616.1348-.543.2008H8.0335A.2337.2337,0,0,0,7.9762,22.6a1.8863,1.8863,0,0,1-1.5805-1.4837,1.8263,1.8263,0,0,1,.6752-1.96,1.89,1.89,0,0,1,2.1777-.1939.2988.2988,0,0,0,.2442-.0326c.6684-.4195,1.3313-.8477,1.9954-1.274.0465-.03.09-.064.1523-.1086-.0741-.0513-.131-.0933-.19-.1314-.4749-.3056-.962-.594-1.422-.9206a2.7521,2.7521,0,0,0-1.3126-.4876,5.7891,5.7891,0,0,1-4.89-4.7786A19.1755,19.1755,0,0,1,3.73,9.04c-.0137-.511-.3824-.6351-.8879-.6356C2.052,8.404,1.9073,8.38,1.118,8.4-.3618,8.3553-.3549,6.9646,1.0339,6.9646ZM15.468,20.0133c-.056-.0455-.0754-.0647-.0978-.0791-.7967-.5123-1.5958-1.0208-2.3881-1.54-.1136-.0743-.1815-.0335-.2683.0223q-1.149.7394-2.299,1.4776c-.0442.0284-.0839.064-.155.1188ZM13.876,16.121H11.8492c.3419.2191.6378.4122.9388.5971a.1754.1754,0,0,0,.1525,0C13.2407,16.5327,13.5358,16.34,13.876,16.121Z"/><path d="M15.708,7.3413l3.41-3.4983a1.2558,1.2558,0,0,1,1.8041.1865,6.4542,6.4542,0,0,1,1.0585,3.1057,1.08,1.08,0,0,1-1.1565,1.0691l-4.8637.0521S14.8242,8.2564,15.708,7.3413Z"/><path d="M13.3886,6.5812l.5765-5.28A1.4829,1.4829,0,0,1,15.492.0106a6.0642,6.0642,0,0,1,3.0353,1.3405,1.1471,1.1471,0,0,1-.13,1.66l-4.074,4.1837C13.907,7.5066,13.2781,7.5928,13.3886,6.5812Z"/></g></g></svg>