<svg xmlns="http://www.w3.org/2000/svg" width="15.294" height="15.482" viewBox="0 0 15.294 15.482">
  <g id="Layer_2" data-name="Layer 2" transform="translate(0 0)">
    <g id="Layer_1" data-name="Layer 1" transform="translate(0 0.001)">
      <path id="Path_4517" data-name="Path 4517" d="M15.28,14.062c-.171-2.466-1.937-3.153-3.813-3.873-.778-.3-2.253-.456-1.516-1.752.938-1.651.8-3.451,1.258-5.152.555-2.051-.485-2.9-2.307-3.22C6.869-.288,4.387.849,4.354,2.326c-.039,1.761-.411,3.67.66,5.245,1.12,1.646.234,2.143-1.142,2.62C2.164,10.783.454,11.376.081,13.55-.15,14.9.034,15.585,1.664,15.47c2.026-.143,4.069-.034,6.105-.034,2.114,0,4.229-.038,6.342.016C15.188,15.478,15.352,15.1,15.28,14.062Zm-1.17.023c-.28.793-1.075.367-1.624.388-1.636.062-3.277.022-4.915.022-1.795,0-3.591-.042-5.384.013C.87,14.548.973,13.915,1.4,13.075c.717-1.422,2.2-1.705,3.49-2.113,2.123-.672,2.3-2.01,1.27-3.543-1-1.486-.774-3.168-.723-4.619C5.487,1.295,7.222.942,8.709,1.1c1.45.156,1.746.925,1.324,2.276C9.546,4.938,9.756,6.618,8.8,8.157c-.59.948-.287,2.228,1.318,2.66a7.364,7.364,0,0,1,3.33,1.616,1.64,1.64,0,0,1,.664,1.652Z" transform="translate(0 -0.001)" fill="#fff"/>
    </g>
  </g>
</svg>
