<svg xmlns="http://www.w3.org/2000/svg" width="25.77" height="15.361" viewBox="0 0 25.77 15.361">
  <g id="auge_copy" data-name="auge copy" transform="translate(0 -98.725)">
    <path id="Path_3197" data-name="Path 3197" d="M12.885,98.725c-4.924,0-9.389,2.694-12.683,7.069a1.02,1.02,0,0,0,0,1.218c3.295,4.381,7.76,7.074,12.683,7.074s9.389-2.694,12.683-7.069a1.02,1.02,0,0,0,0-1.218C22.274,101.419,17.809,98.725,12.885,98.725Zm.353,13.089a5.42,5.42,0,1,1,5.055-5.055A5.423,5.423,0,0,1,13.238,111.814Zm-.163-2.5A2.919,2.919,0,1,1,15.8,106.59,2.914,2.914,0,0,1,13.075,109.316Z" transform="translate(0 0)" fill="#5a5a5a"/>
  </g>
</svg>
