<svg xmlns="http://www.w3.org/2000/svg" width="55" height="55" viewBox="0 0 55 55">
  <g id="Group_101355" data-name="Group 101355" transform="translate(0.307 -0.13)">
    <g id="Ellipse_50" data-name="Ellipse 50" transform="translate(-0.307 0.13)" fill="none" stroke="#8C734B" stroke-width="3">
      <circle cx="27.5" cy="27.5" r="27.5" stroke="none"/>
      <circle cx="27.5" cy="27.5" r="26" fill="none"/>
    </g>
    <g id="discount" transform="translate(11.369 11.08)">
      <g id="Group_101090" data-name="Group 101090" transform="translate(0 0)">
        <g id="Group_101089" data-name="Group 101089" transform="translate(0 0)">
          <path id="Path_3427" data-name="Path 3427" d="M40.514,16.935a.968.968,0,0,1,0-.855l1.231-2.519a2.866,2.866,0,0,0-1.237-3.806L38.031,8.44a.968.968,0,0,1-.5-.692l-.484-2.762a2.866,2.866,0,0,0-3.238-2.352l-2.776.393a.968.968,0,0,1-.813-.264L28.2.812a2.866,2.866,0,0,0-4,0l-2.015,1.95a.968.968,0,0,1-.813.264l-2.776-.393a2.866,2.866,0,0,0-3.238,2.352l-.484,2.762a.968.968,0,0,1-.5.692L11.892,9.754a2.866,2.866,0,0,0-1.237,3.806l1.231,2.519a.968.968,0,0,1,0,.855l-1.231,2.519a2.866,2.866,0,0,0,1.237,3.806l2.477,1.314a.968.968,0,0,1,.5.692l.484,2.762a2.865,2.865,0,0,0,2.826,2.382,2.945,2.945,0,0,0,.412-.029l2.776-.393a.967.967,0,0,1,.813.264L24.2,32.2a2.866,2.866,0,0,0,4,0l2.015-1.95a.969.969,0,0,1,.813-.264l2.776.393a2.866,2.866,0,0,0,3.238-2.352l.485-2.762a.968.968,0,0,1,.5-.692l2.477-1.314a2.866,2.866,0,0,0,1.237-3.806Zm-.9,4.643-2.477,1.314a2.86,2.86,0,0,0-1.486,2.045L35.169,27.7a.97.97,0,0,1-1.1.8L31.3,28.1a2.859,2.859,0,0,0-2.4.781l-2.015,1.95a.97.97,0,0,1-1.354,0l-2.015-1.95a2.857,2.857,0,0,0-1.994-.81,2.924,2.924,0,0,0-.41.029l-2.776.393a.97.97,0,0,1-1.1-.8l-.484-2.762a2.86,2.86,0,0,0-1.486-2.045l-2.477-1.314a.97.97,0,0,1-.418-1.288L13.6,17.771a2.86,2.86,0,0,0,0-2.528l-1.231-2.519a.97.97,0,0,1,.418-1.288l2.477-1.314a2.86,2.86,0,0,0,1.486-2.045l.484-2.762a.97.97,0,0,1,1.1-.8l2.776.393a2.86,2.86,0,0,0,2.4-.781l2.015-1.95a.97.97,0,0,1,1.354,0l2.015,1.95a2.859,2.859,0,0,0,2.4.781l2.776-.393a.97.97,0,0,1,1.1.8l.484,2.762a2.86,2.86,0,0,0,1.486,2.045l2.477,1.314a.97.97,0,0,1,.418,1.288L38.8,15.243a2.86,2.86,0,0,0,0,2.528l1.231,2.519A.97.97,0,0,1,39.616,21.578Z" transform="translate(-10.359 0.002)" fill="#8C734B"/>
        </g>
      </g>
      <g id="Group_101092" data-name="Group 101092" transform="translate(8.605 9.273)">
        <g id="Group_101091" data-name="Group 101091">
          <path id="Path_3428" data-name="Path 3428" d="M157.985,144.07a.952.952,0,0,0-1.347,0L144.07,156.639a.952.952,0,1,0,1.346,1.347l12.568-12.568A.952.952,0,0,0,157.985,144.07Z" transform="translate(-143.792 -143.792)" fill="#8C734B"/>
        </g>
      </g>
      <g id="Group_101094" data-name="Group 101094" transform="translate(8.541 7.94)">
        <g id="Group_101093" data-name="Group 101093">
          <path id="Path_3429" data-name="Path 3429" d="M146.293,123.116a3.491,3.491,0,1,0,3.491,3.491A3.5,3.5,0,0,0,146.293,123.116Zm0,5.078a1.587,1.587,0,1,1,1.587-1.587A1.589,1.589,0,0,1,146.293,128.194Z" transform="translate(-142.802 -123.116)" fill="#8C734B"/>
        </g>
      </g>
      <g id="Group_101096" data-name="Group 101096" transform="translate(16.158 18.096)">
        <g id="Group_101095" data-name="Group 101095">
          <path id="Path_3430" data-name="Path 3430" d="M264.413,280.61A3.491,3.491,0,1,0,267.9,284.1,3.5,3.5,0,0,0,264.413,280.61Zm0,5.078A1.587,1.587,0,1,1,266,284.1,1.589,1.589,0,0,1,264.413,285.688Z" transform="translate(-260.922 -280.61)" fill="#8C734B"/>
        </g>
      </g>
    </g>
  </g>
</svg>
