<?xml version="1.0" standalone="no"?>
<!DOCTYPE svg PUBLIC "-//W3C//DTD SVG 1.1//EN" "http://www.w3.org/Graphics/SVG/1.1/DTD/svg11.dtd" >
<svg xmlns="http://www.w3.org/2000/svg">
<metadata>Generated by IcoMoon</metadata>
<defs>
<font id="icomoon" horiz-adv-x="1024">
<font-face units-per-em="1024" ascent="960" descent="-64" />
<missing-glyph horiz-adv-x="1024" />
<glyph unicode="&#x20;" horiz-adv-x="512" d="" />
<glyph unicode="&#xe900;" glyph-name="babysitting" horiz-adv-x="1448" d="M715.687 2.192h621.908v-66.191h-621.908v66.191zM1123.933 262.348c0 53.42-82.819 53.42-82.819 0 0-23.403 0-46.795 0-70.198 0 0-0.15 0-0.15 0-42.029 0-84.048 0-126.226 0 7.854 11.851 15.698 23.703 23.552 35.713 12.161 18.317 12.931 35.095 5.386 49.723-3.847 7.384-13.24 15.089-22.634 20.475-44.947 26.010-89.903 52.032-134.85 78.042-46.336 26.79-87.895-44.796-41.719-71.427 30.327-17.547 60.655-35.095 90.982-52.65-18.317-27.56-36.633-55.259-54.959-82.819-1.389-1.998-23.703-28.938-23.703-59.725 0-45.106 37.562-82.819 82.819-82.819 67.121 0 134.23 0 201.351 0 37.103 0 69.119 25.552 79.281 59.725 2.308 5.077 3.537 10.932 3.537 17.547 0.15 52.801 0.15 105.602 0.15 158.402zM1045.881 833.464c0-69.885-56.65-126.536-126.536-126.536s-126.536 56.65-126.536 126.536c0 69.885 56.65 126.536 126.536 126.536s126.536-56.65 126.536-126.536zM1334.218 109.802c0-51.603-41.838-93.44-93.44-93.44s-93.44 41.838-93.44 93.44c0 51.603 41.838 93.44 93.44 93.44s93.44-41.838 93.44-93.44zM321.759-63.54h132.391c0 63.882 0 127.925 0 191.808h210.123l-109.909 365.449c53.261 25.092 106.371 50.343 159.632 75.434v-45.256c-0.15-30.787 4.006-62.034 28.789-76.503 69.268-40.79 138.697-81.59 207.976-122.229 55.259-32.486 105.292 53.261 50.182 85.747-62.034 36.483-123.918 72.816-185.962 109.299 0 53.42 0 106.831 0 160.25 1.689 24.012-3.078 48.493-14.779 68.499-34.024 58.036-101.445 68.499-158.553 41.559-116.374-55.109-232.757-110.068-349.131-165.178-27.4-12.931-44.796-38.181-52.491-66.651v0l-129.614-430.41h211.203c0.15-63.882 0.15-127.766 0.15-191.808z" />
<glyph unicode="&#xe901;" glyph-name="baggage-service" d="M512 927.672c-47.977 0-96.159-8.622-160.129-25.906v-138.351h-127.489v-794.839h575.236v794.839h-127.489c0 0 1.6 91.681 0 138.351-63.97 17.285-112.15 25.906-160.129 25.906zM512 862.078c31.983 0 63.889-5.061 95.873-15.432v-83.232h-191.746v83.232c31.983 10.372 63.889 15.432 95.873 15.432zM75.475 763.411c-45.633-0.946-75.475-8.4-75.475-68.9 3.198-215.208 0-587.895 0-657.038s32.415-68.9 96.381-68.9h63.745v794.839h-63.745c-7.123 0-14.39 0.134-20.909 0zM863.874 763.411v-794.839h63.745c58.512 0 96.381-0.242 96.381 68.9s-3.198 441.83 0 657.038c0 69.143-32.415 68.9-96.381 68.9z" />
<glyph unicode="&#xe902;" glyph-name="business-centre" horiz-adv-x="1448" d="M261.796 707.133c-9.941 20.868-0.976 45.972 20.049 55.755 21.035 9.941 45.972 0.976 55.755-20.049l241.781-509.64c9.941-20.868 0.976-45.972-20.049-55.755-20.868-9.941-45.972-0.976-55.755 20.049l-241.781 509.64zM262.122 526.823c-4.887 10.433-0.493 22.986 9.941 27.883s22.986 0.493 27.883-9.941l107.766-227.268c4.887-10.433 0.493-22.986-9.941-27.883s-22.986-0.493-27.883 9.941l-107.766 227.268zM309.247 366.562l17.282-317.26h224.657c5.873 0 10.433-4.729 10.433-10.433 0-5.873-4.729-10.433-10.433-10.433h-534.419c-5.873 0-10.433 4.729-10.433 10.433 0 5.873 4.729 10.433 10.433 10.433h222.213l45.321 374.158 24.946-56.898zM1441.667-63.844v396.82c0 11.577-9.459 21.035-21.035 21.035s-21.035-9.459-21.035-21.035v-396.82h42.060zM1117.23 624.146c98.633 0 178.517 75.154 178.517 167.927s-79.885 167.927-178.517 167.927c-98.633-0.168-178.517-75.323-178.517-168.083 0-92.604 79.885-167.759 178.517-167.759zM767.368 34.79l177.542 0.168c24.621-0.976 49.233 8.808 66.682 28.858l156.674 181.947v-309.762h168.083v536.055c0 46.464-37.656 84.121-84.121 84.121-27.883 0-52.494-13.527-67.825-34.395l-274.707-319.221-142.162-0.168c-46.297 0-83.796-37.499-83.796-83.796s37.499-83.796 83.638-83.796z" />
<glyph unicode="&#xe903;" glyph-name="business-services" horiz-adv-x="1448" d="M336.911 639.971h157.326v-70.52h-157.326v70.52zM409.121-64h629.764v384.097h-629.764v-384.097zM516.053 220.078h401.765c11.984 0 21.816-9.68 21.816-21.816 0-11.984-9.68-21.816-21.816-21.816h-401.765c-11.984 0-21.816 9.68-21.816 21.816 0.154 12.138 9.832 21.816 21.816 21.816zM516.053 93.633h401.765c11.984 0 21.816-9.68 21.816-21.816 0-11.984-9.68-21.816-21.816-21.816h-401.765c-11.984 0-21.816 9.68-21.816 21.816s9.832 21.816 21.816 21.816zM1166.249 786.235h-105.55v173.765h-673.397v-173.765h-105.55c-41.482 0-75.129-33.34-75.129-74.207v-468.751c0-40.867 33.647-74.207 75.129-74.207h83.887v194.66h716.877v-194.66h83.733c41.482 0 75.129 33.34 75.129 74.207v468.596c0 41.021-33.647 74.361-75.129 74.361zM430.937 916.367h586.13v-130.285h-586.13v130.285zM537.869 525.971h-244.439v157.633h244.439v-157.633zM995.711 582.972h-351.525c-11.984 0-21.816 9.68-21.816 21.816 0 11.984 9.68 21.816 21.816 21.816h351.678c11.984 0 21.816-9.832 21.816-21.816-0.154-11.984-9.832-21.816-21.97-21.816z" />
<glyph unicode="&#xe904;" glyph-name="concierge" horiz-adv-x="1448" d="M1126.832 780.081c0-99.367-80.552-179.919-179.919-179.919s-179.919 80.552-179.919 179.919c0 99.367 80.552 179.919 179.919 179.919s179.919-80.552 179.919-179.919zM1144.266 530.936h-160.625v-27.589c7.108-8.462 11.51-19.126 11.51-30.974s-4.4-22.511-11.51-30.805v-27.927l-36.729-205.985-36.729 205.985v27.927c-7.108 8.462-11.51 19.126-11.51 30.974s4.4 22.511 11.51 30.974v27.589h-160.625c-75.489 0-136.759-61.271-136.759-136.759v-391.321h668.392v391.151c-0.17 75.489-61.441 136.759-136.928 136.759zM1281.024-41.15c0-12.526-10.156-22.85-22.85-22.85h-1068.515c-12.526 0-22.85 10.156-22.85 22.85v0c0 12.526 10.156 22.85 22.85 22.85h1068.685c12.526 0 22.68-10.324 22.68-22.85v0zM310.339 3.025c0 37.067 29.958 67.025 67.025 67.025s67.025-29.958 67.025-67.025h-134.051zM389.382 98.148c0-6.731-5.456-12.186-12.186-12.186s-12.186 5.456-12.186 12.186c0 6.731 5.456 12.186 12.186 12.186s12.186-5.456 12.186-12.186zM381.936 84.438c0-6.094 0-13.372-4.57-13.372s-4.57 7.448-4.57 13.372h9.14z" />
<glyph unicode="&#xe905;" glyph-name="courier" horiz-adv-x="1448" d="M1152.999 590.97l-317.897 0.189c-100.388 0-192.128-81.966-192.128-184.045v-208.484h-236.12c-81.777 0-81.777-120.504 0-120.504h291.578l8.648 0.376c28.011-0.189 56.21 21.056 56.21 63.353v253.602h44.367v-435.956h379.371l0.189 435.956h43.614v-374.107c0-85.349 119.94-85.349 119.752 0v383.13c0 94.184-87.417 186.49-197.581 186.49zM97.229 720.498v-489.911h503.634v489.911h-503.634zM551.609 279.841h-405.126v391.214h162.615v-168.63h72.941v168.63h169.57v-391.214zM1127.245 788.363v0.189h0.189l0.189 41.735c-3.196 72.001-62.225 129.715-135.168 129.715-72.377 0-131.032-56.962-134.979-128.588h-110.164v-42.863l379.935-0.189zM856.911 753.208c1.504-73.505 61.285-132.535 135.168-132.535 73.13 0 132.535 58.278 134.791 131.032v0 0.189c0 0.376 0 0.94 0.189 1.315h-270.147z" />
<glyph unicode="&#xe906;" glyph-name="foreign-currency" horiz-adv-x="1448" d="M48.244 946.636c-26.037 0-48.251-27.948-48.251-48.251v-514.76c0-25.32 22.93-48.251 48.251-48.251h305.751v-337.758c0-25.32 22.93-48.251 48.251-48.251h997.51c25.32 0 48.251 22.93 48.251 48.251v514.76c0 25.32-22.93 48.251-48.251 48.251h-305.751v337.758c0 25.32-22.93 48.251-48.251 48.251h-997.51zM96.495 850.132h145.232c-40.847-59.478-64.971-131.616-64.971-209.249s23.887-149.77 64.971-209.249h-145.232v418.496zM373.104 850.132h347.792c60.195-50.162 99.609-124.45 99.609-209.249 0-28.186-4.539-55.178-12.659-80.498h-148.337c-1.434 49.207-20.305 65.688-40.607 81.932-24.841 22.693-87.904 29.142-87.904 46.817 0.956 8.121 7.406 16.004 16.004 16.004 18.392-0.477 29.859-16.004 48.251-16.004 12.899-0.24 26.992 2.867 36.308 12.182 18.631 18.631 17.677 53.029-1.911 70.466-15.287 15.287-32.964 22.693-50.162 26.754v3.582c0.477 18.154-17.437 34.635-35.592 32.724-15.766-1.671-28.903-16.721-28.665-32.724v-5.016c-46.34-14.093-81.932-64.017-80.498-107.49s20.305-65.211 40.607-81.454c27.469-19.825 82.409-26.992 87.904-47.296h-160.996c-25.32 0-48.251-22.93-48.251-48.251v-62.344c-49.207 49.207-80.498 115.85-80.498 191.095 0 84.082 39.413 158.368 99.609 208.77zM852.034 850.132h145.232v-289.747h-89.575c5.733 26.037 9.077 52.789 9.077 80.498 0.24 77.633-23.647 149.531-64.734 209.249zM450.497 463.884h145.232c-40.847-59.478-64.971-131.616-64.971-209.249s23.887-149.77 64.971-209.249h-145.232v418.496zM726.867 463.884h347.792c60.195-50.162 99.609-124.45 99.609-209.249s-39.653-158.847-100.086-209.249h-346.835c-60.433 50.162-100.086 124.21-100.086 209.249 0.24 84.799 39.653 159.085 99.609 209.249zM1206.035 463.884h145.232v-418.258h-145.232c40.847 59.478 64.971 131.616 64.971 209.249 0 77.393-23.887 149.531-64.971 209.009zM904.823 447.88c-50.162 0-94.83-27.231-118.24-64.971-15.049-24.126-23.647-51.356-27.709-80.021 0 0-6.449 0-8.121 0-25.32-1.194-43.712-26.754-43.235-48.251 0.717-22.693 22.93-49.685 48.251-48.251h3.105c4.061-28.425 12.659-55.178 27.709-79.544 23.41-37.502 67.839-65.451 118.24-65.451 52.552 0 94.83 34.398 117.761 71.421 13.376 21.499 5.972 53.506-15.527 66.882-21.736 13.376-53.506 5.493-66.882-16.004-12.899-21.020-29.859-25.558-39.174-25.558-10.032 0-22.453 4.778-31.77 19.588-4.299 6.927-8.121 16.721-10.988 28.665h42.758c25.558-0.477 48.728 22.693 48.728 48.251s-23.17 48.728-48.728 48.251h-42.279c2.867 11.705 6.449 21.976 10.511 28.665 9.317 14.81 17.198 19.588 31.77 19.588 13.138 0 26.275-3.822 39.174-25.081 13.138-21.499 44.669-29.142 66.405-16.004 21.499 13.138 29.142 44.669 16.004 66.405-22.693 37.263-65.211 71.421-117.761 71.421z" />
<glyph unicode="&#xe907;" glyph-name="limousine-services" horiz-adv-x="1448" d="M374.146 346.861c0-32.557-26.331-58.648-58.648-58.648-32.557 0-58.648 26.331-58.648 58.648s26.331 58.648 58.648 58.648c32.557 0.24 58.648-26.093 58.648-58.648zM1408.99 519.454h-209.458l-101.019 88.331h-846.69l-101.019-88.331h-111.791c-21.545 0-39.020-17.475-39.020-39.020v-74.686c0-21.545 17.475-39.020 39.020-39.020h160.864c9.337 55.536 57.451 97.668 115.621 97.668 57.929 0 106.286-42.37 115.621-97.668h751.415c9.337 55.536 57.451 97.668 115.621 97.668 57.929 0 106.046-42.131 115.381-97.427 19.39 2.393 34.471 18.671 34.471 38.54v74.686c0 21.783-17.475 39.258-39.020 39.258zM1297.917 405.749c-32.316 0-58.648-26.331-58.648-58.648 0-32.557 26.331-58.648 58.648-58.648 32.557 0 58.648 26.331 58.648 58.648 0.24 32.316-26.093 58.648-58.648 58.648z" />
<glyph unicode="&#xe908;" glyph-name="parking" horiz-adv-x="1448" d="M1085.535 959.999c-140.862 0-255.669-114.808-255.669-255.669 0-133.134 102.224-243.747 232.266-255.669v-464.753h-139.315v58.067c25.39 10.597 46.365 30.69 46.365 59.612v139.315c0 31.351-23.623 53.872-52.326 62.482l-90.081 224.981c-3.311 8.169-11.481 14.13-20.312 14.573h-467.181c-8.169-0.884-15.896-6.845-18.987-14.573l-90.081-224.981c0-0.441 0-0.884 0-1.545-27.818-9.053-50.781-30.247-50.781-60.937v-139.315c0-29.143 20.753-49.234 46.365-59.612v-58.067h-92.951c-1.988 0.221-3.974 0.221-5.74 0-12.806-1.545-21.857-13.248-20.312-26.052s13.248-21.857 26.052-20.312h1070.147c12.806-0.221 23.404 10.156 23.623 22.961s-10.156 23.404-22.961 23.623c-0.221 0-0.441 0-0.663 0h-94.495v464.753c130.262 11.922 233.812 122.535 233.812 255.669 0.441 140.862-115.692 255.45-256.773 255.45v0zM1015.988 822.008c0.441 0 0.884 0 1.545 0 0.884 0 1.988 0 2.87 0 0.441 0 0.884 0 1.545 0h92.951c51.001 0 92.951-41.95 92.951-92.951s-41.95-92.951-92.951-92.951h-71.093v-69.768c0.221-12.806-10.156-23.404-22.961-23.623s-23.404 10.156-23.623 22.961c0 0.221 0 0.441 0 0.663v232.266c0.221 1.988 0.663 3.974 1.545 5.74 0.441 0.884 0.884 1.988 1.545 2.87 0 0.441 0 0.884 0 1.545 0.441 0.441 0.884 0.884 1.545 1.545 0.441 0.884 0.884 1.988 1.545 2.87 0 0.441 0 0.884 0 1.545 0.441 0 0.884 0 1.545 0 0.884 1.104 1.766 1.988 2.87 2.87 0.884 0.441 1.988 1.104 2.87 1.545s1.988 1.104 2.87 1.545c0.441 0 0.884 0 1.545 0-0.221 0.221 0.221 0.884 0.884 1.325v0zM1043.585 775.643v-92.951h71.093c26.052 0 46.365 20.312 46.365 46.365s-20.312 46.365-46.365 46.365h-71.093zM356.722 496.791h434.286l73.963-185.901h-582.432l74.185 185.901zM336.409 213.524c22.52 0 40.625-18.105 40.625-40.625s-18.105-40.625-40.625-40.625c-22.52 0-40.625 18.105-40.625 40.625-0.221 22.52 18.105 40.625 40.625 40.625zM812.645 213.524c22.52 0 40.625-18.105 40.625-40.625s-18.105-40.625-40.625-40.625c-22.52 0-40.625 18.105-40.625 40.625s18.105 40.625 40.625 40.625zM365.333 32.037h418.168v-47.911h-418.168v47.911z" />
<glyph unicode="&#xe909;" glyph-name="pillow-menu" horiz-adv-x="1448" d="M1438.519 528.228c-9.069 14.65-37.812 10.046-65.159-10.046-54.276 25.673-189.897 60.834-350.493 89.158-43.951 7.813-86.368 14.371-125.994 19.812 0.419-3.070 0.837-6 1.256-9.069 8.651-66.135 13.115-127.807 12.418-172.177 12.278-12.139 22.045-25.812 28.184-39.486 9.907-22.045 9.627-42.696-0.976-58.043-8.651-12.697-22.882-19.674-40.045-19.674 0 0 0 0 0 0-15.766 0-33.765 6.14-51.206 17.301-57.903-20.79-166.875-44.091-292.728-62.648-0.976-15.069-1.535-28.463-1.535-40.045-0.419-0.419-0.976-0.697-1.395-1.116-28.324-22.185-43.532-52.463-34.045-67.81 9.209-14.65 37.812-10.046 65.159 10.046 54.276-25.673 189.897-60.834 350.493-89.158s299.984-41.58 359.841-35.998c18.836-28.184 44.231-42.416 57.765-31.813 14.093 11.023 10.186 44.788-8.791 75.345-0.279 0.559-0.697 0.976-0.976 1.535 14.232 38.928 30.138 102.692 42.974 175.525s19.674 138.272 19.534 179.711c0.419 0.419 0.976 0.697 1.395 1.116 28.603 21.906 43.812 52.183 34.324 67.531zM882.921 434.047c1.814 41.3-2.092 107.017-11.72 180.27s-22.882 137.713-35.3 177.2c0.279 0.419 0.697 0.976 0.976 1.395 20.371 29.719 25.673 63.206 12.139 74.926-13.115 11.302-39.067-1.814-59.16-29.162-59.578 8.093-199.385 0.976-360.957-20.371s-298.588-50.649-353.98-73.95c-26.511 21.208-54.974 27.208-64.74 12.977-10.186-14.79 3.767-45.765 31.114-69.205 0.419-0.419 0.976-0.697 1.395-1.116-1.814-41.3 2.092-107.017 11.72-180.27 9.627-73.391 22.882-137.713 35.3-177.2-0.279-0.419-0.697-0.976-0.976-1.395-20.371-29.719-25.673-63.206-11.999-74.926 13.115-11.302 39.067 1.814 59.16 29.3 59.578-8.093 199.385-0.976 360.957 20.371s298.588 50.649 353.98 73.95c26.511-21.208 54.974-27.208 64.74-12.977 10.186 14.79-3.767 45.765-31.114 69.205-0.697 0.279-1.116 0.559-1.535 0.976z" />
<glyph unicode="&#xe90a;" glyph-name="bed" horiz-adv-x="1448" d="M212.534 589.322v0c0 0 48.475 108.881 108.881 108.881h224.474c60.157 0 108.881-108.881 108.881-108.881v0c0 0-48.475-108.881-108.881-108.881h-224.474c-60.406 0-108.881 108.881-108.881 108.881zM1367.712 550.79c-3.231 1.739-6.712 1.739-9.943 1.739h-641.35c-53.695 0-97.197-97.197-97.197-97.197h-435.275v321.671c0 50.214-41.763 91.977-91.977 91.977s-91.977-41.763-91.977-91.977v-658.007c0-50.214 41.763-91.977 91.977-91.977s91.977 41.763 91.977 91.977v105.4h1086.568v-105.4c0-50.214 33.559-91.977 85.265-91.977 50.214 0 91.977 41.763 91.977 91.977v343.049c0.249 50.214-33.062 85.514-80.045 88.746z" />
<glyph unicode="&#xe90b;" glyph-name="mrt" horiz-adv-x="1448" d="M819.164 122.223l12.617-27.972h-224.685l11.097 27.972h-52.903l-74.034-186.223h52.903l11.097 27.972h335.81l12.617-27.972h52.903l-84.675 186.223h-52.75zM579.735 8.969l13.986 46.518h264.209l15.962-46.518h-294.157zM421.482 798.861v-257.825h279.26v279.411h-255.392c-0.152 0-23.867 0-23.867-21.586zM1049.778 960.001h-651.554c0 0-116.295 0-116.295-112.95v-565.055c0-112.95 116.295-112.95 116.295-112.95h651.554c0 0 116.295 0 116.295 112.95v565.055c0 112.95-116.295 112.95-116.295 112.95zM468 261.929c-25.691 0-46.518 20.826-46.518 46.518s20.826 46.518 46.518 46.518 46.518-20.826 46.518-46.518c0-25.691-20.826-46.518-46.518-46.518zM980.001 261.929c-25.691 0-46.518 20.826-46.518 46.518s20.826 46.518 46.518 46.518c25.691 0 46.518-20.826 46.518-46.518s-20.826-46.518-46.518-46.518zM1073.036 494.671h-698.071v306.623c0 65.672 69.777 65.672 69.777 65.672h558.518c0 0 69.777 0 69.777-65.672v-306.623zM1002.956 820.447h-255.696v-279.26h279.26v257.672c0 21.586-23.563 21.586-23.563 21.586z" />
<glyph unicode="&#xe90c;" glyph-name="shopping" horiz-adv-x="1448" d="M794.299 335.452c0 92.718 75.746 168.464 168.464 168.464 7.146 0 15.72-1.25 22.867-1.25v173.287h-182.934v-96.29c8.397-10.897 13.22-24.117 13.22-37.338 0-33.764-27.691-61.276-61.276-61.276s-61.276 27.691-61.276 61.276c0 13.22 4.823 26.439 13.22 37.338v96.29h-231.169v-96.29c8.397-10.897 13.22-24.117 13.22-37.338 0-33.764-27.691-61.276-61.276-61.276s-61.276 27.691-61.276 61.276c0 13.22 4.823 26.439 13.22 37.338v96.29h-182.934v-737.631h450.010v340.679c0 8.397 6.073 14.47 14.47 14.47h133.448v41.982zM890.59 335.452v-42.161h95.040v110.76c-7.146 2.322-14.47 3.574-22.867 3.574-39.66 0-72.173-32.335-72.173-72.173zM1131.227 264.529v-74.674c2.322-7.146 4.823-13.22 4.823-20.366 0-28.941-24.117-52.879-52.879-52.879s-53.058 23.938-53.058 52.879c0 7.146 1.25 14.47 4.823 20.366v73.424h-144.347v-74.674c2.322-7.146 4.823-13.22 4.823-20.366 0-28.941-24.117-52.879-52.879-52.879-28.941 0-52.879 24.117-52.879 52.879 0 7.146 1.25 14.47 4.823 20.366v73.424h-119.157v-326.029h576.312v328.531h-120.407zM427.36 500.342c22.867 0 42.161 19.294 42.161 42.161 0 11.969-4.823 22.867-13.22 30.013v194.903c0 74.674 60.204 134.7 134.7 134.7s134.7-60.204 134.7-134.7v-194.903c-8.397-7.146-13.22-18.044-13.22-30.013 0-22.867 19.294-42.161 42.161-42.161s42.161 19.294 42.161 42.161c0 11.969-4.823 22.867-13.22 30.013v194.903c0 105.937-86.643 192.581-192.581 192.581s-192.581-86.643-192.581-192.581v-194.903c-8.397-7.146-13.22-18.044-13.22-30.013 0-24.117 19.294-42.161 42.161-42.161zM813.593 335.452v-150.42c-2.322-4.823-4.823-10.897-4.823-16.792 0-18.044 14.47-33.764 33.764-33.764s33.764 14.47 33.764 33.764c0 6.073-1.25 11.969-4.823 16.792v150.42c0 50.557 40.91 91.466 91.466 91.466s91.466-40.91 91.466-91.466v-150.42c-2.322-4.823-4.823-10.897-4.823-16.792 0-18.044 14.47-33.764 33.764-33.764s33.764 14.47 33.764 33.764c0 6.073-1.25 11.969-4.823 16.792v150.42c0 83.071-67.349 149.17-149.17 149.17s-149.527-67.349-149.527-149.17z" />
<glyph unicode="&#xe90d;" glyph-name="airport" horiz-adv-x="1448" d="M1208.056 932.28c-27.87 27.72-84.808 18.879-121.52-17.681l-213.821-213.821-441.126 94.998c-54.541 9.89-87.506 5.244-138.301-55.44-41.655-49.897 27.271-76.267 97.845-106.985l289.040-126.015c-78.216-81.812-145.194-159.429-194.641-223.86-9.14-12.137-23.525-14.834-35.212-11.987l-143.696 30.867c-28.619 5.244-45.851 2.847-72.522-29.069-21.877-26.222 14.235-40.007 51.244-56.189l121.969-51.545c-10.039-20.528-14.534-36.261-12.436-45.851 0-0.299 0.15-0.299 0.299-0.6 0.15-0.15 0.299-0.15 0.6-0.299 9.589-2.098 25.322 2.247 45.851 12.436l51.395-122.118c16.183-37.011 29.968-73.121 56.189-51.244 31.916 26.671 34.313 43.902 29.069 72.522l-30.867 143.696c-2.847 11.537-0.15 26.073 12.137 35.212 64.431 49.447 142.047 116.575 223.86 194.641l126.015-288.889c30.867-70.575 57.089-139.5 107.135-97.845 60.835 50.795 65.479 83.91 55.44 138.301l-94.998 441.126 213.371 213.97c36.71 36.71 45.401 93.799 17.681 121.669v0z" />
<glyph unicode="&#xe90e;" glyph-name="entertainment" horiz-adv-x="1448" d="M1201.601 569.402c0-38.363-5.019-80.288-15.378-125.936-35.288-153.778-117.518-292.179-224.515-385.901-85.468-74.947-187.77-121.566-293.958-121.566-26.547 0-53.255 2.913-79.802 8.903-133.706 30.594-232.286 133.059-287.808 263.689-35.127 82.878-53.741 177.411-53.741 274.858 0 56.493 6.151 113.796 19.1 170.127 17.482 76.889 44.029 137.429 79.155 183.886 34.964 46.457 78.67 78.346 127.717 97.447 45 17.806 94.209 25.091 146.332 25.091 61.35 0 126.908-10.036 195.216-25.575 94.694-21.69 180.001-50.666 247.339-96.152 67.339-45.324 116.386-109.101 133.382-194.893 4.694-23.148 6.96-47.752 6.96-73.976zM636.993 263.627c-73.651 16.834-116.547 86.278-116.547 86.278-17.968 29.136-49.047 30.108-68.796 2.266 0 0-4.208-5.828-12.463-41.762-25.091-109.426 43.382-218.526 152.968-243.455 109.426-25.091 218.526 43.382 243.455 152.968 8.255 35.773 6.96 42.896 6.96 42.896-5.828 33.669-34.155 46.295-62.968 27.841-0.162 0-68.957-43.868-142.609-27.032zM641.526 566.974c11.169-18.13 30.431-18.777 42.896-1.457 0 0 2.59 3.722 7.77 26.061 15.539 68.148-27.032 136.134-95.342 151.674-68.148 15.539-136.134-27.032-151.674-95.342-5.019-22.338-4.371-26.709-4.371-26.709 3.561-21.043 21.367-28.813 39.335-17.32 0 0 42.896 27.356 88.868 16.834 45.648-10.522 72.518-53.741 72.518-53.741zM999.586 485.229c11.169-18.13 30.594-18.777 42.896-1.457 0 0 2.59 3.722 7.77 25.9 15.539 68.148-27.032 136.134-95.342 151.836-68.148 15.539-136.134-27.032-151.836-95.342-5.019-22.338-4.371-26.709-4.371-26.709 3.561-21.043 21.367-28.813 39.335-17.32 0 0 42.896 27.356 88.868 16.834s72.681-53.741 72.681-53.741z" />
<glyph unicode="&#xe90f;" glyph-name="tourist-attraction" horiz-adv-x="1448" d="M1349.232 584.759c-7.995 7.761-16.698 15.287-25.4 22.107v0l-121.59 103.244c-46.8 33.161-102.774 54.326-163.452 58.561l6.35-6.35-73.847 74.317-0.47-0.236c-20.461 18.814-47.976 30.104-78.080 30.104-51.505 0-95.248-33.631-110.299-80.197-14.817 9.407-32.219 15.287-50.799 16.463-3.057 0.236-6.114 0.47-9.173 0.47-21.167 0-40.686-6.114-57.385-16.698-15.051 46.331-58.794 79.726-110.065 79.726-30.104 0-57.385-11.524-78.080-30.104l-0.47 0.236-67.498-67.967c-60.676-4.233-116.649-25.4-163.452-58.561l-121.59-103.244c-8.937-7.056-17.404-14.345-25.4-22.107-60.676-58.794-98.541-141.109-98.541-232.123 0-178.033 144.872-322.905 322.905-322.905 164.627 0 300.796 123.705 320.552 283.158 23.754-13.641 51.269-21.401 80.667-21.401s56.913 7.761 80.667 21.401c19.755-159.217 155.924-282.922 320.318-282.922 178.033 0 322.905 144.872 322.905 322.905-0.236 91.25-38.099 173.328-98.775 232.123zM322.901 132.271c-121.824 0-220.365 98.775-220.365 220.365s98.775 220.365 220.365 220.365c7.056 0 13.875-0.47 20.695-0.942l27.751-4.469c98.541-22.107 171.917-109.83 171.917-214.955 0-121.824-98.775-220.365-220.365-220.365zM723.884 366.745c-42.332 0-77.61 30.104-85.841 69.849-1.176 5.644-1.645 11.524-1.645 17.404 0 48.448 39.275 87.487 87.487 87.487v0c42.332 0 77.61-30.104 85.841-69.849 1.176-5.644 1.645-11.524 1.645-17.404 0-48.212-39.275-87.487-87.487-87.487zM1124.869 132.505c-121.824 0-220.365 98.775-220.365 220.365 0 105.125 73.612 192.848 171.917 214.955l27.751 4.469c6.82 0.706 13.641 0.942 20.695 0.942 121.824 0 220.365-98.775 220.365-220.365 0-121.824-98.775-220.365-220.365-220.365z" />
<glyph unicode="&#xe910;" glyph-name="restaurant" horiz-adv-x="539" d="M250.625 612.575c-0.175-31.56-29.061-65.512-66.497-65.512v-534.892c-0.010-76.171-103.544-76.171-103.7 0v534.892c-36.334 0-68.060 28.114-67.992 69.973v294.749c-0.069 25.586 36.968 26.572 37.212-0.996v-217.817h30.779v219.818c0 23.497 35.651 25.020 35.738-1.005v-218.812h31.736v219.319c0.234 24.785 34.88 25.772 34.733-0.996v-218.325h31.775v219.319c-0.117 24.532 36.070 25.528 36.226-0.996v-298.723h-0.010zM526.496 843.316v-831.145c0.136-74.248-103.592-73.146-103.691 0v329.981h-55.086v501.164c-0.058 116.684 158.913 116.684 158.777 0v0z" />
<glyph unicode="&#xe911;" glyph-name="concierge-24hr" horiz-adv-x="1448" d="M1125.043 776.332c0-98.925-80.195-179.12-179.12-179.12s-179.12 80.195-179.12 179.12c0 98.925 80.195 179.12 179.12 179.12s179.12-80.195 179.12-179.12zM1142.399 528.293h-159.911v-27.467c7.077-8.425 11.459-19.041 11.459-30.836s-4.381-22.411-11.459-30.668v-27.803l-36.566-205.070-36.566 205.070v27.803c-7.077 8.425-11.459 19.041-11.459 30.836s4.381 22.411 11.459 30.836v27.467h-159.911c-75.153 0-136.152-60.999-136.152-136.152v-389.583h665.424v389.414c-0.169 75.153-61.168 136.152-136.32 136.152zM1278.55-41.252c0-12.47-10.111-22.748-22.748-22.748h-1063.769c-12.47 0-22.748 10.111-22.748 22.748v0c0 12.47 10.111 22.748 22.748 22.748h1063.938c12.47 0 22.579-10.278 22.579-22.748v0zM312.176 2.727c0 36.903 29.825 66.727 66.727 66.727s66.727-29.825 66.727-66.727h-133.456zM390.868 97.427c0-6.701-5.432-12.132-12.132-12.132s-12.132 5.432-12.132 12.132c0 6.701 5.432 12.132 12.132 12.132s12.132-5.432 12.132-12.132zM383.454 83.778c0-6.067 0-13.312-4.55-13.312s-4.55 7.415-4.55 13.312h9.099zM520.111 531.662c117.954 0 214.169 96.048 214.169 214.169s-96.048 214.169-214.169 214.169-214.169-96.048-214.169-214.169 96.048-214.169 214.169-214.169zM520.111 912.315c91.835 0 166.482-74.648 166.482-166.482s-74.648-166.482-166.482-166.482-166.482 74.648-166.482 166.482 74.648 166.482 166.482 166.482zM604.363 695.281l-60.493 60.493v108.854h-47.519v-128.906l74.142-74.142z" />
<glyph unicode="&#xe912;" glyph-name="guest-service-24hr" horiz-adv-x="1448" d="M1065.221 776.332c0-98.925-80.195-179.12-179.12-179.12s-179.12 80.195-179.12 179.12c0 98.925 80.195 179.12 179.12 179.12s179.12-80.195 179.12-179.12zM1246.7-18.503h-739.734c-12.638 0-22.748-10.278-22.748-22.748 0-12.638 10.278-22.748 22.748-22.748h739.566c12.638 0 22.748 10.278 22.748 22.748s-10.111 22.748-22.579 22.748zM607.058 745.832c0 118.121-96.048 214.169-214.169 214.169s-214.169-96.048-214.169-214.169 96.048-214.169 214.169-214.169c117.953 0 214.169 96.048 214.169 214.169zM392.889 579.35c-91.835 0-166.482 74.648-166.482 166.482s74.648 166.482 166.482 166.482c91.835 0 166.482-74.648 166.482-166.482s-74.648-166.482-166.482-166.482zM416.647 864.628h-47.519v-128.906l74.142-74.142 33.87 33.701-60.493 60.493zM1078.364 311.090c7.582 0 13.818 6.234 13.818 13.985 0 7.415-6.067 13.818-13.818 13.818s-13.818-6.234-13.818-13.818c0-7.751 6.067-13.985 13.818-13.985zM1059.155 236.612c0-6.234 4.886-11.29 11.29-11.29h22.411c6.067 0 11.29 4.886 11.29 11.29 0 6.067-5.055 11.29-11.29 11.29v43.979h0.169c0 6.234-5.055 11.29-11.29 11.29h-11.29c-6.234 0-11.29-4.886-11.29-11.29 0-6.067 4.886-11.29 11.29-11.29v-32.69c-6.234 0-11.29-5.055-11.29-11.29zM553.474 392.31v-389.582h665.423v389.413c-0.169 75.153-61.168 136.152-136.319 136.152h-159.911v-27.467c7.077-8.425 11.459-19.041 11.459-30.836s-4.381-22.411-11.459-30.668v-27.803l-36.566-205.069-36.566 205.069v27.803c-7.077 8.425-11.459 19.041-11.459 30.836s4.381 22.411 11.459 30.836v27.467h-159.911c-75.153 0-136.152-60.999-136.152-136.152zM1079.543 393.658c62.010 0 112.223-50.215 112.223-112.223s-50.215-112.223-112.223-112.223c-62.010 0-112.223 50.215-112.223 112.223s50.046 112.223 112.223 112.223z" />
<glyph unicode="&#xe918;" glyph-name="in-room-service" horiz-adv-x="1448" d="M1381.336 270.216c1.321-5.501 1.981-11.221 1.981-16.941 0-118.816-273.497-215.189-610.801-215.189s-610.801 96.373-610.801 215.189c0 5.72 0.881 11.442 1.981 16.941-42.685-28.164-66.669-59.847-66.669-93.292 0-118.816 302.541-215.189 675.49-215.189s675.49 96.373 675.49 215.189c-0.221 33.224-23.984 64.909-66.669 93.292zM1297.945 429.298c-76.13 174.043-244.012 302.101-445.559 329.164 1.981 6.601 3.52 13.421 3.52 20.682 0 38.944-32.785 70.629-73.27 70.629s-73.050-31.685-73.050-70.629c0-6.38 1.1-12.542 2.86-18.483-41.365-4.181-81.411-12.542-119.697-24.644 6.822-26.184 10.342-53.467 10.342-81.632 0-178.444-145.22-323.663-323.663-323.663-21.563 0-42.685 2.2-63.149 6.161-8.801-38.065-13.421-77.67-13.421-118.156 0-0.66 0-1.321 0-1.76 82.29-84.052 306.061-144.118 569.437-144.118s487.145 60.289 569.437 144.118c0 0.66 0 1.321 0 1.76 0.221 74.81-15.402 145.879-43.785 210.569zM783.077 763.743c-0.221 0-0.66 0-0.881 0-17.383 0.221-31.243 13.862-31.243 30.804s14.302 30.804 31.904 30.804c17.602 0 31.904-13.862 31.904-30.804-0.221-16.941-14.302-30.585-31.685-30.804zM279.649 374.95c154.021 0 279.657 125.417 279.657 279.657s-125.417 279.657-279.657 279.657-279.657-125.417-279.657-279.657 125.417-279.657 279.657-279.657zM279.649 871.998c119.916 0 217.389-97.473 217.389-217.389s-97.473-217.389-217.389-217.389-217.389 97.473-217.389 217.389 97.473 217.389 217.389 217.389zM389.664 588.6l-78.99 78.99v142.139h-62.049v-168.323l96.813-96.813z" />
<glyph unicode="&#xe919;" glyph-name="reception-24hr" horiz-adv-x="1448" d="M1369.661 118.033c-2.024 63.766-50.002 59.312-111.338 59.312h-848.401c-61.338 0-109.314 4.454-111.338-59.312-2.024-26.114-77.936-42.511-77.936-88.262s24.090-46.357 85.428-46.357h1056.503c61.338 0 85.428 3.036 85.428 46.357s-76.317 62.147-78.343 88.262zM939.893 656.912v86.035c0 0 2.227 24.899-28.948 24.899s-38.057 0-38.057 0v53.645h92.917c0 53.038-59.515 91.095-132.797 91.095-73.484 0-132.797-38.057-132.797-91.095h92.917v-53.645c0 0-10.728 0-39.879 0-29.352 0-26.924-26.924-26.924-26.924v-84.213c-61.135-15.587-119.841-32.591-173.688-53.645 3.036-16.802 4.454-34.211 4.454-51.823 0-156.886-121.258-286.040-275.108-298.792 0-1.822 0-3.846 0-5.669 0 0 0-25.912 38.868-25.912 23.887 0 991.927 0 1020.066 0 45.548 0 45.548 25.912 45.548 25.912 0 265.796-207.494 349.402-446.57 410.132zM257.285 294.151c141.704 0 257.293 115.388 257.293 257.293s-115.388 257.293-257.293 257.293-257.293-115.388-257.293-257.293 115.388-257.293 257.293-257.293zM257.285 751.449c110.326 0 200.005-89.678 200.005-200.005s-89.678-200.005-200.005-200.005-200.005 89.678-200.005 200.005 89.678 200.005 200.005 200.005zM358.502 490.714l-72.674 72.674v130.773h-57.087v-154.863l89.071-89.071z" />
<glyph unicode="&#xe91a;" glyph-name="security-24hr" horiz-adv-x="1448" d="M652.171 728.227l2.769-25.246c111.244-48.374 237.31-48.374 348.554 0l2.931 25.246c-112.873 50.002-241.545 50.002-354.254 0zM672.529 671.71c101.309-36.648 212.39-36.648 313.536 0 10.262-32.575 10.262-67.431 0-99.843-27.525-86.65-120.039-134.372-206.689-106.847-86.487 27.689-134.372 120.039-106.847 206.689zM1040.303 813.085l-40.231-60.753c-109.127 46.419-232.587 46.419-341.714 0l-40.231 60.753c-0.652 0.814-0.978 1.628-1.466 2.606-3.258 7.818 0.652 16.613 8.307 19.871 51.143 20.685 97.726 50.817 137.63 88.931 37.136 35.507 95.771 35.507 132.744 0 40.231-38.113 87.139-68.407 137.955-89.093 0.978-0.325 1.792-0.814 2.769-1.466 7.004-4.561 8.795-14.007 4.234-20.849zM829.216 917c-7.818-3.095-16.451-3.095-23.943 0.163-18.73-24.594-13.682-59.775 11.076-78.343 3.909-3.095 8.307-5.375 12.868-7.329 28.828 11.401 42.674 43.976 31.272 72.643-1.792 4.723-4.398 8.959-7.329 13.030-7.329-3.258-16.288-3.42-23.943-0.163zM435.708 121.84c107.824 0 195.614 87.79 195.614 195.614s-87.79 195.614-195.614 195.614-195.614-87.79-195.614-195.614 87.79-195.614 195.614-195.614zM435.708 469.418c83.881 0 152.126-68.245 152.126-152.126s-68.245-152.126-152.126-152.126-152.126 68.245-152.126 152.126 68.245 152.126 152.126 152.126zM512.586 271.36l-55.214 55.052v99.68h-43.488v-117.922l67.92-67.756zM978.085 433.748c-87.139-69.059-210.436-69.059-297.737 0-14.333-6.84-28.178-14.496-41.207-22.966 13.030-28.503 20.36-60.101 20.36-93.49 0-107.499-76.063-197.569-177.209-219.068 1.466-22.314 5.050-44.629 10.912-66.942 213.856-95.282 458.008-95.282 671.863 0 42.837 161.735-35.833 330.963-186.982 402.467zM980.691 140.408c-8.307 3.42-16.288 7.818-23.455 13.193-44.791 33.715-53.586 97.237-19.871 142.028 13.682-6.026 29.481-6.189 43.488-0.489 14.007-5.701 29.806-5.537 43.651 0.489 5.375-7.167 9.773-15.148 13.193-23.455 20.522-52.12-4.886-111.081-57.006-131.766z" />
<glyph unicode="&#xe91b;" glyph-name="airport-transfer" horiz-adv-x="1448" d="M465.753-0.212h-43.97c-29.262 0-53.104 23.843-53.104 53.104v37.931c0 23.687 16.101 44.435 38.242 50.937v155.751c0 28.642 13.934 54.034 35.3 69.825v87.32c1.394 5.728 4.336 8.67 7.277 8.67h53.569c2.942 0 5.728 1.394 7.277 5.728l53.569 237.499c1.394 4.336-2.942 8.67-7.277 8.67h-78.186c-4.336 0-7.277 2.942-7.277 7.277v73.85c0 4.336-2.942 7.277-7.277 7.277h-118.749c-4.336 0-7.277 2.942-7.277 7.277v62.239c0 4.336 2.942 7.277 7.277 7.277h59.452c4.336 0 7.277 2.942 7.277 7.277v65.025c0 4.336-2.942 7.277-7.277 7.277h-211.333c-4.336 0-7.277-2.942-7.277-7.277v-65.18c0-4.336 2.942-7.277 7.277-7.277h59.452c4.336 0 7.277-2.942 7.277-7.277v-66.574c0-4.336-2.942-7.277-7.277-7.277h-118.749c-4.336 0-7.277-2.942-7.277-7.277v-73.85c0-4.336-2.942-7.277-7.277-7.277h-78.186c-4.336 0-7.277-4.336-7.277-8.67l56.511-234.557c0-2.942 2.942-5.728 7.277-5.728h53.569c4.336 0 7.277-2.942 7.277-7.277v-362.131c0-4.336-2.942-7.277-7.277-7.277h-98.467c-4.336 0-7.277-2.942-7.277-7.277v-127.419c0-4.336 2.942-7.277 7.277-7.277h438.149c-13.005 16.101-21.83 35.3-25.237 56.665zM259.839 521.077c0-4.336-2.942-7.277-7.277-7.277h-107.138c-1.394 0-4.336 2.942-5.728 5.728l-34.836 134.696c-1.394 4.336 1.394 8.67 5.728 8.67h141.972c4.336 0 7.277-2.942 7.277-7.277v-134.541zM340.966 522.471v133.302c0 4.336 2.942 7.277 7.277 7.277h140.424c4.336 0 7.277-4.336 7.277-8.67l-34.836-134.696c-1.394-2.942-2.942-4.336-5.728-4.336h-107.138c-4.49 0-7.277 2.786-7.277 7.122zM407.385 90.824v-37.931c0-7.896 6.348-14.399 14.399-14.399h83.14c-1.394-6.039-2.168-12.231-2.168-18.733 0-46.292 37.467-83.76 83.76-83.76s83.76 37.467 83.76 83.76c0 6.502-0.774 12.696-2.168 18.733h11.147c-1.394-6.039-2.168-12.231-2.168-18.733 0-46.292 37.467-83.76 83.76-83.76s83.76 37.467 83.76 83.76c0 6.502-0.774 12.696-2.168 18.733h322.497c-1.394-6.039-2.168-12.231-2.168-18.733 0-46.292 37.467-83.76 83.76-83.76s83.76 37.467 83.76 83.76c0 6.502-0.774 12.696-2.168 18.733h71.528c7.896 0 14.399 6.502 14.399 14.399v37.931c0 7.896-6.502 14.399-14.399 14.399h-25.391v74.161c0 21.21-17.185 38.396-38.396 38.396h-41.338l-73.541 103.732c-13.005 17.185-25.391 23.998-45.208 23.998h-682.459c-26.475 0-47.995-21.366-47.995-47.995v-192.29h-23.843c-7.587-0.155-14.089-6.502-14.089-14.399zM1205.807 19.76c0 22.604 18.269 41.028 41.028 41.028 22.604 0 41.028-18.424 41.028-41.028s-18.269-41.028-41.028-41.028c-22.604 0-41.028 18.424-41.028 41.028zM1105.482 196.413c4.954 0 8.67-1.858 10.993-4.8h34.68c12.85 0 12.85-19.198 0-19.198h-34.68c-2.477-2.786-6.039-4.8-11.147-4.8-19.198 0-19.198 28.797 0.155 28.797zM1084.89 232.178v65.336c0 7.896 6.502 14.399 14.399 14.399h73.386c8.051 0 10.993-0.774 18.269-10.373l49.233-69.361c5.574-7.896 3.716-14.399-4.18-14.399h-136.709c-7.896 0-14.399 6.348-14.399 14.399v0zM1000.203 191.614h34.68c2.322 2.786 6.039 4.8 10.993 4.8 19.198 0 19.198-28.797 0-28.797-4.954 0-8.67 2.012-11.147 4.8h-34.68c-12.696 0-12.696 19.198 0.155 19.198zM719.973 19.76c0 22.604 18.424 41.028 41.028 41.028s41.028-18.424 41.028-41.028-18.269-41.028-41.028-41.028c-22.604 0-41.028 18.424-41.028 41.028zM545.642 19.76c0 22.604 18.269 41.028 40.873 41.028s41.028-18.424 41.028-41.028-18.269-41.028-41.028-41.028c-22.604 0-40.873 18.424-40.873 41.028z" />
<glyph unicode="&#xe91c;" glyph-name="babycot" horiz-adv-x="1448" d="M75.495 960v-1023.999h121.956v147.417c329.28-96.067 701.567-97.35 1053.098-1.712v-145.705h121.956v1023.999h-121.956v-144.636h-1053.098v144.636h-121.956zM197.451 754.387h107.834v-572.978c-36.8 8.773-72.318 19.47-107.834 30.81v542.169zM366.264 754.387h60.977v-597.797c-20.539 3.423-40.653 8.345-60.977 12.41v585.388zM488.218 754.387h60.977v-612.774c-20.539 1.926-40.653 4.92-60.977 7.488v605.285zM610.174 754.387h60.977v-619.62c-20.326 0.642-40.653 1.070-60.977 2.354v617.268zM732.13 754.387h60.977v-618.55c-20.326-0.857-40.653-2.139-60.977-2.354v620.904zM854.086 754.387h60.977v-609.992c-20.326-2.139-40.653-4.92-60.977-6.204v616.197zM976.042 754.387h60.977v-593.731c-20.326-3.423-40.653-6.419-60.977-9.2v602.931zM1097.998 754.387h152.337v-544.521c-50.495-14.762-101.202-27.173-152.337-37.442v581.965z" />
<glyph unicode="&#xe91d;" glyph-name="gym" horiz-adv-x="1373" d="M1372.991 448.765c0 35.205-26.021 64.287-58.164 68.879v68.879c0 38.266-30.613 70.41-68.879 70.41-27.552 0-50.511-15.306-61.226-38.266v134.697c0 38.266-30.613 70.41-68.879 70.41-32.143 0-59.695-21.429-67.348-52.042v117.859c0 38.266-30.613 70.41-68.879 70.41s-68.879-32.143-68.879-70.41v-371.945h-448.477v371.945c0 38.266-30.613 70.41-68.879 70.41s-68.879-32.143-68.879-70.41v-108.676c-12.245 24.49-36.735 41.327-64.287 41.327-38.266 0-68.879-32.143-68.879-70.41v-136.227c-10.714 24.49-35.205 39.797-62.756 39.797-38.266 0-68.879-32.143-68.879-70.41v-68.879c-33.674-4.592-59.695-32.143-59.695-67.348s26.021-64.287 58.164-68.879v-68.879c0-38.266 30.613-70.41 68.879-70.41 27.552 0 52.042 16.837 62.756 39.797v-136.227c0-38.266 30.613-70.41 68.879-70.41 27.552 0 52.042 16.837 62.756 41.327v-108.676c0-38.266 30.613-70.41 68.879-70.41s68.879 32.143 68.879 70.41v371.945h445.416v-371.945c0-38.266 30.613-70.41 68.879-70.41s68.879 32.143 68.879 70.41v119.39c7.653-30.613 35.205-52.042 67.348-52.042 38.266 0 68.879 32.143 68.879 70.41v134.697c12.245-22.96 35.205-38.266 61.226-38.266 38.266 0 68.879 32.143 68.879 70.41v67.348c39.797 6.123 64.287 35.205 64.287 70.41z" />
<glyph unicode="&#xe91e;" glyph-name="laundry" horiz-adv-x="989" d="M0-64h988.69v780.359h-988.69v-780.359zM296.607 350.308c0 121.232 100.046 220.101 222.455 220.101s222.455-97.692 222.455-220.101c0-121.232-100.046-218.924-222.455-218.924s-222.455 97.692-222.455 218.924zM0 764.616h988.69v195.384h-988.69v-195.384zM49.434 911.743h247.172v-97.692h-247.172v97.692zM840.386 887.025c0 12.947 10.593 24.717 24.717 24.717s24.717-10.593 24.717-24.717c0-14.124-10.593-24.717-24.717-24.717s-24.717 10.593-24.717 24.717zM741.517 887.025c0 12.947 10.593 24.717 24.717 24.717s24.717-10.593 24.717-24.717c0-14.124-10.593-24.717-24.717-24.717s-24.717 10.593-24.717 24.717z" />
<glyph unicode="&#xe91f;" glyph-name="mug" horiz-adv-x="819" d="M45.273 454.072c0 0-45.275-329.95 378.801-329.923 334.964 0.018 334.964 325.277 334.964 325.277-189.735-307.191-704.731-135.525-713.765 4.643zM782.148 690.617l-56.604 51.012c-28.143 25.362-65.079 30.249-82.516 10.914-13.688-15.205-11.177-40.829 4.155-63.425-9.288-9.757-21.746-22.48-29.897-29.399-59.144 28.677-135.029 45.925-217.781 45.925-188.885 0-342.011-89.808-342.011-200.586 0-110.795 153.126-200.596 342.011-200.596s342.011 89.798 342.011 200.596c0 27.512-9.477 53.741-26.562 77.629l25.416 23.338c23.4-11.692 47.967-11.050 61.22 3.668 17.41 19.327 8.709 55.565-19.444 80.927zM219.703 393.058c-50.957 28.387-82.788 68.484-82.788 112.947 0 86.050 118.937 155.8 265.646 155.8 65.43 0 125.287-13.905 171.583-36.907-66.516-51.779-156.178-115.828-156.178-115.828-109.956-54.97-167.789-92.121-198.265-116.009zM466.846 354.83l196.574 180.519c3.099-9.514 4.771-19.308 4.771-29.355 0-73.020-85.706-134.306-201.346-151.165z" />
<glyph unicode="&#xe920;" glyph-name="clean" horiz-adv-x="1016" d="M587.109 610.258c-50.455 22.934-107.789 24.081-155.951-1.147l-350.889 350.889-80.269-80.269 350.889-350.889c0 0 1.147-2.293 0-3.44-28.667-61.922-20.641-137.604 16.054-188.058l252.273 252.273c-8.027 6.88-20.641 16.054-32.108 20.641zM412.811 281.156c66.508-108.936 122.697-223.606 157.097-345.156 28.667 14.907 57.335 30.961 84.856 48.161l-43.574 123.843 82.562-98.616c35.548 25.227 68.802 52.748 100.909 82.562l-95.176 151.364 139.897-106.643c30.961 32.108 58.482 65.362 86.002 102.056l-134.163 134.163 172.004-80.269c16.054 22.934 35.548 57.335 52.748 87.149-121.55 30.961-229.339 84.856-345.156 159.391l-258.007-258.007z" />
<glyph unicode="&#xe921;" glyph-name="guest" horiz-adv-x="819" d="M560.982 699.124c0-81.186-65.814-147-147-147s-147 65.814-147 147c0 81.186 65.814 147 147 147s147-65.814 147-147zM766.608 216.126c0 0-206.501 263.375-251.124 279.999 0 0 6.125 42.875-20.126 37.624s-67.376-16.624-80.501-17.501c-14 0.874-54.25 12.251-80.501 17.501s-21.875-37.624-21.875-37.624c-44.624-16.624-251.124-279.999-251.124-279.999s-58.623-50.75-7-97.999 95.376 5.251 95.376 5.251l104.125 120.749-14.874-195.125h346.5l-14.874 195.125 104.125-120.749c0 0 43.749-52.501 95.376-5.251s-3.502 97.999-3.502 97.999z" />
<glyph unicode="&#xe922;" glyph-name="leaf" horiz-adv-x="1043" d="M1035.296 515.847c-14.95 21.849-174.792 8.050-236.889-29.899-34.498-21.849-77.047-45.998-108.095-77.047 17.25 21.849 70.147 106.946 60.948 179.392-6.899 57.498-63.247 125.344-106.946 193.191-57.498 90.846-74.747 174.792-123.045 174.792s-65.547-83.946-124.195-174.792c-43.698-66.698-98.896-135.694-106.946-193.191-9.2-72.446 44.848-157.543 60.948-179.392-29.899 33.349-72.446 56.347-106.946 77.047-60.948 37.948-221.941 52.898-236.889 31.049-8.050-11.5-6.899-105.795 37.948-185.142 43.698-75.896 142.594-125.344 147.193-167.893 4.599-41.398-34.498-97.746-34.498-106.946 0-11.5 85.096-111.545 174.792-117.295 90.846-4.599 186.292 95.446 186.292 95.446s95.446-100.045 186.292-95.446c89.696 4.599 175.943 105.795 175.943 117.295 0 9.2-39.099 64.397-34.498 106.946s103.495 90.846 147.193 167.893c48.298 79.347 48.298 173.642 41.398 183.992zM1011.147 492.848c-2.3-3.45-8.050-9.2-13.799-13.799-12.649-12.649-32.198-28.748-52.898-49.448-44.848-41.398-102.346-96.596-162.143-151.793-59.797-54.047-119.595-110.396-166.743-148.344-24.149-19.549-43.698-34.498-59.797-44.848 2.3-1.15 6.899-2.3 10.349-3.45 11.5-4.599 24.149-9.2 37.948-14.95 14.95-3.45 29.899-10.349 45.998-12.649 8.050-1.15 14.95-3.45 24.149-4.599 8.050-2.3 14.95-2.3 22.999-3.45 14.95-1.15 28.748-3.45 41.398-2.3 12.649 0 22.999 1.15 29.899 1.15s11.5-1.15 11.5-1.15-3.45-2.3-11.5-3.45c-8.050-3.45-17.25-4.599-28.748-5.75-12.649-2.3-26.449-1.15-43.698-1.15-8.050 0-16.099 0-24.149 1.15s-16.099 1.15-25.299 2.3c-16.099 1.15-33.349 4.599-49.448 9.2-14.95 3.45-28.748 8.050-41.398 11.5s-21.849 8.050-28.748 10.349c-2.3 1.15-3.45 1.15-4.599 1.15s-2.3-1.15-3.45-1.15c-8.050-2.3-16.099-6.899-28.748-10.349-11.5-3.45-26.449-8.050-41.398-11.5-14.95-2.3-32.198-6.899-49.448-9.2-9.2-1.15-16.099-1.15-25.299-2.3-8.050-1.15-16.099-1.15-24.149-1.15-14.95 1.15-29.899-1.15-43.698 1.15-12.649 1.15-22.999 3.45-28.748 3.45-8.050 1.15-11.5 3.45-11.5 3.45s3.45 2.3 11.5 1.15c8.050 0 17.25 0 29.899-1.15s26.449 2.3 41.398 2.3c8.050 1.15 14.95 1.15 22.999 3.45 8.050 1.15 14.95 2.3 24.149 4.599 14.95 2.3 32.198 9.2 45.998 12.649 13.799 4.599 27.599 10.349 37.948 14.95 3.45 1.15 6.899 2.3 9.2 3.45-14.95 10.349-35.649 25.299-59.797 44.848-48.298 37.948-108.095 93.146-166.743 148.344-59.797 56.347-118.445 110.396-162.143 151.793-21.849 20.699-40.248 37.948-52.898 49.448-6.899 6.899-11.5 10.349-14.95 13.799-2.3 3.45-3.45 6.899-3.45 6.899s2.3-1.15 6.899-3.45c2.3-1.15 6.899-4.599 14.95-11.5 13.799-11.5 33.349-27.599 56.347-48.298 45.998-39.099 106.946-93.146 169.043-146.044 60.948-51.748 123.045-103.495 171.342-140.294 24.149-17.25 44.848-33.349 58.648-40.248 1.15 0 1.15-1.15 1.15-1.15 0 59.797 1.15 218.49 4.599 376.033 1.15 100.045 2.3 200.092 3.45 274.838 1.15 37.948 1.15 68.997 1.15 90.846 0 10.349 0 19.549 1.15 25.299 1.15 6.899 3.45 9.2 3.45 9.2s2.3-2.3 3.45-9.2c1.15-4.599 1.15-13.799 1.15-25.299 0-21.849 1.15-52.898 1.15-90.846 1.15-74.747 2.3-174.792 3.45-274.838 2.3-158.693 3.45-316.236 4.599-377.184l1.15 1.15c13.799 8.050 34.498 22.999 58.648 40.248 48.298 36.799 110.396 88.547 171.342 140.294 60.948 52.898 121.894 105.795 169.043 146.044 22.999 20.699 41.398 36.799 56.347 48.298 6.899 4.599 12.649 10.349 16.099 12.649s6.899 3.45 6.899 3.45-1.15 0-3.45-4.599z" />
<glyph unicode="&#xe923;" glyph-name="pool" horiz-adv-x="1488" d="M1201.107 377.157c83.723 0 151.346 69.233 151.346 152.956 0 85.333-67.623 152.956-151.346 152.956s-151.346-69.233-151.346-152.956 61.182-152.956 151.346-152.956zM1115.774 88.956c-101.434 0-156.176 25.761-202.868 49.912-45.082 22.541-85.333 41.862-169.057 41.862s-122.365-19.321-169.057-41.862c-46.692-22.541-101.434-49.912-202.868-49.912s-156.176 25.761-202.868 49.912c-41.862 20.931-78.893 38.642-151.346 41.862-9.66 0-17.711 8.050-17.711 17.711v41.862c0 9.66 8.050 17.711 19.321 17.711 90.164-3.22 140.075-27.371 183.547-48.302 45.082-22.541 85.333-41.862 169.057-41.862s122.365 19.321 169.057 41.862c46.692 22.541 101.434 49.912 202.868 49.912s156.176-25.761 202.868-49.912c45.082-22.541 85.333-41.862 169.057-41.862s122.365 19.321 169.057 41.862c45.082 20.931 93.384 46.692 183.547 48.302 9.66 0 19.321-8.050 19.321-17.711v-41.862c0-9.66-8.050-17.711-17.711-17.711-72.453-3.22-109.484-20.931-151.346-41.862-46.692-22.541-101.434-49.912-202.868-49.912zM600.553 763.572c-24.151 57.962 17.711 104.654 49.912 112.704l454.038 83.723h9.66c48.302 0 86.943-38.642 86.943-86.943 0-43.472-30.591-78.893-74.063-86.943l-293.031-54.742 260.83-468.528c-67.623 3.22-104.654 20.931-144.906 40.252-46.692 22.541-101.434 49.912-202.868 49.912s-156.176-25.761-202.868-49.912c-45.082-22.541-85.333-41.862-169.057-41.862-41.862 0-72.453 4.83-98.214 12.881l368.704 218.969 78.893 43.472-119.145 215.748c-1.61 4.83-3.22 8.050-4.83 11.27zM1115.774-64.001c-101.434 0-156.176 25.761-202.868 49.912-45.082 22.541-85.333 41.862-169.057 41.862s-122.365-19.321-169.057-41.862c-46.692-22.541-101.434-49.912-202.868-49.912s-156.176 25.761-202.868 49.912c-41.862 20.931-78.893 38.642-151.346 41.862-9.66 0-17.711 8.050-17.711 17.711v41.862c0 9.66 8.050 17.711 19.321 17.711 90.164-3.22 140.075-27.371 183.547-48.302 45.082-22.541 85.333-41.862 169.057-41.862s122.365 19.321 169.057 41.862c46.692 22.541 101.434 49.912 202.868 49.912s156.176-25.761 202.868-49.912c45.082-22.541 85.333-41.862 169.057-41.862s122.365 19.321 169.057 41.862c45.082 20.931 93.384 46.692 183.547 48.302 9.66 0 19.321-8.050 19.321-17.711v-41.862c0-9.66-8.050-17.711-17.711-17.711-72.453-3.22-109.484-20.931-151.346-41.862-46.692-24.151-101.434-49.912-202.868-49.912z" />
<glyph unicode="&#xe924;" glyph-name="mail" horiz-adv-x="1434" d="M745.244 214.756c-8.533-8.533-22.756-14.222-36.978-14.222s-25.6 5.689-36.978 14.222l-665.6 668.444c-2.844-8.533-5.689-17.067-5.689-25.6v-819.2c0-56.889 45.511-102.4 102.4-102.4h1228.8c56.889 0 102.4 45.511 102.4 102.4v819.2c0 14.222-2.844 28.444-8.533 39.822l-679.822-682.667zM708.267 325.689l631.467 631.467c-2.844 0-5.689 2.844-8.533 2.844h-1228.8c-8.533 0-17.067-2.844-25.6-5.689l631.467-628.622z" />
<glyph unicode="&#xe925;" glyph-name="phone" horiz-adv-x="1045" d="M280.62 294.599c158.049-191.253 543.211-374.537 636.182-333.364s112.893 130.158 108.908 171.33c-3.985 41.172-215.16 167.347-268.286 191.253s-114.221-53.126-143.44-86.33c-30.548-31.876-147.424 65.080-197.893 114.221 0 0-132.815 148.752-102.267 180.628s106.252 95.626 79.689 147.424-160.706 258.988-203.206 261.645c-41.172 2.656-128.83-21.25-166.019-115.549s140.784-454.226 338.677-604.306z" />
<glyph unicode="&#xe926;" glyph-name="room-service" horiz-adv-x="1556" d="M1474.114 291.033c0-6.825 3.412-13.649 3.412-20.474 0-136.492-313.934-249.098-702.937-249.098s-702.937 112.606-702.937 249.098c0 6.825 0 13.649 3.412 20.474-47.773-34.122-75.070-68.247-75.070-105.781 0-136.492 348.056-249.098 778.008-249.098s778.008 112.606 778.008 249.098c-3.412 37.536-30.711 75.070-81.896 105.781zM1378.569 475.298c-88.721 201.327-279.809 348.056-511.847 378.767 3.412 6.825 3.412 17.062 3.412 23.886 0 44.359-37.536 81.896-85.307 81.896s-85.307-37.536-85.307-81.896c0-6.825 0-13.649 3.412-20.474-242.275-23.886-443.6-174.028-535.733-382.178-34.122-75.070-51.185-156.966-51.185-242.275 0 0 0 0 0-3.412 95.544-95.544 351.468-167.203 655.164-167.203s559.62 68.247 655.164 167.203c0 0 0 0 0 3.412 3.412 85.307-13.649 167.203-47.773 242.275zM784.826 932.547c20.474 0 37.536-17.062 37.536-34.122 0-20.474-17.062-34.122-37.536-34.122 0 0 0 0 0 0-20.474 0-37.536 17.062-37.536 34.122 3.412 17.062 17.062 34.122 37.536 34.122z" />
<glyph unicode="&#xe927;" glyph-name="fence" horiz-adv-x="819" d="M597.185 38.505v153.561h-136.498v-102.374h68.25v34.124h-34.124v34.124h68.25v-102.374h-136.498v170.624h375.371v-170.624h-136.498v102.374h68.25v-34.124h-34.124v-34.124h68.25v102.374h-136.498v-153.561h187.685v818.991h-187.685v-153.561h136.498v102.374h-68.25v-34.124h34.124v-34.124h-68.25v102.374h136.498v-170.624h-375.371v170.624h136.498v-102.374h-68.25v34.124h34.124v34.124h-68.25v-102.374h136.498v153.561h-375.371v-153.561h136.498v102.374h-68.25v-34.124h34.124v-34.124h-68.25v102.374h136.498v-170.624h-375.371v170.624h136.498v-102.374h-68.25v34.124h34.124v34.124h-68.25v-102.374h136.498v153.561h-187.685v-818.991h187.685v153.561h-136.498v-102.374h68.25v34.124h-34.124v34.124h68.25v-102.374h-136.498v170.624h375.371v-170.624h-136.498v102.374h68.25v-34.124h-34.124v-34.124h68.25v102.374h-136.498v-153.561h375.371zM392.437 260.315h-375.371v170.624h136.498v-102.374h-68.25v34.124h34.124v34.124h-68.25v-102.374h136.498v307.121h-136.498v-102.374h68.25v34.124h-34.124v34.124h68.25v-102.374h-136.498v170.624h375.371v-170.624h-136.498v102.374h68.25v-34.124h-34.124v-34.124h68.25v102.374h-136.498v-307.121h136.498v102.374h-68.25v-34.124h34.124v-34.124h-68.25v102.374h136.498v-170.624zM767.808 294.439v102.374h-68.25v-34.124h34.124v-34.124h-68.25v102.374h136.498v-170.624h-375.371v170.624h136.498v-102.374h-68.25v34.124h34.124v34.124h-68.25v-102.374h136.498v307.121h-136.498v-102.374h68.25v34.124h-34.124v34.124h68.25v-102.374h-136.498v170.624h375.371v-170.624h-136.498v102.374h68.25v-34.124h-34.124v-34.124h68.25v102.374h-136.498v-307.121h136.498z" />
<glyph unicode="&#xe928;" glyph-name="shower" horiz-adv-x="950" d="M617.799 764.287h-285.234c-123.065 0-228.878-70.158-265.682-181.722h816.598c-36.804 111.563-141.467 181.722-265.682 181.722zM0.175 531.96h950.013v-120.764h-950.013v120.764zM331.415 959.811h286.384v-144.918h-286.384v144.918zM72.633 334.136h60.958v-60.958h-60.958v60.958zM72.633 189.219h60.958v-83.96h-60.958v83.96zM72.633 21.299h60.958v-60.958h-60.958v60.958zM221.002 370.94h60.958v-60.958h-60.958v60.958zM221.002 226.024h60.958v-83.96h-60.958v83.96zM221.002 56.953h60.958v-60.958h-60.958v60.958zM370.52 321.485h60.958v-60.958h-60.958v60.958zM370.52 176.567h60.958v-83.96h-60.958v83.96zM370.52 8.647h60.958v-60.958h-60.958v60.958zM668.405 358.289h60.958v-60.958h-60.958v60.958zM668.405 213.372h60.958v-83.96h-60.958v83.96zM668.405 45.452h60.958v-60.958h-60.958v60.958zM816.773 309.984h60.958v-60.958h-60.958v60.958zM816.773 165.066h60.958v-83.96h-60.958v83.96zM816.773-2.854h60.958v-60.958h-60.958v60.958zM518.887 345.638h60.958v-60.958h-60.958v60.958zM518.887 201.871h60.958v-83.96h-60.958v83.96zM518.887 32.8h60.958v-60.958h-60.958v60.958z" />
<glyph unicode="&#xe929;" glyph-name="tv" horiz-adv-x="940" d="M900.138 565.99h-860.63c-21.356 0-39.508-18.152-39.508-39.508v-552.042c0-21.356 18.152-38.44 39.508-38.44h860.63c21.356 0 39.508 17.084 39.508 38.44v552.042c0 21.356-18.152 39.508-39.508 39.508zM685.514 35.303c-11.746-11.746-133.472-13.881-272.284-13.881-151.625 0-300.046 2.136-311.791 13.881s-23.491 107.846-23.491 214.624c0 108.913 10.678 205.014 23.491 217.827s168.709 19.22 313.927 19.22c147.353 0 259.47-8.542 270.148-19.22s21.356-104.642 21.356-211.42c0-109.981-9.61-209.285-21.356-221.030zM875.579 49.185c0-7.474-4.271-17.084-11.746-17.084h-66.202c-7.474 0-18.152 9.61-18.152 17.084v402.553c0 7.474 10.678 18.152 18.152 18.152h66.202c7.474 0 11.746-10.678 11.746-18.152v-402.553zM830.732 442.127c10.678 0 19.22-8.542 19.22-19.22s-8.542-19.22-19.22-19.22c-10.678 0-19.22 8.542-19.22 19.22s8.542 19.22 19.22 19.22zM830.732 388.738c10.678 0 19.22-8.542 19.22-19.22s-8.542-19.22-19.22-19.22c-10.678 0-19.22 8.542-19.22 19.22s8.542 19.22 19.22 19.22zM849.952 313.994c0-10.678-8.542-19.22-19.22-19.22s-19.22 8.542-19.22 19.22c0 10.678 8.542 19.22 19.22 19.22 10.678 1.068 19.22-7.474 19.22-19.22zM830.732 243.52c19.22 0 34.169-14.949 34.169-34.169s-14.949-34.169-34.169-34.169c-19.22 0-34.169 14.949-34.169 34.169s14.949 34.169 34.169 34.169zM830.732 128.2c19.22 0 34.169-14.949 34.169-34.169s-14.949-34.169-34.169-34.169c-19.22 0-34.169 14.949-34.169 34.169s14.949 34.169 34.169 34.169zM496.517 643.937c-3.203 1.068-6.407 1.068-9.61 2.136-10.678 2.136-21.356 3.203-32.033 3.203-12.813 0-25.627-1.068-37.372-4.271-3.203-1.068-6.407-1.068-9.61-2.136-46.982-12.813-85.422-22.423-105.71-65.135h306.453c-22.423 42.711-62.999 53.389-112.117 66.202zM223.166 956.797c-1.068 2.136-4.271 3.203-6.407 1.068-2.136-1.068-3.203-4.271-1.068-6.407l192.2-302.181c3.203 1.068 6.407 2.136 9.61 2.136l-194.336 305.385zM690.853 958.932c-2.136 1.068-5.339 0-6.407-2.136l-197.539-303.249c3.203-1.068 6.407-1.068 9.61-2.136l196.471 302.181c1.068 2.136 0 4.271-2.136 5.339z" />
<glyph unicode="&#xe92a;" glyph-name="valet" horiz-adv-x="1225" d="M1097.182 603.259l-97.185 251.26c-17.778 47.407-58.074 88.889-132.741 88.889h-510.814c-74.666 0-114.963-41.482-132.741-88.889l-97.185-251.26c-39.111-4.741-106.666-49.778-106.666-136.296v-320h94.814v-101.926c0-125.629 177.778-124.444 177.778 0v101.926h638.815v-101.926c0-124.444 177.778-125.629 178.963 0v101.926h94.814v320c0 86.518-68.741 131.556-107.852 136.296zM205.924 340.148c-45.037 0-81.778 37.926-81.778 84.149 0 47.407 36.74 85.333 81.778 84.149 45.037 0 81.778-37.926 81.778-84.149 1.185-46.222-36.74-84.149-81.778-84.149zM612.442 605.629v0h-385.185l73.482 197.926c8.296 28.444 22.519 48.592 54.518 48.592h513.185c32 0 46.222-20.148 54.518-48.592l73.482-197.926h-384zM1018.96 340.148c-46.222 0-82.963 37.926-82.963 84.149 0 47.407 36.74 85.333 82.963 84.149 45.037 0 81.778-37.926 81.778-84.149s-36.74-84.149-81.778-84.149z" />
<glyph unicode="&#xe92b;" glyph-name="balcony" horiz-adv-x="819" d="M819.003 193.051v593.498c0 4.932-4 8.932-8.932 8.932h-593.498c-4.932 0-8.932-4-8.932-8.932v-290.714l-202.040-81.336c-0.024-0.007-0.040-0.028-0.064-0.041-0.827-0.343-1.52-0.888-2.198-1.45-0.22-0.179-0.517-0.282-0.715-0.48-0.040-0.040-0.051-0.094-0.091-0.135-0.761-0.789-1.392-1.694-1.819-2.693-0.063-0.148-0.046-0.324-0.103-0.474-0.344-0.948-0.587-1.93-0.593-2.95 0-0.023-0.016-0.044-0.016-0.066v-296.751c0-0.56 0.219-1.043 0.321-1.57 0.108-0.59 0.092-1.189 0.328-1.765 0.007-0.026 0.036-0.046 0.044-0.072 0.058-0.135 0.156-0.24 0.22-0.371 0.397-0.848 0.91-1.601 1.519-2.254 0.212-0.223 0.439-0.406 0.672-0.606 0.58-0.503 1.193-0.926 1.87-1.262 0.284-0.146 0.557-0.286 0.853-0.398 0.996-0.371 2.026-0.628 3.106-0.628h702.225c1.104 0 2.194 0.243 3.242 0.655 0.412 0.159 0.74 0.432 1.123 0.648 0.464 0.266 0.971 0.449 1.393 0.806l98.919 83.594c0.089 0.080 0.124 0.196 0.213 0.277 0.652 0.593 1.135 1.32 1.589 2.083 0.175 0.298 0.432 0.528 0.567 0.846 0.498 1.11 0.801 2.325 0.801 3.623zM17.867 397.27h147.392v-215.245l-147.392-59.338v274.59zM207.634 397.27v-198.188l-24.504-9.865v208.053h24.504zM504.381 397.27v-195.286h-138.748v195.286h138.748zM702.213 397.27v-195.286h-154.071v195.286h154.071zM530.272 201.983h-8.019v195.286h8.019v-195.286zM347.762 201.983h-122.263v195.286h122.263v-195.286zM165.259 162.758v-44.369h-110.202l110.202 44.369zM183.126 169.952l35.178 14.161h129.46v-65.723h-164.638v51.561zM365.633 184.113h164.638v-65.723h-164.638v65.723zM548.142 184.113h154.071v-65.723h-154.071v65.723zM720.084 184.113h65.567l-65.567-55.418v55.418zM720.084 201.983v200.079l81.048 68.492v-268.564h-81.048zM801.133 777.611v-283.673l-93.25-78.797h-185.636v362.47h278.88zM504.381 777.611v-362.47h-278.876v74.492c0 0 0 0.021 0 0.027v287.952h278.876zM207.634 415.14h-152.581l152.581 61.422v-61.422zM476.201 445.909c4.932 0 8.932 4 8.932 8.932v46.83c0 4.932-4 8.932-8.932 8.932s-8.932-4-8.932-8.932v-46.83c0-4.932 4-8.932 8.932-8.932zM552.46 445.909c4.932 0 8.932 4 8.932 8.932v46.83c0 4.932-4 8.932-8.932 8.932s-8.932-4-8.932-8.932v-46.83c0-4.932 4-8.932 8.932-8.932z" />
<glyph unicode="&#xe92c;" glyph-name="study-table" horiz-adv-x="819" d="M819.002 690.507h-819.005v-49.917h25.595v-435.097h51.187v435.097h665.441v-435.097h51.187v435.097h25.595zM537.469 614.995h179.156v-102.375h-179.156v102.375zM537.469 487.026h179.156v-102.375h-179.156v102.375zM537.469 359.057h179.156v-102.375h-179.156v102.375z" />
<glyph unicode="&#xe92d;" glyph-name="sea-view" horiz-adv-x="819" d="M792.943 721.621c-7.446-3.723-18.613-7.446-33.505-11.169-26.059-11.169-52.119-18.613-85.624-26.059-89.345-22.337-178.692-37.228-264.314-37.228s-174.969 14.891-264.314 37.228c-33.505 7.446-59.564 14.891-85.624 26.059-18.613 3.723-29.782 7.446-33.505 11.169l-26.059 11.169v-569.579l26.059 11.169c7.446 3.723 18.613 7.446 33.505 11.169 26.059 7.446 55.842 18.613 85.624 26.059 89.345 22.337 178.692 37.228 264.314 37.228s174.969-14.891 264.314-37.228c29.782-7.446 59.564-14.891 85.624-26.059 14.891-3.723 26.059-7.446 33.505-11.169l26.059-11.169v569.579l-26.059-11.169zM186.136 260.001c-18.613-3.723-33.505-7.446-52.119-11.169-33.505-7.446-63.286-18.613-89.345-26.059-3.723 0-7.446-3.723-7.446-3.723v457.898c3.723 0 7.446-3.723 7.446-3.723 29.782-7.446 59.564-18.613 89.345-26.059 18.613-3.723 33.505-7.446 52.119-11.169v-375.997zM595.637 267.446c-63.286 11.169-126.574 18.613-186.137 18.613s-122.85-7.446-186.137-18.613v361.106c63.286-11.169 126.574-18.613 186.137-18.613s122.85 7.446 186.137 18.613v-361.106zM781.775 219.051c-3.723 0-7.446 3.723-7.446 3.723-26.059 7.446-55.842 18.613-89.345 26.059-18.613 3.723-33.505 7.446-52.119 11.169v375.997c18.613 3.723 33.505 7.446 52.119 11.169 33.505 7.446 63.286 18.613 89.345 26.059 3.723 0 7.446 3.723 7.446 3.723v-457.898zM521.182 360.515c-7.446 0-11.169 3.723-18.613 7.446s-11.169 7.446-18.613 7.446c-7.446 0-14.891-3.723-18.613-7.446s-11.169-7.446-18.613-7.446c-7.446 0-11.169 3.723-14.891 7.446s-11.169 7.446-22.337 7.446c-7.446 0-14.891-3.723-22.337-7.446-3.723-3.723-11.169-7.446-14.891-7.446s-11.169 3.723-14.891 7.446c-3.723 3.723-11.169 7.446-22.337 7.446-7.446 0-14.891-3.723-22.337-7.446-3.723-3.723-11.169-3.723-14.891-3.723s-7.446-3.723-7.446-7.446 3.723-7.446 7.446-7.446c7.446 0 14.891 3.723 22.337 7.446 3.723 3.723 11.169 3.723 14.891 3.723 7.446 0 11.169-3.723 14.891-3.723 7.446-3.723 11.169-7.446 22.337-7.446s18.613 3.723 22.337 7.446c3.723 3.723 7.446 3.723 14.891 3.723s11.169-3.723 14.891-3.723 11.169-7.446 22.337-7.446c11.169 0 18.613 3.723 26.059 7.446 3.723 3.723 7.446 3.723 11.169 3.723s7.446-3.723 11.169-3.723 14.891-7.446 22.337-7.446c3.723 0 7.446 3.723 7.446 7.446 0 0 0 3.723-3.723 3.723zM312.708 382.851c7.446 3.723 14.891 3.723 22.337 3.723 11.169 0 18.613-3.723 26.059-7.446 3.723-3.723 7.446-3.723 11.169-3.723s7.446 0 11.169 3.723 14.891 7.446 26.059 7.446c11.169 0 18.613-3.723 26.059-7.446 3.723-3.723 7.446-3.723 11.169-3.723s7.446 3.723 14.891 3.723c7.446 3.723 14.891 7.446 22.337 7.446s14.891-3.723 18.613-3.723c18.613 11.169 29.782 29.782 33.505 40.95-7.446 3.723-227.088-11.169-245.701-14.891-11.169-3.723 7.446-18.613 22.337-26.059zM483.955 434.97c-37.228-3.723-63.286-3.723-93.068-3.723 0 18.613 0 78.177-11.169 119.127 18.613-3.723 74.455-33.505 104.237-115.405zM331.323 423.801c11.169 0 33.505 3.723 40.95 3.723 3.723 3.723 0 81.901-3.723 63.286-3.723-26.059-14.891-44.673-37.228-67.009z" />
<glyph unicode="&#xe92e;" glyph-name="bathtub" horiz-adv-x="819" d="M819 633.525c0 14.133-11.482 25.603-25.603 25.603 0 0-230.337-25.603-383.905-25.603-153.521 0-383.869 25.603-383.869 25.603h-0.023c-14.12 0-25.603-11.482-25.603-25.603s11.482-25.603 25.603-25.603h0.023c102.383 0 76.789-255.883 204.742-255.883h0.056v-0.056c0-6.081 2.43-11.45 5.978-15.837l-18.948-56.634c-0.473-1.428-0.53-2.859-0.53-4.285-20.916-0.312-37.767-17.404-37.767-38.355h76.768c0 12.485-6.081 23.518-15.363 30.522 0.898 1.175 2.12 2.073 2.626 3.548l18.98 56.738c11.057 2.834 19.421 12.348 19.421 24.303v0.056h281.474c0-11.98 8.363-21.526 19.441-24.36l18.855-56.738c0.505-1.476 1.716-2.326 2.626-3.524-9.285-7.004-15.363-18.001-15.363-30.546h76.812c0 21.008-16.907 38.043-37.827 38.355 0 1.428-0.056 2.859-0.53 4.285l-18.831 56.577c3.593 4.423 6.022 9.815 6.022 15.953 0 1.403-0.589 2.626-0.794 3.973 100.021 31.296 84.795 251.906 179.969 251.906h-0.048c14.12 0.012 25.603 11.482 25.603 25.603z" />
<glyph unicode="&#xe92f;" glyph-name="ship" horiz-adv-x="819" d="M774.114 169.47c-22.621 0-39.379 9.492-57.119 19.56-18.093 10.262-36.799 20.869-61.034 20.869-24.116 0-42.347-10.513-59.987-20.663-17.648-10.18-34.341-19.773-58.168-19.773-22.398 0-36.354 8.443-52.497 18.233-17.185 10.402-36.641 22.203-65.637 22.203-29.006 0-48.49-11.793-65.647-22.203-16.153-9.788-30.101-18.233-52.508-18.233s-36.354 8.443-52.516 18.233c-17.173 10.402-36.631 22.203-65.628 22.203-29.487 0-50.439-12.146-68.921-22.871-16.255-9.428-30.305-17.565-49.242-17.565-10.829 0-19.616-13.325-19.616-24.162s8.787-21.926 19.616-21.926c29.478 0 50.431 12.146 68.903 22.871 16.266 9.428 30.305 17.565 49.25 17.565 18.037 0 30.082-7.284 45.308-16.508 18.502-11.218 39.471-23.92 72.837-23.92 33.356 0 54.335 12.702 72.837 23.92 15.235 9.224 27.261 16.508 45.326 16.508 18.037 0 30.063-7.284 45.308-16.508 18.502-11.218 39.481-23.92 72.837-23.92 34.312 0 58.39 13.862 77.736 25.004 14.967 8.61 26.786 15.421 40.409 15.421 13.89 0 26.786-7.302 41.698-15.764 19.374-11.004 43.498-24.663 76.455-24.663 10.829 0 19.605 11.237 19.605 22.066s-8.779 24.022-19.605 24.022zM110.804 237.13c18.26 10.030 41.792 20.525 72.569 20.525 37.208 0 62.454-15.291 80.872-26.462 15.588-9.446 23.689-13.982 37.272-13.982s21.685 4.538 37.272 13.982c18.427 11.162 43.646 26.462 80.891 26.462 37.216 0 62.445-15.291 80.872-26.462 15.588-9.446 23.689-13.982 37.272-13.982 15.96 0 27.501 6.642 43.488 15.848 19.011 10.968 42.69 24.589 74.665 24.589 24.355 0 44.167-7.952 60.803-16.59 54.66 40.111 99.707 100.858 102.222 131.628-18 9.482-728.687-40.836-791.883-53.557-27.122-5.446 32.801-50.106 83.685-81.995zM658.855 408.998c-117.949-6.941-205.882-10.021-296.518-17.452 4.286 56.859 3.786 255.515-31.352 381.083 58.418-5.856 225.935-103.105 327.87-363.628zM170.501 376.030c31.612 2.896 102.584 9.047 136.877 11.905 8.508 14.066 3.636 257.834-8.25 208.305-21.508-89.622-59.048-152.161-128.63-220.21z" />
<glyph unicode="&#xe930;" glyph-name="safety-box" horiz-adv-x="819" d="M187.687 38.498c-9.419 0-17.062 7.643-17.062 17.062v34.126c0 9.419 7.643 17.062 17.062 17.062s17.062-7.643 17.062-17.062v-34.126c0-9.419-7.643-17.062-17.062-17.062zM631.313 38.498c-9.419 0-17.062 7.643-17.062 17.062v34.126c0 9.419 7.643 17.062 17.062 17.062s17.062-7.643 17.062-17.062v-34.126c0-9.419-7.643-17.062-17.062-17.062zM665.439 755.127h-511.878c-28.221 0-51.188-22.967-51.188-51.188v-477.752c0-28.221 22.967-51.188 51.188-51.188h511.878c28.221 0 51.188 22.967 51.188 51.188v477.752c0 28.221-22.967 51.188-51.188 51.188zM141.618 715.882c6.143 6.484 17.745 6.484 23.888 0 3.413-3.071 5.119-7.508 5.119-11.943s-1.706-8.872-4.777-11.943c-3.413-3.413-7.848-5.119-12.285-5.119s-8.872 1.706-11.943 5.119c-3.413 3.071-5.119 7.508-5.119 11.943s1.706 8.872 5.119 11.943zM165.504 214.242c-3.071-3.413-7.508-5.119-11.943-5.119s-8.872 1.706-11.943 5.119c-3.413 3.071-5.119 7.508-5.119 11.943s1.706 8.872 5.119 11.943c6.143 6.484 17.745 6.484 23.888 0 3.413-3.071 5.119-7.508 5.119-11.943s-1.706-8.872-5.119-11.943zM324.187 448h-88.453c-7.064-19.826-25.834-34.126-48.049-34.126-28.221 0-51.188 22.967-51.188 51.188s22.967 51.188 51.188 51.188c22.216 0 40.985-14.298 48.049-34.126h88.453c9.419 0 17.062-7.643 17.062-17.062s-7.643-17.062-17.062-17.062zM677.382 214.242c-3.071-3.413-7.508-5.119-11.943-5.119s-8.872 1.706-11.943 4.777c-3.413 3.413-5.119 7.848-5.119 12.285s1.706 8.872 5.119 11.943c6.143 6.484 17.745 6.484 23.888 0 3.413-3.071 5.119-7.508 5.119-11.943s-1.706-8.872-5.119-11.943zM682.501 362.687c0-9.419-7.643-17.062-17.062-17.062h-273.001c-9.419 0-17.062 7.643-17.062 17.062v204.751c0 9.419 7.643 17.062 17.062 17.062h273.001c9.419 0 17.062-7.643 17.062-17.062v-204.751zM677.382 691.996c-3.071-3.413-7.508-5.119-11.943-5.119s-8.872 1.706-11.943 4.777c-3.413 3.413-5.119 7.848-5.119 12.285s1.706 8.872 5.119 11.943c6.484 6.484 17.745 6.484 23.888 0 3.413-3.071 5.119-7.508 5.119-11.943s-1.706-8.872-5.119-11.943zM204.749 465.062c0-9.424-7.64-17.062-17.062-17.062s-17.062 7.64-17.062 17.062c0 9.424 7.64 17.062 17.062 17.062s17.062-7.64 17.062-17.062zM409.5 379.75h238.877v170.626h-238.877v-170.626zM584.904 511.131c7.166 6.825 18.086 6.484 24.229 0 3.413-3.071 5.119-7.508 5.119-11.943s-1.706-8.872-5.119-11.943c-3.071-3.413-7.508-5.119-11.943-5.119s-8.532 1.706-11.943 4.777c-3.413 3.413-5.119 7.848-5.119 12.285s1.706 8.872 4.777 11.943zM584.904 442.881c7.166 6.825 18.086 6.484 24.229 0 3.413-3.071 5.119-7.508 5.119-11.943s-1.706-8.872-5.119-11.943c-3.071-3.413-7.508-5.119-11.943-5.119s-8.532 1.706-11.943 4.777c-3.413 3.753-5.119 7.848-5.119 12.285s1.706 8.872 4.777 11.943zM516.994 511.131c6.143 6.484 17.745 6.484 23.888 0 3.413-3.071 5.119-7.508 5.119-11.943s-1.706-8.872-5.119-11.943c-3.071-3.413-7.508-5.119-11.943-5.119s-8.872 1.706-11.943 5.119c-3.413 3.071-5.119 7.508-5.119 11.943s1.706 8.872 5.119 11.943zM516.994 442.881c6.143 6.484 17.745 6.484 23.888 0 3.413-3.071 5.119-7.508 5.119-11.943s-1.706-8.872-5.119-11.943c-3.071-3.413-7.508-5.119-11.943-5.119s-8.872 1.706-11.943 5.119c-3.413 3.071-5.119 7.508-5.119 11.943s1.706 8.872 5.119 11.943zM448.403 511.131c7.508 6.825 17.745 6.484 24.229 0.342 3.413-3.413 5.119-7.848 5.119-12.285s-1.706-8.872-5.119-11.943c-3.071-3.413-7.508-5.119-11.943-5.119s-8.532 1.706-11.943 4.777c-3.413 3.413-5.119 7.848-5.119 12.285s1.706 8.872 4.777 11.943zM448.403 442.881c7.166 6.825 18.086 6.484 24.229 0 3.413-3.071 5.119-7.508 5.119-11.943s-1.706-8.872-5.119-11.943c-3.071-3.413-7.508-5.119-11.943-5.119s-8.532 1.706-11.943 4.777c-3.413 3.413-5.119 7.848-5.119 12.285s1.706 8.872 4.777 11.943zM665.439 857.502h-511.878c-84.665 0-153.563-68.899-153.563-153.563v-477.752c0-84.665 68.899-153.563 153.563-153.563h511.878c84.665 0 153.563 68.899 153.563 153.563v477.752c0 84.665-68.899 153.563-153.563 153.563zM750.752 226.187c0-47.026-38.289-85.313-85.313-85.313h-511.878c-47.026 0-85.313 38.289-85.313 85.313v477.752c0 47.026 38.289 85.313 85.313 85.313h511.878c47.026 0 85.313-38.289 85.313-85.313v-477.752z" />
<glyph unicode="&#xe931;" glyph-name="wardrobe" horiz-adv-x="819" d="M766.264 960.001h-755.194v-1024h796.861v1024h-41.667zM52.762 918.326h713.501v-251.748h-713.501v251.748zM92.246 878.533h297.337v-172.165h-297.337v172.165zM428.758 878.533h297.337v-172.165h-297.337v172.165z" />
<glyph unicode="&#xe932;" glyph-name="temple" horiz-adv-x="819" d="M675.429 511.947h32.97c27.046 32.699 37.647 110.852 37.647 110.852 30.577 0 72.957 39.787 72.957 39.787l-2.372 201.781-63.538 5.693c-29.596-107.23-290.786-113.551-343.58-113.725-52.832 0.178-314.006 6.494-343.58 113.725l-63.577-5.693-2.358-201.781c0 0 42.389-39.787 72.957-39.787 0 0 10.609-78.157 37.669-110.852h40.018v-136.416h-42.389v-130.728h42.389v-218.867h127.071v218.867h263.596v-218.867h127.093v218.867h42.367v130.715h-42.367v136.429h7.026zM409.505 698.754c36.906 0 66.802-29.919 66.802-66.838 0-36.906-29.91-66.825-66.802-66.825-36.906 0-66.846 29.919-66.846 66.825 0 36.915 29.94 66.838 66.846 66.838zM541.289 375.518h-263.596v136.429h263.596v-136.429z" />
<glyph unicode="&#xe933;" glyph-name="ancient-sofa" horiz-adv-x="1330" d="M1330 727.302c0 2.217 0 4.433 0 6.65 0 0 0 2.217 0 2.217 0 2.217-2.217 4.433-4.433 6.65v0l-110.834 110.834c-6.65 2.217-11.084 4.433-17.734 4.433h-1064.002c-6.65 0-11.084-2.217-15.517-6.65l-110.834-110.834c-2.217-2.217-2.217-4.433-4.433-6.65 0 0 0-2.217 0-2.217-2.217-2.217-2.217-2.217-2.217-4.433s0-2.217 0-2.217v-576.334c0-11.084 8.867-22.167 22.167-22.167h66.5v-66.5c0-11.084 8.867-22.167 22.167-22.167h133c13.3 0 22.167 11.084 22.167 22.167v66.5h798.002v-66.5c0-11.084 11.084-22.167 22.167-22.167h133c11.084 0 22.167 11.084 22.167 22.167v66.5h66.5c11.084 0 22.167 11.084 22.167 22.167v578.552c0-2.217 0-2.217 0 0zM1188.133 813.753l66.5-66.5h-93.101l-66.5 66.5h93.101zM1130.501 716.219v-305.901l-66.5 79.799v292.6l66.5-66.5zM1030.75 459.085l73.15-88.667h-438.901v88.667h365.751zM620.666 370.418h-396.785l73.15 88.667h323.634v-88.667zM310.332 503.419v310.334h310.334v-310.334h-310.334zM265.999 490.119l-66.5-79.799v305.901l66.5 66.5v-292.6zM199.498 326.085h421.169v-44.333h-421.169v44.333zM664.999 326.085h465.502v-44.333h-465.502v44.333zM1019.666 503.419h-354.667v310.334h354.667v-310.334zM141.865 813.753h93.101l-66.5-66.5h-93.101l66.5 66.5zM44.331 702.918h110.834v-443.335c0-11.084 8.867-22.167 22.167-22.167h443.335v-66.5h-576.334v532.001zM221.664 82.25h-88.667v44.333h88.667v-44.333zM1197 82.25h-88.667v44.333h88.667v-44.333zM1285.667 170.918h-620.668v66.5h487.668c11.084 0 22.167 11.084 22.167 22.167v443.335h110.834v-532.001zM465.499 769.419c-62.067 0-110.834-48.767-110.834-110.834s48.767-110.834 110.834-110.834c62.067 0 110.834 48.767 110.834 110.834s-48.767 110.834-110.834 110.834zM554.166 696.268c2.217-4.433 2.217-8.867 4.433-13.3h-11.084c-6.65 19.95-17.734 35.466-33.251 46.55l4.433 11.084c6.65-4.433 11.084-8.867 17.734-13.3 6.65-8.867 13.3-19.95 17.734-31.033zM514.265 609.819c-6.65-6.65-15.517-11.084-22.167-15.517-2.217 0-4.433-2.217-8.867-2.217v11.084l22.167 11.084v4.433h-33.251v-28.817c-2.217 0-4.433 0-4.433 0-2.217 0-2.217 0-6.65 0v28.817h-33.251v-4.433l19.95-11.084v-11.084c-2.217 0-4.433 2.217-8.867 2.217-8.867 4.433-15.517 8.867-22.167 15.517-4.433 4.433-8.867 11.084-11.084 15.517h121.917c-4.433-6.65-8.867-11.084-13.3-15.517zM438.899 722.87c4.433 2.217 8.867 2.217 13.3 4.433v15.517c-6.65 0-11.084-2.217-15.517-4.433l-4.433 8.867c8.867 4.433 17.734 4.433 28.817 6.65v-42.117h-39.9c4.433 4.433 11.084 8.867 17.734 11.084zM498.749 736.169c-6.65 2.217-13.3 4.433-19.95 6.65v-15.517c6.65-2.217 8.867-2.217 13.3-4.433 6.65-2.217 13.3-6.65 19.95-11.084h-39.9v42.117c11.084 0 22.167-2.217 31.033-6.65l-4.433-11.084zM441.115 685.186v13.3h48.767v-11.084h-48.767zM500.966 698.486h19.95c2.217-2.217 4.433-4.433 6.65-11.084h-26.599v11.084zM407.865 698.486h19.95v-11.084h-26.599c2.217 4.433 4.433 6.65 6.65 11.084zM396.782 676.319h62.067v-13.3h-64.284c2.217 4.433 2.217 6.65 2.217 13.3zM441.115 636.419v13.3h48.767v-13.3h-48.767zM396.782 649.72h33.251v-13.3h-31.033c0 4.433-2.217 8.867-2.217 13.3zM531.998 636.419h-31.033v13.3h33.251c0-4.433-2.217-8.867-2.217-13.3zM534.216 660.802h-64.284v15.517h62.067c2.217-6.65 2.217-8.867 2.217-15.517zM396.782 727.302c6.65 6.65 13.3 11.084 19.95 15.517l4.433-11.084c-17.734-11.084-31.033-28.817-37.684-48.767h-11.084c2.217 4.433 2.217 8.867 4.433 13.3 4.433 11.084 11.084 22.167 19.95 31.033zM370.182 658.585c0 4.433 0 6.65 0 11.084h11.084c0-2.217 0-6.65 0-8.867 0-17.734 4.433-33.251 15.517-46.55l-8.867-6.65c-4.433 4.433-6.65 11.084-8.867 17.734-6.65 8.867-8.867 19.95-8.867 33.251zM396.782 589.869c0 2.217 0 2.217 0 0l6.65 8.867c13.3-13.3 33.251-24.384 55.417-24.384v-11.084c-11.084 0-22.167 2.217-31.033 6.65-11.084 4.433-22.167 11.084-31.033 19.95zM503.182 569.918c-8.867-4.433-19.95-6.65-31.033-6.65v11.084c22.167 2.217 42.117 11.084 55.417 26.599l8.867-6.65c0 0 0 0-2.217-2.217-11.084-11.084-19.95-17.734-31.033-22.167zM554.166 620.902c-2.217-6.65-6.65-11.084-8.867-17.734l-8.867 6.65c8.867 13.3 13.3 28.817 13.3 46.55 0 2.217 0 6.65 0 8.867h11.084c0-2.217 0-6.65 0-11.084 0-8.867-2.217-19.95-6.65-33.251zM842.333 769.419c-62.067 0-110.834-48.767-110.834-110.834s48.767-110.834 110.834-110.834c62.067 0 110.834 48.767 110.834 110.834s-50.983 110.834-110.834 110.834zM931 696.268c2.217-4.433 2.217-8.867 4.433-13.3h-11.084c-6.65 19.95-17.734 35.466-33.251 46.55l4.433 11.084c6.65-4.433 11.084-8.867 17.734-13.3 4.433-8.867 11.084-19.95 17.734-31.033zM891.099 609.819c-6.65-6.65-15.517-11.084-22.167-15.517-4.433 0-4.433-2.217-11.084-2.217v11.084l22.167 11.084v4.433h-33.251v-28.817c-2.217 0-4.433 0-4.433 0-2.217 0-2.217 0-6.65 0v28.817h-33.251v-4.433l19.95-11.084v-11.084c-2.217 0-4.433 2.217-8.867 2.217-8.867 4.433-15.517 8.867-22.167 15.517-4.433 4.433-8.867 11.084-11.084 15.517h121.917c-2.217-6.65-6.65-11.084-11.084-15.517zM815.733 722.87c4.433 2.217 8.867 2.217 13.3 4.433v15.517c-6.65 0-11.084-2.217-15.517-4.433l-4.433 8.867c8.867 4.433 17.734 4.433 28.817 6.65v-42.117h-39.9c4.433 4.433 8.867 8.867 17.734 11.084zM875.583 736.169c-6.65 2.217-13.3 4.433-19.95 6.65v-15.517c6.65-2.217 8.867-2.217 13.3-4.433 6.65-2.217 13.3-6.65 19.95-11.084h-39.9v42.117c11.084 0 22.167-2.217 31.033-6.65l-4.433-11.084zM817.949 685.186v13.3h48.767v-11.084h-48.767zM877.799 698.486h19.95c2.217-2.217 4.433-4.433 6.65-11.084h-26.599v11.084zM784.699 698.486h19.95v-11.084h-26.599c2.217 4.433 4.433 6.65 6.65 11.084zM773.616 676.319h62.067v-13.3h-64.284c2.217 4.433 2.217 6.65 2.217 13.3zM817.949 636.419v13.3h48.767v-13.3h-48.767zM773.616 649.72h33.251v-13.3h-31.033c-2.217 4.433-2.217 8.867-2.217 13.3zM908.834 636.419h-31.033v13.3h33.251c0-4.433-2.217-8.867-2.217-13.3zM911.050 660.802h-64.284v15.517h62.067c2.217-6.65 2.217-8.867 2.217-15.517zM773.616 727.302c6.65 6.65 13.3 11.084 19.95 15.517l4.433-11.084c-17.734-11.084-31.033-28.817-37.684-48.767h-11.084c2.217 4.433 2.217 8.867 4.433 13.3 4.433 11.084 11.084 22.167 19.95 31.033zM747.016 658.585c0 4.433 0 6.65 0 11.084h11.084c0-2.217 0-6.65 0-8.867 0-17.734 4.433-33.251 15.517-46.55l-8.867-6.65c-4.433 4.433-6.65 11.084-8.867 17.734-6.65 8.867-8.867 19.95-8.867 33.251zM773.616 589.869c0 2.217 0 2.217 0 0l6.65 8.867c13.3-13.3 33.251-24.384 55.417-24.384v-11.084c-11.084 0-22.167 2.217-31.033 6.65-11.084 4.433-22.167 11.084-31.033 19.95zM880.017 569.918c-8.867-4.433-19.95-6.65-31.033-6.65v11.084c22.167 2.217 42.117 11.084 55.417 26.599l8.867-6.65c0 0 0 0-2.217-2.217-11.084-11.084-19.95-17.734-31.033-22.167zM931 620.902c-2.217-6.65-6.65-11.084-8.867-17.734l-8.867 6.65c8.867 13.3 13.3 28.817 13.3 46.55 0 2.217 0 6.65 0 8.867h11.084c0-2.217 0-6.65 0-11.084 0-8.867-2.217-19.95-6.65-33.251zM469.932 769.419h-11.084v44.333h11.084v-44.333zM622.883 654.153v8.867h-46.55v-11.084h46.55zM356.882 654.153v8.867h-46.55v-11.084h46.55zM469.932 547.752h-11.084v-44.333h11.084v44.333zM846.766 813.753h-11.084v-44.333h11.084v44.333zM1026.316 654.153v8.867h-73.15v-11.084h73.15zM731.499 654.153v8.867h-70.933v-11.084h70.933zM846.766 547.752h-11.084v-44.333h11.084v44.333z" />
<glyph unicode="&#xe934;" glyph-name="sofa" horiz-adv-x="819" d="M769.677 580.731c-27.198 0-49.294-22.13-49.294-49.329v-125.684c0-11.090-9.368-20.441-20.458-20.441h-580.846c-11.073 0-20.441 9.351-20.441 20.441v125.684c0 27.198-22.113 49.329-49.311 49.329s-49.329-22.13-49.329-49.311v-125.684c0-65.18 52.673-118.278 117.698-119.012v-47.553c0-9.521 7.729-17.233 17.25-17.233s17.233 7.712 17.233 17.233v47.486h514.626v-47.486c0-9.521 7.729-17.233 17.267-17.233 9.503 0 17.233 7.712 17.233 17.233v47.553c65.009 0.734 117.698 53.815 117.698 118.995v125.684c0 27.198-22.13 49.329-49.329 49.329zM133.121 531.419v-111.657h552.778v111.657c0 46.206 37.59 83.794 83.778 83.794 0.597 0 1.161-0.154 1.774-0.171v7.576c0 28.358-29.228 51.444-65.145 51.444h-593.575c-35.934 0-65.18-24.792-65.18-55.283v-3.737c0.614 0 1.161 0.171 1.774 0.171 46.206 0 83.794-37.59 83.794-83.794zM597.533 589.347h14.861c9.538 0 17.267-7.712 17.267-17.25 0-9.521-7.729-17.233-17.267-17.233h-14.861c-9.538 0-17.267 7.712-17.267 17.233 0 9.538 7.729 17.25 17.267 17.25zM597.533 483.508h14.861c9.538 0 17.267-7.712 17.267-17.25 0-9.521-7.729-17.25-17.267-17.25h-14.861c-9.538 0-17.267 7.729-17.267 17.25 0 9.538 7.729 17.25 17.267 17.25zM402.062 589.347h14.879c9.538 0 17.25-7.712 17.25-17.25 0-9.521-7.729-17.233-17.25-17.233h-14.879c-9.521 0-17.25 7.712-17.25 17.233 0 9.538 7.729 17.25 17.25 17.25zM402.062 483.508h14.879c9.538 0 17.25-7.712 17.25-17.25 0-9.521-7.729-17.25-17.25-17.25h-14.879c-9.521 0-17.25 7.729-17.25 17.25 0 9.538 7.729 17.25 17.25 17.25zM206.61 589.347h14.896c9.521 0 17.25-7.712 17.25-17.25 0-9.521-7.729-17.233-17.25-17.233h-14.896c-9.521 0-17.233 7.712-17.233 17.233 0 9.538 7.712 17.25 17.233 17.25zM206.61 483.508h14.896c9.521 0 17.25-7.712 17.25-17.25 0-9.521-7.729-17.25-17.25-17.25h-14.896c-9.521 0-17.233 7.729-17.233 17.25 0 9.538 7.712 17.25 17.233 17.25z" />
<glyph unicode="&#xe935;" glyph-name="cocktail" horiz-adv-x="819" d="M662.813 665.268l-92.113-4.004c2.002-24.028 12.016-46.057 30.038-64.080l62.078 68.084zM670.82 657.256l-62.078-68.084c18.022-14.018 40.048-24.028 66.082-24.028l-4.004 92.113zM660.81 677.284l-66.082 62.078c-14.018-18.022-24.028-40.048-24.028-66.082l90.11 4.004zM678.832 777.405l4.004-92.113 62.078 66.082c-18.022 18.022-42.050 26.034-66.082 26.034zM668.819 685.292l-4.004 92.113c-24.028-2.002-46.057-12.016-64.080-30.038l68.084-62.078zM690.848 677.284l92.113 4.004c-2.002 24.028-12.016 46.057-30.038 64.080l-62.078-68.084zM682.836 657.256l4.004-92.113c24.028 2.002 46.057 12.016 64.080 30.038l-68.084 62.078zM670.82 809.445c-76.092-2.002-136.168-66.082-132.164-142.174 2.002-76.092 66.082-136.168 144.177-134.167 76.092 2.002 136.168 66.082 134.167 144.177-4.004 76.092-68.084 136.168-146.179 132.164zM680.835 553.131c-66.082-2.002-120.148 50.062-124.152 114.142-2.002 66.082 50.062 120.148 114.142 124.152 66.082 2.002 120.148-50.062 124.152-114.142 2.002-68.084-48.060-122.151-114.142-124.152zM690.848 665.268l66.082-62.078c14.018 18.022 24.028 40.048 24.028 66.082l-90.11-4.004zM692.85 683.29h-640.789c0-170.211 134.167-310.382 302.372-320.394v-342.423h-108.133c-10.013 0-18.022-8.009-18.022-18.022s8.009-18.022 18.022-18.022h252.309c10.013 0 18.022 8.009 18.022 18.022s-8.009 18.022-18.022 18.022h-108.133v344.425c168.208 8.009 302.372 148.181 302.372 318.391zM182.223 601.188c-6.006 0-14.018 4.004-14.018 12.016l-42.050 208.256-116.144 60.073c-8.009 4.004-10.013 12.016-6.006 20.025 4.004 6.006 12.016 10.013 20.025 6.006l124.152-62.078c4.004-2.002 6.006-6.006 8.009-10.013l44.056-216.265c2.002-8.009-4.004-16.020-12.016-18.022-4.004 0-4.004 0-6.006 0z" />
<glyph unicode="&#xe936;" glyph-name="stair" horiz-adv-x="819" d="M819.002 302.651v-152.030h-190.035l-190.035 372.47v235.651h152.030v-152.030h76.010v-152.030h76.010v-152.030zM169.071 775.785l-169.074-169.074h81.657v-486.495h182.434v486.495h74.056z" />
<glyph unicode="&#xe937;" glyph-name="toiletbowl" horiz-adv-x="1104" d="M144.144 519.077v-583.077h284.319c26.604 106.049 58.915 276.713 85.525 312.827 26.229 36.107 289.257 8.359 355.395 42.57 30.026 13.687 90.464 161.162 71.078 227.681h-796.318zM144.144 960h213.621v-412.412h-213.621v412.412zM483.572 757.024c-10.265 0-18.244 8.359-18.244 18.244 0 3.803 0 7.223 0.381 11.019 1.142 9.883 9.883 17.483 20.149 16.347 9.883-1.142 17.483-9.883 16.347-20.149-0.381-2.278-0.381-4.939-0.381-7.223 0-10.265-8.359-18.244-18.244-18.244zM660.319 600.039c-10.265 0-18.244-8.359-18.244-18.244v-17.108c0-10.265 8.359-18.244 18.244-18.244 10.265 0 18.244 8.359 18.244 18.244v16.727c0 10.265-8.359 18.625-18.244 18.625zM660.319 668.077c-10.265 0-18.244-8.359-18.244-18.244v-17.108c0-10.265 8.359-18.244 18.244-18.244 10.265 0 18.244 8.359 18.244 18.244v17.108c0 9.883-8.359 18.244-18.244 18.244zM660.319 736.112c-10.265 0-18.244-8.359-18.244-18.244v-17.108c0-10.265 8.359-18.244 18.244-18.244 10.265 0 18.244 8.359 18.244 18.244v17.108c0 10.265-8.359 18.244-18.244 18.244zM660.319 750.943c10.265 0 18.244 8.359 18.244 18.244v6.081c0 2.278 0 4.939 0.381 7.223 1.142 9.883-6.462 19.006-16.347 20.149-0.762 0-1.523 0-2.659 0-0.762 0-1.523 0-1.898 0-9.883-1.142-17.483-9.883-16.347-20.149 0.381-2.278 0.381-4.939 0.381-7.223v-6.081c-0.381-10.265 7.979-18.244 18.244-18.244zM564.915 844.83c4.564 0.381 9.121 0.381 13.687 0 0.762 0 1.142 0 1.898 0 9.121 0 17.108 7.223 18.244 16.347 1.142 9.883-6.462 19.006-16.347 20.149-6.843 0.762-14.068 0.762-20.905 0-9.883-1.142-17.483-9.883-16.347-20.149 0.762-9.883 9.883-17.108 19.769-16.347zM503.714 813.279c5.319 0 10.645 2.278 14.068 6.462 3.040 3.422 6.081 6.843 9.883 9.502 7.979 6.462 9.121 17.863 2.659 25.849s-17.863 9.121-25.849 2.659c-5.319-4.564-10.265-9.502-14.823-14.823-6.462-7.604-5.319-19.387 2.278-25.849 3.422-2.278 7.604-3.803 11.781-3.803zM625.727 819.743c3.803-4.183 8.74-6.462 14.068-6.462 4.183 0 8.359 1.523 11.781 4.183 7.604 6.462 8.74 17.863 2.278 25.849-4.564 5.319-9.502 10.265-14.823 14.823-7.979 6.462-19.387 5.319-25.849-2.659s-5.319-19.387 2.659-25.849c3.803-3.040 7.223-6.081 9.883-9.883zM741.661 844.83c4.564 0.381 9.121 0.381 13.687 0 0.762 0 1.142 0 1.898 0 9.121 0 17.108 7.223 18.244 16.347 1.142 9.883-6.462 19.006-16.347 20.149-6.843 0.762-14.068 0.762-20.905 0-9.883-1.142-17.483-9.883-16.347-20.149 0.762-9.883 9.502-17.108 19.769-16.347zM802.48 819.743c3.803-4.183 8.74-6.462 14.068-6.462 4.183 0 8.359 1.523 11.781 4.183 7.604 6.462 8.74 17.863 2.278 25.849-4.564 5.319-9.502 10.265-14.823 14.823-7.979 6.462-19.387 5.319-25.849-2.659s-5.319-19.387 2.659-25.849c3.803-3.040 6.843-6.081 9.883-9.883zM680.466 813.279c5.319 0 10.645 2.278 14.068 6.462 3.040 3.422 6.081 6.843 9.883 9.502 7.979 6.462 9.121 17.863 2.659 25.849s-17.863 9.121-25.849 2.659c-5.319-4.564-10.265-9.502-14.823-14.823-6.462-7.604-5.319-19.387 2.278-25.849 3.422-2.278 7.604-3.803 11.781-3.803zM854.933 775.268c0 3.803 0 7.223-0.381 11.019-1.142 9.883-9.883 17.483-20.149 16.347-9.883-1.142-17.483-9.883-16.347-20.149 0.381-2.278 0.381-4.939 0.381-7.223 0-10.265 8.359-18.244 18.244-18.244s18.244 7.979 18.244 18.244z" />
<glyph unicode="&#xe938;" glyph-name="merlion" horiz-adv-x="819" d="M818.997-43.317c-11.413 25.831-25.694 49.986-42.786 71.959l-1.515 2.054c-31.606 43.535-82.913 71.846-140.817 71.846-24.808 0-48.415-5.195-69.768-14.555 0 0-13.813-5.099-29.399-10.786 23.913 46.241 37.462 98.716 37.462 154.374v201.935h22.448l-22.448 157.071h22.448l-16.826 168.291h16.826c0 24.14-2.545 47.691-7.378 70.389l0.338-1.933c-6.089 37.767-31.018 69.212-64.831 84.396l15.763 21.030c-14.313-3.955-29.319-5.614-44.864-5.614-9.609 0-19.008 0.83-28.167 2.384-28.368 6.411-57.847 9.802-88.108 9.802-9.214 0-18.341-0.315-27.394-0.926v-0.121c-29.391-1.772-52.684-26.161-52.684-56.003-12.396 0-22.44-10.044-22.44-22.44v-1.385c-12.154-0.426-24.284-1.168-33.466-2.143l-39.644-4.172c-18.405-1.933-30.986-18.462-27.941-36.721l4.43-26.773c1.821-10.543 11.027-18.598 22.102-18.598h1.595l11.212-28.030 22.44 28.038 33.66 0.008c15.424 0 28.038-12.622 28.038-28.046s-12.613-28.046-28.038-28.046h-22.44l-11.212 22.44-11.212-22.44h-7.184c-12.404 0-22.448-10.053-22.448-22.44l1.651-11.679c3.045-18.252 20.692-33.201 39.193-33.201v-61.713l0.21-0.718c-12.339 7.523-26.773 11.945-42.278 11.945-17.044 0-30.841-13.813-30.841-30.857 0-2.651 0.33-5.22 0.951-7.668l0.008-0.008c44.767-50.092 71.959-116.202 71.959-188.661 0-33.789-5.92-66.2-16.77-96.235h-0.041c-7.273-19.838-11.22-41.28-11.22-63.631 0-45.717 16.593-87.521 44.043-119.819-20.491 8.481-42.931 13.226-66.49 13.226-57.921 0-109.22-28.312-140.817-71.846l-1.53-2.054c-17.084-21.98-31.381-46.128-42.777-71.959h819.005zM286.061 843.009v22.44l22.448-11.212-22.448-11.22zM325.334 265.216c15.481 0 28.046-12.557 28.046-28.038s-12.565-28.038-28.046-28.038-28.046 12.557-28.046 28.038 12.565 28.038 28.046 28.038z" />
<glyph unicode="&#xe939;" glyph-name="wall-brush" horiz-adv-x="819" d="M375.937 40.588c14.83 0 26.847-12.030 26.847-26.861 0-14.818-12.022-26.861-26.847-26.861s-26.861 12.039-26.861 26.861c0 14.83 12.030 26.861 26.861 26.861zM819.002 685.703v120.843c0 35.47-28.903 48.345-48.323 48.345h-18.807v43.488c0 0 0 48.336-48.336 48.336h-655.199c0 0-48.336 0-48.336-48.336v-118.143c0 0 0-48.336 48.336-48.336h655.199c0 0 48.336 0 48.336 48.336v42.43h18.606c7.428-0.193 16.305-3.145 16.305-16.121v-120.833c0-0.206-0.214-20.080-19.275-25.456l-364.916-102.828c-14.799-4.165-42.759-21.331-42.759-56.477v-66.543c-27.784-7.166-48.336-32.333-48.336-62.339v-358.34c0-35.592 28.855-64.448 64.448-64.448s64.457 28.855 64.457 64.448v358.34c0 30.006-20.57 55.174-48.345 62.339v66.543c0 19.003 17.446 24.897 19.266 25.465l364.916 102.828c33.842 9.516 42.767 41.109 42.767 56.455z" />
<glyph unicode="&#xe93a;" glyph-name="unlock" horiz-adv-x="819" d="M819.002 603.982c0 118.474-95.983 214.52-214.491 214.52-118.453 0-214.499-96.034-214.499-214.52 0-2.201 0.24-4.307 0.318-6.498h-0.318v-129.996h-351.033c-21.521 0-38.981-17.446-38.981-39.015v-311.966c0-21.564 17.446-39.015 38.981-39.015h481.029c21.535 0 38.981 17.446 38.981 39.015v311.958c0 21.564-17.446 39.015-38.981 39.015h-25.987v130.004h0.305c-0.124 2.171-0.305 4.298-0.305 6.498 0 61.043 49.461 110.504 110.482 110.504 61.012 0 110.473-49.461 110.473-110.504 0-2.201-0.188-4.337-0.305-6.498h0.305v-129.996h104.026v129.996h-0.318c0.073 2.192 0.318 4.298 0.318 6.498z" />
<glyph unicode="&#xe93b;" glyph-name="feather" horiz-adv-x="819" d="M343.523 666.403c0 0 0 0 0 0-13.648 52.328-46.64 182.003-97.825 214.988-56.873 35.264-207.027 43.225-232.052 26.161-13.648-10.24 81.897-208.164 133.089-262.764 9.104-10.24 146.738 17.064 174.043 13.648-34.128-2.272-129.674-56.873-160.386-46.64 27.297-9.104 176.315-144.466 212.715-196.788 12.512-17.064 130.81-12.512 185.411 3.416-37.537-15.928-121.713-47.776-162.667-34.128 34.128-14.785 106.93-108.065 151.291-131.954s159.25-62.561 175.179-85.313c-34.128 15.928-73.937 27.297-96.689 22.752 23.888-4.552 79.625-25.024 103.513-51.185-27.297 17.064-34.128 4.552-35.264-2.272 4.552 7.96 43.225-11.376 63.697-29.576 20.473-43.225 39.816-88.729 58.009-135.362l3.416 1.136c-9.104 45.497-22.752 89.865-39.816 131.954 0 21.616 9.104 51.185 19.336 46.64-4.552 3.416-17.064 9.104-28.44-17.064 10.24 39.816 6.824 69.385 5.688 105.786 0-7.96-2.272-37.537-32.985-56.873 0 0 0 0 0 0 20.473 39.816 22.752 75.073 9.104 116.025-13.648 42.088-23.888 94.41-7.96 112.61-32.985-6.824-32.985-58.009-35.264-92.137 3.416 61.425-23.888 172.898-34.128 189.963-17.064 27.297-137.642 166.074-169.491 204.755 36.4-46.64 0-145.603-1.136-195.651 0 0 0 0 0 0-3.416 22.752-36.4 238.876-53.464 244.564-89.865 32.985-150.154 103.513-150.154 103.513 46.64-50.049 15.928-86.449 43.225-200.203zM778.049 96.507c12.512-31.849 23.888-64.84 31.849-98.961-13.648 35.264-28.44 69.385-44.361 102.377-111.474 236.604-265.037 432.254-468.655 592.641 15.928-9.104 31.849-20.473 47.776-31.849 0 0 0 0 0 0 80.761-59.152 167.21-146.738 246.836-250.252 64.84-85.313 138.778-191.1 186.555-313.949zM775.777 239.836c0 1.136 0 2.272 0 2.272 0-1.136 0-2.272 0-2.272z" />
<glyph unicode="&#xe93c;" glyph-name="window" horiz-adv-x="1412" d="M-0.009 41.437v813.125l263.963-126.729v-559.668zM1412.009 41.437v813.125l-263.949-126.729v-559.668zM1095.039 727.833h-801.913v-559.625h826.948v559.625h-25.035zM318.175 702.783h375.88v-242.26h-375.88v242.26zM318.175 193.229v242.232h375.88v-242.232h-375.88zM1095.039 193.229h-375.907v242.232h375.907v-242.232zM1095.039 460.524h-375.907v242.26h375.907v-242.26z" />
<glyph unicode="&#xe93d;" glyph-name="coffee-machine" horiz-adv-x="819" d="M386.27 444.435c-3.99-12.446-5.474-26.749-3.845-39.684 1.833-14.597 10.58-27.084 27.93-26.757 16.299 0.293 25.194 12.315 26.473 26.171 1.335 14.116-0.807 29.405-5.058 43.048-5.465 17.448-14.573 33.771-22.343 51.112-7.924-17.985-17.243-35.383-23.156-53.889zM494.039 326.241h-169.088l27.784-186.518h113.528l27.775 186.518zM529.244 694.837h-239.487v-129.086h239.487v129.086zM586.66 112.81h-354.327v-90.68h354.327v90.68zM145.332 27.895l0.252 662.399c0 148.961 118.147 269.707 263.916 269.707s263.916-120.747 263.916-269.707l0.252-662.399v-34.038c0-31.816-34.887-57.856-77.576-57.856h-373.184c-42.681 0-77.576 26.040-77.576 57.856v34.038z" />
<glyph unicode="&#xe93e;" glyph-name="wifi" horiz-adv-x="819" d="M491.399 199.323c0-45.506-36.891-82.397-82.397-82.397s-82.397 36.891-82.397 82.397c0 45.506 36.891 82.397 82.397 82.397s82.397-36.891 82.397-82.397zM584.715 375.036c-46.658 46.658-109.199 72.469-175.713 72.469s-129.055-25.809-175.713-72.469l58.572-58.572c62.544 62.544 171.742 62.544 234.282 0l58.572 58.572zM701.856 492.177c-160.821 160.821-423.894 160.821-584.716 0l58.572-58.572c129.055 129.055 338.52 129.055 467.574 0l58.572 58.572zM0 608.325l58.572-58.572c93.317 94.31 217.408 145.929 350.434 145.929s257.117-51.622 351.426-144.936l58.572 58.572c-109.199 109.199-255.13 169.756-409.002 169.756s-300.797-60.557-409.996-170.749z" />
<glyph unicode="&#xe93f;" glyph-name="fridge" horiz-adv-x="819" d="M27.321 816.519c0-7.545-6.115-13.662-13.662-13.662s-13.662 6.115-13.662 13.662c0 7.545 6.115 13.662 13.662 13.662s13.662-6.115 13.662-13.662zM696.233 857.427h-655.134c-22.517 0-40.934-18.401-40.934-40.908v-736.969c0-22.517 18.426-40.967 40.934-40.967h696.035v818.839h-40.908zM655.266 611.771v-491.321h-573.223v614.215c0 22.517 18.426 40.908 40.943 40.908h491.338c22.502 0 40.952-18.401 40.952-40.908v-122.887zM82.042 338.792h573.233v-27.307h-573.233v27.307zM540.346 279.166v-0.109h-163.39c-26.127 0-47.997-18.733-53.94-43.905-0.233 0-0.456 0.124-0.673 0.124h-93.995c-11.487 0-20.823-9.827-20.823-21.953 0-12.026 9.337-21.887 20.823-21.887h93.995c0.233 0 0.456 0.124 0.673 0.124 5.943-25.231 27.813-43.84 53.94-43.84l251.010-0.059v131.511h-87.621zM491.485 418.469v97.672c0 15.628-11.229 28.718-26.252 32.22 0 0.174 0.059 0.282 0.059 0.391v56.189c0 6.89-5.869 12.467-13.080 12.467s-13.080-5.586-13.080-12.467v-56.198c0-0.109 0-0.233 0-0.391-15.023-3.503-26.168-16.583-26.168-32.22v-97.655h-0.050v-52.355h78.591v52.355h-0.024zM601.732 548.344c0 0.174 0.059 0.282 0.059 0.391v56.198c0 6.89-5.884 12.467-13.097 12.467s-13.080-5.586-13.080-12.467v-56.198c0-0.109 0-0.233 0-0.391-15.014-3.503-26.177-16.583-26.177-32.22v-150.011h78.542v150.026c-0.009 15.628-11.254 28.718-26.252 32.21zM794.459 857.427h-30.020v-818.855h30.020c13.503 0 24.543 11.056 24.543 24.609v769.705c0 13.487-11.047 24.543-24.543 24.543zM483.178 673.28l5.993 5.984v8.856l-5.993-6.042zM483.178 705.202l5.993-5.968v8.797l-5.993 5.984zM485.892 695.954l-5.984 5.984h-8.856l6.033-5.984zM500.232 714.513l-6.482-6.482v-8.797l6.482 6.474zM477.086 691.324l-6.033-5.968h8.856l5.984 5.968zM611.599 748.26h-256.587v-92.758c0-9.030 7.361-16.41 16.36-16.41h240.228c9.014 0 16.36 7.396 16.36 16.41v92.758h-16.36zM518.733 691.324h-6.375l6.266-6.266-1.585-1.635v-3.22h-8.914l4.507-4.523-3.278-3.22-4.507 4.507v-8.914h-3.22l-1.585-1.635-6.316 6.325v-6.375h-4.572v6.375l-6.325-6.325-2.15 2.15h-2.15v8.914l-4.482-4.498-3.278 3.27 4.523 4.458h-8.914v2.199l-2.1 2.15 6.275 6.266h-6.39v4.615h6.39l-6.325 6.325 2.15 2.14v2.15h8.955l-4.507 4.507 3.22 3.22 4.507-4.507v8.905h2.15l2.15 2.14 6.325-6.316v6.424h4.572v-6.424l6.316 6.316 1.585-1.635h3.22v-8.856l4.507 4.458 3.278-3.22-4.572-4.523h8.964v-3.22l1.585-1.57-6.266-6.325h6.375v-4.615zM503.495 702.438l-6.499-6.482h8.807l6.548 6.482zM493.743 679.256l6.482-6.499v8.807l-6.482 6.548zM496.947 691.324l6.548-6.482h8.856l-6.548 6.482zM213.667 573.012l-37.689 75.378c3.437 0.456 6.151 2.822 6.151 5.869 0 3.328-3.278 6.033-7.287 6.033 4.008 0 7.287 2.764 7.287 6.092s-3.278 6.033-7.287 6.033h-21.828c-4.008 0-7.287-2.705-7.287-6.033s3.278-6.092 7.287-6.092c-4.008 0-7.287-2.705-7.287-6.033 0-3.047 2.714-5.42 6.176-5.869l-37.689-75.378c-2.68-5.37-4.879-14.666-4.879-20.65v-172.311c0-5.984 4.905-10.897 10.922-10.897h87.364c5.984 0 10.897 4.905 10.897 10.897v172.311c-0.009 5.968-2.175 15.28-4.864 20.65zM350.132 570.015l-37.689 75.328c3.477 0.515 6.176 2.872 6.176 5.919 0 3.278-3.27 6.042-7.271 6.042 4.008 0 7.271 2.705 7.271 6.033 0 3.378-3.27 6.092-7.271 6.092h-21.844c-4.008 0-7.271-2.714-7.271-6.092 0-3.328 3.278-6.033 7.271-6.033-4.008 0-7.271-2.764-7.271-6.042 0-3.047 2.705-5.42 6.142-5.919l-37.689-75.328c-2.68-5.42-4.855-14.666-4.855-20.709v-172.261c0-6.033 4.905-10.947 10.881-10.947h87.364c6.009 0 10.922 4.905 10.922 10.947v172.261c0 6.042-2.199 15.296-4.879 20.709z" />
<glyph unicode="&#xe940;" glyph-name="bathtub-shower" horiz-adv-x="819" d="M819.003 441.57c0 14.117-11.469 25.601-25.601 25.601 0 0-230.328-25.601-383.901-25.601-153.517 0-383.877 25.601-383.877 25.601h-0.023c-14.117 0-25.601-11.484-25.601-25.601s11.484-25.601 25.601-25.601h0.023c102.388 0 76.787-255.882 204.744-255.882h0.047v-0.056c0-6.070 2.428-11.446 5.976-15.839l-18.938-56.631c-0.482-1.43-0.53-2.854-0.53-4.284-20.929-0.309-37.78-17.404-37.78-38.35h76.763c0 12.487-6.078 23.521-15.365 30.524 0.901 1.162 2.118 2.062 2.616 3.548l18.993 56.735c11.057 2.83 19.42 12.346 19.42 24.304v0.056h281.483c0-11.976 8.362-21.523 19.443-24.36l18.866-56.735c0.506-1.486 1.716-2.325 2.625-3.525-9.28-7.003-15.365-18.004-15.365-30.541h76.81c0 20.994-16.883 38.042-37.821 38.35 0 1.43-0.056 2.854-0.53 4.284l-18.828 56.576c3.596 4.426 6.023 9.825 6.023 15.951 0 1.406-0.586 2.625-0.797 3.975 99.985 31.268 84.802 251.906 179.972 251.906h-0.056c14.133 0 25.601 11.484 25.601 25.601zM421.008 697.508c0 6.355-5.146 11.516-11.508 11.516s-11.508-5.161-11.508-11.516v-23.024c0-6.37 5.161-11.516 11.508-11.516s11.508 5.161 11.508 11.516v23.024zM421.008 636.095c0 6.355-5.146 11.516-11.508 11.516s-11.508-5.161-11.508-11.516v-23.033c0-6.355 5.161-11.516 11.508-11.516s11.508 5.161 11.508 11.516v23.033zM421.008 574.673c0 6.355-5.146 11.516-11.508 11.516s-11.508-5.161-11.508-11.516v-23.033c0-6.355 5.161-11.516 11.508-11.516s11.508 5.161 11.508 11.516v23.033zM409.508 524.768c-6.347 0-11.508-5.161-11.508-11.516v-23.033c0-6.355 5.161-11.516 11.508-11.516s11.508 5.161 11.508 11.516v23.033c-0.008 6.355-5.161 11.516-11.508 11.516zM358.291 524.768c-6.347 0-11.508-5.161-11.508-11.516v-23.033c0-6.355 5.161-11.516 11.508-11.516s11.508 5.161 11.508 11.516v23.033c0 6.355-5.146 11.516-11.508 11.516zM369.799 574.673c0 6.355-5.161 11.516-11.508 11.516s-11.508-5.161-11.508-11.516v-23.033c0-6.355 5.161-11.516 11.508-11.516s11.508 5.161 11.508 11.516v23.033zM369.799 697.508c0 6.355-5.161 11.516-11.508 11.516s-11.508-5.161-11.508-11.516v-23.024c0-6.37 5.161-11.516 11.508-11.516s11.508 5.161 11.508 11.516v23.024zM369.799 636.095c0 6.355-5.161 11.516-11.508 11.516s-11.508-5.161-11.508-11.516v-23.033c0-6.355 5.161-11.516 11.508-11.516s11.508 5.161 11.508 11.516v23.033zM318.652 636.095c0 6.355-5.161 11.516-11.508 11.516s-11.508-5.161-11.508-11.516v-23.033c0-6.355 5.161-11.516 11.508-11.516s11.508 5.161 11.508 11.516v23.033zM318.652 574.673c0 6.355-5.161 11.516-11.508 11.516s-11.508-5.161-11.508-11.516v-23.033c0-6.355 5.161-11.516 11.508-11.516s11.508 5.161 11.508 11.516v23.033zM307.145 524.768c-6.347 0-11.508-5.161-11.508-11.516v-23.033c0-6.355 5.161-11.516 11.508-11.516s11.508 5.161 11.508 11.516v23.033c0 6.355-5.161 11.516-11.508 11.516zM318.652 697.508c0 6.355-5.161 11.516-11.508 11.516s-11.508-5.161-11.508-11.516v-23.024c0-6.37 5.161-11.516 11.508-11.516s11.508 5.161 11.508 11.516v23.024zM460.662 524.768c-6.347 0-11.508-5.161-11.508-11.516v-23.033c0-6.355 5.161-11.516 11.508-11.516 6.355 0 11.508 5.161 11.508 11.516v23.033c0 6.355-5.161 11.516-11.508 11.516zM472.17 697.508c0 6.355-5.146 11.516-11.508 11.516-6.347 0-11.508-5.161-11.508-11.516v-23.024c0-6.37 5.161-11.516 11.508-11.516 6.355 0 11.508 5.161 11.508 11.516v23.024zM472.17 636.095c0 6.355-5.146 11.516-11.508 11.516-6.347 0-11.508-5.161-11.508-11.516v-23.033c0-6.355 5.161-11.516 11.508-11.516 6.355 0 11.508 5.161 11.508 11.516v23.033zM472.17 574.673c0 6.355-5.146 11.516-11.508 11.516-6.347 0-11.508-5.161-11.508-11.516v-23.033c0-6.355 5.161-11.516 11.508-11.516 6.355 0 11.508 5.161 11.508 11.516v23.033zM511.865 524.768c-6.347 0-11.508-5.161-11.508-11.516v-23.033c0-6.355 5.161-11.516 11.508-11.516 6.355 0 11.508 5.161 11.508 11.516v23.033c0 6.355-5.146 11.516-11.508 11.516zM523.372 697.508c0 6.355-5.146 11.516-11.508 11.516-6.347 0-11.508-5.161-11.508-11.516v-23.024c0-6.37 5.161-11.516 11.508-11.516 6.355 0 11.508 5.161 11.508 11.516v23.024zM523.372 636.095c0 6.355-5.146 11.516-11.508 11.516-6.347 0-11.508-5.161-11.508-11.516v-23.033c0-6.355 5.161-11.516 11.508-11.516 6.355 0 11.508 5.161 11.508 11.516v23.033zM523.372 574.673c0 6.355-5.146 11.516-11.508 11.516-6.347 0-11.508-5.161-11.508-11.516v-23.033c0-6.355 5.161-11.516 11.508-11.516 6.355 0 11.508 5.161 11.508 11.516v23.033zM574.519 636.095c0 6.355-5.146 11.516-11.508 11.516-6.347 0-11.508-5.161-11.508-11.516v-23.033c0-6.355 5.161-11.516 11.508-11.516 6.355 0 11.508 5.161 11.508 11.516v23.033zM574.519 697.508c0 6.355-5.146 11.516-11.508 11.516-6.347 0-11.508-5.161-11.508-11.516v-23.024c0-6.37 5.161-11.516 11.508-11.516 6.355 0 11.508 5.161 11.508 11.516v23.024zM574.519 574.673c0 6.355-5.146 11.516-11.508 11.516-6.347 0-11.508-5.161-11.508-11.516v-23.033c0-6.355 5.161-11.516 11.508-11.516 6.355 0 11.508 5.161 11.508 11.516v23.033zM563.017 524.768c-6.347 0-11.508-5.161-11.508-11.516v-23.033c0-6.355 5.161-11.516 11.508-11.516 6.355 0 11.508 5.161 11.508 11.516v23.033c0 6.355-5.146 11.516-11.508 11.516zM267.443 697.508c0 6.355-5.161 11.516-11.508 11.516s-11.508-5.161-11.508-11.516v-23.024c0-6.37 5.161-11.516 11.508-11.516s11.508 5.161 11.508 11.516v23.024zM255.935 524.768c-6.347 0-11.508-5.161-11.508-11.516v-23.033c0-6.355 5.161-11.516 11.508-11.516s11.508 5.161 11.508 11.516v23.033c0 6.355-5.161 11.516-11.508 11.516zM267.443 574.673c0 6.355-5.161 11.516-11.508 11.516s-11.508-5.161-11.508-11.516v-23.033c0-6.355 5.161-11.516 11.508-11.516s11.508 5.161 11.508 11.516v23.033zM267.443 636.095c0 6.355-5.161 11.516-11.508 11.516s-11.508-5.161-11.508-11.516v-23.033c0-6.355 5.161-11.516 11.508-11.516s11.508 5.161 11.508 11.516v23.033zM537.472 774.318h-76.763c-0.023 13.911-16.93 25.26-37.71 25.513v51.249h-27.088v-51.265c-20.708-0.3-37.536-11.62-37.559-25.498h-76.81c-42.215 0-76.763-23.056-76.763-51.209h409.447c0.008 28.138-34.54 51.209-76.754 51.209z" />
<glyph unicode="&#xe941;" glyph-name="coffee" horiz-adv-x="819" d="M664.271 429.058c-33.615 0-64.027-10.671-89.637-28.811v105.644h-574.636v-391.095c0-65.093 52.822-117.382 117.382-117.382h339.34c65.093 0 117.382 52.822 117.382 117.382v33.615c25.076-18.14 56.023-28.811 89.637-28.811 85.368 0 154.73 69.362 154.73 154.73 0.534 85.368-68.828 154.73-154.196 154.73zM664.271 187.893c-47.486 0-85.901 38.416-85.901 85.901s38.416 85.901 85.901 85.901c47.486 0 85.901-38.416 85.901-85.901 0-46.953-38.416-85.901-85.901-85.901zM133.92 588.057c-2.134 53.356 18.674 82.701 35.215 106.711 11.738 17.073 18.674 27.211 19.208 42.151 1.067 20.275-13.339 46.419-27.744 72.030-16.006 28.811-32.548 58.691-32.548 89.637h58.691c0-15.472 12.805-38.95 25.076-60.825 17.073-31.479 36.814-66.694 35.215-104.044-1.601-32.013-16.54-53.356-29.345-72.563-13.873-20.275-26.143-37.349-24.544-70.963l-59.224-2.134zM242.764 588.057c-2.134 53.356 18.674 82.701 35.215 106.711 11.738 17.073 18.674 27.211 19.208 42.151 1.067 20.275-13.339 46.419-27.744 72.030-16.006 28.811-32.548 58.691-32.548 89.637h58.691c0-15.472 12.805-38.95 25.076-60.825 17.073-31.479 36.814-66.694 35.215-104.044-1.601-32.013-16.54-53.356-29.879-72.563-13.873-20.275-26.143-37.349-24.544-70.963l-58.691-2.134zM358.546 588.057c-2.134 53.356 18.674 82.701 35.215 106.711 11.738 17.073 18.674 27.211 19.208 42.151 1.067 20.275-13.339 46.419-27.744 72.030-16.006 28.811-32.548 58.691-32.548 89.637h58.691c0-15.472 12.805-38.95 25.076-60.825 17.073-31.479 36.814-66.694 35.215-104.044-1.601-32.013-16.54-53.356-29.879-72.563-13.873-20.275-26.143-37.349-24.544-70.963l-58.691-2.134z" />
</font>
</defs>
</svg>
