<svg xmlns="http://www.w3.org/2000/svg" width="53" height="53" viewBox="0 0 53 53">
  <g id="Group_101170" data-name="Group 101170" transform="translate(0 -0.22)">
    <g id="Ellipse_50" data-name="Ellipse 50" transform="translate(0 0.22)" fill="none" stroke="#866531" stroke-width="3">
      <circle cx="26.5" cy="26.5" r="26.5" stroke="none"/>
      <circle cx="26.5" cy="26.5" r="25" fill="none"/>
    </g>
    <g id="discount" transform="translate(10.906 10.622)">
      <g id="Group_101090" data-name="Group 101090" transform="translate(0 0)">
        <g id="Group_101089" data-name="Group 101089" transform="translate(0 0)">
          <path id="Path_3427" data-name="Path 3427" d="M39.236,16.217a.927.927,0,0,1,0-.819l1.179-2.413a2.745,2.745,0,0,0-1.184-3.645L36.859,8.082a.927.927,0,0,1-.481-.663l-.464-2.645a2.745,2.745,0,0,0-3.1-2.253L30.154,2.9a.927.927,0,0,1-.779-.253L27.445.778a2.745,2.745,0,0,0-3.833,0l-1.93,1.867A.927.927,0,0,1,20.9,2.9l-2.659-.376a2.745,2.745,0,0,0-3.1,2.253L14.68,7.42a.927.927,0,0,1-.481.663L11.827,9.341a2.745,2.745,0,0,0-1.184,3.645L11.822,15.4a.927.927,0,0,1,0,.819L10.643,18.63a2.745,2.745,0,0,0,1.184,3.645L14.2,23.534a.927.927,0,0,1,.481.663l.464,2.645a2.743,2.743,0,0,0,2.706,2.281,2.82,2.82,0,0,0,.395-.028l2.659-.376a.926.926,0,0,1,.779.253l1.93,1.867a2.745,2.745,0,0,0,3.833,0l1.93-1.867a.928.928,0,0,1,.779-.253l2.659.376a2.745,2.745,0,0,0,3.1-2.253l.464-2.645a.927.927,0,0,1,.481-.663l2.372-1.259a2.745,2.745,0,0,0,1.184-3.645Zm-.86,4.447L36,21.923a2.739,2.739,0,0,0-1.423,1.958l-.464,2.645a.929.929,0,0,1-1.049.762l-2.659-.376a2.738,2.738,0,0,0-2.3.748l-1.93,1.867a.929.929,0,0,1-1.3,0l-1.93-1.867a2.736,2.736,0,0,0-1.91-.776,2.8,2.8,0,0,0-.392.028l-2.659.376a.929.929,0,0,1-1.049-.762l-.464-2.645a2.738,2.738,0,0,0-1.423-1.958l-2.372-1.259a.929.929,0,0,1-.4-1.233l1.179-2.413a2.739,2.739,0,0,0,0-2.421l-1.179-2.413a.929.929,0,0,1,.4-1.233l2.372-1.259a2.739,2.739,0,0,0,1.423-1.958L16.94,5.09a.929.929,0,0,1,1.049-.762l2.659.376a2.739,2.739,0,0,0,2.3-.748l1.93-1.867a.929.929,0,0,1,1.3,0l1.93,1.867a2.738,2.738,0,0,0,2.3.748l2.659-.376a.929.929,0,0,1,1.049.762l.464,2.645A2.738,2.738,0,0,0,36,9.693l2.372,1.259a.929.929,0,0,1,.4,1.233L37.6,14.6a2.739,2.739,0,0,0,0,2.421l1.179,2.412A.929.929,0,0,1,38.376,20.664Z" transform="translate(-10.359 0.002)" fill="#866531"/>
        </g>
      </g>
      <g id="Group_101092" data-name="Group 101092" transform="translate(8.24 8.88)">
        <g id="Group_101091" data-name="Group 101091">
          <path id="Path_3428" data-name="Path 3428" d="M157.384,144.059a.912.912,0,0,0-1.29,0l-12.036,12.036a.912.912,0,1,0,1.289,1.29l12.036-12.036A.912.912,0,0,0,157.384,144.059Z" transform="translate(-143.792 -143.792)" fill="#866531"/>
        </g>
      </g>
      <g id="Group_101094" data-name="Group 101094" transform="translate(8.179 7.603)">
        <g id="Group_101093" data-name="Group 101093">
          <path id="Path_3429" data-name="Path 3429" d="M146.145,123.116a3.343,3.343,0,1,0,3.343,3.343A3.347,3.347,0,0,0,146.145,123.116Zm0,4.863a1.52,1.52,0,1,1,1.52-1.52A1.521,1.521,0,0,1,146.145,127.979Z" transform="translate(-142.802 -123.116)" fill="#866531"/>
        </g>
      </g>
      <g id="Group_101096" data-name="Group 101096" transform="translate(15.474 17.33)">
        <g id="Group_101095" data-name="Group 101095">
          <path id="Path_3430" data-name="Path 3430" d="M264.265,280.61a3.343,3.343,0,1,0,3.343,3.343A3.347,3.347,0,0,0,264.265,280.61Zm0,4.863a1.52,1.52,0,1,1,1.52-1.52A1.521,1.521,0,0,1,264.265,285.473Z" transform="translate(-260.922 -280.61)" fill="#866531"/>
        </g>
      </g>
    </g>
  </g>
</svg>
