<svg id="Group_101225" data-name="Group 101225" xmlns="http://www.w3.org/2000/svg" width="62.406" height="62.406" viewBox="0 0 62.406 62.406">
  <g id="Path_4511" data-name="Path 4511" transform="translate(0 0)" fill="none">
    <path d="M31.2,0A31.2,31.2,0,1,1,0,31.2,31.2,31.2,0,0,1,31.2,0Z" stroke="none"/>
    <path d="M 31.20293045043945 2.999996185302734 C 27.39424133300781 2.999996185302734 23.70106506347656 3.745262145996094 20.22599792480469 5.215095520019531 C 16.86797332763672 6.635417938232422 13.85152053833008 8.669376373291016 11.26044082641602 11.26044082641602 C 8.669376373291016 13.85152053833008 6.635417938232422 16.86797332763672 5.215095520019531 20.22599792480469 C 3.745262145996094 23.70106506347656 2.999996185302734 27.39424133300781 2.999996185302734 31.20293045043945 C 2.999996185302734 35.01161956787109 3.745262145996094 38.70479583740234 5.215095520019531 42.17986297607422 C 6.635417938232422 45.53788757324219 8.669376373291016 48.55434036254883 11.26044082641602 51.14542007446289 C 13.85152053833008 53.73648834228516 16.86797332763672 55.77044296264648 20.22599792480469 57.19076538085938 C 23.70106506347656 58.66059875488281 27.39424133300781 59.40586471557617 31.20293045043945 59.40586471557617 C 35.01161956787109 59.40586471557617 38.70479583740234 58.66059875488281 42.17986297607422 57.19076538085938 C 45.53788757324219 55.77044296264648 48.55434036254883 53.73648834228516 51.14542007446289 51.14542007446289 C 53.73648834228516 48.55434036254883 55.77044296264648 45.53788757324219 57.19076538085938 42.17986297607422 C 58.66059875488281 38.70479583740234 59.40586471557617 35.01161956787109 59.40586471557617 31.20293045043945 C 59.40586471557617 27.39424133300781 58.66059875488281 23.70106506347656 57.19076538085938 20.22599792480469 C 55.77044296264648 16.86797332763672 53.73648834228516 13.85152053833008 51.14542007446289 11.26044082641602 C 48.55434036254883 8.669376373291016 45.53788757324219 6.635417938232422 42.17986297607422 5.215095520019531 C 38.70479583740234 3.745262145996094 35.01161956787109 2.999996185302734 31.20293045043945 2.999996185302734 M 31.20293045043945 -3.814697265625e-06 C 48.43582916259766 -3.814697265625e-06 62.40586471557617 13.97003173828125 62.40586471557617 31.20293045043945 C 62.40586471557617 48.43582916259766 48.43582916259766 62.40586471557617 31.20293045043945 62.40586471557617 C 13.97003173828125 62.40586471557617 -3.814697265625e-06 48.43582916259766 -3.814697265625e-06 31.20293045043945 C -3.814697265625e-06 13.97003173828125 13.97003173828125 -3.814697265625e-06 31.20293045043945 -3.814697265625e-06 Z" stroke="none" fill="#866531"/>
  </g>
  <g id="like" transform="translate(13.823 9.03)">
    <g id="Group_101120" data-name="Group 101120" transform="translate(0 6.977)">
      <g id="Group_101119" data-name="Group 101119">
        <path id="Path_3445" data-name="Path 3445" d="M64.621,108.328a3.448,3.448,0,0,0-2.569-5.75h-6.7A22.3,22.3,0,0,0,56.3,96.75V95.6A4.606,4.606,0,0,0,51.7,91h-1.15a1.15,1.15,0,0,0-1.116.871l-.626,2.506c-.878,3.51-3.665,7.383-6.549,8.086a3.455,3.455,0,0,0-3.209-2.187h-6.9a1.15,1.15,0,0,0-1.15,1.15v20.7a1.15,1.15,0,0,0,1.15,1.15h6.9a3.454,3.454,0,0,0,3.114-1.967l3.952,1.317a12.622,12.622,0,0,0,4,.649h9.634a3.451,3.451,0,0,0,3.208-4.721,3.448,3.448,0,0,0,1.661-5.629,3.443,3.443,0,0,0,0-4.6Zm-24.42,11.5a1.151,1.151,0,0,1-1.15,1.15H33.3v-18.4h5.75a1.151,1.151,0,0,1,1.15,1.15Zm19.551-10.351h2.3a1.15,1.15,0,0,1,0,2.3h-2.3a1.15,1.15,0,1,0,0,2.3h2.3a1.15,1.15,0,1,1,0,2.3h-2.3a1.15,1.15,0,1,0,0,2.3,1.15,1.15,0,1,1,0,2.3H50.117a10.328,10.328,0,0,1-3.274-.531L42.5,119V104.769a9.267,9.267,0,0,0,5.164-3.355,16.781,16.781,0,0,0,3.376-6.478l.409-1.635H51.7A2.3,2.3,0,0,1,54,95.6V96.75a18.2,18.2,0,0,1-1.1,5.828H50.551a1.15,1.15,0,1,0,0,2.3h11.5a1.15,1.15,0,0,1,0,2.3h-2.3a1.15,1.15,0,1,0,0,2.3Z" transform="translate(-31 -91)"/>
      </g>
    </g>
    <g id="Group_101122" data-name="Group 101122" transform="translate(5.177 30.72)">
      <g id="Group_101121" data-name="Group 101121" transform="translate(0 0)">
        <ellipse id="Ellipse_56" data-name="Ellipse 56" cx="1" cy="2" rx="1" ry="2"/>
      </g>
    </g>
    <g id="Group_101124" data-name="Group 101124" transform="translate(20.701)">
      <g id="Group_101123" data-name="Group 101123">
        <path id="Path_3446" data-name="Path 3446" d="M302.15,0A1.15,1.15,0,0,0,301,1.15V3.527a1.15,1.15,0,1,0,2.3,0V1.15A1.15,1.15,0,0,0,302.15,0Z" transform="translate(-301 0)"/>
      </g>
    </g>
    <g id="Group_101126" data-name="Group 101126" transform="translate(13.382 3.108)">
      <g id="Group_101125" data-name="Group 101125">
        <path id="Path_3447" data-name="Path 3447" d="M209.13,42.5,207.5,40.878a1.15,1.15,0,0,0-1.626,1.626l1.626,1.626A1.15,1.15,0,0,0,209.13,42.5Z" transform="translate(-205.54 -40.542)"/>
      </g>
    </g>
    <g id="Group_101128" data-name="Group 101128" transform="translate(26.394 3.108)">
      <g id="Group_101127" data-name="Group 101127">
        <path id="Path_3448" data-name="Path 3448" d="M378.836,40.878a1.15,1.15,0,0,0-1.626,0L375.583,42.5a1.15,1.15,0,0,0,1.626,1.626l1.626-1.626A1.15,1.15,0,0,0,378.836,40.878Z" transform="translate(-375.247 -40.542)"/>
      </g>
    </g>
  </g>
</svg>
