<svg xmlns="http://www.w3.org/2000/svg" viewBox="0 0 50 50">
  <g transform="translate(-698 -405.002)">
    <circle cx="25" cy="25" r="25" transform="translate(698 405.002)" fill="#fff"/>
    <g transform="translate(16383.456 13337.013)">
      <path d="M10.516,20.853a3.19,3.19,0,0,1-.707-2.095H10.97a2.868,2.868,0,0,0,.32,1.247,1.686,1.686,0,0,0,1.56.7,2.048,2.048,0,0,0,1.406-.469,1.54,1.54,0,0,0,.53-1.209,1.407,1.407,0,0,0-.557-1.277,2.827,2.827,0,0,0-1.552-.364q-.11,0-.225,0c-.076,0-.153,0-.232.008v-.98c.116.011.213.02.29.025s.162.005.253.005a2.306,2.306,0,0,0,1.023-.2,1.254,1.254,0,0,0,.7-1.233A1.206,1.206,0,0,0,14.023,14a1.747,1.747,0,0,0-1.092-.357,1.618,1.618,0,0,0-1.536.74,2.553,2.553,0,0,0-.266,1.16h-1.1a3.332,3.332,0,0,1,.394-1.678,2.489,2.489,0,0,1,2.388-1.235,3.227,3.227,0,0,1,2.09.6,2.11,2.11,0,0,1,.741,1.742,1.948,1.948,0,0,1-.439,1.321,1.825,1.825,0,0,1-.7.493,1.916,1.916,0,0,1,1.089.737,2.225,2.225,0,0,1,.392,1.336,2.723,2.723,0,0,1-.834,2.061,3.284,3.284,0,0,1-2.362.8,2.774,2.774,0,0,1-2.273-.861" transform="translate(-15681.441 -12927.421)" fill="#343434"/>
      <path d="M12.842,21.957a2.969,2.969,0,0,1-2.423-.931,3.39,3.39,0,0,1-.751-2.217v-.192H11.2l.015.176a2.721,2.721,0,0,0,.292,1.16,1.5,1.5,0,0,0,1.4.608,1.847,1.847,0,0,0,1.28-.421,1.347,1.347,0,0,0,.465-1.064,1.221,1.221,0,0,0-.47-1.115,3,3,0,0,0-1.667-.33l-.226.01-.2.01v-1.4l.214.023c.11.011.2.019.279.023s.155.007.243.007a2.117,2.117,0,0,0,.938-.179,1.066,1.066,0,0,0,.6-1.06,1.012,1.012,0,0,0-.392-.864,1.55,1.55,0,0,0-.974-.319,1.426,1.426,0,0,0-1.368.643,2.392,2.392,0,0,0-.241,1.071l-.007.185H9.89V15.59a3.535,3.535,0,0,1,.421-1.774,2.678,2.678,0,0,1,2.555-1.33,3.429,3.429,0,0,1,2.212.645,2.3,2.3,0,0,1,.812,1.892,2.148,2.148,0,0,1-.485,1.447,1.93,1.93,0,0,1-.382.337,2.058,2.058,0,0,1,.778.655,2.428,2.428,0,0,1,.428,1.447,2.92,2.92,0,0,1-.893,2.2,3.48,3.48,0,0,1-2.5.849M10.059,19a2.959,2.959,0,0,0,.658,1.778,2.608,2.608,0,0,0,2.125.79,3.109,3.109,0,0,0,2.228-.743,2.515,2.515,0,0,0,.774-1.92,2.043,2.043,0,0,0-.357-1.222,1.709,1.709,0,0,0-.983-.664l-.544-.149.522-.217a1.635,1.635,0,0,0,.63-.442,1.765,1.765,0,0,0,.392-1.194,1.912,1.912,0,0,0-.67-1.592,3.06,3.06,0,0,0-1.968-.559,2.292,2.292,0,0,0-2.219,1.134,3.037,3.037,0,0,0-.367,1.391H11a2.5,2.5,0,0,1,.281-1.063,1.8,1.8,0,0,1,1.7-.837,1.95,1.95,0,0,1,1.209.4,1.4,1.4,0,0,1,.544,1.172,1.441,1.441,0,0,1-.811,1.408,2.525,2.525,0,0,1-1.109.217c-.093,0-.181,0-.262-.007l-.087-.005v.567H12.5a3.356,3.356,0,0,1,1.887.392,1.592,1.592,0,0,1,.645,1.438,1.73,1.73,0,0,1-.6,1.353,2.241,2.241,0,0,1-1.534.518,1.875,1.875,0,0,1-1.724-.788A2.785,2.785,0,0,1,10.847,19Z" transform="translate(-15681.493 -12927.472)" fill="#343434"/>
      <path d="M20.375,13.378a2.591,2.591,0,0,1,.583,1.582h-1.1a2.009,2.009,0,0,0-.315-.82,1.4,1.4,0,0,0-1.214-.556,1.684,1.684,0,0,0-1.481.861,4.965,4.965,0,0,0-.611,2.464,2.415,2.415,0,0,1,.962-.838,2.775,2.775,0,0,1,1.184-.248,2.886,2.886,0,0,1,1.938.71,2.638,2.638,0,0,1,.826,2.116,3.215,3.215,0,0,1-.784,2.131,2.758,2.758,0,0,1-2.232.928,2.859,2.859,0,0,1-2.141-.942,4.513,4.513,0,0,1-.9-3.167,8.56,8.56,0,0,1,.4-2.794,2.849,2.849,0,0,1,2.82-2.2,2.439,2.439,0,0,1,2.063.769m-.833,6.754a2.274,2.274,0,0,0,.435-1.391,2.38,2.38,0,0,0-.388-1.292,1.539,1.539,0,0,0-1.412-.613,1.844,1.844,0,0,0-1.256.474,1.809,1.809,0,0,0-.54,1.431,2.087,2.087,0,0,0,.491,1.41,1.7,1.7,0,0,0,1.36.571,1.522,1.522,0,0,0,1.311-.59" transform="translate(-15679.525 -12927.427)" fill="#343434"/>
      <path d="M18.185,21.953a3.062,3.062,0,0,1-2.28-1,4.711,4.711,0,0,1-.954-3.3,8.777,8.777,0,0,1,.412-2.858,3.036,3.036,0,0,1,3-2.325,2.632,2.632,0,0,1,2.217.844,2.792,2.792,0,0,1,.621,1.7V15.2H19.752l-.029-.157a1.876,1.876,0,0,0-.281-.743,1.212,1.212,0,0,0-1.06-.477,1.489,1.489,0,0,0-1.318.771,4.177,4.177,0,0,0-.54,1.789,2.539,2.539,0,0,1,.646-.442,2.994,2.994,0,0,1,1.267-.266,3.082,3.082,0,0,1,2.062.756,2.825,2.825,0,0,1,.894,2.262,3.407,3.407,0,0,1-.829,2.255,2.952,2.952,0,0,1-2.381,1m.18-9.1a2.651,2.651,0,0,0-2.637,2.067,8.368,8.368,0,0,0-.391,2.73,4.356,4.356,0,0,0,.848,3.035,2.652,2.652,0,0,0,2,.88,2.559,2.559,0,0,0,2.086-.859,3.043,3.043,0,0,0,.737-2.007,2.461,2.461,0,0,0-.759-1.969,2.709,2.709,0,0,0-1.811-.664,2.613,2.613,0,0,0-1.1.229,2.24,2.24,0,0,0-.883.773l-.379.556.026-.672a5.167,5.167,0,0,1,.641-2.561,1.872,1.872,0,0,1,1.643-.95,1.591,1.591,0,0,1,1.372.635,2.082,2.082,0,0,1,.315.741h.739a2.5,2.5,0,0,0-.534-1.273,2.273,2.273,0,0,0-1.909-.692m-.08,8.113a1.89,1.89,0,0,1-1.507-.639,2.278,2.278,0,0,1-.537-1.534,2,2,0,0,1,.605-1.577,2.043,2.043,0,0,1,1.383-.522,1.723,1.723,0,0,1,1.575.7,2.575,2.575,0,0,1,.418,1.4,2.473,2.473,0,0,1-.472,1.5,1.713,1.713,0,0,1-1.466.669m-.056-3.887a1.553,1.553,0,0,0-1.6,1.713,1.885,1.885,0,0,0,.444,1.284,1.5,1.5,0,0,0,1.214.5,1.33,1.33,0,0,0,1.154-.511h0a2.075,2.075,0,0,0,.4-1.276,2.213,2.213,0,0,0-.358-1.19,1.356,1.356,0,0,0-1.25-.523" transform="translate(-15679.576 -12927.479)" fill="#343434"/>
      <path d="M25.691,14.049a6.331,6.331,0,0,1,.591,2.991,7.214,7.214,0,0,1-.536,2.979,2.629,2.629,0,0,1-2.542,1.691,2.546,2.546,0,0,1-2.368-1.382,6.329,6.329,0,0,1-.649-3.1,7.651,7.651,0,0,1,.388-2.584,2.66,2.66,0,0,1,2.634-2.011,2.611,2.611,0,0,1,2.48,1.413m-1.117,5.884a5.527,5.527,0,0,0,.512-2.85,7.011,7.011,0,0,0-.371-2.478,1.41,1.41,0,0,0-1.439-.972,1.5,1.5,0,0,0-1.436.923,6.343,6.343,0,0,0-.454,2.717,6.623,6.623,0,0,0,.29,2.171,1.579,1.579,0,0,0,2.9.488" transform="translate(-15677.677 -12927.417)" fill="#343434"/>
      <path d="M23.257,21.954a2.737,2.737,0,0,1-2.537-1.48,6.556,6.556,0,0,1-.672-3.192,7.872,7.872,0,0,1,.4-2.649,2.847,2.847,0,0,1,2.817-2.14,2.8,2.8,0,0,1,2.648,1.514,6.53,6.53,0,0,1,.616,3.084,7.448,7.448,0,0,1-.553,3.059,2.818,2.818,0,0,1-2.717,1.8m.007-9.073a2.464,2.464,0,0,0-2.453,1.883,7.482,7.482,0,0,0-.377,2.518,6.178,6.178,0,0,0,.623,3,2.347,2.347,0,0,0,2.2,1.284,2.43,2.43,0,0,0,2.366-1.578,7.046,7.046,0,0,0,.519-2.9,6.168,6.168,0,0,0-.57-2.9,2.409,2.409,0,0,0-2.309-1.311m-.016,8.062a1.765,1.765,0,0,1-1.7-1.382,6.851,6.851,0,0,1-.3-2.235,6.556,6.556,0,0,1,.474-2.8,1.689,1.689,0,0,1,1.609-1.03,1.592,1.592,0,0,1,1.619,1.1,7.234,7.234,0,0,1,.384,2.546,5.637,5.637,0,0,1-.545,2.957,1.775,1.775,0,0,1-1.539.85m.08-7.063a1.316,1.316,0,0,0-1.263.815,6.218,6.218,0,0,0-.435,2.632,6.506,6.506,0,0,0,.279,2.107c.268.755.707,1.123,1.338,1.123a1.39,1.39,0,0,0,1.217-.679,5.4,5.4,0,0,0,.481-2.742,6.886,6.886,0,0,0-.358-2.408,1.225,1.225,0,0,0-1.259-.848" transform="translate(-15677.728 -12927.469)" fill="#343434"/>
      <path d="M28.264,13.619a1.94,1.94,0,0,1,.511,1.458,2.509,2.509,0,0,1-.451,1.539,1.62,1.62,0,0,1-1.4.606,1.573,1.573,0,0,1-1.254-.537,2.133,2.133,0,0,1-.463-1.443A2.3,2.3,0,0,1,25.7,13.7a1.632,1.632,0,0,1,1.314-.575,1.723,1.723,0,0,1,1.25.5m-.4,2.559A2.438,2.438,0,0,0,28.1,15.1a1.932,1.932,0,0,0-.172-.876A.957.957,0,0,0,27,13.687a.92.92,0,0,0-.854.452,2.126,2.126,0,0,0-.266,1.093,1.847,1.847,0,0,0,.266,1.023.938.938,0,0,0,.846.409.882.882,0,0,0,.874-.487" transform="translate(-15675.854 -12927.24)" fill="#343434"/>
      <path d="M26.98,17.467a1.766,1.766,0,0,1-1.4-.6,2.324,2.324,0,0,1-.511-1.569,2.5,2.5,0,0,1,.536-1.671,1.829,1.829,0,0,1,1.461-.643,1.917,1.917,0,0,1,1.385.552,2.131,2.131,0,0,1,.57,1.6,2.7,2.7,0,0,1-.489,1.653,1.808,1.808,0,0,1-1.551.685m.086-4.1a1.439,1.439,0,0,0-1.167.508,2.126,2.126,0,0,0-.443,1.42,1.951,1.951,0,0,0,.417,1.315,1.371,1.371,0,0,0,1.107.472,1.429,1.429,0,0,0,1.241-.53,2.332,2.332,0,0,0,.413-1.423,1.766,1.766,0,0,0-.452-1.319,1.526,1.526,0,0,0-1.116-.443m-.025,3.543a1.121,1.121,0,0,1-1.008-.5,2.031,2.031,0,0,1-.3-1.128,2.315,2.315,0,0,1,.292-1.19,1.1,1.1,0,0,1,1.021-.548,1.143,1.143,0,0,1,1.1.636,2.152,2.152,0,0,1,.192.965,2.639,2.639,0,0,1-.256,1.167,1.069,1.069,0,0,1-1.047.6m.007-2.978a.721.721,0,0,0-.687.358,1.926,1.926,0,0,0-.24.993,1.668,1.668,0,0,0,.234.919.754.754,0,0,0,.685.322.691.691,0,0,0,.7-.379,2.26,2.26,0,0,0,.217-1,1.775,1.775,0,0,0-.15-.79.765.765,0,0,0-.759-.425" transform="translate(-15675.906 -12927.292)" fill="#343434"/>
      <path d="M32.019,17.035V18.61c1.8.849,2.777,1.788,2.777,2.6,0,1.924-5.4,4.531-14.355,5v1.5c8.05-.424,15.407-2.637,15.407-6.506,0-1.729-1.485-3.122-3.829-4.18" transform="translate(-15677.585 -12925.821)" fill="#343434"/>
      <path d="M20.3,28V26.111l.183-.01c9.125-.478,14.171-3.147,14.171-4.808,0-.745-.972-1.63-2.666-2.428l-.11-.053v-2l.273.123c2.615,1.179,3.942,2.644,3.942,4.355,0,4.338-8.4,6.319-15.59,6.7Zm.386-1.526V27.6c7.51-.425,15.02-2.529,15.02-6.3,0-1.488-1.157-2.791-3.442-3.877v1.152c1.792.864,2.776,1.83,2.776,2.726,0,2.116-5.482,4.688-14.354,5.184" transform="translate(-15677.636 -12925.901)" fill="#343434"/>
      <path d="M21.217,25.01l-3.073-2.025v3.061C10.521,25.3,6,22.974,6,21.215c0-.816.977-1.757,2.776-2.6V17.035c-2.344,1.056-3.829,2.45-3.829,4.18,0,3.512,6.064,5.654,13.2,6.338v3.534l3.073-2.025,3.073-2.026Z" transform="translate(-15683.207 -12925.821)" fill="#343434"/>
      <path d="M18,31.525V27.807c-8.271-.82-13.2-3.25-13.2-6.514,0-1.71,1.327-3.175,3.942-4.355l.273-.123v2l-.11.053c-1.694.8-2.666,1.684-2.666,2.428,0,1.653,4.49,3.873,11.762,4.618V22.7l6.688,4.41ZM8.631,17.416c-2.285,1.086-3.444,2.39-3.444,3.877,0,3.611,6.729,5.544,13.028,6.146l.174.018v3.351l5.6-3.693-5.6-3.693v2.916l-.213-.02c-6.058-.593-12.324-2.633-12.324-5.025,0-.9.985-1.862,2.777-2.726Z" transform="translate(-15683.258 -12925.901)" fill="#343434"/>
    </g>
  </g>
</svg>