<svg id="Group_103429" data-name="Group 103429" xmlns="http://www.w3.org/2000/svg" width="8.1" height="8.1" viewBox="0 0 8.1 8.1">
  <g id="Group_103408" data-name="Group 103408" transform="translate(0)">
    <circle id="Ellipse_48" data-name="Ellipse 48" cx="4.05" cy="4.05" r="4.05" fill="#fff"/>
  </g>
  <path id="Icon_ionic-ios-checkmark" data-name="Icon ionic-ios-checkmark" d="M15.036,12.621l-.378-.389a.081.081,0,0,0-.06-.026h0a.078.078,0,0,0-.06.026l-2.621,2.64-.954-.954a.083.083,0,0,0-.12,0l-.382.382a.086.086,0,0,0,0,.122l1.2,1.2a.381.381,0,0,0,.251.122.4.4,0,0,0,.249-.118h0l2.873-2.888A.092.092,0,0,0,15.036,12.621Z" transform="translate(-8.698 -9.928)" fill="#303030" stroke="#303030" stroke-width="1"/>
</svg>
