<svg xmlns="http://www.w3.org/2000/svg" width="53" height="53" viewBox="0 0 53 53">
  <g id="Group_101171" data-name="Group 101171" transform="translate(0 0.48)">
    <g id="gift_1_" data-name="gift (1)" transform="translate(10.742 11.953)">
      <g id="Group_101088" data-name="Group 101088" transform="translate(0 0)">
        <path id="Path_3426" data-name="Path 3426" d="M28.6,23.9H22.565a7.407,7.407,0,0,0,1.064-.852,3.988,3.988,0,0,0,0-5.609,4.03,4.03,0,0,0-5.592,0c-.825.829-3.02,4.206-2.717,6.461h-.137c.3-2.255-1.891-5.632-2.717-6.461a4.03,4.03,0,0,0-5.592,0,3.99,3.99,0,0,0,0,5.609,7.544,7.544,0,0,0,1.066.852H1.906A1.91,1.91,0,0,0,0,25.809v4.766a.954.954,0,0,0,.953.953h.953V42.967a1.91,1.91,0,0,0,1.906,1.906H26.69A1.91,1.91,0,0,0,28.6,42.967V31.528h.953a.954.954,0,0,0,.953-.953V25.809A1.91,1.91,0,0,0,28.6,23.9ZM8.226,18.785a2.032,2.032,0,0,1,2.888,0c1.285,1.293,2.562,4.595,2.118,5.054a.629.629,0,0,1-.353.063,9.374,9.374,0,0,1-4.654-2.2A2.079,2.079,0,0,1,8.226,18.785ZM14.3,42.967H3.813V31.528H14.3Zm0-13.345H1.906V25.809H14.3Zm5.09-10.836a2.054,2.054,0,0,1,2.888,2.921,9.374,9.374,0,0,1-4.654,2.2.626.626,0,0,1-.355-.063C16.826,23.38,18.1,20.078,19.389,18.785Zm7.3,24.181H16.2V31.528H26.69ZM28.6,29.622H16.2V25.809H28.6Z" transform="translate(0 -16.314)" fill="#866531"/>
      </g>
    </g>
    <g id="Ellipse_49" data-name="Ellipse 49" transform="translate(0 -0.48)" fill="none" stroke="#866531" stroke-width="3">
      <circle cx="26.5" cy="26.5" r="26.5" stroke="none"/>
      <circle cx="26.5" cy="26.5" r="25" fill="none"/>
    </g>
  </g>
</svg>
