<?xml version="1.0" standalone="no"?>
<!DOCTYPE svg PUBLIC "-//W3C//DTD SVG 1.1//EN" "http://www.w3.org/Graphics/SVG/1.1/DTD/svg11.dtd" >
<svg xmlns="http://www.w3.org/2000/svg" xmlns:xlink="http://www.w3.org/1999/xlink" version="1.1">
<metadata></metadata>
<defs>
<font id="gt_americabold" horiz-adv-x="1552" >
<font-face units-per-em="2048" ascent="1638" descent="-410" />
<missing-glyph horiz-adv-x="505" />
<glyph unicode="&#xfb01;" horiz-adv-x="1404" d="M35 805v219h164v96q0 183 103 280t298 97q88 0 164 -18v-236q-58 10 -100 10q-68 0 -103 -36t-35 -105v-88h238v-219h-238v-805h-327v805h-164zM934 1171v299h342v-299h-342zM938 0v1024h330v-1024h-330z" />
<glyph unicode="&#xfb02;" horiz-adv-x="1425" d="M35 805v219h164v96q0 183 103 280t298 97q88 0 164 -18v-236q-58 10 -100 10q-68 0 -103 -36t-35 -105v-88h238v-219h-238v-805h-327v805h-164zM948 0v1485h330v-1485h-330z" />
<glyph horiz-adv-x="0" />
<glyph horiz-adv-x="0" />
<glyph horiz-adv-x="682" />
<glyph unicode="&#xd;" horiz-adv-x="0" />
<glyph unicode=" "  horiz-adv-x="505" />
<glyph unicode="&#x09;" horiz-adv-x="505" />
<glyph unicode="&#xa0;" horiz-adv-x="505" />
<glyph unicode="!" horiz-adv-x="675" d="M152 1485h372l-55 -1010h-262zM160 0v313h356v-313h-356z" />
<glyph unicode="&#x22;" horiz-adv-x="937" d="M117 1454h293l-37 -614h-219zM528 1454h293l-37 -614h-219z" />
<glyph unicode="#" horiz-adv-x="1337" d="M20 360v224h252l47 256h-217v223h260l66 354h250l-66 -354h236l65 354h250l-65 -354h219v-223h-262l-47 -256h239v-224h-280l-68 -360h-250l68 360h-236l-67 -360h-250l67 360h-211zM522 584h236l47 256h-236z" />
<glyph unicode="$" horiz-adv-x="1267" d="M-4 287l248 170q111 -206 319 -240v406l-78 18q-409 92 -409 414q0 173 130 278t357 119v186h135v-186q321 -24 496 -264l-221 -180q-94 169 -275 206v-344l88 -20q231 -53 336 -156t105 -284q0 -187 -142.5 -305.5t-386.5 -135.5v-188h-135v188q-200 12 -347.5 95 t-219.5 223zM369 1069q0 -62 43.5 -100.5t150.5 -67.5v320q-92 -6 -143 -45t-51 -107zM698 213q106 9 166 56t60 124q0 80 -51 124t-175 75v-379z" />
<glyph unicode="%" horiz-adv-x="1792" d="M23 1090q-3 176 107.5 281.5t295.5 105.5q183 0 293.5 -106.5t109.5 -283.5q1 -177 -109.5 -283t-293.5 -106q-185 0 -295.5 106.5t-107.5 285.5zM258 1090q0 -104 45 -155.5t123 -51.5q76 0 120 51t44 153t-44 153.5t-120 51.5q-78 0 -123 -50.5t-45 -151.5zM309 -29 l959 1510h213l-957 -1510h-215zM965 365q-3 176 107.5 281.5t295.5 105.5q183 0 294 -106.5t110 -283.5q1 -177 -110 -283t-294 -106q-185 0 -295.5 106.5t-107.5 285.5zM1200 365q0 -104 45 -155.5t123 -51.5q76 0 120 51t44 153t-44 153.5t-120 51.5q-78 0 -123 -50.5 t-45 -151.5z" />
<glyph unicode="&#x26;" horiz-adv-x="1433" d="M25 385q0 126 67 218t227 179q-85 98 -122 182t-37 173q0 173 114.5 272.5t315.5 99.5q199 0 316.5 -94t117.5 -252q0 -233 -295 -391l-8 -4l266 -279q67 146 90 340l256 -55q-30 -275 -164 -473q70 -61 177 -61q51 0 63 4v-244q-71 -18 -137 -18q-170 0 -299 114 q-189 -131 -424 -131q-242 0 -383 114t-141 306zM354 408q0 -89 71.5 -148t180.5 -59q112 0 203 63l-338 357q-64 -44 -90.5 -93t-26.5 -120zM455 1153q0 -51 27.5 -102t99.5 -133l14 8q145 71 145 223q0 76 -37 118t-106 42q-66 0 -104 -40.5t-39 -115.5z" />
<glyph unicode="'" horiz-adv-x="528" d="M117 1454h293l-37 -614h-219z" />
<glyph unicode="(" horiz-adv-x="727" d="M111 670q0 526 362 932l246 -95q-156 -197 -228.5 -399t-72.5 -440q0 -241 73.5 -452t227.5 -409l-246 -94q-172 196 -267 440.5t-95 516.5z" />
<glyph unicode=")" horiz-adv-x="727" d="M8 -193q154 198 227.5 409t73.5 452q0 238 -72.5 440t-228.5 399l246 95q362 -406 362 -932q0 -272 -95 -516.5t-267 -440.5z" />
<glyph unicode="*" horiz-adv-x="780" d="M8 1124l76 228l238 -138l-52 271h240l-53 -271l239 138l76 -228l-276 -39l204 -188l-192 -141l-117 248l-119 -248l-192 141l205 188z" />
<glyph unicode="+" horiz-adv-x="1150" d="M90 567v213h367v367h235v-367h369v-213h-369v-389h-235v389h-367z" />
<glyph unicode="," horiz-adv-x="583" d="M117 0v336h350v-318q0 -130 -62 -211t-204 -124l-68 135q87 28 117.5 67t30.5 111v4h-164z" />
<glyph unicode="-" horiz-adv-x="849" d="M90 430v279h670v-279h-670z" />
<glyph unicode="." horiz-adv-x="583" d="M117 0v336h350v-336h-350z" />
<glyph unicode="/" horiz-adv-x="1036" d="M86 -240l578 1796h286l-577 -1796h-287z" />
<glyph unicode="0" horiz-adv-x="1366" d="M70 711q0 351 161.5 547t450.5 196q290 0 452 -195.5t162 -547.5q0 -350 -162 -546t-452 -196q-289 0 -450.5 196t-161.5 546zM410 711q0 -237 70.5 -361.5t201.5 -124.5q133 0 203.5 124.5t70.5 361.5q0 238 -70.5 362.5t-203.5 124.5q-131 0 -201.5 -124.5 t-70.5 -362.5z" />
<glyph unicode="1" horiz-adv-x="878" d="M45 899v297h39q130 5 208 58t120 169h268v-1423h-330v977q-40 -37 -107 -57.5t-141 -20.5h-57z" />
<glyph unicode="2" horiz-adv-x="1202" d="M57 1016q0 200 146.5 319t396.5 119q247 0 383.5 -116t136.5 -328q0 -277 -256 -506q-140 -123 -354 -242h623v-262h-1074v242q342 207 514 368q104 97 149.5 184t45.5 191q0 101 -47.5 155t-136.5 54q-90 0 -141.5 -54.5t-51.5 -150.5q0 -36 15 -117l-336 33 q-13 60 -13 111z" />
<glyph unicode="3" horiz-adv-x="1228" d="M45 432l334 31q1 -112 62.5 -176t166.5 -64q100 0 152.5 51t52.5 146q0 190 -246 190h-75v226h73q107 0 162 48.5t55 139.5q0 86 -48.5 133t-139.5 47q-100 0 -154.5 -65.5t-54.5 -184.5l-326 43q0 209 149 333t402 124q245 0 378.5 -102.5t133.5 -288.5 q0 -120 -77.5 -208.5t-206.5 -117.5q159 -23 241 -109.5t82 -230.5q0 -196 -150.5 -312t-404.5 -116q-256 0 -407 124.5t-154 338.5z" />
<glyph unicode="4" horiz-adv-x="1230" d="M20 313v224l617 886h364v-868h213v-242h-213v-313h-325v313h-656zM309 555h379v410q0 106 4 157h-4q-19 -50 -82 -145l-203 -299q-61 -88 -94 -123z" />
<glyph unicode="5" horiz-adv-x="1218" d="M63 365l322 51q18 -88 73.5 -138.5t141.5 -50.5q106 0 164.5 65.5t58.5 182.5q0 120 -57.5 191t-159.5 71q-83 0 -138.5 -44t-78.5 -126l-295 29l88 827h895v-262h-653l-39 -325q97 141 313 141q212 0 332.5 -131.5t120.5 -360.5q0 -239 -146.5 -377.5t-402.5 -138.5 q-221 0 -364.5 105.5t-174.5 290.5z" />
<glyph unicode="6" horiz-adv-x="1239" d="M66 686q0 359 157 563.5t432 204.5q217 0 343 -94t157 -279l-311 -49q-38 174 -195 174q-121 0 -190.5 -108.5t-75.5 -304.5q108 168 354 168q204 0 322.5 -128.5t118.5 -349.5q0 -227 -147.5 -370.5t-379.5 -143.5q-277 0 -431 188.5t-154 528.5zM387 524 q14 -143 81.5 -224t174.5 -81q103 0 161 66.5t58 183.5q0 114 -61 183t-162 69q-88 0 -154.5 -52.5t-97.5 -144.5z" />
<glyph unicode="7" horiz-adv-x="1079" d="M39 1149v274h1022v-254q-231 -240 -349 -515.5t-118 -602.5v-51h-361v25q0 299 131 586t369 538h-694z" />
<glyph unicode="8" horiz-adv-x="1263" d="M49 371q0 132 66.5 215.5t206.5 126.5q-120 55 -176 139.5t-56 206.5q0 178 145 286.5t383 108.5q243 0 388 -98t145 -264q0 -225 -223 -306q149 -57 217.5 -151.5t68.5 -239.5q0 -192 -160 -309t-425 -117q-262 0 -421 110t-159 292zM385 416q0 -92 68.5 -148.5 t181.5 -56.5q112 0 178 52t66 140q0 77 -54.5 128t-173.5 83l-110 29q-82 -38 -119 -92.5t-37 -134.5zM408 1059q0 -70 53.5 -116t171.5 -75l80 -20q65 33 94 80t29 116q0 88 -57.5 137.5t-160.5 49.5q-99 0 -154.5 -45.5t-55.5 -126.5z" />
<glyph unicode="9" horiz-adv-x="1241" d="M61 967q0 218 146.5 352.5t394.5 134.5q280 0 427 -182.5t147 -536.5q0 -365 -145 -565.5t-437 -200.5q-214 0 -346.5 98t-163.5 283l311 56q19 -86 73.5 -133.5t141.5 -47.5q122 0 185 113t65 319q-99 -151 -319 -151q-219 0 -349.5 125.5t-130.5 335.5zM377 977 q0 -102 63 -167t162 -65q84 0 154.5 51.5t101.5 135.5q-6 123 -69 201.5t-183 78.5q-104 0 -166.5 -64.5t-62.5 -170.5z" />
<glyph unicode=":" horiz-adv-x="583" d="M117 0v336h350v-336h-350zM117 688v336h350v-336h-350z" />
<glyph unicode=";" horiz-adv-x="583" d="M117 0v336h350v-318q0 -130 -62 -211t-204 -124l-68 135q87 28 117.5 67t30.5 111v4h-164zM117 688v336h350v-336h-350z" />
<glyph unicode="&#x3c;" horiz-adv-x="1269" d="M111 555v225l968 406v-244l-692 -272l692 -273v-247z" />
<glyph unicode="=" horiz-adv-x="1150" d="M90 369v217h971v-217h-971zM90 762v217h971v-217h-971z" />
<glyph unicode="&#x3e;" horiz-adv-x="1269" d="M190 150v247l693 273l-693 272v244l969 -406v-225z" />
<glyph unicode="?" horiz-adv-x="1085" d="M20 1092q0 190 138.5 303.5t380.5 113.5t379 -105.5t137 -293.5q0 -213 -193 -367l-94 -77q-50 -40 -69 -76.5t-19 -91.5v-60h-320v99q0 132 132 235l104 80q62 47 92.5 99t30.5 124q0 86 -50 137.5t-130 51.5q-93 0 -147 -56.5t-54 -158.5q0 -61 12 -103l-315 27 q-15 71 -15 119zM346 0v313h352v-313h-352z" />
<glyph unicode="@" horiz-adv-x="1724" d="M59 565q0 171 59.5 317t166.5 249.5t261 162t337 58.5q360 0 571 -203t211 -543q0 -218 -100.5 -345.5t-270.5 -127.5q-107 0 -178 41.5t-96 118.5q-38 -78 -113.5 -121t-173.5 -43q-129 0 -210 71.5t-81 186.5q0 117 79 182t251 93l227 32v39q0 74 -29 106.5t-96 32.5 q-127 0 -133 -131h-272q6 143 116.5 228.5t291.5 85.5q383 0 383 -338v-287q0 -79 20.5 -114t69.5 -35q75 0 118 86t43 235q0 290 -163.5 453.5t-466.5 163.5q-308 0 -485 -177.5t-177 -476.5q0 -289 187 -463t499 -174q94 0 195 22.5t180 59.5l57 -123q-191 -96 -454 -96 q-378 0 -601 209.5t-223 564.5zM719 410q0 -41 31.5 -69t78.5 -28q80 0 127.5 49t47.5 132v53l-127 -19q-158 -24 -158 -118z" />
<glyph unicode="A" horiz-adv-x="1507" d="M29 0l528 1454h395l529 -1454h-348l-111 340h-537l-110 -340h-346zM565 584h377l-133 405q-40 127 -53 205h-4q-12 -72 -54 -205z" />
<glyph unicode="B" horiz-adv-x="1394" d="M152 0v1454h655q239 0 361 -103.5t122 -271.5q0 -116 -68.5 -202t-193.5 -119q142 -22 220.5 -113t78.5 -235q0 -181 -127 -295.5t-366 -114.5h-682zM498 244h239q114 0 172 53.5t58 140.5t-57.5 138t-164.5 51h-247v-383zM498 856h217q111 0 163 49t52 129t-53.5 128 t-161.5 48h-217v-354z" />
<glyph unicode="C" horiz-adv-x="1468" d="M59 725q0 347 192 555.5t521 208.5q275 0 444 -140.5t199 -381.5l-350 -62q-15 145 -93 225t-208 80q-165 0 -257.5 -129.5t-92.5 -353.5q0 -220 95.5 -350.5t264.5 -130.5q121 0 199 78.5t100 220.5l350 -76q-54 -236 -222.5 -370t-432.5 -134q-170 0 -304.5 54 t-223 154t-135 240t-46.5 312z" />
<glyph unicode="D" horiz-adv-x="1509" d="M152 0v1454h579q161 0 295.5 -52.5t227.5 -146.5t144.5 -227.5t51.5 -292.5q0 -217 -88.5 -383.5t-253 -259t-381.5 -92.5h-575zM498 254h215q119 0 207 66.5t131 174.5t43 240q0 206 -98 335.5t-279 129.5h-219v-946z" />
<glyph unicode="E" horiz-adv-x="1261" d="M152 0v1454h995v-256h-649v-328h614v-254h-614v-360h663v-256h-1009z" />
<glyph unicode="F" horiz-adv-x="1202" d="M152 0v1454h995v-262h-649v-336h612v-258h-612v-598h-346z" />
<glyph unicode="G" horiz-adv-x="1523" d="M59 725q0 228 86.5 400.5t250.5 268t384 95.5q139 0 252.5 -35.5t190.5 -97.5t125 -141.5t65 -172.5l-342 -63q-20 111 -93.5 180.5t-199.5 69.5q-172 0 -268 -134t-96 -366q0 -233 94 -365.5t274 -132.5q79 0 143 28.5t101.5 73.5t57.5 96t20 101v31h-359v248h674v-809 h-245l-15 213q-56 -118 -173.5 -183t-280.5 -65q-299 0 -472.5 206t-173.5 554z" />
<glyph unicode="H" horiz-adv-x="1554" d="M152 0v1454h346v-584h559v584h346v-1454h-346v604h-559v-604h-346z" />
<glyph unicode="I" horiz-adv-x="649" d="M152 0v1454h346v-1454h-346z" />
<glyph unicode="J" horiz-adv-x="858" d="M35 -10v282q72 -10 139 -10q103 0 157 54.5t54 177.5v960h346v-1026q0 -231 -126.5 -344t-354.5 -113q-131 0 -215 19z" />
<glyph unicode="K" horiz-adv-x="1462" d="M152 0v1454h346v-625l514 625h395l-508 -590l537 -864h-394l-378 621l-166 -193v-428h-346z" />
<glyph unicode="L" horiz-adv-x="1122" d="M152 0v1454h346v-1173h589v-281h-935z" />
<glyph unicode="M" horiz-adv-x="1859" d="M152 0v1454h475l268 -891q24 -85 35 -176h4q10 81 37 180l256 887h481v-1454h-315v991q0 91 8 164h-6q-6 -59 -31 -141l-293 -1014h-291l-305 1014q-23 65 -31 139h-6q8 -98 8 -162v-991h-294z" />
<glyph unicode="N" horiz-adv-x="1560" d="M152 0v1454h383l466 -829q67 -123 89 -189h4q0 27 -1 88.5t-1 98.5v831h317v-1454h-369l-483 838q-71 134 -86 178h-4q0 -28 1 -91.5t1 -101.5v-823h-317z" />
<glyph unicode="O" d="M59 727q0 351 194.5 556.5t522.5 205.5t522.5 -205.5t194.5 -556.5t-194.5 -556.5t-522.5 -205.5t-522.5 206t-194.5 556zM414 727q0 -229 96 -360t266 -131t265.5 130t95.5 361t-95.5 361.5t-265.5 130.5t-266 -130.5t-96 -361.5z" />
<glyph unicode="P" horiz-adv-x="1345" d="M152 0v1454h645q236 0 379 -125t143 -332q0 -217 -142.5 -343t-388.5 -126h-290v-528h-346zM498 770h215q115 0 179 57t64 160t-63 160t-180 57h-215v-434z" />
<glyph unicode="Q" d="M59 727q0 351 194.5 556.5t522.5 205.5t522.5 -205.5t194.5 -556.5q0 -255 -106 -437t-297 -265q83 -76 229 -76q53 0 115 16v-268q-82 -12 -154 -12q-181 0 -301 72.5t-174 207.5h-29q-328 0 -522.5 206t-194.5 556zM414 727q0 -229 96 -360t266 -131t265.5 130 t95.5 361t-95.5 361.5t-265.5 130.5t-266 -130.5t-96 -361.5z" />
<glyph unicode="R" horiz-adv-x="1419" d="M152 0v1454h639q268 0 400 -119t132 -327q0 -140 -73.5 -247t-211.5 -153l322 -608h-375l-278 557h-209v-557h-346zM498 795h223q123 0 182.5 56t59.5 157q0 202 -242 202h-223v-415z" />
<glyph unicode="S" horiz-adv-x="1282" d="M-4 303l256 180q127 -250 395 -250q111 0 180.5 42t69.5 124q0 79 -48 118t-163 63l-194 41q-402 87 -402 436q0 200 152.5 316t414.5 116q199 0 351 -73t227 -216l-225 -190q-56 106 -153.5 164.5t-221.5 58.5q-103 0 -164 -40.5t-61 -109.5q0 -70 47.5 -110t163.5 -66 l210 -45q200 -44 299 -146t99 -284q0 -211 -157 -339t-437 -128q-230 0 -396 90.5t-243 247.5z" />
<glyph unicode="T" horiz-adv-x="1216" d="M14 1180v274h1190v-274h-424v-1180h-344v1180h-422z" />
<glyph unicode="U" horiz-adv-x="1486" d="M127 508v946h346v-932q0 -128 71.5 -202t198.5 -74q128 0 199.5 74t71.5 202v932h346v-946q0 -251 -164.5 -397t-452.5 -146t-452 146t-164 397z" />
<glyph unicode="V" horiz-adv-x="1386" d="M4 1454h369l270 -938q37 -129 45 -201h8q13 93 47 201l271 938h368l-489 -1454h-399z" />
<glyph unicode="W" horiz-adv-x="1972" d="M39 1454h348l186 -944q10 -54 13 -121h6q3 64 16 121l205 944h346l207 -944q13 -57 16 -121h7q4 75 12 121l186 944h348l-346 -1454h-387l-201 987q-6 35 -10 107h-8q-3 -57 -12 -107l-201 -987h-385z" />
<glyph unicode="X" horiz-adv-x="1431" d="M18 0l482 756l-453 698h383l240 -407q31 -53 43 -93h4q11 37 43 93l246 407h374l-450 -719l485 -735h-389l-264 430q-44 66 -57 107h-5q-11 -41 -53 -105l-254 -432h-375z" />
<glyph unicode="Y" horiz-adv-x="1302" d="M-6 1454h364l256 -536q27 -62 35 -107h4q8 45 35 107l254 536h367l-484 -928v-526h-348v526z" />
<glyph unicode="Z" horiz-adv-x="1245" d="M72 0v250l700 936h-672v268h1067v-250l-696 -938h727v-266h-1126z" />
<glyph unicode="[" horiz-adv-x="735" d="M152 -233v1783h540v-229h-239v-1325h239v-229h-540z" />
<glyph unicode="\" horiz-adv-x="1036" d="M86 1556h287l577 -1796h-286z" />
<glyph unicode="]" horiz-adv-x="735" d="M43 -4h240v1325h-240v229h541v-1783h-541v229z" />
<glyph unicode="^" horiz-adv-x="954" d="M41 915l313 537h246l313 -537h-256l-180 336l-182 -336h-254z" />
<glyph unicode="_" horiz-adv-x="960" d="M0 -182h961v-183h-961v183z" />
<glyph unicode="`" horiz-adv-x="1228" d="M-31 1481h310l225 -320h-252z" />
<glyph unicode="a" horiz-adv-x="1173" d="M53 279q0 147 105 221q105 72 321 100l248 35v35q0 87 -37.5 127.5t-114.5 40.5q-75 0 -116.5 -39t-46.5 -113h-326q12 170 143 266.5t349 96.5q248 0 362.5 -101.5t114.5 -322.5v-340q0 -187 28 -285h-319q-12 61 -16 162q-38 -86 -130 -136.5t-212 -50.5 q-158 0 -255.5 84t-97.5 220zM385 303q0 -54 39 -86.5t104 -32.5q94 0 151.5 57.5t57.5 149.5v82l-176 -29q-91 -17 -133.5 -50.5t-42.5 -90.5z" />
<glyph unicode="b" horiz-adv-x="1259" d="M147 0v1485h330v-600q41 75 120.5 119.5t182.5 44.5q188 0 300 -146.5t112 -390.5q0 -245 -114.5 -391t-307.5 -146q-106 0 -187.5 48.5t-121.5 132.5l-21 -156h-293zM469 469q0 -125 50 -195.5t140 -70.5q94 0 144.5 80t50.5 229q0 148 -50 228q-50 79 -145 79h-2 q-89 0 -138.5 -70t-49.5 -194v-86z" />
<glyph unicode="c" horiz-adv-x="1140" d="M59 512q0 250 145.5 393.5t397.5 143.5q201 0 328.5 -95t156.5 -268l-309 -63q-13 90 -60.5 137t-123.5 47q-94 0 -147.5 -76t-53.5 -209q0 -145 53 -224t150 -79q76 0 123 49t61 142l307 -68q-28 -169 -160 -268t-329 -99q-244 0 -391.5 146.5t-147.5 390.5z" />
<glyph unicode="d" horiz-adv-x="1259" d="M66 508q0 244 118 392.5t310 148.5q102 0 176 -41.5t112 -120.5v598h328v-1485h-311v176q-38 -93 -125 -147t-199 -54q-184 0 -296.5 146.5t-112.5 386.5zM403 514q0 -145 53.5 -228t147.5 -83q85 0 133.5 70t48.5 190v88q0 130 -49 200t-137 70q-94 0 -145.5 -80 t-51.5 -227z" />
<glyph unicode="e" horiz-adv-x="1150" d="M59 502q0 252 141 399.5t380 147.5q241 0 371 -133.5t130 -378.5v-99h-710q1 -103 66 -165t169 -62q152 0 223 143l242 -110q-62 -126 -186 -197.5t-283 -71.5q-254 0 -398.5 139.5t-144.5 387.5zM371 623h393v8q0 108 -49.5 165.5t-141.5 57.5q-94 0 -146.5 -60.5 t-55.5 -170.5z" />
<glyph unicode="f" horiz-adv-x="800" d="M35 805v219h164v96q0 183 103 280t298 97q88 0 164 -18v-236q-58 10 -100 10q-68 0 -103 -36t-35 -105v-88h238v-219h-238v-805h-327v805h-164z" />
<glyph unicode="g" horiz-adv-x="1169" d="M41 -178q0 128 176 184q-139 55 -139 193q0 165 184 233q-160 96 -160 275q0 156 126.5 249t342.5 93q135 0 236 -37q27 88 102.5 137t194.5 49q27 0 43 -2v-219q-58 10 -94 10q-84 0 -133 -37q118 -92 118 -243q0 -158 -126 -253.5t-341 -95.5q-116 0 -211 31 q-30 -21 -30 -55q0 -84 141 -84h287q187 0 282 -76t95 -223q0 -177 -152.5 -276t-437.5 -99q-247 0 -375.5 66.5t-128.5 179.5zM285 -115q0 -129 274 -129q301 0 301 121q0 98 -137 98l-324 2q-16 0 -73 5q-41 -38 -41 -97zM412 707q0 -79 44 -130t115 -51q70 0 114 50.5 t44 130.5q0 78 -43.5 126t-114.5 48q-72 0 -115.5 -48t-43.5 -126z" />
<glyph unicode="h" horiz-adv-x="1257" d="M147 0v1485h330v-643q94 211 326 211q166 0 250 -105t84 -311v-637h-328v604q0 197 -152 197q-88 0 -134 -64t-46 -186v-551h-330z" />
<glyph unicode="i" horiz-adv-x="604" d="M133 1171v299h342v-299h-342zM137 0v1024h330v-1024h-330z" />
<glyph unicode="j" horiz-adv-x="614" d="M-70 -166q35 -4 88 -4q74 0 103 36.5t29 135.5v1022h327v-1044q0 -196 -88.5 -295t-304.5 -99q-87 0 -154 13v235zM143 1171v299h342v-299h-342z" />
<glyph unicode="k" horiz-adv-x="1216" d="M147 0v1485h330v-862l332 401h381l-373 -408l383 -616h-366l-244 414l-113 -121v-293h-330z" />
<glyph unicode="l" horiz-adv-x="624" d="M147 0v1485h330v-1485h-330z" />
<glyph unicode="m" horiz-adv-x="1822" d="M137 0v1024h316v-184q50 107 126 159t189 52q216 0 291 -213q110 213 327 213q149 0 232.5 -100.5t83.5 -280.5v-670h-328v600q0 103 -33 151t-104 48q-74 0 -114 -54.5t-40 -156.5v-588h-327v602q0 197 -135 197q-74 0 -114 -55.5t-40 -157.5v-586h-330z" />
<glyph unicode="n" horiz-adv-x="1247" d="M137 0v1024h316v-197q108 224 340 224q165 0 249 -105t84 -311v-635h-327v590q0 209 -154 209q-86 0 -132 -63.5t-46 -182.5v-553h-330z" />
<glyph unicode="o" horiz-adv-x="1181" d="M59 514q0 129 40.5 231.5t112.5 168.5t168 100.5t210 34.5q115 0 211.5 -34.5t168 -100.5t112 -168.5t40.5 -231.5q0 -256 -148.5 -397.5t-383.5 -141.5q-114 0 -210.5 35t-168 102t-112 170t-40.5 232zM387 514q0 -154 53 -232.5t150 -78.5q98 0 151.5 78.5t53.5 232.5 q0 307 -205 307q-98 0 -150.5 -76t-52.5 -231z" />
<glyph unicode="p" horiz-adv-x="1249" d="M137 -399v1423h316v-164q47 91 130.5 140t188.5 49q186 0 298 -145.5t112 -389.5q0 -245 -115.5 -392t-306.5 -147q-184 0 -293 154v-528h-330zM459 479q0 -127 51.5 -201.5t140.5 -74.5t141 83t52 228q0 148 -50.5 227.5t-144.5 79.5q-90 0 -140 -73t-50 -211v-58z" />
<glyph unicode="q" horiz-adv-x="1249" d="M66 508q0 249 118.5 395t313.5 146q221 0 301 -177l26 152h285v-1423h-328v559q-43 -88 -123 -136.5t-186 -48.5q-183 0 -295 146t-112 387zM403 514q0 -146 51.5 -228.5t143.5 -82.5q86 0 137 70.5t51 191.5v94q0 123 -50.5 192.5t-139.5 69.5q-92 0 -142.5 -79.5 t-50.5 -227.5z" />
<glyph unicode="r" horiz-adv-x="843" d="M137 0v1024h309v-264q40 140 126 214.5t216 74.5h21v-314q-20 2 -61 2q-129 0 -199 -61q-82 -76 -82 -258v-418h-330z" />
<glyph unicode="s" horiz-adv-x="1038" d="M29 221l190 144q108 -166 324 -166q159 0 159 90q0 46 -30.5 67t-114.5 33l-147 21q-326 49 -326 315q0 150 120 237t331 87q155 0 278 -54t186 -149l-170 -154q-121 137 -305 137q-143 0 -143 -84q0 -38 27.5 -58.5t93.5 -29.5l182 -28q160 -23 232.5 -101.5 t72.5 -214.5q0 -158 -119 -248t-333 -90q-171 0 -303 63t-205 183z" />
<glyph unicode="t" horiz-adv-x="811" d="M10 805v219h178v246l328 127v-373h244v-219h-244v-399q0 -76 38 -116t112 -40q42 0 94 10v-260q-109 -20 -187 -20q-199 0 -292 88t-93 260v477h-178z" />
<glyph unicode="u" horiz-adv-x="1234" d="M121 360v664h328v-606q0 -193 147 -193q79 0 125.5 58t46.5 155v586h330v-1024h-314v186q-37 -97 -122 -154t-197 -57q-344 0 -344 385z" />
<glyph unicode="v" horiz-adv-x="1089" d="M8 1024h338l166 -604q16 -56 31 -146h4q15 90 31 146l165 604h338l-358 -1024h-358z" />
<glyph unicode="w" horiz-adv-x="1593" d="M31 1024h313l129 -627q1 -6 6.5 -41.5t7.5 -56.5h5q8 68 16 98l149 627h279l149 -627q13 -63 17 -98h4q8 68 14 98l127 627h314l-273 -1024h-319l-156 604q-10 33 -14 86h-4q-2 -29 -15 -86l-155 -604h-320z" />
<glyph unicode="x" horiz-adv-x="1155" d="M18 0l371 532l-348 492h365l124 -205q41 -65 50 -104h4q15 49 51 104l121 205h346l-342 -487l377 -537h-367l-149 233q-46 69 -54 107h-4q-13 -40 -55 -107l-152 -233h-338z" />
<glyph unicode="y" horiz-adv-x="1101" d="M8 1024h357l180 -623q17 -59 22 -118h6q2 34 25 118l166 623h330l-367 -1069q-67 -197 -189.5 -283t-328.5 -86q-20 0 -135 13v241q76 -10 114 -10q82 0 128.5 31.5t68.5 101.5l14 43z" />
<glyph unicode="z" horiz-adv-x="987" d="M45 0v193l487 600h-462v231h845v-186l-473 -602h504v-236h-901z" />
<glyph unicode="{" horiz-adv-x="784" d="M70 565v217q100 3 130.5 43.5t30.5 147.5v272q0 147 97.5 231.5t271.5 84.5h135v-230h-55q-75 0 -111.5 -40.5t-36.5 -114.5v-195q0 -131 -43 -205t-155 -100q111 -32 153.5 -110t42.5 -210v-217q0 -143 138 -143h73v-232h-147q-185 0 -273 79t-88 241v283 q0 106 -33 150.5t-130 47.5z" />
<glyph unicode="|" horiz-adv-x="501" d="M147 -240v1796h205v-1796h-205z" />
<glyph unicode="}" horiz-adv-x="784" d="M43 -4h74q137 0 137 143v217q0 132 43 210t154 110q-112 26 -155.5 100.5t-43.5 204.5v195q0 74 -36.5 114.5t-111.5 40.5h-55v230h135q174 0 271.5 -84.5t97.5 -231.5v-272q0 -107 31 -147.5t131 -43.5v-217q-97 -3 -130.5 -48t-33.5 -150v-283q0 -162 -88 -241 t-273 -79h-147v232z" />
<glyph unicode="~" horiz-adv-x="1269" d="M92 477q32 142 120 220.5t212 78.5q68 0 131.5 -26t103.5 -57t88.5 -57t90.5 -26q57 0 96.5 37.5t58.5 106.5l185 -43q-34 -142 -121.5 -220.5t-212.5 -78.5q-68 0 -131.5 25.5t-103.5 56t-88.5 56t-90.5 25.5q-57 0 -97 -37t-57 -106z" />
<glyph unicode="&#xa1;" horiz-adv-x="675" d="M152 -297l55 1010h262l55 -1010h-372zM160 874v314h356v-314h-356z" />
<glyph unicode="&#xa2;" horiz-adv-x="1144" d="M59 512q0 231 125 371.5t348 160.5v173h121v-170q183 -10 298 -106.5t143 -262.5l-269 -45q-28 178 -172 203v-641q149 29 174 206l265 -57q-29 -158 -145.5 -256t-293.5 -111v-184h-121v184q-222 20 -347.5 162t-125.5 373zM340 512q0 -275 192 -315v639 q-93 -20 -142.5 -104.5t-49.5 -219.5z" />
<glyph unicode="&#xa3;" horiz-adv-x="1341" d="M14 172q285 81 285 342q0 74 -12 139h-207v156h176q-25 105 -25 190q0 215 131.5 335t360.5 120q218 0 348 -93.5t164 -273.5l-307 -67q-13 95 -64 144.5t-133 49.5q-186 0 -186 -208q0 -75 24 -197h361v-156h-330q6 -47 6 -98q0 -112 -52.5 -193t-152.5 -124 q65 18 152 18q59 0 155 -14.5t156 -14.5q70 0 113.5 45.5t54.5 130.5l295 -47q-25 -180 -131.5 -283.5t-269.5 -103.5q-98 0 -249.5 27t-270.5 27q-153 0 -326 -39z" />
<glyph unicode="&#xa4;" horiz-adv-x="1161" d="M59 207l123 135q-80 119 -80 279q0 159 82 280l-125 135l148 140l127 -136q116 64 256 64q133 0 241 -57l123 131l148 -140l-115 -127q88 -125 88 -290t-86 -287l113 -125l-148 -139l-118 127q-111 -60 -246 -60q-144 0 -258 66l-125 -135zM350 621q0 -112 68.5 -181 t171.5 -69q101 0 167 69t66 181t-66 180.5t-167 68.5q-103 0 -171.5 -68.5t-68.5 -180.5z" />
<glyph unicode="&#xa5;" horiz-adv-x="1236" d="M-6 1423h362l174 -348q62 -127 86 -215h5q20 72 86 215l174 348h362l-444 -774h325v-141h-344v-111h344v-141h-344v-256h-323v256h-342v141h342v111h-342v141h323z" />
<glyph unicode="&#xa6;" horiz-adv-x="499" d="M147 -240v781h205v-781h-205zM147 788v768h205v-768h-205z" />
<glyph unicode="&#xa7;" horiz-adv-x="1007" d="M-4 51l182 156q51 -83 133 -126.5t185 -43.5q151 0 151 98q0 40 -29.5 65t-113.5 54l-219 76q-138 49 -203.5 127t-65.5 192q0 170 162 242q-117 89 -117 242q0 159 117.5 245t321.5 86q144 0 260 -51t184 -143l-176 -162q-97 141 -270 141q-68 0 -104 -24t-36 -70 q0 -40 27 -64.5t102 -50.5l213 -69q136 -43 201.5 -121.5t65.5 -198.5q0 -164 -121 -256q102 -86 102 -237q0 -166 -123.5 -255t-339.5 -89q-170 0 -296.5 61.5t-192.5 175.5zM283 707q0 -55 37 -87.5t143 -70.5l209 -66l8 -2q37 34 37 92q0 52 -35.5 85t-134.5 71l-211 78 q-53 -35 -53 -100z" />
<glyph unicode="&#xa8;" horiz-adv-x="1228" d="M102 1174v272h285v-272h-285zM553 1174v272h285v-272h-285z" />
<glyph unicode="&#xa9;" horiz-adv-x="1640" d="M59 727q0 172 61 317t165 241.5t242.5 150t293.5 53.5q154 0 292.5 -53.5t242 -150t164.5 -241.5t61 -317q0 -171 -61 -316t-164.5 -241.5t-242 -150.5t-292.5 -54q-155 0 -293.5 54t-242.5 150.5t-165 241t-61 316.5zM199 727q0 -144 49.5 -266t134.5 -203.5t198 -126.5 t240 -45q126 0 239 45t197.5 126.5t134.5 203.5t50 266q0 145 -50 267t-134.5 203t-197.5 126t-239 45q-127 0 -240 -45t-198 -126t-134.5 -203t-49.5 -267zM430 729q0 200 109.5 318t296.5 118q159 0 257 -78.5t113 -216.5l-213 -39q-8 73 -49.5 116.5t-109.5 43.5 q-87 0 -138 -71t-51 -191q0 -121 51.5 -192.5t139.5 -71.5q63 0 106.5 43.5t52.5 112.5l211 -43q-28 -136 -125 -211.5t-245 -75.5q-188 0 -297 118t-109 320z" />
<glyph unicode="&#xaa;" horiz-adv-x="942" d="M53 838q0 110 72.5 160.5t222.5 72.5l211 31v31q0 51 -24 74.5t-74 23.5q-102 0 -111 -101h-274q10 130 112 200.5t275 70.5q195 0 286 -74.5t91 -234.5v-265q0 -124 20 -192h-270q-12 52 -12 117q-31 -63 -101.5 -99.5t-159.5 -36.5q-118 0 -191 61.5t-73 160.5z M322 862q0 -39 29 -63.5t79 -24.5q62 0 100.5 35.5t38.5 91.5v88l-104 -18q-75 -12 -109 -37.5t-34 -71.5z" />
<glyph unicode="&#xab;" horiz-adv-x="1165" d="M35 565l340 422h282l-333 -420l329 -430h-284zM508 565l340 422h282l-333 -420l329 -430h-284z" />
<glyph unicode="&#xac;" horiz-adv-x="1269" d="M129 578v213h971v-541h-221v328h-750z" />
<glyph unicode="&#xad;" horiz-adv-x="849" d="M90 430v279h670v-279h-670z" />
<glyph unicode="&#xae;" horiz-adv-x="1640" d="M59 727q0 172 61 317t165 241.5t242.5 150t293.5 53.5q154 0 292.5 -53.5t242 -150t164.5 -241.5t61 -317q0 -171 -61 -316t-164.5 -241.5t-242 -150.5t-292.5 -54q-155 0 -293.5 54t-242.5 150.5t-165 241t-61 316.5zM199 727q0 -144 49.5 -266t134.5 -203.5t198 -126.5 t240 -45q126 0 239 45t197.5 126.5t134.5 203.5t50 266q0 145 -50 267t-134.5 203t-197.5 126t-239 45q-127 0 -240 -45t-198 -126t-134.5 -203t-49.5 -267zM508 317v834h362q149 0 229.5 -69t80.5 -195q0 -79 -44 -139.5t-122 -88.5l190 -342h-229l-166 318h-92v-318h-209z M717 778h114q63 0 98.5 28.5t35.5 80.5q0 110 -134 110h-114v-219z" />
<glyph unicode="&#xaf;" horiz-adv-x="1228" d="M102 1212v197h703v-197h-703z" />
<glyph unicode="&#xb0;" horiz-adv-x="851" d="M35 1087q0 171 111 276t280 105t281 -105.5t112 -275.5q0 -172 -112 -277t-281 -105t-280 105t-111 277zM229 1087q0 -93 55 -148.5t142 -55.5q88 0 143.5 55.5t55.5 148.5q0 91 -56 148t-143 57t-142 -56.5t-55 -148.5z" />
<glyph unicode="&#xb1;" horiz-adv-x="1269" d="M145 0v217h979v-217h-979zM145 584v213h371v315h234v-315h374v-213h-374v-297h-234v297h-371z" />
<glyph unicode="&#xb4;" horiz-adv-x="1228" d="M100 1161l226 320h309l-283 -320h-252z" />
<glyph unicode="&#xb5;" horiz-adv-x="1253" d="M137 -399v1312h2v111h328v-606q0 -193 147 -193q79 0 125.5 58t46.5 155v586h330v-1024h-313v186q-37 -97 -122.5 -154t-197.5 -57q-35 0 -51 2v-376h-295z" />
<glyph unicode="&#xb6;" horiz-adv-x="1449" d="M113 1094q0 104 39.5 180t109 118.5t152.5 62.5t182 20h680v-154h-152v-1524h-172v1524h-194v-1524h-172v916q-76 0 -141.5 10.5t-128 37.5t-106.5 69t-70.5 109.5t-26.5 154.5z" />
<glyph unicode="&#xb7;" horiz-adv-x="583" d="M117 520v336h350v-336h-350z" />
<glyph unicode="&#xb8;" horiz-adv-x="1228" d="M106 -303l173 43q22 -49 79 -49q37 0 59.5 21t22.5 55q0 32 -22.5 52.5t-57.5 20.5q-43 0 -67 -30l-123 28l78 176h155l-65 -108q43 31 111 31q85 0 135.5 -46.5t50.5 -132.5q0 -94 -72.5 -144t-195.5 -50q-98 0 -165.5 35t-95.5 98z" />
<glyph unicode="&#xba;" horiz-adv-x="940" d="M59 1012q0 127 55.5 216.5t146.5 131t208 41.5t208.5 -41.5t147.5 -131t56 -216.5q0 -190 -116 -293t-296 -103q-117 0 -208 43t-146.5 134t-55.5 219zM334 1012q0 -105 35.5 -158t99.5 -53t99.5 53t35.5 158q0 205 -135 205t-135 -205z" />
<glyph unicode="&#xbb;" horiz-adv-x="1165" d="M35 987h282l340 -422l-333 -428h-285l330 430zM508 987h283l339 -422l-333 -428h-285l330 430z" />
<glyph unicode="&#xbc;" horiz-adv-x="1650" d="M49 1153v182h29q71 0 115 29t67 92h162v-801h-199v525q-39 -27 -133 -27h-41zM213 -35l909 1524h217l-905 -1524h-221zM924 170v137l352 494h227v-482h127v-149h-127v-170h-194v170h-385zM1106 319h203v295z" />
<glyph unicode="&#xbd;" horiz-adv-x="1742" d="M49 1153v182h29q71 0 115 29t67 92h162v-801h-199v525q-39 -27 -133 -27h-41zM213 -35l909 1524h217l-905 -1524h-221zM1047 0v152q79 45 128 75t108 73t92 79t56 81t23 91q0 104 -100 104q-47 0 -75 -28t-28 -74q0 -17 11 -66l-209 21q-6 34 -6 59q0 116 85 184t232 68 q145 0 225 -66.5t80 -187.5q0 -73 -30 -136.5t-84 -112.5t-107 -83t-121 -67h348v-166h-628z" />
<glyph unicode="&#xbe;" horiz-adv-x="1855" d="M45 897l205 23q0 -59 35.5 -91t95.5 -32q111 0 111 98q0 48 -34 70t-110 22h-45v148h47q121 0 121 96q0 86 -102 86q-55 0 -85 -35t-30 -100l-199 32q0 119 88.5 190t237.5 71q142 0 220.5 -58.5t78.5 -161.5q0 -66 -43 -114.5t-117 -67.5q185 -35 185 -190 q0 -113 -88.5 -179.5t-237.5 -66.5q-152 0 -243 70.5t-91 189.5zM418 -35l909 1524h217l-905 -1524h-221zM1128 170v137l353 494h227v-482h127v-149h-127v-170h-195v170h-385zM1311 319h202v295z" />
<glyph unicode="&#xbf;" horiz-adv-x="1085" d="M31 78q0 212 192 366l94 78q50 40 69.5 76.5t19.5 91.5v60h319v-99q0 -133 -131 -235l-105 -80q-62 -47 -92 -99t-30 -124q0 -86 50 -137.5t130 -51.5q93 0 147 56.5t54 158.5q0 57 -13 103l316 -27q14 -66 14 -119q0 -190 -138 -304t-380 -114t-379 105.5t-137 294.5z M387 874v314h352v-314h-352z" />
<glyph unicode="&#xc0;" horiz-adv-x="1507" d="M29 0l528 1454h395l529 -1454h-348l-111 340h-537l-110 -340h-346zM379 1784h285l202 -242h-250zM565 584h377l-133 405q-40 127 -53 205h-4q-12 -72 -54 -205z" />
<glyph unicode="&#xc1;" horiz-adv-x="1507" d="M29 0l528 1454h395l529 -1454h-348l-111 340h-537l-110 -340h-346zM565 584h377l-133 405q-40 127 -53 205h-4q-12 -72 -54 -205zM627 1542l202 242h285l-237 -242h-250z" />
<glyph unicode="&#xc2;" horiz-adv-x="1507" d="M29 0l528 1454h395l529 -1454h-348l-111 340h-537l-110 -340h-346zM362 1542l218 242h346l217 -242h-252l-137 152l-138 -152h-254zM565 584h377l-133 405q-40 127 -53 205h-4q-12 -72 -54 -205z" />
<glyph unicode="&#xc3;" horiz-adv-x="1507" d="M29 0l528 1454h395l529 -1454h-348l-111 340h-537l-110 -340h-346zM346 1589q22 114 89 176t167 62q53 0 99.5 -20t74 -43.5t62 -43.5t65.5 -20q36 0 58.5 25.5t39.5 84.5l158 -55q-20 -113 -86.5 -174t-167.5 -61q-53 0 -99.5 19.5t-74.5 43t-62 43t-65 19.5 q-36 0 -58.5 -25.5t-39.5 -85.5zM565 584h377l-133 405q-40 127 -53 205h-4q-12 -72 -54 -205z" />
<glyph unicode="&#xc4;" horiz-adv-x="1507" d="M29 0l528 1454h395l529 -1454h-348l-111 340h-537l-110 -340h-346zM385 1542v236h272v-236h-272zM565 584h377l-133 405q-40 127 -53 205h-4q-12 -72 -54 -205zM850 1542v236h272v-236h-272z" />
<glyph unicode="&#xc5;" horiz-adv-x="1507" d="M29 0l528 1454h395l529 -1454h-348l-111 340h-537l-110 -340h-346zM492 1765q0 107 71.5 173.5t188.5 66.5t189.5 -66.5t72.5 -173.5t-72.5 -174t-189.5 -67t-188.5 66.5t-71.5 174.5zM565 584h377l-133 405q-40 127 -53 205h-4q-12 -72 -54 -205zM645 1765 q0 -47 30 -77.5t77 -30.5t76.5 30.5t29.5 77.5q0 48 -29.5 78.5t-76.5 30.5t-77 -31t-30 -78z" />
<glyph unicode="&#xc6;" horiz-adv-x="2041" d="M-27 0l836 1454h1118v-256h-612v-328h577v-254h-577v-360h627v-256h-971v319h-484l-170 -319h-344zM616 565h355v668z" />
<glyph unicode="&#xc7;" horiz-adv-x="1468" d="M59 725q0 347 192 555.5t521 208.5q275 0 444 -140.5t199 -381.5l-350 -62q-15 145 -93 225t-208 80q-165 0 -257.5 -129.5t-92.5 -353.5q0 -220 95.5 -350.5t264.5 -130.5q121 0 199 78.5t100 220.5l350 -76q-51 -223 -205 -356t-395 -146l-37 -61q43 31 111 31 q85 0 135.5 -46.5t50.5 -132.5q0 -94 -72.5 -144t-195.5 -50q-98 0 -165 35t-95 98l172 43q22 -49 80 -49q37 0 59.5 21t22.5 55q0 32 -22.5 52.5t-57.5 20.5q-44 0 -68 -30l-123 28l58 131q-198 18 -337.5 117t-209.5 261.5t-70 377.5z" />
<glyph unicode="&#xc8;" horiz-adv-x="1261" d="M152 0v1454h995v-256h-649v-328h614v-254h-614v-360h663v-256h-1009zM291 1784h284l203 -242h-250z" />
<glyph unicode="&#xc9;" horiz-adv-x="1261" d="M152 0v1454h995v-256h-649v-328h614v-254h-614v-360h663v-256h-1009zM539 1542l202 242h285l-238 -242h-249z" />
<glyph unicode="&#xca;" horiz-adv-x="1261" d="M152 0v1454h995v-256h-649v-328h614v-254h-614v-360h663v-256h-1009zM274 1542l218 242h346l217 -242h-252l-137 152l-138 -152h-254z" />
<glyph unicode="&#xcb;" horiz-adv-x="1261" d="M152 0v1454h995v-256h-649v-328h614v-254h-614v-360h663v-256h-1009zM297 1542v236h272v-236h-272zM762 1542v236h272v-236h-272z" />
<glyph unicode="&#xcc;" horiz-adv-x="649" d="M12 1784h281l153 -242h-245zM152 0v1454h346v-1454h-346z" />
<glyph unicode="&#xcd;" horiz-adv-x="649" d="M152 0v1454h346v-1454h-346zM201 1542l153 242h281l-189 -242h-245z" />
<glyph unicode="&#xce;" horiz-adv-x="649" d="M6 1542l146 242h346l147 -242h-235l-84 152l-84 -152h-236zM152 0v1454h346v-1454h-346z" />
<glyph unicode="&#xcf;" horiz-adv-x="649" d="M23 1542v236h260v-236h-260zM152 0v1454h346v-1454h-346zM371 1542v236h260v-236h-260z" />
<glyph unicode="&#xd0;" horiz-adv-x="1509" d="M-2 659v193h154v602h579q161 0 295.5 -52.5t227.5 -146.5t144.5 -227.5t51.5 -292.5q0 -217 -88.5 -383.5t-253 -259t-381.5 -92.5h-575v659h-154zM498 254h215q119 0 207 66.5t131 174.5t43 240q0 206 -98 335.5t-279 129.5h-219v-348h290v-193h-290v-405z" />
<glyph unicode="&#xd1;" horiz-adv-x="1560" d="M152 0v1454h383l466 -829q67 -123 89 -189h4q0 27 -1 88.5t-1 98.5v831h317v-1454h-369l-483 838q-71 134 -86 178h-4q0 -28 1 -91.5t1 -101.5v-823h-317zM373 1589q22 114 89 176t167 62q53 0 99.5 -20t74 -43.5t62 -43.5t65.5 -20q36 0 58.5 25.5t39.5 84.5l158 -55 q-20 -113 -86.5 -174t-167.5 -61q-53 0 -99.5 19.5t-74.5 43t-62 43t-65 19.5q-37 0 -59.5 -25.5t-39.5 -85.5z" />
<glyph unicode="&#xd2;" d="M59 727q0 351 194.5 556.5t522.5 205.5t522.5 -205.5t194.5 -556.5t-194.5 -556.5t-522.5 -205.5t-522.5 206t-194.5 556zM401 1784h285l203 -242h-250zM414 727q0 -229 96 -360t266 -131t265.5 130t95.5 361t-95.5 361.5t-265.5 130.5t-266 -130.5t-96 -361.5z" />
<glyph unicode="&#xd3;" d="M59 727q0 351 194.5 556.5t522.5 205.5t522.5 -205.5t194.5 -556.5t-194.5 -556.5t-522.5 -205.5t-522.5 206t-194.5 556zM414 727q0 -229 96 -360t266 -131t265.5 130t95.5 361t-95.5 361.5t-265.5 130.5t-266 -130.5t-96 -361.5zM649 1542l203 242h285l-238 -242h-250z " />
<glyph unicode="&#xd4;" d="M59 727q0 351 194.5 556.5t522.5 205.5t522.5 -205.5t194.5 -556.5t-194.5 -556.5t-522.5 -205.5t-522.5 206t-194.5 556zM385 1542l217 242h346l217 -242h-252l-137 152l-137 -152h-254zM414 727q0 -229 96 -360t266 -131t265.5 130t95.5 361t-95.5 361.5t-265.5 130.5 t-266 -130.5t-96 -361.5z" />
<glyph unicode="&#xd5;" d="M59 727q0 351 194.5 556.5t522.5 205.5t522.5 -205.5t194.5 -556.5t-194.5 -556.5t-522.5 -205.5t-522.5 206t-194.5 556zM369 1589q22 114 89 176t167 62q53 0 99.5 -20t74 -43.5t62 -43.5t65.5 -20q36 0 58.5 25.5t39.5 84.5l158 -55q-20 -113 -86.5 -174t-167.5 -61 q-53 0 -99.5 19.5t-74.5 43t-62 43t-65 19.5q-37 0 -59.5 -25.5t-39.5 -85.5zM414 727q0 -229 96 -360t266 -131t265.5 130t95.5 361t-95.5 361.5t-265.5 130.5t-266 -130.5t-96 -361.5z" />
<glyph unicode="&#xd6;" d="M59 727q0 351 194.5 556.5t522.5 205.5t522.5 -205.5t194.5 -556.5t-194.5 -556.5t-522.5 -205.5t-522.5 206t-194.5 556zM408 1542v236h272v-236h-272zM414 727q0 -229 96 -360t266 -131t265.5 130t95.5 361t-95.5 361.5t-265.5 130.5t-266 -130.5t-96 -361.5zM872 1542 v236h273v-236h-273z" />
<glyph unicode="&#xd7;" horiz-adv-x="1269" d="M109 307l362 363l-362 362l163 164l363 -360l360 360l168 -164l-362 -362l360 -361l-164 -168l-362 365l-363 -363z" />
<glyph unicode="&#xd8;" d="M59 727q0 351 194.5 556.5t522.5 205.5q245 0 420 -119l98 127l111 -80l-107 -135q195 -204 195 -555t-194.5 -556.5t-522.5 -205.5q-245 0 -420 119l-98 -127l-111 80l107 135q-195 204 -195 555zM414 727q0 -167 53 -285l539 688q-92 89 -230 89q-170 0 -266 -130.5 t-96 -361.5zM547 324q91 -88 229 -88q170 0 265.5 130t95.5 361q0 163 -52 283z" />
<glyph unicode="&#xd9;" horiz-adv-x="1486" d="M127 508v946h346v-932q0 -128 71.5 -202t198.5 -74q128 0 199.5 74t71.5 202v932h346v-946q0 -251 -164.5 -397t-452.5 -146t-452 146t-164 397zM369 1784h284l203 -242h-250z" />
<glyph unicode="&#xda;" horiz-adv-x="1486" d="M127 508v946h346v-932q0 -128 71.5 -202t198.5 -74q128 0 199.5 74t71.5 202v932h346v-946q0 -251 -164.5 -397t-452.5 -146t-452 146t-164 397zM616 1542l203 242h285l-238 -242h-250z" />
<glyph unicode="&#xdb;" horiz-adv-x="1486" d="M127 508v946h346v-932q0 -128 71.5 -202t198.5 -74q128 0 199.5 74t71.5 202v932h346v-946q0 -251 -164.5 -397t-452.5 -146t-452 146t-164 397zM352 1542l217 242h346l218 -242h-252l-138 152l-137 -152h-254z" />
<glyph unicode="&#xdc;" horiz-adv-x="1486" d="M127 508v946h346v-932q0 -128 71.5 -202t198.5 -74q128 0 199.5 74t71.5 202v932h346v-946q0 -251 -164.5 -397t-452.5 -146t-452 146t-164 397zM375 1542v236h272v-236h-272zM840 1542v236h272v-236h-272z" />
<glyph unicode="&#xdd;" horiz-adv-x="1302" d="M-6 1454h364l256 -536q27 -62 35 -107h4q8 45 35 107l254 536h367l-484 -928v-526h-348v526zM524 1542l203 242h285l-238 -242h-250z" />
<glyph unicode="&#xde;" horiz-adv-x="1292" d="M152 0v1454h346v-240h258q232 0 370 -120.5t138 -323.5q0 -212 -138.5 -335.5t-375.5 -123.5h-252v-311h-346zM498 553h178q106 0 165.5 54t59.5 151q0 99 -58.5 153t-166.5 54h-178v-412z" />
<glyph unicode="&#xdf;" horiz-adv-x="1286" d="M141 0v1012q0 497 510 497q232 0 358 -93.5t126 -272.5q0 -131 -79.5 -220t-213.5 -106q185 -17 283 -114.5t98 -264.5q0 -218 -135.5 -338t-382.5 -120q-49 0 -127 10v229q54 -4 75 -4q117 0 179.5 63t62.5 181q0 110 -71 169t-208 62h-47v223h52q90 3 138 56t48 149 q0 81 -42.5 125.5t-119.5 44.5q-176 0 -176 -225v-1063h-328z" />
<glyph unicode="&#xe0;" horiz-adv-x="1173" d="M53 279q0 147 105 221q105 72 321 100l248 35v35q0 87 -37.5 127.5t-114.5 40.5q-75 0 -116.5 -39t-46.5 -113h-326q12 170 143 266.5t349 96.5q248 0 362.5 -101.5t114.5 -322.5v-340q0 -187 28 -285h-319q-12 61 -16 162q-38 -86 -130 -136.5t-212 -50.5 q-158 0 -255.5 84t-97.5 220zM176 1481h309l226 -320h-252zM385 303q0 -54 39 -86.5t104 -32.5q94 0 151.5 57.5t57.5 149.5v82l-176 -29q-91 -17 -133.5 -50.5t-42.5 -90.5z" />
<glyph unicode="&#xe1;" horiz-adv-x="1173" d="M53 279q0 147 105 221q105 72 321 100l248 35v35q0 87 -37.5 127.5t-114.5 40.5q-75 0 -116.5 -39t-46.5 -113h-326q12 170 143 266.5t349 96.5q248 0 362.5 -101.5t114.5 -322.5v-340q0 -187 28 -285h-319q-12 61 -16 162q-38 -86 -130 -136.5t-212 -50.5 q-158 0 -255.5 84t-97.5 220zM385 303q0 -54 39 -86.5t104 -32.5q94 0 151.5 57.5t57.5 149.5v82l-176 -29q-91 -17 -133.5 -50.5t-42.5 -90.5zM461 1161l225 320h309l-282 -320h-252z" />
<glyph unicode="&#xe2;" horiz-adv-x="1173" d="M53 279q0 147 105 221q105 72 321 100l248 35v35q0 87 -37.5 127.5t-114.5 40.5q-75 0 -116.5 -39t-46.5 -113h-326q12 170 143 266.5t349 96.5q248 0 362.5 -101.5t114.5 -322.5v-340q0 -187 28 -285h-319q-12 61 -16 162q-38 -86 -130 -136.5t-212 -50.5 q-158 0 -255.5 84t-97.5 220zM205 1161l217 320h328l217 -320h-238l-143 215l-142 -215h-239zM385 303q0 -54 39 -86.5t104 -32.5q94 0 151.5 57.5t57.5 149.5v82l-176 -29q-91 -17 -133.5 -50.5t-42.5 -90.5z" />
<glyph unicode="&#xe3;" horiz-adv-x="1173" d="M53 279q0 147 105 221q105 72 321 100l248 35v35q0 87 -37.5 127.5t-114.5 40.5q-75 0 -116.5 -39t-46.5 -113h-326q12 170 143 266.5t349 96.5q248 0 362.5 -101.5t114.5 -322.5v-340q0 -187 28 -285h-319q-12 61 -16 162q-38 -86 -130 -136.5t-212 -50.5 q-158 0 -255.5 84t-97.5 220zM174 1239q22 122 89 191t171 69q53 0 101.5 -21.5t77.5 -47t65.5 -47t69.5 -21.5q37 0 60 26.5t40 90.5l160 -56q-22 -122 -90 -191t-173 -69q-53 0 -101 22t-77 48t-65 48t-68 22q-37 0 -60 -27t-42 -92zM385 303q0 -54 39 -86.5t104 -32.5 q94 0 151.5 57.5t57.5 149.5v82l-176 -29q-91 -17 -133.5 -50.5t-42.5 -90.5z" />
<glyph unicode="&#xe4;" horiz-adv-x="1173" d="M53 279q0 147 105 221q105 72 321 100l248 35v35q0 87 -37.5 127.5t-114.5 40.5q-75 0 -116.5 -39t-46.5 -113h-326q12 170 143 266.5t349 96.5q248 0 362.5 -101.5t114.5 -322.5v-340q0 -187 28 -285h-319q-12 61 -16 162q-38 -86 -130 -136.5t-212 -50.5 q-158 0 -255.5 84t-97.5 220zM217 1174v272h285v-272h-285zM385 303q0 -54 39 -86.5t104 -32.5q94 0 151.5 57.5t57.5 149.5v82l-176 -29q-91 -17 -133.5 -50.5t-42.5 -90.5zM668 1174v272h284v-272h-284z" />
<glyph unicode="&#xe5;" horiz-adv-x="1173" d="M53 279q0 147 105 221q105 72 321 100l248 35v35q0 87 -37.5 127.5t-114.5 40.5q-75 0 -116.5 -39t-46.5 -113h-326q12 170 143 266.5t349 96.5q248 0 362.5 -101.5t114.5 -322.5v-340q0 -187 28 -285h-319q-12 61 -16 162q-38 -86 -130 -136.5t-212 -50.5 q-158 0 -255.5 84t-97.5 220zM326 1362q0 108 71.5 175t188.5 67q118 0 190 -67t72 -175t-72 -174t-190 -66q-117 0 -188.5 66.5t-71.5 173.5zM385 303q0 -54 39 -86.5t104 -32.5q94 0 151.5 57.5t57.5 149.5v82l-176 -29q-91 -17 -133.5 -50.5t-42.5 -90.5zM479 1362 q0 -47 30 -78t77 -31t76.5 30.5t29.5 78.5q0 47 -29.5 77.5t-76.5 30.5t-77 -30.5t-30 -77.5z" />
<glyph unicode="&#xe6;" horiz-adv-x="1775" d="M53 285q0 130 90 205.5t283 99.5l289 39v33q0 89 -38 131.5t-116 42.5q-72 0 -113 -38.5t-45 -111.5h-323q12 169 138.5 266t336.5 97q225 0 336 -123q129 123 338 123q228 0 352.5 -136.5t124.5 -382.5v-88h-670q1 -104 60.5 -167.5t154.5 -63.5q138 0 203 143l242 -110 q-59 -126 -178 -197.5t-273 -71.5q-137 0 -241 50t-168 143q-60 -92 -168.5 -142.5t-243.5 -50.5q-172 0 -271.5 83t-99.5 227zM385 297q0 -51 37.5 -82t99.5 -31q84 0 143.5 54t59.5 153v76l-164 -27q-91 -13 -133.5 -48t-42.5 -95zM1036 627h350q2 109 -41.5 168 t-125.5 59q-85 0 -134 -59t-49 -166v-2z" />
<glyph unicode="&#xe7;" horiz-adv-x="1140" d="M59 512q0 250 145.5 393.5t397.5 143.5q201 0 328.5 -95t156.5 -268l-309 -63q-13 90 -60.5 137t-123.5 47q-94 0 -147.5 -76t-53.5 -209q0 -145 53 -224t150 -79q76 0 123 49t61 142l307 -68q-26 -158 -143.5 -255.5t-296.5 -109.5l-43 -71q43 31 111 31 q85 0 135.5 -46.5t50.5 -132.5q0 -94 -72.5 -144t-195.5 -50q-98 0 -165 35t-95 98l172 43q22 -49 80 -49q37 0 59.5 21t22.5 55q0 32 -22.5 52.5t-57.5 20.5q-44 0 -68 -30l-123 28l64 144q-202 29 -321.5 171t-119.5 359z" />
<glyph unicode="&#xe8;" horiz-adv-x="1150" d="M59 502q0 252 141 399.5t380 147.5q241 0 371 -133.5t130 -378.5v-99h-710q1 -103 66 -165t169 -62q152 0 223 143l242 -110q-62 -126 -186 -197.5t-283 -71.5q-254 0 -398.5 139.5t-144.5 387.5zM164 1481h309l225 -320h-252zM371 623h393v8q0 108 -49.5 165.5 t-141.5 57.5q-94 0 -146.5 -60.5t-55.5 -170.5z" />
<glyph unicode="&#xe9;" horiz-adv-x="1150" d="M59 502q0 252 141 399.5t380 147.5q241 0 371 -133.5t130 -378.5v-99h-710q1 -103 66 -165t169 -62q152 0 223 143l242 -110q-62 -126 -186 -197.5t-283 -71.5q-254 0 -398.5 139.5t-144.5 387.5zM371 623h393v8q0 108 -49.5 165.5t-141.5 57.5q-94 0 -146.5 -60.5 t-55.5 -170.5zM449 1161l225 320h309l-283 -320h-251z" />
<glyph unicode="&#xea;" horiz-adv-x="1150" d="M59 502q0 252 141 399.5t380 147.5q241 0 371 -133.5t130 -378.5v-99h-710q1 -103 66 -165t169 -62q152 0 223 143l242 -110q-62 -126 -186 -197.5t-283 -71.5q-254 0 -398.5 139.5t-144.5 387.5zM193 1161l217 320h327l217 -320h-237l-144 215l-141 -215h-239zM371 623 h393v8q0 108 -49.5 165.5t-141.5 57.5q-94 0 -146.5 -60.5t-55.5 -170.5z" />
<glyph unicode="&#xeb;" horiz-adv-x="1150" d="M59 502q0 252 141 399.5t380 147.5q241 0 371 -133.5t130 -378.5v-99h-710q1 -103 66 -165t169 -62q152 0 223 143l242 -110q-62 -126 -186 -197.5t-283 -71.5q-254 0 -398.5 139.5t-144.5 387.5zM205 1174v272h284v-272h-284zM371 623h393v8q0 108 -49.5 165.5 t-141.5 57.5q-94 0 -146.5 -60.5t-55.5 -170.5zM655 1174v272h285v-272h-285z" />
<glyph unicode="&#xec;" horiz-adv-x="604" d="M-37 1481h291l168 -320h-252zM137 0v1024h330v-1024h-330z" />
<glyph unicode="&#xed;" horiz-adv-x="604" d="M137 0v1024h330v-1024h-330zM178 1161l168 320h291l-207 -320h-252z" />
<glyph unicode="&#xee;" horiz-adv-x="604" d="M-16 1161l155 320h328l156 -320h-228l-92 217l-90 -217h-229zM137 0v1024h330v-1024h-330z" />
<glyph unicode="&#xef;" horiz-adv-x="604" d="M-2 1174v272h260v-272h-260zM137 0v1024h330v-1024h-330zM348 1174v272h262v-272h-262z" />
<glyph unicode="&#xf0;" horiz-adv-x="1189" d="M66 508q0 249 118.5 395t319.5 146q95 0 164.5 -47t105.5 -121h4q-44 172 -170 319l-207 -70l-32 91l168 57q-65 62 -144 117l279 121q94 -63 166 -138l149 52l31 -91l-113 -36q230 -288 230 -713q0 -288 -148.5 -451.5t-402.5 -163.5q-247 0 -382.5 139.5t-135.5 393.5z M397 514q0 -143 54 -227t147 -84q100 0 154.5 82t54.5 231q0 146 -54 226.5t-151 80.5q-99 0 -152 -79.5t-53 -229.5z" />
<glyph unicode="&#xf1;" horiz-adv-x="1247" d="M137 0v1024h316v-197q108 224 340 224q165 0 249 -105t84 -311v-635h-327v590q0 209 -154 209q-86 0 -132 -63.5t-46 -182.5v-553h-330zM244 1239q22 122 89 191t171 69q53 0 101 -21.5t77.5 -47t65.5 -47t69 -21.5q37 0 60.5 26.5t40.5 90.5l159 -56 q-22 -122 -89.5 -191t-172.5 -69q-53 0 -101 22t-77 48t-65 48t-68 22q-37 0 -60.5 -27.5t-42.5 -91.5z" />
<glyph unicode="&#xf2;" horiz-adv-x="1181" d="M59 514q0 129 40.5 231.5t112.5 168.5t168 100.5t210 34.5q115 0 211.5 -34.5t168 -100.5t112 -168.5t40.5 -231.5q0 -256 -148.5 -397.5t-383.5 -141.5q-114 0 -210.5 35t-168 102t-112 170t-40.5 232zM180 1481h309l226 -320h-252zM387 514q0 -154 53 -232.5t150 -78.5 q98 0 151.5 78.5t53.5 232.5q0 307 -205 307q-98 0 -150.5 -76t-52.5 -231z" />
<glyph unicode="&#xf3;" horiz-adv-x="1181" d="M59 514q0 129 40.5 231.5t112.5 168.5t168 100.5t210 34.5q115 0 211.5 -34.5t168 -100.5t112 -168.5t40.5 -231.5q0 -256 -148.5 -397.5t-383.5 -141.5q-114 0 -210.5 35t-168 102t-112 170t-40.5 232zM387 514q0 -154 53 -232.5t150 -78.5q98 0 151.5 78.5t53.5 232.5 q0 307 -205 307q-98 0 -150.5 -76t-52.5 -231zM465 1161l225 320h309l-282 -320h-252z" />
<glyph unicode="&#xf4;" horiz-adv-x="1181" d="M59 514q0 129 40.5 231.5t112.5 168.5t168 100.5t210 34.5q115 0 211.5 -34.5t168 -100.5t112 -168.5t40.5 -231.5q0 -256 -148.5 -397.5t-383.5 -141.5q-114 0 -210.5 35t-168 102t-112 170t-40.5 232zM209 1161l217 320h328l217 -320h-238l-143 215l-141 -215h-240z M387 514q0 -154 53 -232.5t150 -78.5q98 0 151.5 78.5t53.5 232.5q0 307 -205 307q-98 0 -150.5 -76t-52.5 -231z" />
<glyph unicode="&#xf5;" horiz-adv-x="1181" d="M59 514q0 129 40.5 231.5t112.5 168.5t168 100.5t210 34.5q115 0 211.5 -34.5t168 -100.5t112 -168.5t40.5 -231.5q0 -256 -148.5 -397.5t-383.5 -141.5q-114 0 -210.5 35t-168 102t-112 170t-40.5 232zM178 1239q22 122 89 191t171 69q53 0 101.5 -21.5t77.5 -47 t65.5 -47t69.5 -21.5q37 0 60 26.5t40 90.5l160 -56q-22 -122 -89.5 -191t-172.5 -69q-53 0 -101.5 22t-77.5 48t-65 48t-68 22q-37 0 -60 -27t-42 -92zM387 514q0 -154 53 -232.5t150 -78.5q98 0 151.5 78.5t53.5 232.5q0 307 -205 307q-98 0 -150.5 -76t-52.5 -231z" />
<glyph unicode="&#xf6;" horiz-adv-x="1181" d="M59 514q0 129 40.5 231.5t112.5 168.5t168 100.5t210 34.5q115 0 211.5 -34.5t168 -100.5t112 -168.5t40.5 -231.5q0 -256 -148.5 -397.5t-383.5 -141.5q-114 0 -210.5 35t-168 102t-112 170t-40.5 232zM221 1174v272h285v-272h-285zM387 514q0 -154 53 -232.5t150 -78.5 q98 0 151.5 78.5t53.5 232.5q0 307 -205 307q-98 0 -150.5 -76t-52.5 -231zM672 1174v272h284v-272h-284z" />
<glyph unicode="&#xf7;" horiz-adv-x="1150" d="M90 563v215h971v-215h-971zM430 303q0 64 39 102.5t100 38.5q62 0 102 -38t40 -103q0 -61 -40.5 -100t-101.5 -39q-60 0 -99.5 39t-39.5 100zM430 1032q0 62 39 100.5t100 38.5t101.5 -38t40.5 -101q0 -61 -40.5 -100t-101.5 -39t-100 38.5t-39 100.5z" />
<glyph unicode="&#xf8;" horiz-adv-x="1181" d="M59 514q0 129 40.5 231.5t112.5 168.5t168 100.5t210 34.5q179 0 309 -80l74 90l76 -55l-76 -93q149 -143 149 -397q0 -256 -148.5 -397.5t-383.5 -141.5q-178 0 -309 84l-76 -94l-74 53l78 97q-150 147 -150 399zM387 514q0 -88 19 -156l325 402q-52 61 -141 61 q-98 0 -150.5 -76t-52.5 -231zM451 266q51 -63 139 -63q98 0 151.5 78.5t53.5 232.5q0 89 -19 154z" />
<glyph unicode="&#xf9;" horiz-adv-x="1234" d="M121 360v664h328v-606q0 -193 147 -193q79 0 125.5 58t46.5 155v586h330v-1024h-314v186q-37 -97 -122 -154t-197 -57q-344 0 -344 385zM199 1481h309l225 -320h-252z" />
<glyph unicode="&#xfa;" horiz-adv-x="1234" d="M121 360v664h328v-606q0 -193 147 -193q79 0 125.5 58t46.5 155v586h330v-1024h-314v186q-37 -97 -122 -154t-197 -57q-344 0 -344 385zM483 1161l226 320h309l-283 -320h-252z" />
<glyph unicode="&#xfb;" horiz-adv-x="1234" d="M121 360v664h328v-606q0 -193 147 -193q79 0 125.5 58t46.5 155v586h330v-1024h-314v186q-37 -97 -122 -154t-197 -57q-344 0 -344 385zM227 1161l217 320h328l217 -320h-237l-144 215l-141 -215h-240z" />
<glyph unicode="&#xfc;" horiz-adv-x="1234" d="M121 360v664h328v-606q0 -193 147 -193q79 0 125.5 58t46.5 155v586h330v-1024h-314v186q-37 -97 -122 -154t-197 -57q-344 0 -344 385zM240 1174v272h284v-272h-284zM690 1174v272h285v-272h-285z" />
<glyph unicode="&#xfd;" horiz-adv-x="1101" d="M8 1024h357l180 -623q17 -59 22 -118h6q2 34 25 118l166 623h330l-367 -1069q-67 -197 -189.5 -283t-328.5 -86q-20 0 -135 13v241q76 -10 114 -10q82 0 128.5 31.5t68.5 101.5l14 43zM440 1161l226 320h309l-283 -320h-252z" />
<glyph unicode="&#xfe;" horiz-adv-x="1259" d="M147 -399v1884h330v-598q47 78 128 120t183 42q184 0 294 -148t110 -387q0 -241 -113.5 -390t-306.5 -149q-98 0 -174.5 41t-120.5 117v-532h-330zM469 479q0 -127 51.5 -201.5t141.5 -74.5q89 0 140.5 86t51.5 225q0 141 -51 224t-144 83q-92 0 -141 -73.5t-49 -210.5 v-58z" />
<glyph unicode="&#xff;" horiz-adv-x="1101" d="M8 1024h357l180 -623q17 -59 22 -118h6q2 34 25 118l166 623h330l-367 -1069q-67 -197 -189.5 -283t-328.5 -86q-20 0 -135 13v241q76 -10 114 -10q82 0 128.5 31.5t68.5 101.5l14 43zM197 1174v272h284v-272h-284zM647 1174v272h285v-272h-285z" />
<glyph unicode="&#x152;" horiz-adv-x="2045" d="M59 729q0 334 193.5 529.5t527.5 195.5h1151v-256h-649v-328h614v-254h-614v-360h664v-256h-1162q-335 0 -530 198t-195 531zM414 729q0 -213 107 -344t296 -131h119v946h-123q-193 0 -296 -127t-103 -344z" />
<glyph unicode="&#x153;" horiz-adv-x="1886" d="M59 512q0 245 144 391t387 146q221 0 356 -138q141 138 369 138q241 0 371.5 -133.5t130.5 -378.5v-99h-711q1 -103 66 -165t169 -62q153 0 224 143l241 -110q-62 -126 -186 -197.5t-283 -71.5q-251 0 -393 136q-136 -136 -354 -136q-239 0 -385 147t-146 390zM387 512 q0 -149 53 -229t150 -80q98 0 151.5 80t53.5 229t-53.5 229t-151.5 80q-97 0 -150 -80t-53 -229zM1106 623h393v8q0 109 -49 166t-141 57q-95 0 -147.5 -60.5t-55.5 -170.5z" />
<glyph unicode="&#x178;" horiz-adv-x="1302" d="M-6 1454h364l256 -536q27 -62 35 -107h4q8 45 35 107l254 536h367l-484 -928v-526h-348v526zM283 1542v236h272v-236h-272zM748 1542v236h272v-236h-272z" />
<glyph unicode="&#x2c6;" horiz-adv-x="1228" d="M86 1161l217 320h328l217 -320h-238l-143 215l-141 -215h-240z" />
<glyph unicode="&#x2dc;" horiz-adv-x="1228" d="M104 1239q22 122 89.5 191t171.5 69q53 0 101 -21.5t77.5 -47t65.5 -47t69 -21.5q37 0 60 26.5t40 90.5l160 -56q-22 -122 -89.5 -191t-172.5 -69q-53 0 -101 22t-77 48t-65 48t-68 22q-37 0 -60.5 -27.5t-42.5 -91.5z" />
<glyph unicode="&#x2000;" horiz-adv-x="1002" />
<glyph unicode="&#x2001;" horiz-adv-x="2005" />
<glyph unicode="&#x2002;" horiz-adv-x="1002" />
<glyph unicode="&#x2003;" horiz-adv-x="2005" />
<glyph unicode="&#x2004;" horiz-adv-x="668" />
<glyph unicode="&#x2005;" horiz-adv-x="501" />
<glyph unicode="&#x2006;" horiz-adv-x="334" />
<glyph unicode="&#x2007;" horiz-adv-x="334" />
<glyph unicode="&#x2008;" horiz-adv-x="250" />
<glyph unicode="&#x2009;" horiz-adv-x="401" />
<glyph unicode="&#x200a;" horiz-adv-x="111" />
<glyph unicode="&#x2010;" horiz-adv-x="849" d="M90 430v279h670v-279h-670z" />
<glyph unicode="&#x2011;" horiz-adv-x="849" d="M90 430v279h670v-279h-670z" />
<glyph unicode="&#x2012;" horiz-adv-x="849" d="M90 430v279h670v-279h-670z" />
<glyph unicode="&#x2013;" horiz-adv-x="1271" d="M90 453v233h1094v-233h-1094z" />
<glyph unicode="&#x2014;" horiz-adv-x="1755" d="M90 453v233h1575v-233h-1575z" />
<glyph unicode="&#x2018;" horiz-adv-x="583" d="M117 856v318q0 130 62 211t204 124l68 -135q-87 -28 -117.5 -67t-30.5 -111v-4h164v-336h-350z" />
<glyph unicode="&#x2019;" horiz-adv-x="583" d="M117 1118v336h350v-317q0 -130 -62 -211.5t-204 -124.5l-68 135q87 28 117.5 67t30.5 111v4h-164z" />
<glyph unicode="&#x201a;" horiz-adv-x="583" d="M117 0v336h350v-318q0 -130 -62 -211t-204 -124l-68 135q87 28 117.5 67t30.5 111v4h-164z" />
<glyph unicode="&#x201c;" horiz-adv-x="1026" d="M117 856v318q0 130 62 211t204 124l68 -135q-87 -28 -117.5 -67t-30.5 -111v-4h164v-336h-350zM559 856v318q0 130 62 211t204 124l68 -135q-87 -28 -117.5 -67t-30.5 -111v-4h164v-336h-350z" />
<glyph unicode="&#x201d;" horiz-adv-x="1026" d="M117 1120v336h350v-317q0 -130 -62 -211.5t-204 -124.5l-68 135q87 28 117.5 67t30.5 111v4h-164zM559 1120v336h350v-317q0 -130 -62 -211.5t-204 -124.5l-68 135q87 28 117.5 67t30.5 111v4h-164z" />
<glyph unicode="&#x201e;" horiz-adv-x="1026" d="M117 2v336h350v-318q0 -130 -62 -211t-204 -124l-68 135q87 28 117.5 67t30.5 111v4h-164zM559 2v336h350v-318q0 -130 -62 -211t-204 -124l-68 135q87 28 117.5 67t30.5 111v4h-164z" />
<glyph unicode="&#x2022;" horiz-adv-x="763" d="M117 694q0 117 74.5 190.5t189.5 73.5q117 0 191.5 -72t74.5 -192q0 -115 -75 -187.5t-191 -72.5q-115 0 -189.5 72.5t-74.5 187.5z" />
<glyph unicode="&#x2026;" horiz-adv-x="1738" d="M117 0v328h350v-328h-350zM694 0v328h350v-328h-350zM1272 0v328h350v-328h-350z" />
<glyph unicode="&#x202f;" horiz-adv-x="401" />
<glyph unicode="&#x2039;" horiz-adv-x="692" d="M35 565l340 422h282l-333 -420l329 -430h-284z" />
<glyph unicode="&#x203a;" horiz-adv-x="692" d="M35 987h282l340 -422l-333 -428h-285l330 430z" />
<glyph unicode="&#x205f;" horiz-adv-x="501" />
<glyph unicode="&#x20ac;" horiz-adv-x="1392" d="M10 516v137h92q-2 25 -2 74v49h-90v135h105q46 258 216.5 400.5t442.5 142.5q224 0 376 -94t206 -262l-303 -86q-33 87 -106.5 136.5t-178.5 49.5q-126 0 -205.5 -74t-109.5 -213h489v-135h-508v-47q0 -51 2 -76h506v-137h-483q36 -138 118 -213.5t201 -75.5 q100 0 174.5 53t108.5 144l305 -84q-71 -179 -224 -275t-376 -96q-264 0 -430.5 145t-216.5 402h-109z" />
<glyph unicode="&#x2122;" horiz-adv-x="1849" d="M10 1286v168h717v-168h-264v-663h-201v663h-252zM815 623v831h287l149 -498q18 -70 21 -129h6q3 64 20 129l148 498h287v-831h-183v487q0 112 4 180h-2q-10 -51 -39 -151l-153 -516h-172l-154 516q-29 101 -37 151h-4q4 -68 4 -180v-487h-182z" />
<glyph unicode="&#x25fc;" horiz-adv-x="1024" d="M0 0v1024h1024v-1024h-1024z" />
</font>
</defs>
</svg>
