<svg id="Group_101136" data-name="Group 101136" xmlns="http://www.w3.org/2000/svg" width="27.48" height="42" viewBox="0 0 27.48 42">
  <g id="Group_101110" data-name="Group 101110">
    <path id="Path_3298" data-name="Path 3298" d="M0,0H27.48V42L0,27.48Z" fill="#667b84"/>
  </g>
  <g id="dining-room-cutlery-set-of-three-pieces-in-silhouettes" transform="translate(8.015 5.594)">
    <path id="Path_3190" data-name="Path 3190" d="M71.152,70.426a2.019,2.019,0,0,0-.056.527l-.625,11.566a.886.886,0,0,0,.769.968h1.153a.886.886,0,0,0,.769-.968l-.641-11.565a2.453,2.453,0,0,0-.035-.444,3.41,3.41,0,0,0,1.827-3.326c0-1.893-1.072-3.427-2.394-3.427s-2.393,1.534-2.393,3.427A3.551,3.551,0,0,0,71.152,70.426Z" transform="translate(-69.527 -63.755)" fill="#fbfbf8"/>
    <path id="Path_3191" data-name="Path 3191" d="M227.238,97.68a.67.67,0,0,0,.646.692h.594l-.517,11.18c0,.566.312,1.024.7,1.024H229.7c.385,0,.7-.459.7-1.024l-.531-11.18h.6a.67.67,0,0,0,.646-.692l.323-1.973c0-.017,0-.032,0-.048a.68.68,0,0,0,.014-.135V91.455a.529.529,0,1,0-1.046,0v4.068a.353.353,0,1,1-.7,0V91.455a.529.529,0,1,0-1.046,0v4.068a.353.353,0,1,1-.7,0V91.455a.529.529,0,1,0-1.046,0v4.068a.5.5,0,0,1,0,.183Z" transform="translate(-220.124 -90.845)" fill="#fbfbf8"/>
  </g>
</svg>
