<svg id="Group_4542" data-name="Group 4542" xmlns="http://www.w3.org/2000/svg" width="17.113" height="17.072" viewBox="0 0 17.113 17.072">
  <g id="Group_3198" data-name="Group 3198" transform="translate(0 0)">
    <g id="Group_3197" data-name="Group 3197" transform="translate(0 0)">
      <path id="Path_1602" data-name="Path 1602" d="M16.66,13.475l-2.645-2.645a1.379,1.379,0,0,0-1.942.034L10.742,12.2c-.084-.044-.172-.093-.261-.147a13.311,13.311,0,0,1-3.2-2.315,13.237,13.237,0,0,1-2.32-3.21l-.143-.256.895-.89.437-.437A1.374,1.374,0,0,0,6.185,3L3.541.356A1.374,1.374,0,0,0,1.6.39l-.747.752.02.02A4.405,4.405,0,0,0,.257,2.243a4.715,4.715,0,0,0-.275,1.1c-.344,2.9.978,5.54,4.567,9.123,4.955,4.96,8.951,4.586,9.123,4.567a4.41,4.41,0,0,0,1.1-.275,4.272,4.272,0,0,0,1.077-.61l.015.015.752-.737A1.376,1.376,0,0,0,16.66,13.475Z" transform="translate(0.071 0.029)" fill="#191919"/>
    </g>
  </g>
</svg>
