<svg id="Group_101132" data-name="Group 101132" xmlns="http://www.w3.org/2000/svg" width="27.48" height="42" viewBox="0 0 27.48 42">
  <path id="Path_3298" data-name="Path 3298" d="M0,0H27.48V42L0,27.48Z" fill="#033069"/>
  <g id="cocktail-glass" transform="translate(6.525 7.795)">
    <path id="Path_3195" data-name="Path 3195" d="M21.8,1.176A1.028,1.028,0,0,0,22.17.5a.374.374,0,0,0-.156-.316.813.813,0,0,0-.329-.151A1.9,1.9,0,0,0,21.314,0H9.138a1.9,1.9,0,0,0-.372.035.811.811,0,0,0-.329.151A.374.374,0,0,0,8.282.5a1.029,1.029,0,0,0,.372.675l5.465,5.465v6.641H11.352a.554.554,0,0,0,0,1.107H19.1a.554.554,0,0,0,0-1.107H16.333V6.641Z" transform="translate(-8.282 0)" fill="#fbfbf8"/>
  </g>
</svg>
