<svg id="Group_101259" data-name="Group 101259" xmlns="http://www.w3.org/2000/svg" width="14" height="14" viewBox="0 0 14 14">
  <path id="Path_77" data-name="Path 77" d="M7,0a7,7,0,1,0,7,7A7,7,0,0,0,7,0Zm.485,7.854c0,.019,0,.037,0,.056s0,.028,0,.042l-.014.042a.228.228,0,0,1-.019.051s0,0,0,.009A.466.466,0,0,1,7.4,8.12a0,0,0,0,1,0,0,.321.321,0,0,1-.051.061L7.331,8.2a.5.5,0,0,1-.051.042.064.064,0,0,1-.019.014.372.372,0,0,1-.075.037s-.009,0-.019,0a.344.344,0,0,1-.065.019c-.009,0-.014,0-.023,0a.517.517,0,0,1-.089.009H6.972a.514.514,0,0,1-.084-.009.036.036,0,0,1-.023-.009.459.459,0,0,1-.075-.023s0,0-.009,0L4.1,7.019a.484.484,0,1,1,.411-.877L6.5,7.079V2.9a.485.485,0,0,1,.971,0V7.845h0C7.485,7.849,7.485,7.854,7.485,7.854Z" fill="#191919"/>
</svg>
