<svg id="Group_101260" data-name="Group 101260" xmlns="http://www.w3.org/2000/svg" width="13.365" height="13.333" viewBox="0 0 13.365 13.333">
  <g id="Group_3197" data-name="Group 3197">
    <path id="Path_1602" data-name="Path 1602" d="M13,10.517,10.93,8.452a1.077,1.077,0,0,0-1.516.027l-1.04,1.04c-.065-.035-.134-.073-.2-.115A10.4,10.4,0,0,1,5.671,7.6,10.337,10.337,0,0,1,3.859,5.089l-.111-.2.7-.695.342-.342a1.073,1.073,0,0,0,.027-1.516L2.749.271A1.073,1.073,0,0,0,1.233.3L.65.885.665.9a3.441,3.441,0,0,0-.48.845A3.682,3.682,0,0,0-.03,2.6C-.3,4.863.734,6.928,3.536,9.726c3.87,3.873,6.991,3.582,7.125,3.566a3.444,3.444,0,0,0,.86-.215,3.336,3.336,0,0,0,.841-.476l.012.012.587-.576A1.075,1.075,0,0,0,13,10.517Z" transform="translate(0.071 0.029)" fill="#191919"/>
  </g>
</svg>
