<svg xmlns="http://www.w3.org/2000/svg" width="130" height="57.6" viewBox="0 0 130 57.6">
  <g id="Layer_2" data-name="Layer 2" transform="translate(0 0.009)">
    <g id="Layer_1" data-name="Layer 1" transform="translate(0 -0.009)">
      <path id="Path_20524" data-name="Path 20524" d="M5.732,2.4H0V.617H13.413V2.4H7.683V17.69H5.732Z" transform="translate(0 -0.32)" fill="#191919"/>
      <rect id="Rectangle_54953" data-name="Rectangle 54953" width="1.926" height="17.073" transform="translate(17.25 0.296)" fill="#191919"/>
      <path id="Path_20525" data-name="Path 20525" d="M52.446.617V8.2H44.519v1.8h7.927V17.69h1.928V.617Z" transform="translate(-23.416 -0.32)" fill="#191919"/>
      <path id="Path_20526" data-name="Path 20526" d="M129.162,8.873V8.824A8.6,8.6,0,0,1,137.8,0,8.889,8.889,0,0,1,144.454,2.7l-1.316,1.415a7.417,7.417,0,0,0-5.365-2.34,6.692,6.692,0,0,0-6.61,7v.048a6.737,6.737,0,0,0,6.61,7.05,7.415,7.415,0,0,0,5.512-2.464l1.268,1.243a8.888,8.888,0,0,1-6.829,3,8.516,8.516,0,0,1-8.561-8.78" transform="translate(-67.937 0.009)" fill="#191919"/>
      <path id="Path_20527" data-name="Path 20527" d="M169.8.617h1.927V15.908h9.61V17.69H169.8Z" transform="translate(-89.313 -0.32)" fill="#191919"/>
      <path id="Path_20528" data-name="Path 20528" d="M78.86,15.933V9.957h9.317V8.2H78.86V2.372H89.274V.616H76.933V17.689H89.4V15.933Z" transform="translate(-40.465 -0.32)" fill="#191919"/>
      <path id="Path_20529" data-name="Path 20529" d="M256.351.617v13.9L245.668.617H243.79V17.69h1.878V3.79l10.684,13.878v.022h1.878V.617Z" transform="translate(-128.229 -0.32)" fill="#191919"/>
      <path id="Path_20530" data-name="Path 20530" d="M217.1,17.553l-7.78-17.2h-2.068l-7.777,17.2h2.073L208.3,2.658l3.913,8.651H206.46l-.785,1.731h7.316l2.04,4.513Z" transform="translate(-104.923 -0.184)" fill="#191919"/>
      <text id="HOTEL" transform="translate(38.588 35.296)" fill="#191919" font-size="14" font-family="Helvetica"><tspan x="0" y="0" letter-spacing="0.048em">H</tspan><tspan y="0" letter-spacing="-0.003em">O</tspan><tspan y="0" letter-spacing="0.036em">T</tspan><tspan y="0" letter-spacing="0.035em">E</tspan><tspan y="0">L</tspan></text>
      <text id="SINGAPORE" transform="translate(31.013 55.6)" fill="#191919" font-size="10" font-family="Helvetica"><tspan x="0" y="0" letter-spacing="0.061em">S</tspan><tspan y="0" letter-spacing="0.063em">I</tspan><tspan y="0" letter-spacing="0.065em">N</tspan><tspan y="0" letter-spacing="0.048em">G</tspan><tspan y="0" letter-spacing="0.057em">A</tspan><tspan y="0" letter-spacing="0.065em">POR</tspan><tspan y="0">E</tspan></text>
    </g>
  </g>
</svg>
