<svg xmlns="http://www.w3.org/2000/svg" xmlns:xlink="http://www.w3.org/1999/xlink" width="61.647" height="86.895" viewBox="0 0 61.647 86.895">
  <defs>
    <filter id="Path_3299" x="0" y="0" width="61.647" height="86.895" filterUnits="userSpaceOnUse">
      <feOffset dy="3" input="SourceAlpha"/>
      <feGaussianBlur stdDeviation="3" result="blur"/>
      <feFlood flood-opacity="0.161"/>
      <feComposite operator="in" in2="blur"/>
      <feComposite in="SourceGraphic"/>
    </filter>
  </defs>
  <g id="Group_59023" data-name="Group 59023" transform="translate(9 6)">
    <g transform="matrix(1, 0, 0, 1, -9, -6)" filter="url(#Path_3299)">
      <path id="Path_3299-2" data-name="Path 3299" d="M0,0H43.647V68.895L0,43.647Z" transform="translate(9 6)" fill="#fbfbf8"/>
    </g>
    <g id="Layer_2" data-name="Layer 2" transform="translate(4.656 6.364)">
      <g id="Layer_1" data-name="Layer 1">
        <path id="Path_3120" data-name="Path 3120" d="M100.806,337.526l.207-.035a.462.462,0,0,0,.515.351c.24,0,.4-.072.4-.254,0-.164-.107-.226-.318-.256l-.32-.043c-.261-.039-.416-.154-.416-.4s.222-.418.6-.418c.359,0,.595.137.658.427l-.2.049c-.051-.205-.191-.314-.464-.314-.238,0-.384.086-.384.24s.082.211.289.242l.312.045c.287.043.455.152.455.41s-.2.439-.617.439S100.865,337.826,100.806,337.526Z" transform="translate(-90.957 -303.597)" fill="#191919"/>
        <path id="Path_3121" data-name="Path 3121" d="M119.81,338.346v-1.456h.2v1.456Z" transform="translate(-108.105 -303.976)" fill="#191919"/>
        <path id="Path_3122" data-name="Path 3122" d="M128.462,336.889h.244l.8,1.075a.736.736,0,0,1,.094.166h0c0-.055,0-.109,0-.187v-1.054h.183v1.456h-.232l-.818-1.087a.84.84,0,0,1-.092-.162h0c0,.051,0,.1,0,.178v1.071h-.183Z" transform="translate(-115.911 -303.976)" fill="#191919"/>
        <path id="Path_3123" data-name="Path 3123" d="M147.195,337.239a.729.729,0,0,1,.788-.769.646.646,0,0,1,.685.455l-.2.033a.466.466,0,0,0-.492-.32.6.6,0,0,0,0,1.2.474.474,0,0,0,.529-.449v-.018h-.533V337.2h.714v.763h-.15l-.023-.246a.615.615,0,0,1-.566.287A.718.718,0,0,1,147.195,337.239Z" transform="translate(-132.814 -303.597)" fill="#191919"/>
        <path id="Path_3124" data-name="Path 3124" d="M167.589,337.968H166.8l-.162.377h-.211l.665-1.456h.2l.665,1.456h-.213Zm-.072-.168-.217-.509a1.24,1.24,0,0,1-.1-.226h0a1.218,1.218,0,0,1-.1.226l-.218.509Z" transform="translate(-150.17 -303.976)" fill="#191919"/>
        <path id="Path_3125" data-name="Path 3125" d="M188.09,337.33c0,.273-.209.447-.533.447h-.472v.568h-.2v-1.456h.693C187.891,336.889,188.09,337.062,188.09,337.33Zm-.211,0c0-.168-.127-.273-.328-.273h-.466v.552h.464C187.751,337.609,187.878,337.5,187.878,337.33Z" transform="translate(-168.626 -303.976)" fill="#191919"/>
        <path id="Path_3126" data-name="Path 3126" d="M202.842,337.239a.789.789,0,1,1,.788.769A.731.731,0,0,1,202.842,337.239Zm1.364,0a.577.577,0,1,0-.576.6A.55.55,0,0,0,204.207,337.239Z" transform="translate(-183.025 -303.597)" fill="#191919"/>
        <path id="Path_3127" data-name="Path 3127" d="M224.777,337.747h-.439v.6h-.2v-1.456h.71c.39,0,.5.222.5.429a.4.4,0,0,1-.347.4l.4.626h-.236Zm-.439-.166h.48c.24,0,.316-.127.316-.265s-.076-.258-.314-.258h-.482Z" transform="translate(-202.24 -303.976)" fill="#191919"/>
        <path id="Path_3128" data-name="Path 3128" d="M243.46,338.177v.168h-1.116v-1.456h1.1v.168h-.9v.457h.866v.168h-.866v.494Z" transform="translate(-218.668 -303.976)" fill="#191919"/>
        <path id="Path_3129" data-name="Path 3129" d="M1.527,198.92H0v-.476H3.574v.476H2.047v4.089h-.52Z" transform="translate(0 -179.056)" fill="#191919"/>
        <rect id="Rectangle_47580" data-name="Rectangle 47580" width="0.513" height="4.565" transform="translate(4.597 19.388)" fill="#191919"/>
        <path id="Path_3130" data-name="Path 3130" d="M59.669,198.444v2.028H57.557v.482h2.112v2.055h.514v-4.565Z" transform="translate(-51.934 -179.056)" fill="#191919"/>
        <path id="Path_3131" data-name="Path 3131" d="M166.99,200.018V200a2.3,2.3,0,0,1,2.3-2.361,2.364,2.364,0,0,1,1.774.724l-.351.378a1.974,1.974,0,0,0-1.43-.626,1.787,1.787,0,0,0-1.761,1.872V200a1.8,1.8,0,0,0,1.761,1.885,1.972,1.972,0,0,0,1.469-.659l.338.332a2.365,2.365,0,0,1-1.82.8,2.273,2.273,0,0,1-2.281-2.348" transform="translate(-150.675 -178.335)" fill="#191919"/>
        <path id="Path_3132" data-name="Path 3132" d="M219.533,198.444h.513v4.089h2.561v.476h-3.074Z" transform="translate(-198.085 -179.056)" fill="#191919"/>
        <path id="Path_3133" data-name="Path 3133" d="M99.977,202.541v-1.6h2.483v-.469H99.977v-1.559h2.775v-.469H99.464v4.565h3.321v-.469Z" transform="translate(-89.747 -179.057)" fill="#191919"/>
        <path id="Path_3134" data-name="Path 3134" d="M318.534,198.444v3.716l-2.847-3.716h-.5v4.565h.5v-3.717L318.534,203v.006h.5v-4.565Z" transform="translate(-284.394 -179.056)" fill="#191919"/>
        <path id="Path_3135" data-name="Path 3135" d="M262.6,202.707l-2.073-4.6h-.551l-2.072,4.6h.552l1.8-3.983,1.043,2.314h-1.532l-.209.463H261.5l.544,1.207Z" transform="translate(-232.706 -178.754)" fill="#191919"/>
        <path id="Path_3136" data-name="Path 3136" d="M121.133,268.466h.258v1.019h1.319v-1.019h.258v2.293h-.258v-1.032h-1.319v1.032h-.258Z" transform="translate(-109.299 -242.237)" fill="#191919"/>
        <path id="Path_3137" data-name="Path 3137" d="M149.626,269.414v-.007a.91.91,0,0,0-.9-.947.9.9,0,0,0-.894.94v.006a.91.91,0,0,0,.9.947.9.9,0,0,0,.894-.94m-2.063,0v-.007a1.165,1.165,0,1,1,2.33-.006v.006a1.165,1.165,0,1,1-2.33.007" transform="translate(-133.147 -242.033)" fill="#191919"/>
        <path id="Path_3138" data-name="Path 3138" d="M175.4,268.705h-.767v-.239h1.8v.239h-.767v2.054H175.4Z" transform="translate(-157.57 -242.237)" fill="#191919"/>
        <path id="Path_3139" data-name="Path 3139" d="M199.6,268.466h1.652v.236h-1.394v.783h1.247v.236h-1.247v.8h1.41v.236H199.6Z" transform="translate(-180.101 -242.237)" fill="#191919"/>
        <path id="Path_3140" data-name="Path 3140" d="M223.638,268.466h.258v2.054h1.286v.239h-1.544Z" transform="translate(-201.789 -242.237)" fill="#191919"/>
        <path id="Path_3141" data-name="Path 3141" d="M56.188,52.527a.335.335,0,0,0-.467.005L46.378,61.91c-.128.123-.082.23.1.23h4.547a.942.942,0,0,0,.558-.23l6.8-6.829a.32.32,0,0,0,0-.454Z" transform="translate(-41.782 -47.312)" fill="#191919"/>
        <path id="Path_3142" data-name="Path 3142" d="M132.2,14.56,122,4.364h0L117.856.23A.928.928,0,0,0,117.3,0h-4.559c-.181,0-.223.107-.1.23L123.333,10.9h0L127,14.56a.928.928,0,0,0,.554.23h4.559C132.29,14.789,132.332,14.682,132.2,14.56Z" transform="translate(-101.575)" fill="#191919"/>
      </g>
    </g>
  </g>
</svg>
