<svg id="Group_101261" data-name="Group 101261" xmlns="http://www.w3.org/2000/svg" width="15.224" height="15.227" viewBox="0 0 15.224 15.227">
  <path id="Path_3184" data-name="Path 3184" d="M21.217,5.01l-.228.072-1.213.108-.343.547-.249-.079-.965-.87-.14-.453-.188-.483-.607-.544-.716-.14-.016.328.7.684.343.4-.386.2L16.9,4.693l-.471-.2.016-.38-.617-.254-.205.892L15,4.9l.062.5.811.156.14-.8.669.1.311.182h.5l.342.684.906.919L18.671,7l-.73-.093-1.262.637-.909,1.09-.118.483h-.326l-.608-.28-.59.28.147.623.257-.3.452-.014-.032.559.374.11.374.42.61-.172.7.11.809.218.4.047.685.778,1.323.778-.855,1.634-.9.42-.343.934-1.307.872-.139.5A7.6,7.6,0,0,0,21.217,5.01Z" transform="translate(-7.282 -1.633)" fill="#191919"/>
  <path id="Path_3185" data-name="Path 3185" d="M8.491,15.474l-.554-1.028.509-1.06-.509-.152-.571-.574L6.1,12.375l-.42-.879v.522H5.494L4.4,10.539V9.323l-.8-1.3-1.27.226H1.478l-.43-.282L1.6,7.532l-.548.127a7.6,7.6,0,0,0,6.567,11.45,7.971,7.971,0,0,0,.955-.066l-.079-.922s.349-1.37.349-1.416S8.491,15.474,8.491,15.474Z" transform="translate(-0.004 -3.881)" fill="#191919"/>
  <path id="Path_3186" data-name="Path 3186" d="M4.684,2.455l1.352-.189.623-.342.7.2,1.121-.062.384-.6.56.092,1.36-.127.375-.413L11.687.66l.747.112.272-.041A7.588,7.588,0,0,0,3.6,2.768h0Zm5.1-1.7.777-.428.5.288-.723.55-.69.069-.311-.2ZM7.486.82l.343.143L8.278.82l.245.424-1.037.272-.5-.292S7.474.91,7.486.82Z" transform="translate(-1.855)" fill="#191919"/>
</svg>
