<svg xmlns="http://www.w3.org/2000/svg" viewBox="0 0 22 17.9538"><title>Asset 6</title>
<g id="Layer_2" data-name="Layer 2">
	<g id="Layer_1-2" data-name="Layer 1">
		<path d="M6.34,8.4964A3.8089,3.8089,0,0,1,3.285,6.4788,4.407,4.407,0,0,1,4.2469.8848a3.8363,3.8363,0,0,1,5.17.2458,4.4092,4.4092,0,0,1-.3714,6.5576A4.0334,4.0334,0,0,1,6.34,8.4964Z"/>
		<path d="M12.3772,3.9323a3.4545,3.4545,0,0,1,1.831-2.9016,3.2905,3.2905,0,0,1,4.2112.84,3.8061,3.8061,0,0,1,.0175,4.7427,3.3305,3.3305,0,0,1-5.4127-.2326A3.9988,3.9988,0,0,1,12.3772,3.9323Z"/>
		<path d="M12.1427,12.5339A6.5728,6.5728,0,0,0,5.4,9.9355a6.1743,6.1743,0,0,0-4.2346,2.7062A6.8113,6.8113,0,0,0,.0223,17.126a.83.83,0,0,0,.8278.8278H12.528a.8244.8244,0,0,0,.8164-.7715c.01.0037.0148-.0053.0115-.0563A7.9976,7.9976,0,0,0,12.1427,12.5339Z"/>
		<path d="M16.1731,8.5921A6.1226,6.1226,0,0,0,12.54,9.46a.758.758,0,0,0-.1626,1.3485,6.0679,6.0679,0,0,1,2.2121,5.223.2179.2179,0,0,0,.013.064.8239.8239,0,0,0,.8149.7639l5.7549-.0191A.9675.9675,0,0,0,22,15.8673C22,15.2665,22,8.8471,16.1731,8.5921Z"/>
	</g>
</g>
</svg>