<svg xmlns="http://www.w3.org/2000/svg" viewBox="0 0 22 22">
	<defs>
		<style>.cls-1{fill:#866531;}.cls-2{fill:#fff;}
</style></defs><title>black_plus</title><g id="Layer_2" data-name="Layer 2"><g id="Layer_1-2" data-name="Layer 1"><path class="cls-1" d="M11,0A11,11,0,1,0,22,11,11,11,0,0,0,11,0Z"/><path class="cls-2" d="M10.8614,18.1605a3.0429,3.0429,0,0,1-.4858-.2243.78.78,0,0,1-.3472-.688c.0062-1.68.003-3.36.003-5.0393v-.1805H9.856c-1.6613,0-3.3227-.0162-4.9836.0091a.9733.9733,0,0,1-.9695-.9081,1.0438,1.0438,0,0,1,.34-.8893.7713.7713,0,0,1,.5432-.2085q2.5336.0056,5.0672.0021h.1778V9.8556c0-1.6613.0164-3.3227-.0092-4.9835a.9719.9719,0,0,1,.9105-.9666,1.0386,1.0386,0,0,1,.9152.3741.746.746,0,0,1,.1792.4981q-.0044,2.5336-.0017,5.0672v.1888h5.1787a.9042.9042,0,0,1,.9219.7258c.0088.0352.0212.07.032.1044v.3342c-.01.03-.0218.06-.0293.0908a.907.907,0,0,1-.938.7395H12.0255v.1848c0,1.6787-.0031,3.3574.0029,5.036a.78.78,0,0,1-.3474.6875,3.0124,3.0124,0,0,1-.4855.2238Z"/></g></g></svg>