<svg id="Layer_2" data-name="Layer 2" xmlns="http://www.w3.org/2000/svg" width="22" height="22" viewBox="0 0 22 22">
  <g id="Layer_1" data-name="Layer 1">
    <path id="Path_13958" data-name="Path 13958" d="M11,0A11,11,0,1,0,22,11,11,11,0,0,0,11,0Z" fill="#866531"/>
    <path id="Path_13959" data-name="Path 13959" d="M10.861,18.16a3.043,3.043,0,0,1-.486-.224.78.78,0,0,1-.347-.688c.006-1.68,0-3.36,0-5.039v-.181H9.856c-1.661,0-3.323-.016-4.984.009a.973.973,0,0,1-.969-.908,1.044,1.044,0,0,1,.34-.889.771.771,0,0,1,.543-.208q2.534.006,5.067,0h.178V9.856c0-1.661.016-3.323-.009-4.984a.972.972,0,0,1,.91-.967,1.039,1.039,0,0,1,.915.374.746.746,0,0,1,.179.5q0,2.534,0,5.067v.189H17.2a.9.9,0,0,1,.922.726c.009.035.021.07.032.1V11.2c-.01.03-.022.06-.029.091a.907.907,0,0,1-.938.739H12.026v.185c0,1.679,0,3.357,0,5.036a.78.78,0,0,1-.347.688,3.012,3.012,0,0,1-.486.224Z" fill="#fff"/>
  </g>
</svg>
