<svg id="Layer_2" data-name="Layer 2" xmlns="http://www.w3.org/2000/svg" width="22" height="22" viewBox="0 0 22 22">
  <g id="Layer_1" data-name="Layer 1">
    <path id="Path_13956" data-name="Path 13956" d="M11,0A11,11,0,1,0,22,11,11,11,0,0,0,11,0Z" fill="#866531"/>
    <path id="Path_13957" data-name="Path 13957" d="M17.177,10.024c-1.661.026-10.933.012-12.375.006a.782.782,0,0,0-.688.347,3,3,0,0,0-.224.487V11.2a3.011,3.011,0,0,0,.224.486.782.782,0,0,0,.688.347c1.679-.006,10.777,0,12.471,0a.741.741,0,0,0,.487-.171,1.038,1.038,0,0,0,.386-.91.973.973,0,0,0-.968-.925Z" fill="#fff"/>
  </g>
</svg>
