<svg xmlns="http://www.w3.org/2000/svg" viewBox="0 0 61.02 66">
  <defs>
    <style>
      .cls-1 {
        fill: #5c6670;
      }
    </style>
  </defs>
  <path id="XMLID_1_" class="cls-1" d="M61,10.843a13.188,13.188,0,0,0-3.171-6.454l-.016-.016A12.323,12.323,0,0,0,53.732,1.3l-.048-.016A13.281,13.281,0,0,0,39.895,2.755l-.016.016a15.5,15.5,0,0,0-3.491,4.1h0a.056.056,0,0,1-.016.032,13.225,13.225,0,0,0-1.618,6.326,13.012,13.012,0,0,0,.064,1.377,1.327,1.327,0,0,0,.673,1.009,6.247,6.247,0,0,0,.753.32,12.066,12.066,0,0,0,6.15,7.095A12.026,12.026,0,0,0,39.11,25.5a1.28,1.28,0,1,0,1.858,1.762,10.549,10.549,0,0,1,1.505-1.3,5.511,5.511,0,0,0,5.045,3.812h.192a5.473,5.473,0,0,0,5-4.068,9.469,9.469,0,0,1,4.436,7.944V46.958L45.484,54.517a1.291,1.291,0,0,0-.384,1.778,1.251,1.251,0,0,0,1.073.577,1.2,1.2,0,0,0,.689-.208L59.1,48.719a1.268,1.268,0,0,0,.577-1.073v-14A11.888,11.888,0,0,0,53.14,23.014,12.165,12.165,0,0,0,59.866,12.86a4.665,4.665,0,0,0,.929-1.153A1.062,1.062,0,0,0,61,10.843ZM47.71,27.21h-.192a3.106,3.106,0,0,1-2.835-3.251V23.9a12.391,12.391,0,0,0,3.091.4,12.183,12.183,0,0,0,2.659-.288C50.353,25.737,49.12,27.21,47.71,27.21Zm.08-5.477A9.6,9.6,0,0,1,39,15.983a4.8,4.8,0,0,0,3.427-3.876,18.641,18.641,0,0,0,2.322.144,17.539,17.539,0,0,0,7.367-1.586,4.79,4.79,0,0,0,4.6,3.443c.16,0,.32-.016.464-.016A9.6,9.6,0,0,1,47.79,21.733Zm8.921-10.186a2.232,2.232,0,0,1-2.226-2.226V8.6a1.278,1.278,0,0,0-1.954-1.089,14.649,14.649,0,0,1-7.768,2.162A14.8,14.8,0,0,1,41.5,9.321a1.291,1.291,0,0,0-1.073.256,1.268,1.268,0,0,0-.48.993v.8A2.232,2.232,0,0,1,37.717,13.6a1.466,1.466,0,0,1-.256-.016H37.4a.694.694,0,0,1-.08-.016v-.336a10.652,10.652,0,0,1,1.3-5.093.016.016,0,0,1,.016-.016,13.234,13.234,0,0,1,2.835-3.331h.016A10.689,10.689,0,0,1,52.611,3.6a.781.781,0,0,0,.112.048A9.592,9.592,0,0,1,55.91,6.07c0,.016.016.016.016.032a10.856,10.856,0,0,1,2.466,4.709A2.3,2.3,0,0,1,56.711,11.547ZM36.884,44.331a9.828,9.828,0,0,0,3.764-12.973,1.488,1.488,0,0,0-.08-.16,9.83,9.83,0,0,0-17.3,0,.5.5,0,0,0-.08.16,9.68,9.68,0,0,0-1.089,4.5,9.844,9.844,0,0,0,4.853,8.472,10.819,10.819,0,0,0-5.862,9.625v4.677a1.263,1.263,0,0,0,.593,1.073l9.561,6.086a1.333,1.333,0,0,0,.689.208,1.315,1.315,0,0,0,.689-.192L42.2,59.754a1.29,1.29,0,0,0,.593-1.089l-.016-4.709A10.951,10.951,0,0,0,36.884,44.331ZM31.919,28.6A7.243,7.243,0,0,1,37.476,31.2a20.892,20.892,0,0,1-11.115,0A7.243,7.243,0,0,1,31.919,28.6Zm-7.255,7.255a7.218,7.218,0,0,1,.4-2.37,23.433,23.433,0,0,0,13.709,0,7.254,7.254,0,1,1-14.11,2.37Zm9.529,9.561a2.325,2.325,0,0,1-2.178,2.034h-.16a2.415,2.415,0,0,1-2.29-2.05,9.609,9.609,0,0,0,2.37.288A10.621,10.621,0,0,0,34.193,45.42ZM31.919,63.2l-8.28-5.269V53.956a8.233,8.233,0,0,1,3.732-6.9,5.036,5.036,0,0,0,4.484,2.963h.16A4.87,4.87,0,0,0,36.4,47.006a8.257,8.257,0,0,1,3.8,6.951l.016,3.988ZM22.71,28.8a1.274,1.274,0,0,0-.416-1.762,11.1,11.1,0,0,0-1.217-.657,12.346,12.346,0,0,0,4.1-3.411,4.416,4.416,0,0,0,1.457.24A4.47,4.47,0,0,0,31.1,18.738V15.551A15.544,15.544,0,0,0,16.176.016h0C15.823,0,15.5,0,15.183,0A15.565,15.565,0,0,0,0,15.551v3.187a4.47,4.47,0,0,0,4.468,4.468,4.348,4.348,0,0,0,1.457-.24,12.057,12.057,0,0,0,4.58,3.652A11.883,11.883,0,0,0,4.1,37.172v10.49a1.308,1.308,0,0,0,.577,1.073L16.3,56.279a1.236,1.236,0,0,0,.689.208,1.276,1.276,0,0,0,.689-2.354L6.646,46.974V37.188a9.307,9.307,0,0,1,3.7-7.447,5.69,5.69,0,0,0,5.077,4.036h.192c2.45,0,4.4-2.21,5.093-4.693.08.048.144.1.224.144A1.309,1.309,0,0,0,22.71,28.8ZM7.639,10.907a9.132,9.132,0,0,0-1.265,4.661v3.171a1.858,1.858,0,0,1-.737,1.489c-.032.032-.08.048-.112.08a1.869,1.869,0,0,1-1.057.32,1.9,1.9,0,0,1-1.906-1.906V15.551A12.923,12.923,0,0,1,15.247,2.562h.833A12.947,12.947,0,0,1,28.556,15.551v3.187a1.9,1.9,0,0,1-1.906,1.906,1.959,1.959,0,0,1-1.057-.32.678.678,0,0,0-.112-.08,1.905,1.905,0,0,1-.737-1.489v-3.2a9.254,9.254,0,0,0-7.832-9.1,1.317,1.317,0,0,0-.993.272,1.259,1.259,0,0,0-.48.9,13.463,13.463,0,0,1-.48,2.643H8.744A1.252,1.252,0,0,0,7.639,10.907ZM15.631,31.2h-.192c-1.441,0-2.867-1.762-2.867-3.555a1.033,1.033,0,0,0-.048-.32,12.641,12.641,0,0,0,3.027.384,12.207,12.207,0,0,0,2.867-.336C18.338,29.228,16.928,31.2,15.631,31.2Zm-.08-6.054a9.554,9.554,0,0,1-7.559-3.684,4.471,4.471,0,0,0,.929-2.723V15.551a6.609,6.609,0,0,1,.593-2.723h6.374a1.3,1.3,0,0,0,1.2-.833,15.334,15.334,0,0,0,.721-2.675,6.663,6.663,0,0,1,4.372,6.23v3.187a4.471,4.471,0,0,0,.929,2.723A9.531,9.531,0,0,1,15.551,25.144Z"/>
</svg>
