<svg xmlns="http://www.w3.org/2000/svg" width="15" height="15" viewBox="0 0 18.451 16.039">
  <defs>
    <style>
      .cls-1, .cls-2 {
        fill: #5c6670;
      }

      .cls-2 {
        stroke: #5c6670;
        stroke-width: 0.2px;
      }
    </style>
  </defs>
  <g id="Group_116" data-name="Group 116" transform="translate(0.1 0.1)">
    <g id="Group_109" data-name="Group 109" transform="translate(4.477 5.51)">
      <g id="Group_108" data-name="Group 108">
        <rect id="Rectangle_186" data-name="Rectangle 186" class="cls-1" width="5.164" height="0.688"/>
      </g>
    </g>
    <g id="Group_111" data-name="Group 111" transform="translate(4.477 7.92)">
      <g id="Group_110" data-name="Group 110">
        <rect id="Rectangle_187" data-name="Rectangle 187" class="cls-1" width="6.886" height="0.688"/>
      </g>
    </g>
    <g id="Group_113" data-name="Group 113" transform="translate(4.477 10.329)">
      <g id="Group_112" data-name="Group 112">
        <rect id="Rectangle_188" data-name="Rectangle 188" class="cls-1" width="6.886" height="0.688"/>
      </g>
    </g>
    <g id="Group_115" data-name="Group 115">
      <g id="Group_114" data-name="Group 114">
        <path id="Path_116" data-name="Path 116" class="cls-2" d="M16.57,0H1.764A1.726,1.726,0,0,0,0,1.679V7.873A1.726,1.726,0,0,0,1.721,9.6a1.653,1.653,0,0,0,1.034-.353v6.205a.424.424,0,0,0,.388.388h12.05c.189,0,.3-.2.3-.388V9.245A1.851,1.851,0,0,0,16.53,9.6a1.726,1.726,0,0,0,1.721-1.725V1.679A1.658,1.658,0,0,0,16.57,0ZM14.805,7.877v7.271H3.443V4.434c0-.189.2-.3.388-.3H14.5a.276.276,0,0,1,.3.3l0,3.443Zm2.755,0a1.034,1.034,0,0,1-2.067,0V4.131h.688V3.443H2.067v.688h.688V7.877a1.034,1.034,0,0,1-2.067,0V1.679A1.036,1.036,0,0,1,1.764.688H16.57a.963.963,0,0,1,.991.991V7.873Z"/>
      </g>
    </g>
  </g>
</svg>