<svg xmlns="http://www.w3.org/2000/svg" width="50.001" height="50.001" viewBox="0 0 50.001 50.001">
  <g id="Group_124304" data-name="Group 124304" transform="translate(17835 22662.313)">
    <path id="Subtraction_1" data-name="Subtraction 1" d="M20.51,40.958a3.972,3.972,0,0,1-2.828-1.172L1.237,23.341a4,4,0,0,1,0-5.657L17.682,1.238a4,4,0,0,1,5.657,0L39.785,17.684a4,4,0,0,1,0,5.657L23.339,39.786A3.974,3.974,0,0,1,20.51,40.958ZM20.129,14.4h0a.184.184,0,0,0-.005.053L20,14.787c-.05.128-.082.22-.1.286a.864.864,0,0,1-.185.349l-.011.013-.121.262c-.615.787-.82,1.082-1.1,1.49l-.005.008c-.153.221-.31.447-.549.779s-.54.752-.862,1.195l-.082.113a56.225,56.225,0,0,0-3.171,4.655,4.344,4.344,0,0,1-.383.552l-.009.011a1.376,1.376,0,0,0-.251.4,3.876,3.876,0,0,1-.561,1.092.973.973,0,0,0-.205.388.683.683,0,0,1-.13.337.545.545,0,0,0-.086.538.708.708,0,0,0,.738.639h.023c.317-.019.479-.351.586-.571l.006-.013a1.089,1.089,0,0,1,.082-.15.941.941,0,0,0,.216-.559l.007-.037,0-.013a10.291,10.291,0,0,1,.511-1.514,15.091,15.091,0,0,1,1.2-2.287c.492-.839.988-1.617,1.559-2.448.49-.678.891-1.168,1.316-1.687l0,0c.162-.2.329-.4.508-.625.269-.323.546-.632.768-.879.369-.412.751-.838,1.157-1.36a.639.639,0,0,0,.2-.163l.01-.013.007-.014c.017-.033.068-.107.128-.193l.024-.035A8.132,8.132,0,0,0,21.7,14.6a1.106,1.106,0,0,0,.169-.271c.032,0,.063,0,.094,0h.092a15.009,15.009,0,0,1,2.254.153,7.377,7.377,0,0,1,1.956.548,1.933,1.933,0,0,1,1.22,1.252,1.094,1.094,0,0,1-.328.973A8.216,8.216,0,0,1,24.612,18.8l-.054.024c-.181.082-.352.16-.516.239-.57.285-1.5.635-2.186.891l-.1.037-.129.049-.061.025-.281.118a8.786,8.786,0,0,0-2.41,1.249.666.666,0,0,0-.239.669c.114.385.649.593.947.655a16.388,16.388,0,0,1,3.307,1.092c.281.143.61.275.928.4a9.1,9.1,0,0,1,1.562.742l.3.191.03.019a13.035,13.035,0,0,1,1.355.944,1.34,1.34,0,0,1,.318.394,2.369,2.369,0,0,0,.205.3.593.593,0,0,1,.155.31,2.021,2.021,0,0,0,.062.212l0,.014.008.012a.877.877,0,0,0,.695.311.459.459,0,0,0,.347-.122.279.279,0,0,0,.071-.221l-.032-.437-.31-.427a6.424,6.424,0,0,0-1.556-1.227c-.724-.473-1.451-.9-1.532-.947-.8-.468-1.762-.908-2.692-1.334-.655-.3-1.273-.581-1.811-.863a2.222,2.222,0,0,0-.247-.111l-.008,0c-.131-.054-.349-.144-.355-.215,0-.025.021-.164.553-.473s1.3-.636,2.116-.99A31.741,31.741,0,0,0,26.3,18.776c1.016-.588,2.391-1.478,2.6-2.4a.973.973,0,0,0-.151-.793,4.508,4.508,0,0,0-2.859-1.6,17.669,17.669,0,0,0-3.766-.361.412.412,0,0,0-.078-.3.491.491,0,0,0-.393-.129c-.04,0-.086,0-.143,0a1.683,1.683,0,0,0-.882.444l-.562.028c-.874.051-1.716.133-2.574.251a18.154,18.154,0,0,0-3.939.886,2.5,2.5,0,0,0-.6.35c-.3.227-.443.435-.434.618s.159.312.444.377a1.179,1.179,0,0,0,.266.029,2.857,2.857,0,0,0,.582-.08c.086-.018.167-.035.243-.047a1.337,1.337,0,0,0,.571-.342c.108-.087.231-.187.367-.282l.005,0a3.122,3.122,0,0,1,.613-.38c.335-.07.682-.138,1-.2.5-.092.905-.152,1.105-.179.759-.1,1.576-.208,2.413-.271Z" transform="translate(-17830.584 -22657.826)" fill="#463728"/>
    <path id="Rectangle_3464" data-name="Rectangle 3464" d="M4.419,1.3A3.12,3.12,0,0,0,1.3,4.419V30.936a3.12,3.12,0,0,0,3.12,3.12H30.936a3.12,3.12,0,0,0,3.12-3.12V4.419a3.12,3.12,0,0,0-3.12-3.12H4.419m0-1.3H30.936a4.419,4.419,0,0,1,4.419,4.419V30.936a4.419,4.419,0,0,1-4.419,4.419H4.419A4.419,4.419,0,0,1,0,30.936V4.419A4.419,4.419,0,0,1,4.419,0Z" transform="translate(-17835 -22637.313) rotate(-45)" fill="#463728"/>
  </g>
</svg>
