<svg id="Group_101224" data-name="Group 101224" xmlns="http://www.w3.org/2000/svg" width="63" height="63" viewBox="0 0 63 63">
  <g id="Ellipse_50" data-name="Ellipse 50" fill="none" stroke="#a88142" stroke-width="3">
    <circle cx="31.5" cy="31.5" r="31.5" stroke="none"/>
    <circle cx="31.5" cy="31.5" r="30" fill="none"/>
  </g>
  <g id="discount" transform="translate(12.958 12.371)">
    <g id="Group_101090" data-name="Group 101090" transform="translate(0 0)">
      <g id="Group_101089" data-name="Group 101089" transform="translate(0 0)">
        <path id="Path_3427" data-name="Path 3427" d="M44.672,19.27a1.1,1.1,0,0,1,0-.973l1.4-2.867A3.262,3.262,0,0,0,44.666,11.1L41.847,9.6a1.1,1.1,0,0,1-.572-.787l-.551-3.143A3.262,3.262,0,0,0,37.039,3l-3.159.447a1.1,1.1,0,0,1-.926-.3L30.661.925a3.261,3.261,0,0,0-4.554,0L23.814,3.143a1.1,1.1,0,0,1-.926.3L19.729,3a3.261,3.261,0,0,0-3.684,2.677l-.551,3.143a1.1,1.1,0,0,1-.572.787L12.1,11.1A3.262,3.262,0,0,0,10.7,15.431L12.1,18.3a1.1,1.1,0,0,1,0,.973l-1.4,2.867A3.262,3.262,0,0,0,12.1,26.468l2.819,1.5a1.1,1.1,0,0,1,.572.787l.551,3.143A3.26,3.26,0,0,0,19.26,34.6a3.351,3.351,0,0,0,.469-.033l3.159-.447a1.1,1.1,0,0,1,.926.3l2.293,2.218a3.261,3.261,0,0,0,4.554,0l2.293-2.218a1.1,1.1,0,0,1,.926-.3l3.159.447a3.261,3.261,0,0,0,3.684-2.677l.551-3.143a1.1,1.1,0,0,1,.572-.787l2.819-1.5a3.262,3.262,0,0,0,1.407-4.331ZM43.65,24.554l-2.819,1.5a3.254,3.254,0,0,0-1.691,2.327l-.551,3.143a1.1,1.1,0,0,1-1.247.906l-3.159-.447a3.253,3.253,0,0,0-2.736.889l-2.293,2.218a1.1,1.1,0,0,1-1.541,0l-2.293-2.218a3.251,3.251,0,0,0-2.269-.922,3.327,3.327,0,0,0-.466.033l-3.159.447a1.1,1.1,0,0,1-1.247-.906l-.551-3.143a3.254,3.254,0,0,0-1.691-2.327l-2.819-1.5a1.1,1.1,0,0,1-.476-1.465l1.4-2.867a3.254,3.254,0,0,0,0-2.876l-1.4-2.867a1.1,1.1,0,0,1,.476-1.465l2.819-1.5a3.254,3.254,0,0,0,1.691-2.327l.551-3.143a1.1,1.1,0,0,1,1.247-.906l3.159.447A3.254,3.254,0,0,0,25.321,4.7l2.293-2.218a1.1,1.1,0,0,1,1.541,0L31.448,4.7a3.254,3.254,0,0,0,2.736.889l3.159-.447a1.1,1.1,0,0,1,1.247.906l.551,3.143a3.254,3.254,0,0,0,1.691,2.327l2.819,1.5a1.1,1.1,0,0,1,.476,1.465l-1.4,2.867a3.254,3.254,0,0,0,0,2.876l1.4,2.867A1.1,1.1,0,0,1,43.65,24.554Z" transform="translate(-10.359 0.002)" fill="#fff"/>
      </g>
    </g>
    <g id="Group_101092" data-name="Group 101092" transform="translate(9.791 10.552)">
      <g id="Group_101091" data-name="Group 101091">
        <path id="Path_3428" data-name="Path 3428" d="M159.942,144.109a1.083,1.083,0,0,0-1.532,0l-14.3,14.3a1.083,1.083,0,1,0,1.532,1.532l14.3-14.3A1.083,1.083,0,0,0,159.942,144.109Z" transform="translate(-143.792 -143.792)" fill="#fff"/>
      </g>
    </g>
    <g id="Group_101094" data-name="Group 101094" transform="translate(9.719 9.034)">
      <g id="Group_101093" data-name="Group 101093">
        <path id="Path_3429" data-name="Path 3429" d="M146.775,123.116a3.973,3.973,0,1,0,3.973,3.973A3.977,3.977,0,0,0,146.775,123.116Zm0,5.779a1.806,1.806,0,1,1,1.806-1.806A1.808,1.808,0,0,1,146.775,128.895Z" transform="translate(-142.802 -123.116)" fill="#fff"/>
      </g>
    </g>
    <g id="Group_101096" data-name="Group 101096" transform="translate(18.386 20.591)">
      <g id="Group_101095" data-name="Group 101095">
        <path id="Path_3430" data-name="Path 3430" d="M264.895,280.61a3.973,3.973,0,1,0,3.973,3.973A3.977,3.977,0,0,0,264.895,280.61Zm0,5.779a1.806,1.806,0,1,1,1.806-1.806A1.808,1.808,0,0,1,264.895,286.388Z" transform="translate(-260.922 -280.61)" fill="#fff"/>
      </g>
    </g>
  </g>
</svg>
