<svg id="Group_2409" data-name="Group 2409" xmlns="http://www.w3.org/2000/svg" viewBox="0 0 54.01 54">
  <defs>
    <style>
      .cls-1 {
        fill: #5c6670;
      }
    </style>
  </defs>
  <g id="Group_2408" data-name="Group 2408">
    <path id="Path_1236" data-name="Path 1236" class="cls-1" d="M173.582,124.993a2.3,2.3,0,0,0-.464.042,3.581,3.581,0,0,0-6.265,0,2.235,2.235,0,0,0-.464-.042,2.705,2.705,0,0,0-2.7,2.7,2.554,2.554,0,0,0,.169.9h-3.765v-5.4h4.5a.9.9,0,0,0,.9-.9v-36a.9.9,0,0,0-.9-.9h-27a.9.9,0,0,0-.9.9v43.2a.9.9,0,0,0,.9.9h36a2.7,2.7,0,1,0-.011-5.4Zm-13.5-37.8h3.6v5.4h-3.6Zm0,7.2h3.6v5.4h-3.6Zm0,7.193h3.6v5.4h-3.6Zm0,7.2h3.6v5.4h-3.6Zm0,7.2h3.6v5.4h-3.6Zm-18,12.593h-3.6v-5.4h3.6Zm0-7.193h-3.6V116h3.6Zm0-7.2h-3.6v-5.4h3.6Zm0-7.2h-3.6v-5.4h3.6Zm0-7.193h-3.6V94.4h3.6Zm0-7.2h-3.6v-5.4h3.6Zm5.4,36h-3.6v-5.4h3.6Zm0-7.193h-3.6V116h3.6Zm0-7.2h-3.6v-5.4h3.6Zm0-7.2h-3.6v-5.4h3.6Zm0-7.193h-3.6V94.4h3.6Zm0-7.2h-3.6v-5.4h3.6Zm5.4,36h-3.6v-5.4h3.6Zm0-7.193h-3.6V116h3.6Zm0-7.2h-3.6v-5.4h3.6Zm0-7.2h-3.6v-5.4h3.6Zm0-7.193h-3.6V94.4h3.6Zm0-7.2h-3.6v-5.4h3.6Zm5.4,36h-3.6v-5.4h3.6Zm0-7.193h-3.6V116h3.6Zm0-7.2h-3.6v-5.4h3.6Zm0-7.2h-3.6v-5.4h3.6Zm0-7.193h-3.6V94.4h3.6Zm0-7.2h-3.6v-5.4h3.6Zm15.3,36h-7.2a.9.9,0,1,1,.485-1.645.9.9,0,0,0,1.361-.559,1.8,1.8,0,0,1,3.5,0,.9.9,0,0,0,.538.633.876.876,0,0,0,.823-.074.921.921,0,0,1,1.392.749A.9.9,0,0,1,173.582,128.589Z" transform="translate(-122.282 -76.393)"/>
    <path id="Path_1237" data-name="Path 1237" class="cls-1" d="M19.8,6.3V3.6h6.3a.9.9,0,0,0,.9-.9V1.8h3.6v.9a.9.9,0,0,0,.9.9h6.3V5.4H22.5a.9.9,0,0,0,0,1.793h22.5V44.529a.9.9,0,0,0,1.793,0V6.3a.9.9,0,0,0-.9-.9h-6.3V2.7a.9.9,0,0,0-.9-.9H32.4V.9a.9.9,0,0,0-.9-.9H26.1a.9.9,0,0,0-.9.9v.9h-6.3a.9.9,0,0,0-.9.9v2.7h-6.3a.9.9,0,0,0-.9.9v45.9H5.4V48.495A4.513,4.513,0,0,0,9,44.086c0-.116-.053-11.7-4.5-11.7S0,43.98,0,44.1a4.513,4.513,0,0,0,3.6,4.409V52.2H.9a.9.9,0,1,0,0,1.793H11.7a.9.9,0,0,0,.9-.9V7.2h6.3A.907.907,0,0,0,19.8,6.3ZM1.8,44.1c0-4.482,1.2-9.9,2.7-9.9s2.7,5.421,2.7,9.9a2.7,2.7,0,1,1-5.4,0Z" transform="translate(0)"/>
  </g>
</svg>
