<svg xmlns="http://www.w3.org/2000/svg" viewBox="0 0 62.194 45">
  <defs>
    <style>
      .cls-1 {
        fill: #5c6670;
      }
    </style>
  </defs>
  <path id="park-icon" class="cls-1" d="M61.187,42.985H54.672V34.16a5.121,5.121,0,0,0,4.3-4.943,33.847,33.847,0,0,0-1.3-7.16c-1.155-4.057-2.418-5.937-4-5.937s-2.861,1.894-4,5.937a33.563,33.563,0,0,0-1.3,7.16,5.121,5.121,0,0,0,4.3,4.943v8.825H46.075V17.973a3.153,3.153,0,0,0,2.149-3v-4.3a1.015,1.015,0,0,0-1.007-1.007H46.075V8.463h2.216a1.007,1.007,0,1,0,0-2.015H41.843a1.007,1.007,0,0,0,0,2.015H44.06V9.672H42.918a1.015,1.015,0,0,0-1.007,1.007v4.3a3.178,3.178,0,0,0,2.149,3V42.985H40.54l-.685-3.358h.913a1.007,1.007,0,1,0,0-2.015H38.552V35.328h1.142a1.007,1.007,0,1,0,0-2.015H38.552V32.1h1.142a1.007,1.007,0,1,0,0-2.015H20.351a1.007,1.007,0,0,0,0,2.015h1.142v1.209H20.351a1.007,1.007,0,1,0,0,2.015h1.142v2.284H19.276a1.007,1.007,0,0,0,0,2.015h.913L19.5,42.985H11.687V33.112a8.539,8.539,0,0,0,7.522-8.463c0-7.563-7.307-23.4-7.616-24.072a1.011,1.011,0,0,0-1.827,0c-.309.672-7.616,16.509-7.616,24.072a8.529,8.529,0,0,0,7.522,8.463v9.873H1.007a1.007,1.007,0,0,0,0,2.015H61.187a1.007,1.007,0,1,0,0-2.015ZM50.373,29.216a31.216,31.216,0,0,1,1.142-6.3c1.075-3.949,1.988-4.661,2.149-4.769.175.107,1.075.833,2.149,4.769a32.238,32.238,0,0,1,1.142,6.3,3.055,3.055,0,0,1-2.284,2.875V30.022a1.007,1.007,0,0,0-2.015,0v2.069A3.055,3.055,0,0,1,50.373,29.216Zm-6.448-17.53h2.284v3.291a1.142,1.142,0,1,1-2.284,0ZM4.164,24.649c0-5.588,4.527-16.6,6.515-21.17,1.988,4.554,6.515,15.582,6.515,21.17a6.519,6.519,0,0,1-5.507,6.434v-3.21h0V25.066l2.928-2.928a1.007,1.007,0,0,0-1.424-1.424l-1.5,1.5V20.351a1.007,1.007,0,1,0-2.015,0v4.3h0v.793l-1.5-1.5a1.007,1.007,0,1,0-1.424,1.424L9.672,28.29v2.794A6.519,6.519,0,0,1,4.164,24.649ZM23.507,32.1h13.03v1.209H23.507Zm0,3.224h13.03v2.284H23.507Zm-1.263,4.3H37.8l.685,3.358H21.56Z"/>
</svg>
