<svg class="filter-icon" xmlns="http://www.w3.org/2000/svg" xmlns:xlink="http://www.w3.org/1999/xlink" width="21px" height="21px">
                    <!--<path fill-rule="evenodd" fill="rgba(142, 143, 147, 1)"
                          d="M20.363,1.251 L0.628,1.251 C0.281,1.251 -0.000,0.971 -0.000,0.626 C-0.000,0.280 0.281,0.000 0.628,0.000 L20.363,0.000 C20.711,0.000 20.992,0.280 20.992,0.626 C20.992,0.971 20.711,1.251 20.363,1.251 ZM13.293,10.151 L13.293,18.203 L8.045,21.000 L8.045,10.245 L0.242,1.439 L21.000,1.439 L13.293,10.151 ZM9.302,9.773 L9.302,18.911 L12.036,17.454 L12.036,9.679 L18.218,2.690 L3.026,2.690 L9.302,9.773 Z" /> -->
                    <path fill-rule="evenodd" fill="rgba(142, 143, 147, 1)" d="M17.6,14.1V0.7c0-0.4-0.3-0.6-0.6-0.6s-0.6,0.3-0.6,0.6v13.3c-1.6,0.3-2.7,1.8-2.4,3.4c0.2,1.2,1.2,2.1,2.4,2.4
    v0.5c0,0.4,0.3,0.6,0.6,0.6s0.6-0.3,0.6-0.6v-0.5c1.6-0.3,2.6-1.9,2.3-3.5C19.7,15.2,18.8,14.3,17.6,14.1z M17.6,14.1L17.6,14.1
    C17.6,14.1,17.6,14.1,17.6,14.1L17.6,14.1z M16.3,14.1L16.3,14.1z M16.9,18.7c-0.9,0-1.7-0.8-1.7-1.8c0-0.9,0.8-1.7,1.8-1.7
    c0.9,0,1.7,0.8,1.7,1.7C18.7,17.9,17.9,18.7,16.9,18.7L16.9,18.7z M3.7,6.8v-6c0-0.4-0.3-0.6-0.6-0.6S2.4,0.4,2.4,0.7v6
    c-1.6,0.3-2.7,1.8-2.4,3.5c0.2,1.2,1.2,2.1,2.4,2.4v7.8c0,0.4,0.3,0.6,0.6,0.6s0.6-0.3,0.6-0.6v-7.8c1.6-0.3,2.7-1.9,2.3-3.5
    C5.8,7.9,4.9,7,3.7,6.8L3.7,6.8z M3.7,6.8C3.7,6.8,3.6,6.8,3.7,6.8C3.6,6.7,3.7,6.7,3.7,6.8L3.7,6.8z M2.5,6.8
    C2.5,6.8,2.5,6.8,2.5,6.8C2.4,6.7,2.5,6.7,2.5,6.8L2.5,6.8z M3,11.4c-0.9,0-1.7-0.8-1.7-1.8S2.2,7.9,3.2,8c0.9,0,1.7,0.8,1.7,1.7
    C4.8,10.6,4,11.4,3,11.4L3,11.4z M13.3,3c0-1.7-1.3-3.1-3-3.1c-1.7,0-3.1,1.3-3.1,3c0,1.5,1,2.8,2.4,3.1v14.5c0,0.4,0.3,0.6,0.6,0.6
    s0.6-0.3,0.6-0.6V5.9C12.3,5.6,13.3,4.4,13.3,3L13.3,3z M9.6,5.9C9.6,5.9,9.6,5.9,9.6,5.9C9.6,5.9,9.6,5.9,9.6,5.9L9.6,5.9z
     M10.8,5.9L10.8,5.9C10.8,5.9,10.8,5.9,10.8,5.9L10.8,5.9z M10.2,4.7c-0.9,0-1.7-0.8-1.7-1.8s0.8-1.7,1.8-1.7C11.3,1.3,12,2,12,3
    C12,3.9,11.2,4.7,10.2,4.7C10.2,4.7,10.2,4.7,10.2,4.7L10.2,4.7z"></path>
                </svg>