<svg xmlns="http://www.w3.org/2000/svg" xmlns:xlink="http://www.w3.org/1999/xlink" width="95.107" height="44.055" viewBox="0 0 95.107 44.055">
  <defs>
    <style>.a,.b{fill:none;}.a{stroke:rgba(0,0,0,0);}.c{clip-path:url(#a);}.d{fill:#fff;}.e,.f{fill:#575851;}.f{font-size:18.042px;font-family:OpenSans-Bold, Open Sans;font-weight:700;}.g{clip-path:url(#b);}</style>
    <clipPath id="a">
      <rect class="a" width="95.107" height="44.055" transform="translate(0 0)"/>
    </clipPath>
    <clipPath id="b">
      <rect class="b" width="95.107" height="44.055" transform="translate(0 0)"/>
    </clipPath>
  </defs>
  <g transform="translate(-260.946 -359.945)">
    <g transform="translate(260.946 359.944)">
      <g class="c">
        <path class="d" d="M95.107,44.055V0S82.637,6.977,47.554,6.977,0,0,0,0V44.055S10.974,37.57,47.554,37.57s47.553,6.485,47.553,6.485"/>
        <path class="e" d="M95.607,44.931l-.754-.446c-.055-.032-2.856-1.63-10.017-3.208-6.643-1.463-18.5-3.208-37.281-3.208s-30.639,1.744-37.282,3.208C3.073,42.863.281,44.47.254,44.486l-.753.441V-.853l.744.416C.275-.419,3.433,1.311,10.812,3.02,17.625,4.6,29.529,6.477,47.554,6.477S77.483,4.6,84.3,3.02C91.674,1.311,94.832-.419,94.863-.437l.743-.414V44.931ZM.5.8V43.243a47.422,47.422,0,0,1,9.451-2.918,125.742,125.742,0,0,1,14.691-2.239c6.843-.674,14.551-1.016,22.912-1.016s16.068.342,22.911,1.016a125.738,125.738,0,0,1,14.691,2.239,47.422,47.422,0,0,1,9.451,2.918V.8A53.543,53.543,0,0,1,84.6,3.976,124.367,124.367,0,0,1,69.838,6.384,210.951,210.951,0,0,1,47.554,7.477,210.955,210.955,0,0,1,25.27,6.384,124.375,124.375,0,0,1,10.508,3.976,53.55,53.55,0,0,1,.5.8Z"/>
      </g>
      <text class="f" transform="translate(43.592 29.289)">
        <tspan x="0" y="0">360°</tspan>
      </text>
      <g class="g">
        <path class="e" d="M39.157,26.181c-.463,4.337-9.062,5.9-9.062,5.9v2.161l-8.48-4.776,8.48-4.7v2.369s8.48-1.7,8.522-7.108a18.248,18.248,0,0,1,.54,6.152"/>
        <path class="e" d="M38.076,22.028V18.533s-8.729-10.724-21.7,0c0,0-.665,3.242.5,3.991a17.915,17.915,0,0,1,21.2-.5"/>
        <path class="e" d="M20.576,31c-1.164-.333-3.824-2.951-4.656-4.157s-.166-5.73-.166-5.73A6.316,6.316,0,0,0,20.576,25.6Z"/>
      </g>
    </g>
  </g>
</svg>