<svg xmlns="http://www.w3.org/2000/svg" width="49" height="48" viewBox="0 0 49 48">
  <metadata><?xpacket begin="﻿" id="W5M0MpCehiHzreSzNTczkc9d"?>
<x:xmpmeta xmlns:x="adobe:ns:meta/" x:xmptk="Adobe XMP Core 5.6-c138 79.159824, 2016/09/14-01:09:01        ">
   <rdf:RDF xmlns:rdf="http://www.w3.org/1999/02/22-rdf-syntax-ns#">
      <rdf:Description rdf:about=""/>
   </rdf:RDF>
</x:xmpmeta>
                                                                                                    
                                                                                                    
                                                                                                    
                                                                                                    
                                                                                                    
                                                                                                    
                                                                                                    
                                                                                                    
                                                                                                    
                                                                                                    
                                                                                                    
                                                                                                    
                                                                                                    
                                                                                                    
                                                                                                    
                                                                                                    
                                                                                                    
                                                                                                    
                                                                                                    
                                                                                                    
                           
<?xpacket end="w"?></metadata>
<defs>
    <style>
      .cls-1 {
        fill: #fff;
        fill-rule: evenodd;
      }
    </style>
  </defs>
  <path class="cls-1" d="M332.611,756H310.856a3.079,3.079,0,0,1-3.079-3.072V711.073A3.079,3.079,0,0,1,310.856,708h21.755a3.079,3.079,0,0,1,3.078,3.073v41.855A3.079,3.079,0,0,1,332.611,756Zm-21.755-46.714a1.79,1.79,0,0,0-1.79,1.787v41.855a1.79,1.79,0,0,0,1.79,1.786h21.755a1.79,1.79,0,0,0,1.79-1.786V711.073a1.79,1.79,0,0,0-1.79-1.787H310.856Zm10.877,44.5a3.143,3.143,0,1,1,3.149-3.143A3.15,3.15,0,0,1,321.733,753.786Zm0-5a1.857,1.857,0,1,0,1.861,1.857A1.861,1.861,0,0,0,321.733,748.786Zm10.521-2.215H310.783v-33h21.471v33Zm-20.183-1.285h18.894V714.857H312.071v30.429Zm-8.943.41c-0.238-.21-5.842-5.227-6.113-12.665-0.176-4.795,1.918-9.451,6.223-13.838l0.92,0.9c-4.047,4.126-6.018,8.463-5.856,12.892,0.252,6.892,5.625,11.7,5.679,11.748Zm2.073-23.125h-1.288v-3h-3.436v-1.285H305.2v4.285Zm34.561,22.379-0.92-.9c4.043-4.121,6.013-8.454,5.856-12.879-0.246-6.881-5.626-11.713-5.68-11.761l0.853-.964c0.238,0.211,5.842,5.228,6.114,12.666C346.16,735.907,344.066,740.563,339.762,744.95Zm2.8,0.764h-4.724v-4.285h1.288v3h3.436v1.285Z" transform="translate(-297 -708)"/>
</svg>
