<svg xmlns="http://www.w3.org/2000/svg" xmlns:xlink="http://www.w3.org/1999/xlink" width="22.969" height="23" viewBox="0 0 22.969 23">
  <metadata><?xpacket begin="﻿" id="W5M0MpCehiHzreSzNTczkc9d"?>
<x:xmpmeta xmlns:x="adobe:ns:meta/" x:xmptk="Adobe XMP Core 5.6-c138 79.159824, 2016/09/14-01:09:01        ">
   <rdf:RDF xmlns:rdf="http://www.w3.org/1999/02/22-rdf-syntax-ns#">
      <rdf:Description rdf:about=""/>
   </rdf:RDF>
</x:xmpmeta>
                                                                                                    
                                                                                                    
                                                                                                    
                                                                                                    
                                                                                                    
                                                                                                    
                                                                                                    
                                                                                                    
                                                                                                    
                                                                                                    
                                                                                                    
                                                                                                    
                                                                                                    
                                                                                                    
                                                                                                    
                                                                                                    
                                                                                                    
                                                                                                    
                                                                                                    
                                                                                                    
                           
<?xpacket end="w"?></metadata>
<defs>
    <style>
      .cls-1 {
        fill: #fff;
        fill-rule: evenodd;
        filter: url(#filter);
      }
    </style>
    <filter id="filter" x="640.031" y="1237" width="22.969" height="23" filterUnits="userSpaceOnUse">
      <feOffset result="offset" dx="0.5" dy="0.866" in="SourceAlpha"/>
      <feGaussianBlur result="blur"/>
      <feFlood result="flood" flood-color="#242424" flood-opacity="0.4"/>
      <feComposite result="composite" operator="in" in2="blur"/>
      <feBlend result="blend" in="SourceGraphic"/>
    </filter>
  </defs>
  <path class="cls-1" d="M646.287,1246.92a0.207,0.207,0,0,1-.077-0.01,5.463,5.463,0,0,1-.758-0.22,8.149,8.149,0,0,1-4.154-4.54,16.851,16.851,0,0,1-.825-2.71c-0.136-.55-0.275-1.13-0.443-1.66a0.593,0.593,0,0,1,.861-0.7,9.179,9.179,0,0,0,3.135.98l0.952,0.09a17.61,17.61,0,0,1,4.532.81,10.254,10.254,0,0,1,4.874,3.66,0.359,0.359,0,0,1,.015.34,0.381,0.381,0,0,1-.277.19,16.968,16.968,0,0,0-3.544.71,0.332,0.332,0,0,1-.318-0.05c-0.037-.02-0.075-0.05-0.112-0.07a0.273,0.273,0,0,1,0,.07,0.354,0.354,0,0,1-.215.29,8.052,8.052,0,0,0-1.712.95,6.809,6.809,0,0,0-1.64,1.71A0.354,0.354,0,0,1,646.287,1246.92Zm-5.51-9.11c0.143,0.48.265,0.98,0.384,1.46a16.165,16.165,0,0,0,.787,2.6h0a7.816,7.816,0,0,0,3.776,4.17,2.678,2.678,0,0,0,.409.13,7.471,7.471,0,0,1,1.668-1.68,9.141,9.141,0,0,1,1.24-.75c-0.507-.26-1.055-0.51-1.585-0.75-0.259-.11-0.527-0.23-0.789-0.35a0.353,0.353,0,0,1,.243-0.66c0.3,0.08.619,0.14,0.955,0.2a11.425,11.425,0,0,1,1.449.35,6.313,6.313,0,0,1,1.2.61,17.242,17.242,0,0,1,2.943-.61,10.158,10.158,0,0,0-4.2-2.92,17.037,17.037,0,0,0-4.349-.77l-0.959-.09A9.492,9.492,0,0,1,640.777,1237.81Zm4.379,21.19a0.609,0.609,0,0,1-.418-0.17,1.223,1.223,0,0,1-.312-0.64,0.327,0.327,0,0,1-.014-0.05,10.9,10.9,0,0,1-.25-2.41l0-.14a16.867,16.867,0,0,1,.935-6.08,11.522,11.522,0,0,1,1.5-3.03,6.9,6.9,0,0,1,1.537-1.55,8.584,8.584,0,0,1,2.042-1.09c0.23-.09.472-0.17,0.721-0.24a19.775,19.775,0,0,1,3.418-.63l0.823-.09a15.839,15.839,0,0,0,5.87-1.39,0.591,0.591,0,0,1,.339-0.08,0.652,0.652,0,0,1,.528.27,0.662,0.662,0,0,1,.1.61c-0.218.68-.4,1.42-0.577,2.14a21.882,21.882,0,0,1-1.067,3.48,9.428,9.428,0,0,1-7.307,5.98c-0.626.11-1.273,0.19-1.9,0.27a14,14,0,0,0-3.654.76,1.338,1.338,0,0,1-.453.1,0.713,0.713,0,0,1-.713-0.58,3.761,3.761,0,0,1,.808-2.52,7.852,7.852,0,0,1,1.377-1.59,5.894,5.894,0,0,0-2.209,2.62,7.974,7.974,0,0,0-.513,5.28,0.591,0.591,0,0,1-.274.68A0.647,0.647,0,0,1,645.156,1259Zm0.072-.67h0Zm16.041-16.19a16.574,16.574,0,0,1-6.061,1.44c-0.273.02-.546,0.05-0.818,0.08a19.922,19.922,0,0,0-3.294.61c-0.232.07-.458,0.14-0.672,0.22a8.046,8.046,0,0,0-1.876,1,6.294,6.294,0,0,0-1.382,1.4,10.769,10.769,0,0,0-1.4,2.85,16.135,16.135,0,0,0-.9,5.71,10.067,10.067,0,0,1,.754-2.78,7.326,7.326,0,0,1,4.616-3.98c0.466-.17.979-0.33,1.612-0.51a0.456,0.456,0,0,1,.328.85c-0.61.27-1.256,0.57-1.86,0.88a6.666,6.666,0,0,0-3.311,3.92,0.853,0.853,0,0,0-.006.49,0.463,0.463,0,0,0,.191-0.05,14.99,14.99,0,0,1,3.84-.81c0.616-.07,1.253-0.15,1.858-0.26a8.742,8.742,0,0,0,6.785-5.57,20.98,20.98,0,0,0,1.029-3.37C660.873,1243.56,661.053,1242.83,661.269,1242.14Zm0.022-.07h0Zm-0.118-.27h0Z" transform="translate(-640.031 -1237)"/>
</svg>
