<svg xmlns="http://www.w3.org/2000/svg" width="19" height="15" viewBox="0 0 19 15">
  <metadata><?xpacket begin="﻿" id="W5M0MpCehiHzreSzNTczkc9d"?>
<x:xmpmeta xmlns:x="adobe:ns:meta/" x:xmptk="Adobe XMP Core 5.6-c138 79.159824, 2016/09/14-01:09:01        ">
   <rdf:RDF xmlns:rdf="http://www.w3.org/1999/02/22-rdf-syntax-ns#">
      <rdf:Description rdf:about=""/>
   </rdf:RDF>
</x:xmpmeta>
                                                                                                    
                                                                                                    
                                                                                                    
                                                                                                    
                                                                                                    
                                                                                                    
                                                                                                    
                                                                                                    
                                                                                                    
                                                                                                    
                                                                                                    
                                                                                                    
                                                                                                    
                                                                                                    
                                                                                                    
                                                                                                    
                                                                                                    
                                                                                                    
                                                                                                    
                                                                                                    
                           
<?xpacket end="w"?></metadata>
<defs>
    <style>
      .cls-1 {
        fill: #a8a39b;
        fill-rule: evenodd;
      }
    </style>
  </defs>
  <path class="cls-1" d="M648.82,689h-0.733l-0.049-.018-0.1-.038c-0.078-.029-0.158-0.059-0.238-0.091a2.006,2.006,0,1,1,1.394.039c-0.045.016-.091,0.035-0.141,0.055-0.027.011-.054,0.023-0.082,0.033Zm-0.63-.528h0.522l0.026-.01c0.055-.023.111-0.046,0.172-0.067a1.455,1.455,0,1,0-1-.029c0.073,0.029.146,0.056,0.224,0.085Zm7.733-7.087-0.054,0a1.032,1.032,0,0,1-.705-0.5,8.164,8.164,0,0,0-13.389-.055,2.6,2.6,0,0,1-.2.269l-0.008.008a0.833,0.833,0,0,1-.583.279,0.767,0.767,0,0,1-.554-0.215c-0.44-.414-0.818-0.794-1.156-1.161l0,0a1.063,1.063,0,0,1-.047-1.364,11.127,11.127,0,0,1,7.333-4.463,11.278,11.278,0,0,1,11.048,4.373,1.8,1.8,0,0,1,.239.431c0.03,0.066.06,0.135,0.094,0.2L658,679.3l-0.066.119c-0.035.064-.069,0.132-0.1,0.2a2.048,2.048,0,0,1-.282.466c-0.2.233-.423,0.45-0.638,0.659-0.085.083-.173,0.168-0.257,0.253A1.1,1.1,0,0,1,655.923,681.385Zm-7.463-4.554a8.732,8.732,0,0,1,7.156,3.754,0.532,0.532,0,0,0,.3.272,0.547,0.547,0,0,0,.346-0.224c0.088-.087.177-0.175,0.264-0.259,0.216-.21.42-0.409,0.606-0.625a1.678,1.678,0,0,0,.208-0.353c0.016-.034.033-0.068,0.05-0.1l-0.047-.107a1.393,1.393,0,0,0-.166-0.311,11.7,11.7,0,0,0-4.646-3.585,11.074,11.074,0,0,0-5.887-.593,10.3,10.3,0,0,0-3.925,1.432,11.572,11.572,0,0,0-3.055,2.826,0.547,0.547,0,0,0,.022.7c0.328,0.357.7,0.727,1.127,1.133a0.211,0.211,0,0,0,.153.065,0.286,0.286,0,0,0,.191-0.1,2.059,2.059,0,0,0,.158-0.213l0.006-.009A8.751,8.751,0,0,1,648.46,676.831Zm3.849,8.184-0.046,0a0.9,0.9,0,0,1-.653-0.4,3.791,3.791,0,0,0-2.255-1.485,3.985,3.985,0,0,0-2.134.077,4.177,4.177,0,0,0-1.756,1.2c-0.036.04-.072,0.086-0.109,0.135s-0.1.124-.154,0.185a0.848,0.848,0,0,1-.6.287,0.832,0.832,0,0,1-.6-0.252c-0.426-.411-0.769-0.755-1.08-1.083a1.049,1.049,0,0,1-.01-1.474,7.173,7.173,0,0,1,6.022-2.522,7.09,7.09,0,0,1,5.1,2.579,1.31,1.31,0,0,1,.21.392c0.023,0.059.047,0.121,0.076,0.181l0.056,0.12-0.064.115c-0.033.058-.063,0.119-0.095,0.184a2.053,2.053,0,0,1-.284.464c-0.231.262-.484,0.508-0.728,0.746l-0.241.237A0.943,0.943,0,0,1,652.309,685.015Zm-3.927-2.52a5.111,5.111,0,0,1,1.092.122,4.378,4.378,0,0,1,2.575,1.684,0.415,0.415,0,0,0,.25.186,0.424,0.424,0,0,0,.275-0.155l0.245-.239c0.237-.231.482-0.47,0.7-0.717a1.658,1.658,0,0,0,.207-0.348c0.015-.031.03-0.063,0.046-0.094-0.013-.032-0.025-0.063-0.036-0.092a0.934,0.934,0,0,0-.121-0.244,6.553,6.553,0,0,0-4.711-2.388,6.763,6.763,0,0,0-3.078.5,7.068,7.068,0,0,0-2.5,1.84,0.533,0.533,0,0,0,0,.773c0.305,0.322.642,0.661,1.063,1.065a0.3,0.3,0,0,0,.2.1,0.318,0.318,0,0,0,.207-0.114c0.04-.043.079-0.093,0.12-0.146s0.086-.111.137-0.167A4.377,4.377,0,0,1,648.382,682.5Z" transform="translate(-639 -674)"/>
</svg>
