<svg xmlns="http://www.w3.org/2000/svg" width="13" height="17" viewBox="0 0 13 17">
  <metadata><?xpacket begin="﻿" id="W5M0MpCehiHzreSzNTczkc9d"?>
<x:xmpmeta xmlns:x="adobe:ns:meta/" x:xmptk="Adobe XMP Core 5.6-c138 79.159824, 2016/09/14-01:09:01        ">
   <rdf:RDF xmlns:rdf="http://www.w3.org/1999/02/22-rdf-syntax-ns#">
      <rdf:Description rdf:about=""/>
   </rdf:RDF>
</x:xmpmeta>
                                                                                                    
                                                                                                    
                                                                                                    
                                                                                                    
                                                                                                    
                                                                                                    
                                                                                                    
                                                                                                    
                                                                                                    
                                                                                                    
                                                                                                    
                                                                                                    
                                                                                                    
                                                                                                    
                                                                                                    
                                                                                                    
                                                                                                    
                                                                                                    
                                                                                                    
                                                                                                    
                           
<?xpacket end="w"?></metadata>
<defs>
    <style>
      .cls-1 {
        fill: #9f7f9a;
        fill-rule: evenodd;
      }
    </style>
  </defs>
  <path class="cls-1" d="M170.547,831.015a3.293,3.293,0,1,1,3.388-3.291A3.344,3.344,0,0,1,170.547,831.015Zm0-5.554a2.264,2.264,0,1,0,2.33,2.263A2.3,2.3,0,0,0,170.547,825.461ZM170.5,839l-0.358-.394c-5.733-6.31-6.069-9.1-6.081-9.219l-0.007-.078,0.018-.087a6.2,6.2,0,0,1-.068-0.909,6.5,6.5,0,0,1,13,0,6.141,6.141,0,0,1-.374,2.113c-1.246,4.169-5.549,8.054-5.732,8.218Zm-5.373-9.648c0.092,0.424.809,2.978,5.442,8.167,1.081-1.052,4.1-4.2,5.047-7.394l0.011-.031a5.128,5.128,0,0,0,.317-1.781,5.443,5.443,0,0,0-10.881,0,5.245,5.245,0,0,0,.07.845l0.016,0.1Z" transform="translate(-164 -822)"/>
</svg>
