<svg xmlns="http://www.w3.org/2000/svg" width="15" height="13" viewBox="0 0 15 13">
  <metadata><?xpacket begin="﻿" id="W5M0MpCehiHzreSzNTczkc9d"?>
<x:xmpmeta xmlns:x="adobe:ns:meta/" x:xmptk="Adobe XMP Core 5.6-c138 79.159824, 2016/09/14-01:09:01        ">
   <rdf:RDF xmlns:rdf="http://www.w3.org/1999/02/22-rdf-syntax-ns#">
      <rdf:Description rdf:about=""/>
   </rdf:RDF>
</x:xmpmeta>
                                                                                                    
                                                                                                    
                                                                                                    
                                                                                                    
                                                                                                    
                                                                                                    
                                                                                                    
                                                                                                    
                                                                                                    
                                                                                                    
                                                                                                    
                                                                                                    
                                                                                                    
                                                                                                    
                                                                                                    
                                                                                                    
                                                                                                    
                                                                                                    
                                                                                                    
                                                                                                    
                           
<?xpacket end="w"?></metadata>
<defs>
    <style>
      .cls-1 {
        fill: #9f7f9a;
        fill-rule: evenodd;
      }
    </style>
  </defs>
  <path class="cls-1" d="M495.759,347.674H485.24v-2.848h10.519v2.848Zm-9.664-.863H494.9v-1.122H486.1v1.122Zm8.7-3.365h-8.589V340h8.589v3.448Zm-7.734-.863h6.88v-1.722h-6.88v1.722ZM494.794,353h-8.589v-6.134h8.589V353Zm-7.734-.862h6.88v-4.409h-6.88v4.409Zm5.811-2.177h-4.743V349.1h4.743v0.863Zm0,1.38h-4.743v-0.863h4.743v0.863Zm4.144-1.682h-2.541V348.8h2.541a0.132,0.132,0,0,0,.129-0.131v-5a0.132,0.132,0,0,0-.129-0.131H483.984a0.132,0.132,0,0,0-.129.131v5a0.132,0.132,0,0,0,.129.131h2.541v0.863h-2.541a0.99,0.99,0,0,1-.984-0.994v-5a0.989,0.989,0,0,1,.984-0.993h13.031a0.989,0.989,0,0,1,.984.993v5A0.99,0.99,0,0,1,497.015,349.658Z" transform="translate(-483 -340)"/>
</svg>
