<!-- Generator: Adobe Illustrator 21.0.2, SVG Export Plug-In  -->
<svg version="1.1"
     xmlns="http://www.w3.org/2000/svg" xmlns:xlink="http://www.w3.org/1999/xlink" xmlns:a="http://ns.adobe.com/AdobeSVGViewerExtensions/3.0/"
     x="0px" y="0px" width="13px" height="27px" viewBox="0 0 13 27" style="enable-background:new 0 0 13 27;" xml:space="preserve">
<style type="text/css">
    .st0{fill:#a8a39b;}
</style>
<defs>
</defs>
<path class="st0" d="M6.2,7.5C5,7.5,4.1,6.4,4.1,5.2c0-1.2,1.1-2.2,2.3-2.1c1.2,0,2.1,1,2.1,2.2C8.5,6.5,7.5,7.5,6.2,7.5z M6.2,3.8
    c-0.8,0-1.5,0.7-1.5,1.6c0,0.8,0.7,1.5,1.6,1.5c0.8,0,1.5-0.7,1.5-1.5C7.8,4.5,7.1,3.8,6.2,3.8z M5.7,27c-0.5,0-0.8-0.4-1.2-1.4
    c-0.4-1-0.6-2-0.8-3c-0.5-2.3-0.8-4.7-0.8-7.1c0-0.4,0-3.8,0-4.5C2.4,10.5,0,7.8,0,5.8c0-0.4,0.3-1.3,1.9-3.2
    c0.8-0.9,1.6-1.8,2.6-2.5C4.7,0,4.9,0,5,0.1c0.4,0.2,0.1,0.8,0,1.1C4.9,1.5,4.6,1.9,4.3,2.4C3.6,3.5,2.7,5,2.7,5.7
    c0.4,0.9,0.9,1.7,1.7,2.4C5,8.2,5.6,8.2,6.2,8.2c0.2,0,0.3,0,0.4,0c0.5,0,0.9,0,1.4-0.1c0.3-0.2,1.7-1.8,1.7-2.6
    c0-1.1-1.2-2.5-2-3.5C7.4,1.7,7.2,1.3,7,1.1C6.8,0.9,6.7,0.5,6.9,0.2C7.2,0,7.5,0,7.8,0.1c1,0.5,2,1.3,2.7,2.2c1,1,1.6,2.2,1.8,3.5
    c-0.2,1.3-0.7,2.5-1.6,3.4c-0.6,0.8-1.2,1.5-1.5,1.8c0.1,1.2,0.1,1.5,0.1,2.4v0.8c0.3,0.2,1,0.8,1.7,1.4c1.8,1.5,2,2.1,2,2.5
    c0,0.2-0.1,0.4-0.2,0.5c-1.8,1.4-4.8,2.4-6,2.2c-0.2,0-0.4-0.1-0.6-0.3v0.4c0,0.6,0.1,1.3,0.1,2.1c0.2,2.3,0.2,3.4-0.2,3.8
    C6,26.9,5.9,27,5.7,27z M5.7,26.3L5.7,26.3z M4.3,1.1C3.7,1.6,3.1,2.2,2.5,2.9C1.2,4.5,0.7,5.4,0.7,5.8c0,1.9,2.8,4.9,2.8,4.9
    c0.1,0.1,0.1,0.1,0.1,0.2c0,0,0,4.2,0,4.6c0.1,2.3,0.3,4.5,0.8,6.7c0.6,2.8,1.1,3.8,1.3,4c0.1-0.3,0.1-0.7,0.1-1
    c0-0.6-0.1-1.4-0.1-2.2c-0.1-0.8-0.1-1.6-0.1-2.2c0-1.5,0.2-3,0.4-4.5c0-0.1,0.1-0.2,0.2-0.2c0.1,0,0.2-0.1,0.3,0
    c0,0,0.8,0.3,1.6,0.6c1.6,0.7,1.8,0.9,1.9,1.2c0,0.1,0,0.3-0.1,0.4c-0.5,0.5-1.1,0.9-1.8,1.2c-0.4,0.2-0.7,0.4-1.1,0.6
    c0.7,0,1.4-0.1,2-0.4c1.2-0.4,2.4-0.9,3.4-1.7c0-0.1-0.1-0.6-1.7-1.9c-0.9-0.8-1.9-1.5-1.9-1.5c-0.1-0.1-0.1-0.2-0.1-0.3v-0.9
    c0-1,0-1.3-0.1-2.5c0-0.1,0-0.2,0.1-0.2c0.8-0.9,3-3.4,3-4.8c0-0.9-0.7-2.4-2.5-4c-0.4-0.4-0.9-0.7-1.4-1c0.2,0.2,0.4,0.5,0.6,0.8
    c0.9,1.1,2.2,2.6,2.2,3.9c0,1.1-1.6,2.9-2,3.2C7.8,8.9,7.2,8.9,6.6,8.9c-0.2,0-0.3,0-0.4,0C4.3,8.9,4,8.7,3.9,8.6
    C3.9,8.5,2,6.7,2,5.7c0-0.9,0.9-2.4,1.7-3.7C3.9,1.8,4.1,1.4,4.3,1.1z M6.7,20.1L6.7,20.1z M6.5,16.9c-0.2,1-0.3,2-0.3,2.9
    c0.4-0.4,0.9-0.7,1.4-1c0.5-0.3,1-0.6,1.4-0.9C8.2,17.5,7.4,17.2,6.5,16.9L6.5,16.9z M7.2,0.4L7.2,0.4z"/>
</svg>
