<svg xmlns="http://www.w3.org/2000/svg" width="39.031" height="28" viewBox="0 0 39.031 28">
  <metadata><?xpacket begin="﻿" id="W5M0MpCehiHzreSzNTczkc9d"?>
<x:xmpmeta xmlns:x="adobe:ns:meta/" x:xmptk="Adobe XMP Core 5.6-c138 79.159824, 2016/09/14-01:09:01        ">
   <rdf:RDF xmlns:rdf="http://www.w3.org/1999/02/22-rdf-syntax-ns#">
      <rdf:Description rdf:about=""/>
   </rdf:RDF>
</x:xmpmeta>
                                                                                                    
                                                                                                    
                                                                                                    
                                                                                                    
                                                                                                    
                                                                                                    
                                                                                                    
                                                                                                    
                                                                                                    
                                                                                                    
                                                                                                    
                                                                                                    
                                                                                                    
                                                                                                    
                                                                                                    
                                                                                                    
                                                                                                    
                                                                                                    
                                                                                                    
                                                                                                    
                           
<?xpacket end="w"?></metadata>
<defs>
    <style>
      .cls-1 {
        fill: #fff;
        fill-rule: evenodd;
      }
    </style>
  </defs>
  <path class="cls-1" d="M668.616,1023.67a0.9,0.9,0,0,1-1.256-.22c-0.023-.03-1.312-1.82-2.983-1.82a2.926,2.926,0,0,0-2.09.85,5.228,5.228,0,0,1-3.65,1.36,2.108,2.108,0,0,1-.256-0.03,0.246,0.246,0,0,1-.083.02h-0.047c-0.181-.01-0.321-0.05-0.484-0.07s-0.334-.04-0.48-0.07a4.163,4.163,0,0,1-.549-0.16,3.859,3.859,0,0,1-.367-0.13,5.034,5.034,0,0,1-.482-0.24c-0.084-.05-0.178-0.09-0.257-0.14-0.186-.11-0.357-0.23-0.524-0.34a0.572,0.572,0,0,0-.094-0.07,3.93,3.93,0,0,0-2.6-.9,6.464,6.464,0,0,0-3.114.88,9.355,9.355,0,0,1-4.487,1.16,7.8,7.8,0,0,1-4.5-1.35,4.372,4.372,0,0,0-2.246-.85h-0.25c-0.012,0-.022-0.01-0.033-0.01a8.756,8.756,0,0,0-5.3,1.68c-0.362.22-.737,0.44-1.141,0.67a0.975,0.975,0,0,1-.436.11,0.9,0.9,0,0,1-.791-0.47,0.918,0.918,0,0,1,.354-1.24c0.383-.22.746-0.43,1.1-0.64a10.876,10.876,0,0,1,5.32-1.92,11.369,11.369,0,1,1,22.737.21,11.68,11.68,0,0,1-.193,2,3.6,3.6,0,0,0,1.746-.9,4.678,4.678,0,0,1,3.2-1.24c2.622,0,4.384,2.49,4.458,2.6A0.917,0.917,0,0,1,668.616,1023.67Zm-20.37-13.41a9.631,9.631,0,0,0-9.566,9.49,5.984,5.984,0,0,1,2.626,1.07,5.8,5.8,0,0,0,3.5,1.11,7.51,7.51,0,0,0,3.7-.99,8.118,8.118,0,0,1,3.9-1.06,5.587,5.587,0,0,1,3.622,1.23c0.219,0.15.424,0.28,0.637,0.4,0.065,0.04.135,0.07,0.2,0.11a3.422,3.422,0,0,0,.6.23c0.048,0.01.094,0.03,0.144,0.04a9.772,9.772,0,0,0,.2-1.95A9.634,9.634,0,0,0,648.246,1010.26Zm12.709-1.11a0.89,0.89,0,0,1-1.277,0,0.92,0.92,0,0,1,0-1.29l4.4-4.45a0.889,0.889,0,0,1,1.276,0,0.918,0.918,0,0,1,0,1.29Zm-12.668-5.03a0.9,0.9,0,0,1-.9-0.91v-6.3a0.9,0.9,0,1,1,1.806,0v6.3A0.9,0.9,0,0,1,648.287,1004.12Zm-11.949,4.97a0.889,0.889,0,0,1-.638-0.27l-4.4-4.45a0.92,0.92,0,0,1,0-1.29,0.89,0.89,0,0,1,1.277,0l4.4,4.45a0.918,0.918,0,0,1,0,1.29A0.889,0.889,0,0,1,636.338,1009.09Z" transform="translate(-630 -996)"/>
</svg>
