<svg xmlns="http://www.w3.org/2000/svg" xmlns:xlink="http://www.w3.org/1999/xlink" width="23" height="23" viewBox="0 0 23 23">
  <metadata><?xpacket begin="﻿" id="W5M0MpCehiHzreSzNTczkc9d"?>
<x:xmpmeta xmlns:x="adobe:ns:meta/" x:xmptk="Adobe XMP Core 5.6-c138 79.159824, 2016/09/14-01:09:01        ">
   <rdf:RDF xmlns:rdf="http://www.w3.org/1999/02/22-rdf-syntax-ns#">
      <rdf:Description rdf:about=""/>
   </rdf:RDF>
</x:xmpmeta>
                                                                                                    
                                                                                                    
                                                                                                    
                                                                                                    
                                                                                                    
                                                                                                    
                                                                                                    
                                                                                                    
                                                                                                    
                                                                                                    
                                                                                                    
                                                                                                    
                                                                                                    
                                                                                                    
                                                                                                    
                                                                                                    
                                                                                                    
                                                                                                    
                                                                                                    
                                                                                                    
                           
<?xpacket end="w"?></metadata>
<defs>
    <style>
      .cls-1 {
        fill: #fff;
        fill-rule: evenodd;
        filter: url(#filter);
      }
    </style>
    <filter id="filter" x="637" y="1150" width="23" height="23" filterUnits="userSpaceOnUse">
      <feOffset result="offset" dx="0.5" dy="0.866" in="SourceAlpha"/>
      <feGaussianBlur result="blur"/>
      <feFlood result="flood" flood-color="#242424" flood-opacity="0.4"/>
      <feComposite result="composite" operator="in" in2="blur"/>
      <feBlend result="blend" in="SourceGraphic"/>
    </filter>
  </defs>
  <path class="cls-1" d="M657.263,1172a1.718,1.718,0,0,1-1.228-.51l-6.64-6.64a0.85,0.85,0,0,1-.21-0.86,0.836,0.836,0,0,1,.671-0.58,4.387,4.387,0,0,0,1.52-.56,0.852,0.852,0,0,1,1.053.12l6.063,6.07A1.736,1.736,0,0,1,657.263,1172Zm-5.439-8.45H651.81a4.986,4.986,0,0,1-1.816.67,0.028,0.028,0,0,0-.022.02,0.032,0.032,0,0,0,.008.03l6.639,6.64a0.911,0.911,0,0,0,1.555-.65,0.9,0.9,0,0,0-.267-0.64l-6.063-6.06A0.019,0.019,0,0,0,651.824,1163.55Zm-12.647,8.38a1.72,1.72,0,0,1-1.229-.51,1.742,1.742,0,0,1,0-2.46c18.615-18.64,18.693-18.7,18.784-18.77a0.85,0.85,0,0,1,1.135.06,2.832,2.832,0,0,1,.847,2.09h0c0,1.33-.748,2.98-2.3,5.05a48.471,48.471,0,0,1-4.364,4.87,4.136,4.136,0,0,1-2.683,1.17c-0.706.05-1.8,0.83-3.354,2.38l-5.615,5.61A1.719,1.719,0,0,1,639.177,1171.93Zm18.075-21.1c-0.225.21-3.443,3.42-18.718,18.72a0.9,0.9,0,0,0,.643,1.55,0.9,0.9,0,0,0,.642-0.26l5.615-5.62c2.236-2.23,3.248-2.57,3.879-2.62a3.32,3.32,0,0,0,2.157-.92,48.5,48.5,0,0,0,4.288-4.79c1.417-1.89,2.134-3.42,2.132-4.55h0a2.065,2.065,0,0,0-.6-1.51A0.023,0.023,0,0,0,657.252,1150.83ZM645.6,1160.87a0.854,0.854,0,0,1-.529-0.19,3.814,3.814,0,0,0-1.749-.93,4.082,4.082,0,0,1-2.647-1.12l-0.043-.05-3.4-3.61a0.846,0.846,0,0,1-.232-0.61,0.861,0.861,0,0,1,.268-0.6,0.852,0.852,0,0,1,1.208.04l2.818,2.99,0.645-.64-3.365-3.37a0.855,0.855,0,0,1,1.207-1.21l3.366,3.37,0.6-.6-3.262-2.77a0.849,0.849,0,0,1-.1-1.2,0.828,0.828,0,0,1,.58-0.3,0.837,0.837,0,0,1,.624.2l4.116,3.49h0a3.421,3.421,0,0,1,1.042,2.46,2.981,2.981,0,0,0,.932,1.85,0.866,0.866,0,0,1-.065,1.14l-1.41,1.41A0.851,0.851,0,0,1,645.6,1160.87Zm-4.308-2.8a3.309,3.309,0,0,0,2.09.86,4.279,4.279,0,0,1,2.2,1.1,0.019,0.019,0,0,0,.017.01,0.019,0.019,0,0,0,.019-0.01l1.411-1.41a0.03,0.03,0,0,0,0-.04,4.169,4.169,0,0,1-1.109-2.37,2.6,2.6,0,0,0-.782-1.85h-0.25l-1.746,1.75-3.95-3.95a0.029,0.029,0,0,0-.039,0,0.028,0.028,0,0,0,0,.04l3.95,3.95-1.832,1.83-3.4-3.62a0.03,0.03,0,0,0-.04,0,0.027,0.027,0,0,0-.008.02,0.024,0.024,0,0,0,.007.02l3.4,3.61c0.007,0.01.015,0.01,0.022,0.02Zm-0.689.46s0,0.01,0,.01Zm0.434-7.64h0a0.028,0.028,0,0,0-.019.01,0.04,0.04,0,0,0-.007.02,0.019,0.019,0,0,0,.011.02l3.86,3.27v-0.07l-3.825-3.24A0.035,0.035,0,0,0,641.04,1150.89Z" transform="translate(-637 -1150)"/>
</svg>
