<svg xmlns="http://www.w3.org/2000/svg" width="15" height="15" viewBox="0 0 15 15">
  <metadata><?xpacket begin="﻿" id="W5M0MpCehiHzreSzNTczkc9d"?>
<x:xmpmeta xmlns:x="adobe:ns:meta/" x:xmptk="Adobe XMP Core 5.6-c138 79.159824, 2016/09/14-01:09:01        ">
   <rdf:RDF xmlns:rdf="http://www.w3.org/1999/02/22-rdf-syntax-ns#">
      <rdf:Description rdf:about=""/>
   </rdf:RDF>
</x:xmpmeta>
                                                                                                    
                                                                                                    
                                                                                                    
                                                                                                    
                                                                                                    
                                                                                                    
                                                                                                    
                                                                                                    
                                                                                                    
                                                                                                    
                                                                                                    
                                                                                                    
                                                                                                    
                                                                                                    
                                                                                                    
                                                                                                    
                                                                                                    
                                                                                                    
                                                                                                    
                                                                                                    
                           
<?xpacket end="w"?></metadata>
<defs>
    <style>
      .cls-1 {
        fill: #a8a39b;
        fill-rule: evenodd;
      }
    </style>
  </defs>
  <path class="cls-1" d="M838.816,690a1.174,1.174,0,0,1-.837-0.347l-4.528-4.527a0.582,0.582,0,0,1,.315-0.986,2.911,2.911,0,0,0,1.036-.379,0.579,0.579,0,0,1,.718.084l4.134,4.134A1.184,1.184,0,0,1,838.816,690Zm-3.709-5.763-0.009,0a3.474,3.474,0,0,1-1.238.456,0.018,0.018,0,0,0-.015.013,0.02,0.02,0,0,0,0,.019l4.527,4.527a0.621,0.621,0,1,0,.878-0.878l-4.134-4.134A0.02,0.02,0,0,0,835.107,684.237Zm-8.623,5.716a1.185,1.185,0,0,1-.837-2.024c12.693-12.71,12.746-12.753,12.808-12.8a0.584,0.584,0,0,1,.774.042,1.937,1.937,0,0,1,.577,1.426h0a6.245,6.245,0,0,1-1.566,3.44,33.132,33.132,0,0,1-2.975,3.325,2.821,2.821,0,0,1-1.829.794,4.922,4.922,0,0,0-2.287,1.624l-3.829,3.829A1.178,1.178,0,0,1,826.484,689.953Zm12.324-14.387c-0.153.142-2.347,2.332-12.762,12.761a0.622,0.622,0,0,0,0,.88,0.618,0.618,0,0,0,.877,0l3.828-3.829c1.525-1.525,2.215-1.756,2.645-1.786a2.269,2.269,0,0,0,1.471-.631,32.6,32.6,0,0,0,2.924-3.265,5.854,5.854,0,0,0,1.453-3.1h0a1.4,1.4,0,0,0-.411-1.027A0.018,0.018,0,0,0,838.808,675.566Zm-7.942,6.843a0.584,0.584,0,0,1-.361-0.125,2.559,2.559,0,0,0-1.193-.634,2.82,2.82,0,0,1-1.8-.768l-0.03-.031-2.32-2.463a0.583,0.583,0,1,1,.848-0.8l1.922,2.043,0.44-.44-2.3-2.295a0.583,0.583,0,0,1,.824-0.824l2.294,2.3,0.411-.411-2.224-1.885a0.583,0.583,0,1,1,.753-0.889l2.807,2.378v0a2.338,2.338,0,0,1,.711,1.68,2.034,2.034,0,0,0,.635,1.261,0.585,0.585,0,0,1-.045.773l-0.961.961A0.575,0.575,0,0,1,830.866,682.409Zm-2.937-1.9a2.271,2.271,0,0,0,1.424.583,2.953,2.953,0,0,1,1.5.754,0.018,0.018,0,0,0,.012,0,0.02,0.02,0,0,0,.013,0l0.961-.962a0.02,0.02,0,0,0,0-.026,2.857,2.857,0,0,1-.757-1.616,1.773,1.773,0,0,0-.533-1.263h-0.17l-1.191,1.191-2.693-2.694a0.017,0.017,0,0,0-.013,0,0.017,0.017,0,0,0-.019.019,0.017,0.017,0,0,0,0,.013l2.693,2.694-1.249,1.249-2.319-2.466a0.021,0.021,0,0,0-.013-0.006,0.018,0.018,0,0,0-.014.006,0.014,0.014,0,0,0-.006.013,0.024,0.024,0,0,0,0,.014l2.317,2.46,0.015,0.013Zm-0.47.313,0,0Zm0.3-5.21h0a0.017,0.017,0,0,0-.013.006,0.019,0.019,0,0,0,0,.014,0.023,0.023,0,0,0,.008.014l2.632,2.23v-0.05l-2.608-2.21A0.017,0.017,0,0,0,827.755,675.608Z" transform="translate(-825 -675)"/>
</svg>
