<svg xmlns="http://www.w3.org/2000/svg" width="11" height="18" viewBox="0 0 11 18">
  <metadata><?xpacket begin="﻿" id="W5M0MpCehiHzreSzNTczkc9d"?>
<x:xmpmeta xmlns:x="adobe:ns:meta/" x:xmptk="Adobe XMP Core 5.6-c138 79.159824, 2016/09/14-01:09:01        ">
   <rdf:RDF xmlns:rdf="http://www.w3.org/1999/02/22-rdf-syntax-ns#">
      <rdf:Description rdf:about=""/>
   </rdf:RDF>
</x:xmpmeta>
                                                                                                    
                                                                                                    
                                                                                                    
                                                                                                    
                                                                                                    
                                                                                                    
                                                                                                    
                                                                                                    
                                                                                                    
                                                                                                    
                                                                                                    
                                                                                                    
                                                                                                    
                                                                                                    
                                                                                                    
                                                                                                    
                                                                                                    
                                                                                                    
                                                                                                    
                                                                                                    
                           
<?xpacket end="w"?></metadata>
<defs>
    <style>
      .cls-1 {
        fill: #a8a39b;
        fill-rule: evenodd;
      }
    </style>
  </defs>
  <path class="cls-1" d="M736.975,675.3a0.173,0.173,0,0,0,0-.172,0.168,0.168,0,0,0-.147-0.087h-5.189C730.979,673.888,730,673,729.481,673a0.17,0.17,0,0,0,0,.34,3.619,3.619,0,0,1,1.77,1.7h-5.112a0.166,0.166,0,0,0-.146.087,0.173,0.173,0,0,0,0,.172l5.323,8.789v6.574h-1.838a0.17,0.17,0,0,0,0,.34h4.01a0.17,0.17,0,0,0,0-.34h-1.838v-6.574Zm-5.639,2.8a0.832,0.832,0,0,0,1.636,0h1.916l-3.4,5.62-3.4-5.62h3.253Zm0.818-.679a0.51,0.51,0,1,1-.5.51A0.506,0.506,0,0,1,732.154,677.415Zm4.379-2.038-1.44,2.378h-2.121a0.842,0.842,0,0,0-.661-0.663,4.418,4.418,0,0,0-.487-1.715h4.709Zm-5.086,0a4.228,4.228,0,0,1,.531,1.719,0.84,0.84,0,0,0-.642.659h-3.458l-1.44-2.378h5.009Z" transform="translate(-726 -673)"/>
</svg>
