<svg xmlns="http://www.w3.org/2000/svg" xmlns:xlink="http://www.w3.org/1999/xlink" width="22" height="22" viewBox="0 0 22 22">
  <metadata><?xpacket begin="﻿" id="W5M0MpCehiHzreSzNTczkc9d"?>
<x:xmpmeta xmlns:x="adobe:ns:meta/" x:xmptk="Adobe XMP Core 5.6-c138 79.159824, 2016/09/14-01:09:01        ">
   <rdf:RDF xmlns:rdf="http://www.w3.org/1999/02/22-rdf-syntax-ns#">
      <rdf:Description rdf:about=""/>
   </rdf:RDF>
</x:xmpmeta>
                                                                                                    
                                                                                                    
                                                                                                    
                                                                                                    
                                                                                                    
                                                                                                    
                                                                                                    
                                                                                                    
                                                                                                    
                                                                                                    
                                                                                                    
                                                                                                    
                                                                                                    
                                                                                                    
                                                                                                    
                                                                                                    
                                                                                                    
                                                                                                    
                                                                                                    
                                                                                                    
                           
<?xpacket end="w"?></metadata>
<defs>
    <style>
      .cls-1 {
        fill: #fff;
        fill-rule: evenodd;
        filter: url(#filter);
      }
    </style>
    <filter id="filter" x="202" y="1151" width="22" height="22" filterUnits="userSpaceOnUse">
      <feOffset result="offset" dx="0.5" dy="0.866" in="SourceAlpha"/>
      <feGaussianBlur result="blur"/>
      <feFlood result="flood" flood-color="#242424" flood-opacity="0.4"/>
      <feComposite result="composite" operator="in" in2="blur"/>
      <feBlend result="blend" in="SourceGraphic"/>
    </filter>
  </defs>
  <path class="cls-1" d="M209.716,1161.47a0.168,0.168,0,0,1-.07-0.01,3.678,3.678,0,0,1-.69-0.22,7.545,7.545,0,0,1-3.776-4.33,16.253,16.253,0,0,1-.75-2.58c-0.123-.53-0.25-1.08-0.4-1.58a0.581,0.581,0,0,1,.173-0.62,0.527,0.527,0,0,1,.609-0.06,7.919,7.919,0,0,0,2.85.94c0.287,0.03.581,0.06,0.865,0.08a15.819,15.819,0,0,1,4.12.78,9.349,9.349,0,0,1,4.431,3.5,0.324,0.324,0,0,1,.014.31,0.306,0.306,0,0,1-.251.19,15.239,15.239,0,0,0-3.222.68,0.329,0.329,0,0,1-.289-0.04c-0.035-.03-0.069-0.05-0.1-0.08a0.27,0.27,0,0,1,0,.07,0.335,0.335,0,0,1-.195.28,7.011,7.011,0,0,0-1.556.91,6.34,6.34,0,0,0-1.491,1.63A0.331,0.331,0,0,1,209.716,1161.47Zm-5.01-8.7c0.13,0.46.242,0.94,0.349,1.4a16.178,16.178,0,0,0,.716,2.48h0a7.37,7.37,0,0,0,3.434,3.98,3.809,3.809,0,0,0,.372.13,6.838,6.838,0,0,1,1.515-1.61,8.053,8.053,0,0,1,1.128-.72c-0.461-.25-0.959-0.48-1.441-0.71-0.235-.11-0.479-0.23-0.717-0.34a0.341,0.341,0,0,1-.165-0.42,0.328,0.328,0,0,1,.386-0.21c0.274,0.08.563,0.14,0.868,0.2a9.535,9.535,0,0,1,1.317.33,5.407,5.407,0,0,1,1.095.58,14.288,14.288,0,0,1,2.675-.58,9.2,9.2,0,0,0-3.819-2.79,14.6,14.6,0,0,0-3.953-.73l-0.872-.09A8.386,8.386,0,0,1,204.706,1152.77Zm3.981,20.23a0.515,0.515,0,0,1-.379-0.16,1.251,1.251,0,0,1-.284-0.61,0.347,0.347,0,0,0-.013-0.05,10.94,10.94,0,0,1-.227-2.3l0-.13a16.841,16.841,0,0,1,.85-5.81,11.206,11.206,0,0,1,1.361-2.89,6.491,6.491,0,0,1,1.4-1.48,7.453,7.453,0,0,1,1.857-1.04c0.208-.08.429-0.16,0.655-0.23a17.247,17.247,0,0,1,3.107-.6l0.748-.09a13.769,13.769,0,0,0,5.337-1.32,0.5,0.5,0,0,1,.308-0.08,0.583,0.583,0,0,1,.48.25,0.672,0.672,0,0,1,.086.59c-0.2.65-.364,1.36-0.524,2.04a21.3,21.3,0,0,1-.97,3.32,9.324,9.324,0,0,1-4.841,5.18,7.985,7.985,0,0,1-1.8.53c-0.569.11-1.158,0.18-1.727,0.26a12.416,12.416,0,0,0-3.322.72,0.958,0.958,0,0,1-.412.1,0.656,0.656,0,0,1-.648-0.55,3.729,3.729,0,0,1,.734-2.41,7.518,7.518,0,0,1,1.253-1.52,5.566,5.566,0,0,0-2.009,2.5,7.977,7.977,0,0,0-.466,5.04,0.57,0.57,0,0,1-.249.65A0.551,0.551,0,0,1,208.687,1173Zm0.066-.64h0Zm14.583-15.45a14.571,14.571,0,0,1-5.511,1.37c-0.248.02-.5,0.05-0.743,0.08a16.564,16.564,0,0,0-3,.58,5.774,5.774,0,0,0-.611.21,7.013,7.013,0,0,0-1.705.96,5.678,5.678,0,0,0-1.257,1.33,10.45,10.45,0,0,0-1.276,2.72,16.113,16.113,0,0,0-.817,5.45,10.066,10.066,0,0,1,.686-2.65,6.755,6.755,0,0,1,4.2-3.8c0.423-.16.889-0.32,1.465-0.49a0.377,0.377,0,0,1,.128-0.02,0.418,0.418,0,0,1,.409.35,0.424,0.424,0,0,1-.238.48c-0.555.26-1.143,0.54-1.692,0.84a6.319,6.319,0,0,0-3.01,3.75,0.832,0.832,0,0,0,0,.46,0.473,0.473,0,0,0,.174-0.04,12.88,12.88,0,0,1,3.49-.78c0.56-.07,1.139-0.14,1.689-0.25a7.96,7.96,0,0,0,1.672-.48,8.74,8.74,0,0,0,4.5-4.83,20.575,20.575,0,0,0,.935-3.22C222.975,1158.26,223.139,1157.56,223.336,1156.91Zm0.02-.07h0Zm-0.108-.26h0Z" transform="translate(-202 -1151)"/>
</svg>
