<svg xmlns="http://www.w3.org/2000/svg" width="34.313" height="34.406" viewBox="0 0 34.313 34.406">
  <metadata><?xpacket begin="﻿" id="W5M0MpCehiHzreSzNTczkc9d"?>
<x:xmpmeta xmlns:x="adobe:ns:meta/" x:xmptk="Adobe XMP Core 5.6-c138 79.159824, 2016/09/14-01:09:01        ">
   <rdf:RDF xmlns:rdf="http://www.w3.org/1999/02/22-rdf-syntax-ns#">
      <rdf:Description rdf:about=""/>
   </rdf:RDF>
</x:xmpmeta>
                                                                                                    
                                                                                                    
                                                                                                    
                                                                                                    
                                                                                                    
                                                                                                    
                                                                                                    
                                                                                                    
                                                                                                    
                                                                                                    
                                                                                                    
                                                                                                    
                                                                                                    
                                                                                                    
                                                                                                    
                                                                                                    
                                                                                                    
                                                                                                    
                                                                                                    
                                                                                                    
                           
<?xpacket end="w"?></metadata>
<defs>
    <style>
      .cls-1 {
        fill: #9f7f9a;
        fill-rule: evenodd;
      }
    </style>
  </defs>
  <path class="cls-1" d="M461.5,905.988l-5.171-5.179a3.843,3.843,0,0,0-4.513-.616l-1.6-1.606a12.568,12.568,0,0,0-.741-16.767,12.432,12.432,0,1,0-.819,18.329l1.605,1.606a3.857,3.857,0,0,0,.614,4.52l5.171,5.179a3.829,3.829,0,0,0,5.415-.041h0A3.844,3.844,0,0,0,461.5,905.988Zm-27.975-7.978a10.279,10.279,0,0,1-.219-14.518h0A10.259,10.259,0,1,1,433.521,898.01Zm26.416,11.814a1.653,1.653,0,0,1-2.339.068l-5.171-5.178a1.648,1.648,0,0,1,.018-2.325h0a1.641,1.641,0,0,1,2.322-.017l5.17,5.178A1.659,1.659,0,0,1,459.937,909.824Zm-23.651-23.791a6.672,6.672,0,0,0,9.285,9.584h0a6.743,6.743,0,0,0,.073-9.512A6.66,6.66,0,0,0,436.286,886.033Zm7.846,7.95a4.5,4.5,0,1,1-6.451-6.269v0A4.5,4.5,0,0,1,444.132,893.983Z" transform="translate(-428.281 -878.156)"/>
</svg>
