<svg xmlns="http://www.w3.org/2000/svg" width="34" height="39" viewBox="0 0 34 39">
  <metadata><?xpacket begin="﻿" id="W5M0MpCehiHzreSzNTczkc9d"?>
<x:xmpmeta xmlns:x="adobe:ns:meta/" x:xmptk="Adobe XMP Core 5.6-c138 79.159824, 2016/09/14-01:09:01        ">
   <rdf:RDF xmlns:rdf="http://www.w3.org/1999/02/22-rdf-syntax-ns#">
      <rdf:Description rdf:about=""/>
   </rdf:RDF>
</x:xmpmeta>
                                                                                                    
                                                                                                    
                                                                                                    
                                                                                                    
                                                                                                    
                                                                                                    
                                                                                                    
                                                                                                    
                                                                                                    
                                                                                                    
                                                                                                    
                                                                                                    
                                                                                                    
                                                                                                    
                                                                                                    
                                                                                                    
                                                                                                    
                                                                                                    
                                                                                                    
                                                                                                    
                           
<?xpacket end="w"?></metadata>
<defs>
    <style>
      .cls-1 {
        fill: #9f7f9a;
        fill-rule: evenodd;
      }
    </style>
  </defs>
  <path class="cls-1" d="M703.944,2504.75H679.73a3.963,3.963,0,0,1-3.953-3.96v-19.83a3.963,3.963,0,0,1,3.953-3.96h24.214a3.963,3.963,0,0,1,3.952,3.96v19.83A3.963,3.963,0,0,1,703.944,2504.75Zm-24.214-26.5a2.707,2.707,0,0,0-2.705,2.71v19.83a2.707,2.707,0,0,0,2.705,2.71h24.214a2.706,2.706,0,0,0,2.7-2.71v-19.83a2.706,2.706,0,0,0-2.7-2.71H679.73Zm21.884,15.25H682.226a3.963,3.963,0,0,1-3.953-3.96v-6a3.963,3.963,0,0,1,3.953-3.96h19.388a3.963,3.963,0,0,1,3.952,3.96v6A3.963,3.963,0,0,1,701.614,2493.5Zm-19.388-12.67a2.713,2.713,0,0,0-2.7,2.71v6a2.706,2.706,0,0,0,2.7,2.71h19.388a2.706,2.706,0,0,0,2.7-2.71v-6a2.713,2.713,0,0,0-2.7-2.71H682.226Zm1.611,19.9a3.175,3.175,0,1,1,3.168-3.17A3.171,3.171,0,0,1,683.837,2500.73Zm0-5.1a1.925,1.925,0,1,0,1.92,1.93A1.93,1.93,0,0,0,683.837,2495.63Zm17.225,5.1a3.175,3.175,0,1,1,3.168-3.17A3.171,3.171,0,0,1,701.062,2500.73Zm0-5.1a1.925,1.925,0,1,0,1.92,1.93A1.93,1.93,0,0,0,701.062,2495.63ZM709,2516h-5.54l-6.3-10.83h5.264Zm-4.822-1.25h2.6l-5.059-8.33H699.33ZM680.54,2516H675l6.578-10.83h5.264Zm-3.32-1.25h2.6l4.848-8.33h-2.391Zm23.26-3.17H683.5l1.649-2.83h13.688Zm-14.813-1.25h12.642l-0.194-.33H685.861Zm16.753,4.59H681.556l1.648-2.84h17.567Zm-18.692-1.25h16.52l-0.194-.34H683.922Zm15.056-5H685.192l1.648-2.84h10.295Zm-11.42-1.25h9.248l-0.194-.34h-8.86Z" transform="translate(-675 -2477)"/>
</svg>
