<svg xmlns="http://www.w3.org/2000/svg" width="152" height="27" viewBox="0 0 152 27"><defs><style>.cls-1{fill:#fff;fill-rule:evenodd}</style></defs><path id="SFE_Logo" data-name="SFE Logo" class="cls-1" d="M297.216 42.367h7.917v2.764h-7.917v2.593h10.722v2.764h-13.493V37.011h13.493v2.764h-10.722v2.592zm-46.616 2.77h-7.916v5.352h-2.774v-13.47h13.507v2.764h-10.735v2.588h7.918v2.765zm84.112 2.588h3.809a1.292 1.292 0 0 0 0-2.583h-6.53a4.061 4.061 0 1 1-.011-8.122h10.015v2.8l-6.226-.035h-3.8a1.3 1.3 0 0 0-1.284 1.294 1.118 1.118 0 0 0 1.069 1.289h6.741a4.061 4.061 0 1 1 0 8.122h-10.011v-2.765h6.226zm-49.894-6.7v1.462a4.012 4.012 0 0 1-2.822 3.826l-.118.039 2.8 4.135h-3.35l-2.707-3.99h-4.5v3.99h-2.771V37.019h9.761a3.1 3.1 0 0 1 .562.094 4.016 4.016 0 0 1 3.147 3.913m-4.026-1.243h-6.673v3.947h6.673a1.25 1.25 0 0 0 1.252-1.247v-1.452a1.25 1.25 0 0 0-1.252-1.247m-20.067 0l-2.641 5.129h5.281zm-8.666 10.705l6.877-13.47h3.578l6.875 13.47h-3.179l-1.435-2.812h-8.1l-1.438 2.812h-3.179zm66.037-10.705l-2.64 5.129h5.281zm-8.666 10.705l6.877-13.47h3.578l6.877 13.47h-3.182l-1.434-2.812h-8.1l-1.434 2.812h-3.182zM358 54.052h-1.942l-3.4 5.686-3.558-5.686h-1.94l4.551 7.281v2.633h1.77v-2.6zm-12.55 1.5v-1.5h-9.675v1.5h3.945v8.412h1.754v-8.409h3.976zm-12.145 8.412v-9.912h-1.662v9.93zm-4.116 0v-1.423h-6.942v-8.489h-1.662v9.93zM315 60.775h-4.83l2.406-5.035zm3.293 3.206l-4.768-9.93h-1.865l-4.783 9.93h1.708l.87-1.75h6.274l.855 1.75h1.709zm-10.5-8.427v-1.5h-9.676v1.5h3.945v8.412h1.755v-8.411h3.976zm-12.145 8.412v-9.914h-1.662v9.93zm-6.419-5.266c0 .7-.249.852-.792.852h-6.368v-4.075h6.476c.544 0 .684.154.684.851V58.7zm1.755-.278v-1.953c0-2.091-1.4-2.417-2.516-2.417h-8.045v9.915h1.646v-3.005h6.15c1.367 0 2.765-.449 2.765-2.541m-13.062 2.664a2.9 2.9 0 0 0-3-2.975l-4.349-.015a1.214 1.214 0 0 1-1.273-1.24 1.279 1.279 0 0 1 1.257-1.332h6.523v-1.456h-6.647a2.738 2.738 0 0 0-2.764 2.758 2.769 2.769 0 0 0 2.873 2.866h4.364a1.393 1.393 0 0 1 1.429 1.378 1.461 1.461 0 0 1-1.46 1.425h-6.6V64h6.741a2.919 2.919 0 0 0 2.9-2.912m-14.382.821a.617.617 0 0 1-.761.635h-6.4a.617.617 0 0 1-.745-.635v-5.797a.611.611 0 0 1 .745-.635h6.4a.623.623 0 0 1 .761.635v5.794zm1.647-.852v-4.078a3.267 3.267 0 0 0-.606-2.262 2.456 2.456 0 0 0-1.911-.666h-6.165a2.606 2.606 0 0 0-1.958.666 3.384 3.384 0 0 0-.558 2.262v4.075a3.178 3.178 0 0 0 .59 2.23 2.5 2.5 0 0 0 1.926.682h6.165a2.611 2.611 0 0 0 1.958-.682 3.29 3.29 0 0 0 .559-2.23m-14.273 2.912v-9.914h-1.662v3.981h-7.564v-3.981h-1.646v9.915h1.646v-4.353h7.564v4.353h1.662zm-32.972-15.042h3.141v3.133h-3.141v-3.133zM206 54.567h3.768v9.4H206v-9.4zm0-2.509V37.019h27.015v26.948h-20.733v-9.4h3.141v5.64h13.822V40.779h-19.477v11.279H206zm6.282 0v-8.772h14.45V57.7h-8.8v-3.133h5.655v-8.148h-8.168v5.639h-3.141zm145.556-12.24h-5.362v10.671h-2.819V39.818H344.3v-2.8h13.543v2.8z" transform="translate(-206 -37)"/></svg>