<?xml version="1.0" encoding="utf-8"?>
<!-- Generator: Adobe Illustrator 21.0.0, SVG Export Plug-In . SVG Version: 6.00 Build 0)  -->
<svg version="1.1" id="Layer_1" xmlns="http://www.w3.org/2000/svg" xmlns:xlink="http://www.w3.org/1999/xlink" x="0px" y="0px"
	 viewBox="0 0 507.5 192.2" style="enable-background:new 0 0 507.5 192.2;" xml:space="preserve">
<style type="text/css">
	.st0{fill:#FFFFFF;}
</style>
<g>
	<g>
		<path class="st0" d="M223.4,132.8c-22.1,0-36.5-14.4-36.5-36.7c0-22,15.7-38.7,36.5-38.7c21.9,0,36.6,14.8,36.6,36.9
			C260.1,116.3,244.3,132.8,223.4,132.8 M223.4,67.6c-13.8,0-23,11.1-23,27.6c0,16.5,9.2,27.6,23,27.6c14,0,23-10.8,23-27.6
			C246.4,78.5,237.4,67.6,223.4,67.6"/>
		<path class="st0" d="M297.8,132.8c-14.3,0-28.7-12.5-28.7-36.2c0-22.6,16.7-39.1,39.8-39.1c6,0,10.8,0.7,16.7,2.5l10.1-3.2l1-0.3
			l-0.1,1c-1,14-1.1,21-1.1,36.2c0,15,0,21.3,0.6,36.8l0,0.7h-12.3l-0.1-0.6l-1.2-9.7C316.9,128.5,308.2,132.8,297.8,132.8
			 M307.8,67.4c-12.6,0-25.3,9.3-25.3,27.2c0,17.1,7.5,27.3,20.1,27.3c7.8,0,14.2-3.9,19.4-12c0.3-4.6,0.4-12,0.4-17.3
			c0-8.4-0.1-18.5-0.4-22.4C317.7,68.2,313.5,67.4,307.8,67.4"/>
		<path class="st0" d="M373.6,132.8c-10.8,0-18.6-1.7-25.9-5.7l-0.5-0.3l0.2-0.6l3.3-8.6l0.3-0.7l0.7,0.4c7.1,3.6,14.6,5.5,21.6,5.5
			c9.2,0,14.7-3.6,14.7-9.5c0-4.8-2-8-12.8-12.3l-9.5-3.9c-11.2-4.6-16.4-10.9-16.4-19.9c0-12,11.3-19.7,28.7-19.7
			c7.9,0,13.6,0.9,20.3,3.3L399,61l-0.2,0.7l-2.9,8.9l-0.2,0.7L395,71c-4.7-2-10.5-3.1-16.7-3.1c-10.7,0-16.1,2.7-16.1,8.1
			c0,3.2,1.2,6.6,10,10l9.5,3.7c13.7,5.4,19.1,11.6,19.1,22.1C400.8,124.1,389.6,132.8,373.6,132.8"/>
		<path class="st0" d="M426.4,131.2h-14.1l0-0.8c0.6-13.5,0.6-21.7,0.6-35.3c0-14.5,0-20.6-0.6-35.2l0-0.7h14.1l0,0.7
			c-0.6,14.4-0.6,20.5-0.6,35.2c0,13.6,0,21.8,0.6,35.3L426.4,131.2z M419.4,43.8c-6.2,0-9-4.3-9-8.5c0-3.9,2.8-8,9-8
			c6.2,0,8.9,4,8.9,8C428.3,39.5,425.6,43.8,419.4,43.8"/>
		<path class="st0" d="M467.6,132.8c-14.3,0-28.7-12.5-28.7-36.2c0-22.6,16.7-39.1,39.8-39.1c6,0,10.8,0.7,16.7,2.5l10.1-3.2l1-0.3
			l-0.1,1c-1,14-1.1,21-1.1,36.2c0,15,0,21.3,0.6,36.8l0,0.7h-12.3l-0.1-0.6l-1.2-9.7C486.8,128.5,478.1,132.8,467.6,132.8
			 M477.7,67.4c-12.6,0-25.3,9.3-25.3,27.2c0,17.1,7.5,27.3,20.1,27.3c7.8,0,14.2-3.9,19.4-12c0.3-4.6,0.4-12,0.4-17.3
			c0-8.4-0.1-18.5-0.4-22.4C487.6,68.2,483.4,67.4,477.7,67.4"/>
	</g>
	<g>
		<path class="st0" d="M64.1,1c0,0,0,26.2,0,37.4c0,11.1-0.2,19.2-7.7,26.1c0,0-8.6,7.6-25.8,25.9c-17.2,18.3-26.2,25.4-29.2,36.1
			c-0.2,0.6-0.2-40.8-0.2-50.1c0-15,10.5-20.7,22.1-33.7L64.1,1z"/>
		<path class="st0" d="M98.1,190.8c0,0,0-26.2,0-37.3c0-11.2,0.2-19.2,7.6-26.1c0,0,8.6-7.6,25.8-25.9c17.3-18.3,26.6-24.2,29.5-35
			c0.2-0.6-0.1,39.7-0.1,49c0,15-10.5,20.7-22.1,33.6L98.1,190.8z"/>
		<path class="st0" d="M29.2,98.8L9.9,120.2c0,0-11.5,14.4-0.6,23.1c7.7,6.2,82.5,47.9,82.5,47.9l0.1-39.6c0,0,0.9-19.6-11.3-24.9
			L29.2,98.8z"/>
		<path class="st0" d="M132,93.2l20.9-21.8c0,0,8.9-9.4,5.6-16.3c-3.3-6.9-10.2-11-18.4-15.9C132,34.3,70.3,1,70.3,1l-0.2,40.2
			c0,0,0.3,17.7,8.2,22.6C86.2,68.7,132,93.2,132,93.2"/>
	</g>
</g>
</svg>
