<svg xmlns="http://www.w3.org/2000/svg" width="23" height="16" viewBox="0 0 23 16">
  <metadata><?xpacket begin="﻿" id="W5M0MpCehiHzreSzNTczkc9d"?>
<x:xmpmeta xmlns:x="adobe:ns:meta/" x:xmptk="Adobe XMP Core 5.6-c138 79.159824, 2016/09/14-01:09:01        ">
   <rdf:RDF xmlns:rdf="http://www.w3.org/1999/02/22-rdf-syntax-ns#">
      <rdf:Description rdf:about=""/>
   </rdf:RDF>
</x:xmpmeta>
                                                                                                    
                                                                                                    
                                                                                                    
                                                                                                    
                                                                                                    
                                                                                                    
                                                                                                    
                                                                                                    
                                                                                                    
                                                                                                    
                                                                                                    
                                                                                                    
                                                                                                    
                                                                                                    
                                                                                                    
                                                                                                    
                                                                                                    
                                                                                                    
                                                                                                    
                                                                                                    
                           
<?xpacket end="w"?></metadata>
<defs>
    <style>
      .cls-1 {
        fill: #a8a39b;
        fill-rule: evenodd;
      }
    </style>
  </defs>
  <path class="cls-1" d="M1040,683.043c1.44,0,1.44.7,2.87,0.7s1.44-.7,2.88-0.7c1.15,0,1.38.443,2.16,0.623v-6.883a2.877,2.877,0,0,1,5.75,0,0.36,0.36,0,0,1-.72,0,2.161,2.161,0,0,0-4.32,0v1.391h7.19v-1.391a2.877,2.877,0,0,1,5.75,0,0.36,0.36,0,0,1-.72,0,2.156,2.156,0,0,0-4.31,0v6.334a3.221,3.221,0,0,1,.72-0.074c1.44,0,1.44.7,2.87,0.7s1.44-.7,2.88-0.7v0.7c-1.44,0-1.44.7-2.88,0.7s-1.43-.7-2.87-0.7-1.44.7-2.88,0.7-1.43-.7-2.87-0.7-1.44.7-2.88,0.7-1.43-.7-2.87-0.7-1.44.7-2.88,0.7-1.43-.7-2.87-0.7v-0.7h0Zm0,2.783c1.44,0,1.44.7,2.87,0.7s1.44-.7,2.88-0.7,1.44,0.7,2.87.7,1.44-.7,2.88-0.7,1.44,0.7,2.87.7,1.44-.7,2.88-0.7,1.44,0.7,2.87.7,1.44-.7,2.88-0.7v0.7c-1.44,0-1.44.7-2.88,0.7s-1.43-.7-2.87-0.7-1.44.7-2.88,0.7-1.43-.7-2.87-0.7-1.44.7-2.88,0.7-1.43-.7-2.87-0.7-1.44.7-2.88,0.7-1.43-.7-2.87-0.7v-0.7h0Zm8.62-2.087c1.44,0,1.44-.7,2.88-0.7s1.44,0.7,2.87.7a2.863,2.863,0,0,0,1.44-.348v-1.739h-7.19v2.087h0Zm0-2.782h7.19V678.87h-7.19v2.087h0Zm-8.62,7.652c1.44,0,1.44.7,2.87,0.7s1.44-.7,2.88-0.7,1.44,0.7,2.87.7,1.44-.7,2.88-0.7,1.44,0.7,2.87.7,1.44-.7,2.88-0.7,1.44,0.7,2.87.7,1.44-.7,2.88-0.7v0.7c-1.44,0-1.44.7-2.88,0.7s-1.43-.7-2.87-0.7-1.44.7-2.88,0.7-1.43-.7-2.87-0.7-1.44.7-2.88,0.7-1.43-.7-2.87-0.7-1.44.7-2.88,0.7-1.43-.7-2.87-0.7v-0.7Z" transform="translate(-1040 -674)"/>
</svg>
