<svg xmlns="http://www.w3.org/2000/svg" width="25" height="15" viewBox="0 0 25 15">
  <metadata><?xpacket begin="﻿" id="W5M0MpCehiHzreSzNTczkc9d"?>
<x:xmpmeta xmlns:x="adobe:ns:meta/" x:xmptk="Adobe XMP Core 5.6-c138 79.159824, 2016/09/14-01:09:01        ">
   <rdf:RDF xmlns:rdf="http://www.w3.org/1999/02/22-rdf-syntax-ns#">
      <rdf:Description rdf:about=""/>
   </rdf:RDF>
</x:xmpmeta>
                                                                                                    
                                                                                                    
                                                                                                    
                                                                                                    
                                                                                                    
                                                                                                    
                                                                                                    
                                                                                                    
                                                                                                    
                                                                                                    
                                                                                                    
                                                                                                    
                                                                                                    
                                                                                                    
                                                                                                    
                                                                                                    
                                                                                                    
                                                                                                    
                                                                                                    
                                                                                                    
                           
<?xpacket end="w"?></metadata>
<defs>
    <style>
      .cls-1 {
        fill: #a8a39b;
        fill-rule: evenodd;
      }
    </style>
  </defs>
  <path class="cls-1" d="M970.8,681.8v-2.652a1.613,1.613,0,0,0-1.615-1.608h-0.067c-0.054,0-.108,0-0.162.008A1.951,1.951,0,0,0,967.044,676h-0.086a1.947,1.947,0,0,0-1.949,1.941v3.746H953.991v-3.746A1.947,1.947,0,0,0,952.042,676h-0.086a1.951,1.951,0,0,0-1.909,1.544,1.466,1.466,0,0,0-.162-0.009h-0.067a1.613,1.613,0,0,0-1.615,1.608V681.8a1.809,1.809,0,0,0,0,3.409v2.652a1.613,1.613,0,0,0,1.615,1.608h0.067a1.466,1.466,0,0,0,.162-0.009A1.951,1.951,0,0,0,951.956,691h0.086a1.947,1.947,0,0,0,1.949-1.941v-3.747h11.018v3.747A1.947,1.947,0,0,0,966.958,691h0.086a1.951,1.951,0,0,0,1.909-1.544,1.466,1.466,0,0,0,.162.009h0.067a1.613,1.613,0,0,0,1.615-1.608V685.2A1.809,1.809,0,0,0,970.8,681.8ZM948.2,684.3a0.995,0.995,0,0,1,0-1.59v1.59Zm1.8,4.353a0.817,0.817,0,0,1-.12.014h-0.067a0.808,0.808,0,0,1-.809-0.805v-8.714a0.808,0.808,0,0,1,.809-0.805h0.067a0.817,0.817,0,0,1,.12.014v10.3Zm3.18-6.559v6.97a1.142,1.142,0,0,1-1.143,1.138h-0.086a1.142,1.142,0,0,1-1.143-1.138V688.3h0v-9.6h0v-0.759a1.142,1.142,0,0,1,1.143-1.138h0.086a1.142,1.142,0,0,1,1.143,1.138v4.148Zm11.824,2.421H953.991v-2.02h11.018v2.02Zm3.178-5.811v10.36a1.142,1.142,0,0,1-1.143,1.138h-0.086a1.142,1.142,0,0,1-1.143-1.138V677.941a1.142,1.142,0,0,1,1.143-1.138h0.086a1.142,1.142,0,0,1,1.143,1.138V678.7Zm1.8,3.408v5.75a0.808,0.808,0,0,1-.809.805h-0.067a0.831,0.831,0,0,1-.121-0.014v-10.3a0.831,0.831,0,0,1,.121-0.014h0.067a0.808,0.808,0,0,1,.809.805v2.964ZM970.8,684.3v-1.59A0.995,0.995,0,0,1,970.8,684.3Z" transform="translate(-947 -676)"/>
</svg>
