<svg xmlns="http://www.w3.org/2000/svg" width="15" height="15" viewBox="0 0 15 15">
  <metadata><?xpacket begin="﻿" id="W5M0MpCehiHzreSzNTczkc9d"?>
<x:xmpmeta xmlns:x="adobe:ns:meta/" x:xmptk="Adobe XMP Core 5.6-c138 79.159824, 2016/09/14-01:09:01        ">
   <rdf:RDF xmlns:rdf="http://www.w3.org/1999/02/22-rdf-syntax-ns#">
      <rdf:Description rdf:about=""/>
   </rdf:RDF>
</x:xmpmeta>
                                                                                                    
                                                                                                    
                                                                                                    
                                                                                                    
                                                                                                    
                                                                                                    
                                                                                                    
                                                                                                    
                                                                                                    
                                                                                                    
                                                                                                    
                                                                                                    
                                                                                                    
                                                                                                    
                                                                                                    
                                                                                                    
                                                                                                    
                                                                                                    
                                                                                                    
                                                                                                    
                           
<?xpacket end="w"?></metadata>
<defs>
    <style>
      .cls-1 {
        fill: #9f7f9a;
        fill-rule: evenodd;
      }
    </style>
  </defs>
  <path class="cls-1" d="M173.928,864a2.463,2.463,0,0,1-.7-0.1c-0.16-.047-0.336-0.092-0.521-0.14-1.426-.366-3.58-0.918-6.84-4.424a12.236,12.236,0,0,1-2.01-2.832,8.128,8.128,0,0,1-.777-2.376,5.277,5.277,0,0,1,.149-2.531,7.145,7.145,0,0,1,.695-1.135,2.829,2.829,0,0,1,1.024-1.075,7.483,7.483,0,0,1,1.355-.356,0.958,0.958,0,0,1,1.059.366c0.164,0.255,1.745,2.959,1.758,2.982a0.986,0.986,0,0,1-.233,1.218,9.049,9.049,0,0,1-.813.658c-0.143.109-.279,0.211-0.342,0.265l-0.007.007a0.411,0.411,0,0,0,.1.216c0.056,0.079.124,0.192,0.217,0.349,0.509,0.856,1.861,3.128,4.1,3.946l0.035,0.013,0.025,0.014a0.774,0.774,0,0,0,.18.059,4.69,4.69,0,0,1,1.049-1.135,1.125,1.125,0,0,1,1.42,0c0.154,0.111,1.1.669,1.733,1.039,0.544,0.32.883,0.519,0.994,0.591a0.912,0.912,0,0,1,.392,1.045c-0.008.039-.015,0.075-0.019,0.106a4.989,4.989,0,0,1-.379,1.07c-0.064.151-.124,0.293-0.155,0.377a1.523,1.523,0,0,1-.58.642,6.26,6.26,0,0,1-.959.6A4.321,4.321,0,0,1,173.928,864Zm-9.673-12.018c-0.052.141-1,2.935,2.414,6.613,3.041,3.27,4.929,3.755,6.309,4.108,0.195,0.051.38,0.1,0.559,0.151a2.586,2.586,0,0,0,1.729-.31,4.346,4.346,0,0,0,1.14-.753c0.04-.1.093-0.228,0.154-0.37a7.167,7.167,0,0,0,.3-0.782c0.007-.055.016-0.106,0.025-0.15-0.17-.1-0.508-0.3-0.861-0.509-0.951-.559-1.637-0.965-1.819-1.1a0.38,0.38,0,0,0-.07-0.042,0.336,0.336,0,0,0-.077.046,3.533,3.533,0,0,0-.789.88,0.932,0.932,0,0,1-.835.461,1.392,1.392,0,0,1-.24-0.021,1.93,1.93,0,0,1-.46-0.147c-2.586-.959-4.075-3.461-4.636-4.405-0.071-.119-0.138-0.231-0.167-0.273a1.2,1.2,0,0,1,.091-1.7c0.087-.073.227-0.179,0.39-0.3,0.241-.182.571-0.431,0.7-0.558-0.262-.45-1.3-2.224-1.6-2.719a7.321,7.321,0,0,0-1.093.271,4.371,4.371,0,0,0-.633.764A6.68,6.68,0,0,0,164.255,851.982Zm12.169,9.788h0Zm0.56-1.22h0Zm-2.836-1.713h0Zm-6-6.057h0Zm-2.723-2.407h0Z" transform="translate(-163 -849)"/>
</svg>
