<svg xmlns="http://www.w3.org/2000/svg" width="20" height="20" viewBox="0 0 20 20">
  <metadata><?xpacket begin="﻿" id="W5M0MpCehiHzreSzNTczkc9d"?>
<x:xmpmeta xmlns:x="adobe:ns:meta/" x:xmptk="Adobe XMP Core 5.6-c138 79.159824, 2016/09/14-01:09:01        ">
   <rdf:RDF xmlns:rdf="http://www.w3.org/1999/02/22-rdf-syntax-ns#">
      <rdf:Description rdf:about=""/>
   </rdf:RDF>
</x:xmpmeta>
                                                                                                    
                                                                                                    
                                                                                                    
                                                                                                    
                                                                                                    
                                                                                                    
                                                                                                    
                                                                                                    
                                                                                                    
                                                                                                    
                                                                                                    
                                                                                                    
                                                                                                    
                                                                                                    
                                                                                                    
                                                                                                    
                                                                                                    
                                                                                                    
                                                                                                    
                                                                                                    
                           
<?xpacket end="w"?></metadata>
<defs>
    <style>
      .cls-1 {
        fill: none;
        stroke: #b693b1;
        stroke-width: 1px;
        fill-rule: evenodd;
      }
    </style>
  </defs>
  <path class="cls-1" d="M714.86,84.41h-1.866v2.663a1.531,1.531,0,0,1-1.507,1.568h-0.475a1.53,1.53,0,0,1-1.506-1.568V84.41h-5.715v2.663a1.541,1.541,0,0,1-1.519,1.568H701.8a1.551,1.551,0,0,1-1.531-1.568V84.41H698.14a1.179,1.179,0,0,0-1.14,1.2v15.206A1.166,1.166,0,0,0,698.14,102h16.72a1.166,1.166,0,0,0,1.14-1.185V85.609A1.179,1.179,0,0,0,714.86,84.41ZM714.4,99.532a0.837,0.837,0,0,1-.835.835H699.431a0.837,0.837,0,0,1-.835-0.835V91a0.837,0.837,0,0,1,.835-0.835h14.138A0.837,0.837,0,0,1,714.4,91v8.535ZM701.8,87.973h0.475a0.878,0.878,0,0,0,.851-0.9V83.889A0.87,0.87,0,0,0,702.272,83H701.8a0.88,0.88,0,0,0-.863.889v3.185A0.889,0.889,0,0,0,701.8,87.973Zm9.215,0h0.475a0.869,0.869,0,0,0,.839-0.9V83.888A0.86,0.86,0,0,0,711.487,83h-0.475a0.86,0.86,0,0,0-.838.888v3.185A0.869,0.869,0,0,0,711.012,87.973Zm-11.043,3.822h3.34v2.82h-3.34v-2.82Zm0,4.119h3.34v2.82h-3.34v-2.82Zm4.861-4.119h3.34v2.82h-3.34v-2.82Zm0,4.119h3.34v2.82h-3.34v-2.82Zm4.973-4.119h3.34v2.82H709.8v-2.82Zm0,4.119h3.34v2.82H709.8v-2.82Z" transform="translate(-696.5 -82.5)"/>
</svg>
