<svg xmlns="http://www.w3.org/2000/svg" width="74" height="10" viewBox="0 0 74 10">
  <metadata><?xpacket begin="﻿" id="W5M0MpCehiHzreSzNTczkc9d"?>
<x:xmpmeta xmlns:x="adobe:ns:meta/" x:xmptk="Adobe XMP Core 5.6-c138 79.159824, 2016/09/14-01:09:01        ">
   <rdf:RDF xmlns:rdf="http://www.w3.org/1999/02/22-rdf-syntax-ns#">
      <rdf:Description rdf:about=""/>
   </rdf:RDF>
</x:xmpmeta>





















<?xpacket end="w"?></metadata>
<defs>
    <style>
      .cls-1 {
        fill: #ffffff;
        fill-rule: evenodd;
      }
    </style>
  </defs>
  <path class="cls-1" d="M687,1864H649.936c-3.018,0-4.968-1.18-4.968-3.01a2.316,2.316,0,0,1,1.235-2.03,5.833,5.833,0,0,1,2.912-.65,4.837,4.837,0,0,0,2.72-.65,1.265,1.265,0,0,0,.666-0.88c0-.43-0.789-1.23-2.691-1.23H613V1854H649.81c2.825,0,3.828,1.5,3.828,2.78a2.668,2.668,0,0,1-1.307,2.27,5.833,5.833,0,0,1-3.216.81,4.873,4.873,0,0,0-2.459.52,1,1,0,0,0-.551.61c0,0.32.917,1.46,3.831,1.46H687V1864Z" transform="translate(-613 -1854)"/>
</svg>
