<svg xmlns="http://www.w3.org/2000/svg" width="21" height="21" viewBox="0 0 21 21">
  <metadata><?xpacket begin="﻿" id="W5M0MpCehiHzreSzNTczkc9d"?>
<x:xmpmeta xmlns:x="adobe:ns:meta/" x:xmptk="Adobe XMP Core 5.6-c138 79.159824, 2016/09/14-01:09:01        ">
   <rdf:RDF xmlns:rdf="http://www.w3.org/1999/02/22-rdf-syntax-ns#">
      <rdf:Description rdf:about=""/>
   </rdf:RDF>
</x:xmpmeta>
                                                                                                    
                                                                                                    
                                                                                                    
                                                                                                    
                                                                                                    
                                                                                                    
                                                                                                    
                                                                                                    
                                                                                                    
                                                                                                    
                                                                                                    
                                                                                                    
                                                                                                    
                                                                                                    
                                                                                                    
                                                                                                    
                                                                                                    
                                                                                                    
                                                                                                    
                                                                                                    
                           
<?xpacket end="w"?></metadata>
<defs>
    <style>
      .cls-1 {
        fill: #fff;
        fill-rule: evenodd;
      }
    </style>
  </defs>
  <path class="cls-1" d="M114.5,3821.89c2.8,0,3.136.01,4.243,0.06a6.013,6.013,0,0,1,1.95.36,3.357,3.357,0,0,1,1.207.79,3.283,3.283,0,0,1,.785,1.21,5.774,5.774,0,0,1,.362,1.95c0.05,1.1.061,1.44,0.061,4.24s-0.011,3.14-.061,4.24a5.774,5.774,0,0,1-.362,1.95,3.283,3.283,0,0,1-.785,1.21,3.357,3.357,0,0,1-1.207.79,6.013,6.013,0,0,1-1.95.36c-1.107.05-1.439,0.06-4.243,0.06s-3.136-.01-4.243-0.06a6.013,6.013,0,0,1-1.95-.36,3.357,3.357,0,0,1-1.207-.79,3.283,3.283,0,0,1-.785-1.21,5.774,5.774,0,0,1-.362-1.95c-0.05-1.1-.061-1.44-0.061-4.24s0.011-3.14.061-4.24a5.774,5.774,0,0,1,.362-1.95,3.283,3.283,0,0,1,.785-1.21,3.357,3.357,0,0,1,1.207-.79,6.013,6.013,0,0,1,1.95-.36c1.107-.05,1.439-0.06,4.243-0.06m0-1.89c-2.852,0-3.209.01-4.329,0.06a7.665,7.665,0,0,0-2.549.49,5.362,5.362,0,0,0-3.071,3.07,7.728,7.728,0,0,0-.488,2.55c-0.051,1.12-.063,1.48-0.063,4.33s0.012,3.21.063,4.33a7.728,7.728,0,0,0,.488,2.55,5.362,5.362,0,0,0,3.071,3.07,7.665,7.665,0,0,0,2.549.49c1.12,0.05,1.477.06,4.329,0.06s3.209-.01,4.329-0.06a7.665,7.665,0,0,0,2.549-.49,5.362,5.362,0,0,0,3.071-3.07,7.728,7.728,0,0,0,.488-2.55c0.051-1.12.063-1.48,0.063-4.33s-0.012-3.21-.063-4.33a7.728,7.728,0,0,0-.488-2.55,5.362,5.362,0,0,0-3.071-3.07,7.665,7.665,0,0,0-2.549-.49c-1.12-.05-1.477-0.06-4.329-0.06h0Zm0,5.11a5.39,5.39,0,1,0,5.392,5.39A5.389,5.389,0,0,0,114.5,3825.11Zm0,8.89a3.5,3.5,0,1,1,3.5-3.5A3.5,3.5,0,0,1,114.5,3834Zm6.865-9.1a1.26,1.26,0,1,1-1.26-1.26A1.264,1.264,0,0,1,121.365,3824.9Z" transform="translate(-104 -3820)"/>
</svg>
