<svg xmlns="http://www.w3.org/2000/svg" width="31" height="25" viewBox="0 0 31 25">
  <defs>
    <style>
      .cls-1 {
        fill: #fff;
        fill-rule: evenodd;
      }
    </style>
  </defs>
  <path class="cls-1" d="M595.236,532H567.759a1.752,1.752,0,0,1-1.76-1.74V513.618a1.748,1.748,0,0,1,1.379-1.7v-0.981a1.007,1.007,0,0,1,.289-0.753,1.437,1.437,0,0,1,1.1-.292h1.666a1.423,1.423,0,0,1,1.1.292,1.007,1.007,0,0,1,.289.753v0.94h1.321l0.4-3.394a1.542,1.542,0,0,1,1.548-1.491h13.643a1.542,1.542,0,0,1,1.548,1.491l0.4,3.394h4.568a1.751,1.751,0,0,1,1.76,1.74v16.639A1.751,1.751,0,0,1,595.236,532Zm-27.477-18.9a0.523,0.523,0,0,0-.526.52v16.639a0.523,0.523,0,0,0,.526.52h27.477a0.523,0.523,0,0,0,.525-0.52V513.618a0.523,0.523,0,0,0-.525-0.52h-5.119a0.615,0.615,0,0,1-.613-0.54l-0.462-3.964a0.562,0.562,0,0,1,0-.07,0.317,0.317,0,0,0-.314-0.311H575.08a0.317,0.317,0,0,0-.314.311c0,0.023,0,.046,0,0.07l-0.463,3.964a0.615,0.615,0,0,1-.613.54h-2.5a0.619,0.619,0,0,1-.467-0.211,0.606,0.606,0,0,1-.144-0.487l0.007-.05v-1.239h-0.13l-1.524,0-0.184,0h-0.13v1.248a0.651,0.651,0,0,1-.142.508,0.634,0.634,0,0,1-.462.231h-0.249Zm14.541,15.41a6.978,6.978,0,1,1,7.059-6.978A7.027,7.027,0,0,1,582.3,528.508Zm0-12.736a5.758,5.758,0,1,0,5.825,5.758A5.8,5.8,0,0,0,582.3,515.772Zm-0.058,10.822a5.006,5.006,0,1,1,5.063-5.006A5.041,5.041,0,0,1,582.242,526.594Zm0-8.791a3.786,3.786,0,1,0,3.829,3.785A3.812,3.812,0,0,0,582.242,517.8Zm-11.385.755a2.4,2.4,0,1,1,2.428-2.4A2.417,2.417,0,0,1,570.857,518.558Zm0-3.581a1.181,1.181,0,1,0,1.194,1.181A1.189,1.189,0,0,0,570.857,514.977Zm14.822-2.773h-7.431a1.351,1.351,0,1,1,0-2.685h7.431A1.351,1.351,0,1,1,585.679,512.2Zm-7.431-1.465c-0.1,0-.264.016-0.264,0.122s0.165,0.122.264,0.122h7.431c0.1,0,.264-0.015.264-0.122s-0.166-.122-0.264-0.122h-7.431Z" transform="translate(-566 -507)"/>
</svg>
