<svg xmlns="http://www.w3.org/2000/svg" width="12" height="16" viewBox="0 0 12 16">
  <metadata><?xpacket begin="﻿" id="W5M0MpCehiHzreSzNTczkc9d"?>
<x:xmpmeta xmlns:x="adobe:ns:meta/" x:xmptk="Adobe XMP Core 5.6-c138 79.159824, 2016/09/14-01:09:01        ">
   <rdf:RDF xmlns:rdf="http://www.w3.org/1999/02/22-rdf-syntax-ns#">
      <rdf:Description rdf:about=""/>
   </rdf:RDF>
</x:xmpmeta>
                                                                                                    
                                                                                                    
                                                                                                    
                                                                                                    
                                                                                                    
                                                                                                    
                                                                                                    
                                                                                                    
                                                                                                    
                                                                                                    
                                                                                                    
                                                                                                    
                                                                                                    
                                                                                                    
                                                                                                    
                                                                                                    
                                                                                                    
                                                                                                    
                                                                                                    
                                                                                                    
                           
<?xpacket end="w"?></metadata>
<defs>
    <style>
      .cls-1 {
        fill: #9f7f9a;
        fill-rule: evenodd;
      }
    </style>
  </defs>
  <path class="cls-1" d="M99.721,955.91H97.04v2.237h2.681V955.91ZM99.157,957.6H97.6v-1.151h1.553V957.6Zm3.853-1.694h-2.681v2.237h2.681V955.91Zm-0.564,1.694h-1.553v-1.151h1.553V957.6Zm-2.725,1.05H97.04v2.238h2.681v-2.238Zm-0.564,1.7H97.6V959.2h1.553v1.152Zm3.853-1.7h-2.681v2.238h2.681v-2.238Zm-0.564,1.7h-1.553V959.2h1.553v1.152Zm-2.725,1.291H97.04v2.237h2.681V961.64Zm-0.564,1.694H97.6v-1.151h1.553v1.151Zm3.853-1.694h-2.681v2.237h2.681V961.64Zm-0.564,1.694h-1.553v-1.151h1.553v1.151Zm2.136,5.97V954H95.418v15.3H94V970h12V969.3h-1.418Zm-3.266-.038H98.5v-3.883h2.818v3.883Zm-5.334-14.721h8.036v14.721H101.88V964.84H97.934v4.426H95.982V954.545Z" transform="translate(-94 -954)"/>
</svg>
