<svg xmlns="http://www.w3.org/2000/svg" width="18" height="17" viewBox="0 0 18 17">
  <metadata><?xpacket begin="﻿" id="W5M0MpCehiHzreSzNTczkc9d"?>
<x:xmpmeta xmlns:x="adobe:ns:meta/" x:xmptk="Adobe XMP Core 5.6-c138 79.159824, 2016/09/14-01:09:01        ">
   <rdf:RDF xmlns:rdf="http://www.w3.org/1999/02/22-rdf-syntax-ns#">
      <rdf:Description rdf:about=""/>
   </rdf:RDF>
</x:xmpmeta>
                                                                                                    
                                                                                                    
                                                                                                    
                                                                                                    
                                                                                                    
                                                                                                    
                                                                                                    
                                                                                                    
                                                                                                    
                                                                                                    
                                                                                                    
                                                                                                    
                                                                                                    
                                                                                                    
                                                                                                    
                                                                                                    
                                                                                                    
                                                                                                    
                                                                                                    
                                                                                                    
                           
<?xpacket end="w"?></metadata>
<defs>
    <style>
      .cls-1 {
        fill: #9f7f9a;
        fill-rule: evenodd;
      }
    </style>
  </defs>
  <path class="cls-1" d="M304.02,140.946h-2.345v-0.352a1.612,1.612,0,0,0-3.223,0v0.352h-3.358v-0.352a1.612,1.612,0,0,0-3.223,0v0.352H289.98A1.971,1.971,0,0,0,288,142.9v11.139A1.972,1.972,0,0,0,289.98,156h14.04a1.972,1.972,0,0,0,1.98-1.958V142.9A1.971,1.971,0,0,0,304.02,140.946Zm-4.6-.352a0.644,0.644,0,0,1,1.288,0v2.171a0.644,0.644,0,0,1-1.288,0v-2.171Zm-6.581,0a0.644,0.644,0,0,1,1.288,0v2.171a0.644,0.644,0,0,1-1.288,0v-2.171Zm12.193,13.448a1.008,1.008,0,0,1-1.012,1H289.98a1.008,1.008,0,0,1-1.012-1V142.9a1.007,1.007,0,0,1,1.012-1h1.891v0.862a1.612,1.612,0,0,0,3.223,0V141.9h3.358v0.862a1.612,1.612,0,0,0,3.223,0V141.9h2.345a1.007,1.007,0,0,1,1.012,1v11.139Zm-14.9-.339h13.445V145.81H290.136V153.7Zm0.968-6.937h11.509v5.98H291.1v-5.98Z" transform="translate(-288 -139)"/>
</svg>
