<svg xmlns="http://www.w3.org/2000/svg" xmlns:xlink="http://www.w3.org/1999/xlink" width="14" height="28" viewBox="0 0 14 28">
  <metadata><?xpacket begin="﻿" id="W5M0MpCehiHzreSzNTczkc9d"?>
<x:xmpmeta xmlns:x="adobe:ns:meta/" x:xmptk="Adobe XMP Core 5.6-c138 79.159824, 2016/09/14-01:09:01        ">
   <rdf:RDF xmlns:rdf="http://www.w3.org/1999/02/22-rdf-syntax-ns#">
      <rdf:Description rdf:about=""/>
   </rdf:RDF>
</x:xmpmeta>
                                                                                                    
                                                                                                    
                                                                                                    
                                                                                                    
                                                                                                    
                                                                                                    
                                                                                                    
                                                                                                    
                                                                                                    
                                                                                                    
                                                                                                    
                                                                                                    
                                                                                                    
                                                                                                    
                                                                                                    
                                                                                                    
                                                                                                    
                                                                                                    
                                                                                                    
                                                                                                    
                           
<?xpacket end="w"?></metadata>
<defs>
    <style>
      .cls-1 {
        fill: #fff;
        fill-rule: evenodd;
        filter: url(#filter);
      }
    </style>
    <filter id="filter" x="1071" y="1148" width="14" height="28" filterUnits="userSpaceOnUse">
      <feOffset result="offset" dx="0.5" dy="0.866" in="SourceAlpha"/>
      <feGaussianBlur result="blur"/>
      <feFlood result="flood" flood-color="#242424" flood-opacity="0.4"/>
      <feComposite result="composite" operator="in" in2="blur"/>
      <feBlend result="blend" in="SourceGraphic"/>
    </filter>
  </defs>
  <path class="cls-1" d="M1077.25,1155.5a2.186,2.186,0,1,1,2.26-2.18A2.229,2.229,0,0,1,1077.25,1155.5Zm0-3.7a1.516,1.516,0,1,0,1.57,1.52A1.55,1.55,0,0,0,1077.25,1151.8Zm-0.54,23.2c-0.46,0-.83-0.44-1.21-1.43a19.678,19.678,0,0,1-.83-3,38.783,38.783,0,0,1-.83-7.06c0-.38.02-3.78,0.03-4.49-0.51-.55-2.87-3.26-2.87-5.24,0-.44.33-1.35,1.87-3.18a13.74,13.74,0,0,1,2.61-2.5,0.6,0.6,0,0,1,.57-0.04c0.4,0.24.12,0.79-.01,1.06-0.18.34-.46,0.8-0.75,1.28-0.66,1.08-1.57,2.56-1.57,3.31a6.161,6.161,0,0,0,1.69,2.38,7.215,7.215,0,0,0,1.77.12c0.15,0,.3-0.01.44-0.01a5.916,5.916,0,0,0,1.37-.08c0.35-.24,1.74-1.8,1.74-2.62,0-1.07-1.2-2.53-2-3.49-0.28-.35-0.53-0.66-0.7-0.9a0.715,0.715,0,0,1-.12-0.88,0.768,0.768,0,0,1,.87-0.08,8.715,8.715,0,0,1,2.74,2.15,6.086,6.086,0,0,1,1.75,3.53,6.7,6.7,0,0,1-1.59,3.42c-0.62.83-1.23,1.51-1.46,1.77,0.07,1.17.07,1.48,0.06,2.43v0.75c0.3,0.22,1.02.77,1.74,1.39,1.77,1.52,1.98,2.14,1.98,2.47a0.654,0.654,0,0,1-.25.52c-1.82,1.39-4.83,2.36-6.03,2.18a0.792,0.792,0,0,1-.57-0.3v0.41c0,0.56.05,1.32,0.12,2.12,0.18,2.3.22,3.44-.17,3.84A0.522,0.522,0,0,1,1076.71,1175Zm0.01-.67h0Zm-1.45-25.23a18.783,18.783,0,0,0-1.74,1.78c-1.36,1.58-1.84,2.55-1.84,2.9,0,1.91,2.75,4.86,2.78,4.89a0.334,0.334,0,0,1,.09.23c0,0.04-.03,4.19-0.03,4.61a36.917,36.917,0,0,0,.78,6.73c0.56,2.77,1.09,3.77,1.33,4.03a4.514,4.514,0,0,0,.07-1.04c-0.01-.64-0.07-1.43-0.13-2.19-0.06-.81-0.12-1.58-0.12-2.17a25.8,25.8,0,0,1,.45-4.49,0.337,0.337,0,0,1,.17-0.22,0.343,0.343,0,0,1,.28-0.03c0.03,0.01.8,0.27,1.6,0.59,1.61,0.66,1.8.93,1.86,1.16a0.4,0.4,0,0,1-.11.4,9.274,9.274,0,0,1-1.79,1.19,9.668,9.668,0,0,0-1.05.64,6.082,6.082,0,0,0,2.03-.36,11.324,11.324,0,0,0,3.41-1.69c0-.08-0.11-0.55-1.69-1.92-0.93-.8-1.88-1.5-1.89-1.51a0.314,0.314,0,0,1-.14-0.26v-0.92c0.01-.97.01-1.27-0.07-2.53a0.384,0.384,0,0,1,.09-0.25c0.83-.87,2.97-3.44,2.97-4.84,0-.86-0.65-2.36-2.46-3.97a6.656,6.656,0,0,0-1.44-1.02c0.16,0.22.39,0.5,0.59,0.75,0.91,1.1,2.15,2.61,2.15,3.91,0,1.14-1.59,2.87-2.03,3.16a3.527,3.527,0,0,1-1.76.21c-0.15,0-.29,0-0.44.01-1.91.03-2.16-.21-2.25-0.3-0.08-.07-1.91-1.86-1.91-2.87,0-.93.89-2.38,1.67-3.65C1074.88,1149.76,1075.1,1149.4,1075.27,1149.1Zm2.43,18.96h0Zm-0.18-3.16a24.3,24.3,0,0,0-.34,2.95,4.373,4.373,0,0,1,1.4-.96,11.354,11.354,0,0,0,1.45-.92A14.8,14.8,0,0,0,1077.52,1164.9Zm0.65-16.45h0Z" transform="translate(-1071 -1148)"/>
</svg>
