<svg xmlns="http://www.w3.org/2000/svg" width="24" height="24" viewBox="0 0 24 24">
  <metadata><?xpacket begin="﻿" id="W5M0MpCehiHzreSzNTczkc9d"?>
<x:xmpmeta xmlns:x="adobe:ns:meta/" x:xmptk="Adobe XMP Core 5.6-c138 79.159824, 2016/09/14-01:09:01        ">
   <rdf:RDF xmlns:rdf="http://www.w3.org/1999/02/22-rdf-syntax-ns#">
      <rdf:Description rdf:about=""/>
   </rdf:RDF>
</x:xmpmeta>
                                                                                                    
                                                                                                    
                                                                                                    
                                                                                                    
                                                                                                    
                                                                                                    
                                                                                                    
                                                                                                    
                                                                                                    
                                                                                                    
                                                                                                    
                                                                                                    
                                                                                                    
                                                                                                    
                                                                                                    
                                                                                                    
                                                                                                    
                                                                                                    
                                                                                                    
                                                                                                    
                           
<?xpacket end="w"?></metadata>
<defs>
    <style>
      .cls-1 {
        fill: #c7c2ba;
        fill-rule: evenodd;
      }
    </style>
  </defs>
  <path class="cls-1" d="M659.084,327.185h-1.121V320.81H641.756v6.007h-1.121v-7.14h18.449v7.508ZM660.57,339H639.625A1.647,1.647,0,0,1,638,337.074V326.052c0-.085,0-0.163,0-0.235a1.8,1.8,0,0,1,.418-1.409c0.351-.415,2.1-1.976,2.3-2.153l0.742,0.85c-0.725.647-1.961,1.774-2.188,2.041a0.716,0.716,0,0,0-.147.657c0,0.076,0,.159,0,0.249v11.022c0,0.793.291,0.793,0.5,0.793H660.57a2.02,2.02,0,0,0,.309-1.417v-10.6a1.35,1.35,0,0,0-.425-1.186c-0.548-.554-2.156-1.875-2.172-1.888l0.707-.88c0.068,0.056,1.669,1.372,2.258,1.966a2.456,2.456,0,0,1,.753,1.988v10.6C662,338.816,660.905,339,660.57,339Zm-4.262-15.385H643.13v-1.133h13.178v1.133Zm0,2.267H643.13v-1.133h13.178v1.133Zm4.222,12.288L649.946,329.7l-10.418,8.472-0.7-.883,11.116-9.039,11.286,9.036Zm-14.264-6.483-7.795-6.035,0.682-.9,7.795,6.035Zm7.468,0-0.682-.9,7.795-6.035,0.682,0.9Zm1.878-10.838c-0.194-.165-4.776-4.032-5.36-4.539-0.306-.264-0.4-0.2-0.6-0.012-0.339.314-4.878,4.058-5.394,4.484l-0.709-.878c2.018-1.665,5.107-4.221,5.345-4.441a1.441,1.441,0,0,1,2.089-.013c0.58,0.5,5.3,4.488,5.35,4.529Z" transform="translate(-638 -315)"/>
</svg>
