<svg xmlns="http://www.w3.org/2000/svg" width="37" height="39" viewBox="0 0 37 39">
  <metadata><?xpacket begin="﻿" id="W5M0MpCehiHzreSzNTczkc9d"?>
<x:xmpmeta xmlns:x="adobe:ns:meta/" x:xmptk="Adobe XMP Core 5.6-c138 79.159824, 2016/09/14-01:09:01        ">
   <rdf:RDF xmlns:rdf="http://www.w3.org/1999/02/22-rdf-syntax-ns#">
      <rdf:Description rdf:about=""/>
   </rdf:RDF>
</x:xmpmeta>
                                                                                                    
                                                                                                    
                                                                                                    
                                                                                                    
                                                                                                    
                                                                                                    
                                                                                                    
                                                                                                    
                                                                                                    
                                                                                                    
                                                                                                    
                                                                                                    
                                                                                                    
                                                                                                    
                                                                                                    
                                                                                                    
                                                                                                    
                                                                                                    
                                                                                                    
                                                                                                    
                           
<?xpacket end="w"?></metadata>
<defs>
    <style>
      .cls-1 {
        fill: #9f7f9a;
        fill-rule: evenodd;
      }
    </style>
  </defs>
  <path class="cls-1" d="M128.644,2517l-6.018-2.05h-0.252l-6.018,2.05v-4.72l3.424-2.75v-7.51L104,2507.24v-5.45l15.78-9.96v-11.22a2.509,2.509,0,0,1,2.686-2.61h0.068a2.509,2.509,0,0,1,2.686,2.61v11.22l15.78,9.96v5.45l-15.78-5.22v7.51l3.424,2.75V2517Zm-6.488-3.43h0.688l4.457,1.52v-2.14l-3.424-2.75v-10.07l15.78,5.22v-2.79l-15.78-9.96v-11.99a1.2,1.2,0,0,0-1.336-1.24h-0.082a1.2,1.2,0,0,0-1.336,1.24v11.99l-15.78,9.96v2.79l15.78-5.22v10.07l-3.424,2.75v2.14Z" transform="translate(-104 -2478)"/>
</svg>
