<svg xmlns="http://www.w3.org/2000/svg" width="28" height="28" viewBox="0 0 28 28">
  <metadata><?xpacket begin="﻿" id="W5M0MpCehiHzreSzNTczkc9d"?>
<x:xmpmeta xmlns:x="adobe:ns:meta/" x:xmptk="Adobe XMP Core 5.6-c138 79.159824, 2016/09/14-01:09:01        ">
   <rdf:RDF xmlns:rdf="http://www.w3.org/1999/02/22-rdf-syntax-ns#">
      <rdf:Description rdf:about=""/>
   </rdf:RDF>
</x:xmpmeta>
                                                                                                    
                                                                                                    
                                                                                                    
                                                                                                    
                                                                                                    
                                                                                                    
                                                                                                    
                                                                                                    
                                                                                                    
                                                                                                    
                                                                                                    
                                                                                                    
                                                                                                    
                                                                                                    
                                                                                                    
                                                                                                    
                                                                                                    
                                                                                                    
                                                                                                    
                                                                                                    
                           
<?xpacket end="w"?></metadata>
<defs>
    <style>
      .cls-1 {
        fill: #c7c2ba;
        fill-rule: evenodd;
      }
    </style>
  </defs>
  <path class="cls-1" d="M656.505,507a5.392,5.392,0,0,1-.871-0.066V507H640.165l-0.073-.013c-1.07-.177-3.093-1.075-3.093-3.2a3.372,3.372,0,0,1,2.615-3.253l0.1-.023h16.431c0.06,0,.1,0,0.122,0l-0.035,1.787h-0.066a1.659,1.659,0,0,0-1.038.39,1.457,1.457,0,0,0-.366,1.1,1.379,1.379,0,0,0,.332,1.029,2.287,2.287,0,0,0,1.533.4h0.085a1.988,1.988,0,0,0,1.861-1.906V482.689a3.267,3.267,0,0,1,3.211-3.456,3.129,3.129,0,0,1,3.211,3.1,3.354,3.354,0,0,1-1.542,2.638,4.014,4.014,0,0,1-3.079.646V503.3A3.781,3.781,0,0,1,656.714,507h-0.209Zm-16.178-1.789h12.907a3.572,3.572,0,0,1-.271-1.43,3.617,3.617,0,0,1,.294-1.489H639.945a1.566,1.566,0,0,0-1.146,1.489C638.8,504.813,640.037,505.145,640.327,505.209Zm20.049-21.445a2.238,2.238,0,0,0,2.051-.263,1.617,1.617,0,0,0,.769-1.17,1.347,1.347,0,0,0-1.41-1.31,1.487,1.487,0,0,0-1.41,1.668v1.075Zm-17.015,17.3h-1.8V483.017A3.813,3.813,0,0,1,645.011,479h16.565v1.788H645.011a2.081,2.081,0,0,0-1.65,2.234v18.051Zm6.6-15.579h-4.952V483.7h4.952v1.787Zm7.141,3.4H645.011V487.1H657.1v1.787Zm0,3.217H645.011v-1.787H657.1V492.1Zm0,3.575H645.011V493.89H657.1v1.787Zm0,3.575H645.011v-1.787H657.1v1.787Z" transform="translate(-637 -479)"/>
</svg>
