<svg xmlns="http://www.w3.org/2000/svg" width="35" height="27" viewBox="0 0 35 27">
  <metadata><?xpacket begin="﻿" id="W5M0MpCehiHzreSzNTczkc9d"?>
<x:xmpmeta xmlns:x="adobe:ns:meta/" x:xmptk="Adobe XMP Core 5.6-c138 79.159824, 2016/09/14-01:09:01        ">
   <rdf:RDF xmlns:rdf="http://www.w3.org/1999/02/22-rdf-syntax-ns#">
      <rdf:Description rdf:about=""/>
   </rdf:RDF>
</x:xmpmeta>
                                                                                                    
                                                                                                    
                                                                                                    
                                                                                                    
                                                                                                    
                                                                                                    
                                                                                                    
                                                                                                    
                                                                                                    
                                                                                                    
                                                                                                    
                                                                                                    
                                                                                                    
                                                                                                    
                                                                                                    
                                                                                                    
                                                                                                    
                                                                                                    
                                                                                                    
                                                                                                    
                           
<?xpacket end="w"?></metadata>
<defs>
    <style>
      .cls-1 {
        fill: #9f7f9a;
        fill-rule: evenodd;
      }
    </style>
  </defs>
  <path class="cls-1" d="M690.528,2624.07a5.929,5.929,0,1,1,6.256-5.92A6.1,6.1,0,0,1,690.528,2624.07Zm0-10.78a4.867,4.867,0,1,0,5.129,4.86A5.006,5.006,0,0,0,690.528,2613.29ZM705.867,2629H675.188a2.143,2.143,0,0,1-2.188-2.04v-17.22a2.058,2.058,0,0,1,1.8-1.95V2607a1.089,1.089,0,0,1,1.133-1h3.6a0.988,0.988,0,0,1,1.02,1v0.76h0.121l0.387-4.5a1.317,1.317,0,0,1,1.346-1.26h16.166a1.317,1.317,0,0,1,1.346,1.26l0.387,4.5h5.562a2.039,2.039,0,0,1,2.133,1.98v17.22A2.094,2.094,0,0,1,705.867,2629Zm-30.679-20.17a1,1,0,0,0-1.061.91v17.22a1.043,1.043,0,0,0,1.061.97h30.679a0.987,0.987,0,0,0,1.006-.97v-17.22a0.94,0.94,0,0,0-1.006-.91h-6.6l-0.474-5.55a0.221,0.221,0,0,0-.219-0.21H682.406a0.221,0.221,0,0,0-.219.21l0,0.05-0.472,5.5h-2.288v-1.76h-3.494v1.76h-0.743Zm15.415,17.59a8.353,8.353,0,1,1,8.811-8.34A8.594,8.594,0,0,1,690.6,2626.42Zm0-15.62a7.286,7.286,0,1,0,7.684,7.28A7.5,7.5,0,0,0,690.6,2610.8Zm-12.869,4.65a2.514,2.514,0,1,1,2.649-2.51A2.588,2.588,0,0,1,677.734,2615.45Zm0-3.95a1.442,1.442,0,1,0,1.522,1.44A1.48,1.48,0,0,0,677.734,2611.5Zm17.068-4.32h-8.557a1.5,1.5,0,1,1,0-2.99H694.8A1.5,1.5,0,1,1,694.8,2607.18Zm-8.557-1.93a0.446,0.446,0,0,0-.451.43,0.439,0.439,0,0,0,.451.43H694.8a0.439,0.439,0,0,0,.451-0.43,0.446,0.446,0,0,0-.451-0.43h-8.557Z" transform="translate(-673 -2602)"/>
</svg>
