<svg xmlns="http://www.w3.org/2000/svg" width="20" height="23" viewBox="0 0 20 23">
  <metadata><?xpacket begin="﻿" id="W5M0MpCehiHzreSzNTczkc9d"?>
<x:xmpmeta xmlns:x="adobe:ns:meta/" x:xmptk="Adobe XMP Core 5.6-c138 79.159824, 2016/09/14-01:09:01        ">
   <rdf:RDF xmlns:rdf="http://www.w3.org/1999/02/22-rdf-syntax-ns#">
      <rdf:Description rdf:about=""/>
   </rdf:RDF>
</x:xmpmeta>
                                                                                                    
                                                                                                    
                                                                                                    
                                                                                                    
                                                                                                    
                                                                                                    
                                                                                                    
                                                                                                    
                                                                                                    
                                                                                                    
                                                                                                    
                                                                                                    
                                                                                                    
                                                                                                    
                                                                                                    
                                                                                                    
                                                                                                    
                                                                                                    
                                                                                                    
                                                                                                    
                           
<?xpacket end="w"?></metadata>
<defs>
    <style>
      .cls-1 {
        fill: #a8a39b;
        fill-rule: evenodd;
      }
    </style>
  </defs>
  <path class="cls-1" d="M1038.22,2015.56h-3.29a0.976,0.976,0,0,1,0-1.95h3.29A0.976,0.976,0,0,1,1038.22,2015.56Zm-3.29-1.05a0.071,0.071,0,0,0-.07.08,0.077,0.077,0,0,0,.07.08h3.29a0.077,0.077,0,0,0,.07-0.08,0.071,0.071,0,0,0-.07-0.08h-3.29Zm7.75-2.58-0.6-.63a0.01,0.01,0,0,0-.01.01,1.348,1.348,0,0,0,.09-1.14c-0.04-.19-0.1-0.38-0.15-0.56a2.565,2.565,0,0,1,.14-2.43,0.413,0.413,0,0,1,.6-0.09,0.453,0.453,0,0,1,.09.62,1.716,1.716,0,0,0,0,1.65c0.05,0.19.1,0.38,0.16,0.6A2.091,2.091,0,0,1,1042.68,2011.93Zm3.43,0-0.6-.63a0.01,0.01,0,0,0-.01.01,1.348,1.348,0,0,0,.09-1.14c-0.04-.19-0.1-0.38-0.15-0.56a2.565,2.565,0,0,1,.14-2.43,0.413,0.413,0,0,1,.6-0.09,0.453,0.453,0,0,1,.09.62,1.716,1.716,0,0,0,0,1.65c0.05,0.19.1,0.38,0.16,0.6A2.091,2.091,0,0,1,1046.11,2011.93Zm3.35,0-0.61-.63-0.01.01a1.323,1.323,0,0,0,.1-1.14c-0.05-.19-0.1-0.38-0.15-0.56a2.592,2.592,0,0,1,.13-2.43,0.414,0.414,0,0,1,.6-0.09,0.453,0.453,0,0,1,.09.62,1.744,1.744,0,0,0,0,1.65c0.05,0.19.11,0.38,0.16,0.6A2.1,2.1,0,0,1,1049.46,2011.93Zm4.47,16.03-2.75-8.88a1.1,1.1,0,0,0-.09-0.23,7.8,7.8,0,0,0,2.05-5.27,0.472,0.472,0,0,0-.12-0.32,0.439,0.439,0,0,0-.31-0.13h-13.97a0.439,0.439,0,0,0-.31.13,0.472,0.472,0,0,0-.12.32,7.826,7.826,0,0,0,1.99,5.21,1.78,1.78,0,0,0-.12.29l-2.74,8.88a1.563,1.563,0,0,0,.97,1.96,1.389,1.389,0,0,0,.46.08,1.5,1.5,0,0,0,1.42-1.08l2.56-8.27a7.163,7.163,0,0,0,5.67.03l2.55,8.24a1.515,1.515,0,0,0,1.43,1.08,1.484,1.484,0,0,0,.46-0.08A1.572,1.572,0,0,0,1053.93,2027.96Zm-14.45.68a0.648,0.648,0,0,1-.61.47,0.448,0.448,0,0,1-.2-0.04,0.672,0.672,0,0,1-.42-0.84l2.72-8.78a8.318,8.318,0,0,0,1.1.8Zm3.33-8.99a0.053,0.053,0,0,0-.03-0.02,6.437,6.437,0,0,1-1.61-1.2,0.435,0.435,0,0,0-.07-0.06,6.949,6.949,0,0,1-1.92-4.34h13.09a6.907,6.907,0,0,1-1.93,4.34c-0.03.04-.07,0.07-0.1,0.11-0.06.05-.12,0.11-0.18,0.17a0.01,0.01,0,0,0-.01.01,6.467,6.467,0,0,1-1.45,1c-0.01.01-.02,0.01-0.03,0.02A6.4,6.4,0,0,1,1042.81,2019.65Zm9.89,9.42a0.477,0.477,0,0,1-.2.04,0.639,0.639,0,0,1-.61-0.47l-2.59-8.35a7.658,7.658,0,0,0,1.11-.78l2.7,8.72A0.675,0.675,0,0,1,1052.7,2029.07Z" transform="translate(-1034 -2007)"/>
</svg>
