<svg xmlns="http://www.w3.org/2000/svg" width="33.969" height="32" viewBox="0 0 33.969 32">
  <metadata><?xpacket begin="﻿" id="W5M0MpCehiHzreSzNTczkc9d"?>
<x:xmpmeta xmlns:x="adobe:ns:meta/" x:xmptk="Adobe XMP Core 5.6-c138 79.159824, 2016/09/14-01:09:01        ">
   <rdf:RDF xmlns:rdf="http://www.w3.org/1999/02/22-rdf-syntax-ns#">
      <rdf:Description rdf:about=""/>
   </rdf:RDF>
</x:xmpmeta>
                                                                                                    
                                                                                                    
                                                                                                    
                                                                                                    
                                                                                                    
                                                                                                    
                                                                                                    
                                                                                                    
                                                                                                    
                                                                                                    
                                                                                                    
                                                                                                    
                                                                                                    
                                                                                                    
                                                                                                    
                                                                                                    
                                                                                                    
                                                                                                    
                                                                                                    
                                                                                                    
                           
<?xpacket end="w"?></metadata>
<defs>
    <style>
      .cls-1 {
        fill: #9f7f9a;
        fill-rule: evenodd;
      }
    </style>
  </defs>
  <path class="cls-1" d="M136.093,2637a2.344,2.344,0,0,1-2.524-2.13v-0.58H122.293v0.55l0,0.04a2.343,2.343,0,0,1-2.381,2.09,2.152,2.152,0,0,1-1.963-1.09,2.586,2.586,0,0,1-.321-1.05v-0.64a6.042,6.042,0,0,1-3.943-1.35,4.584,4.584,0,0,1-1.377-3.52c0-4.4.079-16.26,0.092-18.12l-1.251-1.26H109.2a2.323,2.323,0,0,1-2.2-2.29,2.409,2.409,0,0,1,2.311-2.65h2.752a2.94,2.94,0,0,1,2.045,1.18,18.242,18.242,0,0,0,1.465,1.61h22.871a2.555,2.555,0,0,1,1.869.6,2.2,2.2,0,0,1,.66,1.68v10.76a2.386,2.386,0,0,1-.427,1.64,2.463,2.463,0,0,1-1.769.91c-1.763.2-18.574,2.13-21.723,2.5v2.74a1.269,1.269,0,0,0,.227.77,0.5,0.5,0,0,0,.373.13h21.1a2.3,2.3,0,0,1,2.135,2.21,2.25,2.25,0,0,1-2.129,2.5h-0.526l0,0.63A2.2,2.2,0,0,1,136.093,2637Zm-14.939-3.88h13.554v1.75a1.213,1.213,0,0,0,1.385.97,0.851,0.851,0,0,0,.816-0.48,1.74,1.74,0,0,0,.191-0.58v-1.71h1.665a1.117,1.117,0,0,0,.99-1.34,1.182,1.182,0,0,0-1.1-1.05h-21a1.6,1.6,0,0,1-1.2-.49,2.4,2.4,0,0,1-.542-1.61v-3.74l0.506-.06c0.2-.02,20.293-2.33,22.23-2.55a1.373,1.373,0,0,0,.988-0.47,1.215,1.215,0,0,0,.2-0.8l-0.007-.05v-10.84a1.07,1.07,0,0,0-.284-0.82,1.493,1.493,0,0,0-1.033-.3H115.122l-0.164-.15a20.532,20.532,0,0,1-1.739-1.9,1.869,1.869,0,0,0-1.192-.74h-2.716a1.273,1.273,0,0,0-1.172,1.49,0.957,0.957,0,0,0,.518.91,1.779,1.779,0,0,0,.628.22h2.327l1.926,1.93v0.25c0,0.13-.094,13.61-0.094,18.36a3.428,3.428,0,0,0,1,2.65,5.38,5.38,0,0,0,3.691,1.04l0.627-.06v1.82a1.481,1.481,0,0,0,.185.56,1.026,1.026,0,0,0,.96.48,1.146,1.146,0,0,0,1.023-.5,1.561,1.561,0,0,0,.223-0.55v-1.64Zm-5.182-10.82v-5.68h4.385v5.23Zm1.139-4.52v3.23l2.107-.21v-3.02h-2.107Zm4.556,3.98v-5.14h4.385v4.59Zm1.139-3.98v2.66l2.107-.26v-2.4h-2.107Zm4.556,3.17v-4.33h4.385v4Zm1.139-3.17v1.92l2.107-.16v-1.76H128.5Zm4.613,2.51v-3.67h4.328v3.27Zm1.139-2.51v1.24l2.05-.19v-1.05h-2.05Zm3.189-2.2h-4.328v-4.13h4.328v4.13Zm-3.189-1.17h2.05v-1.8h-2.05v1.8Zm-2.506,1.17h-4.385v-4.13h4.385v4.13Zm-3.246-1.17h2.107v-1.8H128.5v1.8Zm-2.449,1.17h-4.385v-4.13h4.385v4.13Zm-3.246-1.17h2.107v-1.8h-2.107v1.8Zm-2.449,1.17h-4.385v-4.13h4.385v4.13Zm-3.246-1.17h2.107v-1.8h-2.107v1.8Z" transform="translate(-107 -2605)"/>
</svg>
