<svg xmlns="http://www.w3.org/2000/svg" width="125.828" height="124.67" viewBox="0 0 125.828 124.67"><defs><style>.cls-1{fill:none;stroke:#9f7f9a;stroke-width:10.89px}.cls-2{fill:#9f7f9a;fill-rule:evenodd}</style></defs><circle class="cls-1" cx="62.914" cy="62.335" r="57.469"/><path class="cls-2" d="M67.197 57.395c-5.822-1.71-5.822-2.32-5.822-2.72 0-.97 1.847-1.12 2.947-1.12a16.143 16.143 0 0 1 6.481 1.25l4.373 1.78 4.78-8.97-3.134-1.31a27.266 27.266 0 0 0-6.763-1.79v-5.04H57.218v5.62c-6.3 1.65-10.324 5.49-10.324 10.17 0 7.34 9.82 10.08 13.967 11.24 5.042 1.45 5.042 2.42 5.042 2.94 0 1.26-2.066 1.71-3.836 1.71a18.245 18.245 0 0 1-7.46-1.58l-4.579-2.17-4.593 9.12 2.645 1.34a28 28 0 0 0 8.66 2.41v5.2h12.91v-5.76c6.589-1.7 10.8-5.71 10.8-10.61.002-7.05-7.575-10.07-13.253-11.71z"/></svg>