<svg id="Group_4541" data-name="Group 4541" xmlns="http://www.w3.org/2000/svg" viewBox="0 0 10.809 14.724">
  <defs>
    <style>
      .cls-1 {
        fill: #5a5a5a;
      }
    </style>
  </defs>
  <path id="Path_48" data-name="Path 48" class="cls-1" d="M5.42,0A5.416,5.416,0,0,0,0,5.42,5.5,5.5,0,0,0,.467,7.633a34.025,34.025,0,0,0,4.712,6.985.295.295,0,0,0,.452,0,34.025,34.025,0,0,0,4.712-6.985,5.26,5.26,0,0,0,.467-2.213A5.391,5.391,0,0,0,5.42,0Zm0,8.235A2.815,2.815,0,1,1,8.235,5.42,2.821,2.821,0,0,1,5.42,8.235Z"/>
</svg>
