<svg xmlns="http://www.w3.org/2000/svg" viewBox="0 0 25 45.418">
  <defs>
    <style>
      .cls-1 {
        fill: #acacac;
      }
    </style>
  </defs>
  <g id="Group_4136" data-name="Group 4136" transform="translate(-69.101 -3915.701)">
    <g id="Group_3060" data-name="Group 3060" transform="translate(-15 -32)">
      <path id="Path_30" data-name="Path 30" class="cls-1" d="M2.083,24.791a1.891,1.891,0,0,1-1.458-.625,2.014,2.014,0,0,1,0-2.917L21.249.625a2.014,2.014,0,0,1,2.917,0,2.014,2.014,0,0,1,0,2.917L3.542,24.166A1.551,1.551,0,0,1,2.083,24.791Z" transform="translate(108.891 3972.492) rotate(180)"/>
      <path id="Path_31" data-name="Path 31" class="cls-1" d="M22.916,25a1.891,1.891,0,0,1-1.458-.625L.625,3.542a2.014,2.014,0,0,1,0-2.917,2.014,2.014,0,0,1,2.917,0L24.374,21.458a2.014,2.014,0,0,1,0,2.917A2.25,2.25,0,0,1,22.916,25Z" transform="translate(109.1 3993.119) rotate(180)"/>
      <g id="Group_3062" data-name="Group 3062">
        <path id="Path_1018" data-name="Path 1018" class="cls-1" d="M2.083,24.791a1.891,1.891,0,0,1-1.458-.625,2.014,2.014,0,0,1,0-2.917L21.249.625a2.014,2.014,0,0,1,2.917,0,2.014,2.014,0,0,1,0,2.917L3.542,24.166A1.551,1.551,0,0,1,2.083,24.791Z" transform="translate(108.891 3972.492) rotate(180)"/>
        <path id="Path_1019" data-name="Path 1019" class="cls-1" d="M22.916,25a1.891,1.891,0,0,1-1.458-.625L.625,3.542a2.014,2.014,0,0,1,0-2.917,2.014,2.014,0,0,1,2.917,0L24.374,21.458a2.014,2.014,0,0,1,0,2.917A2.25,2.25,0,0,1,22.916,25Z" transform="translate(109.1 3993.119) rotate(180)"/>
      </g>
      <g id="Group_3063" data-name="Group 3063">
        <path id="Path_1018-2" data-name="Path 1018" class="cls-1" d="M2.083,24.791a1.891,1.891,0,0,1-1.458-.625,2.014,2.014,0,0,1,0-2.917L21.249.625a2.014,2.014,0,0,1,2.917,0,2.014,2.014,0,0,1,0,2.917L3.542,24.166A1.551,1.551,0,0,1,2.083,24.791Z" transform="translate(108.891 3972.492) rotate(180)"/>
        <path id="Path_1019-2" data-name="Path 1019" class="cls-1" d="M22.916,25a1.891,1.891,0,0,1-1.458-.625L.625,3.542a2.014,2.014,0,0,1,0-2.917,2.014,2.014,0,0,1,2.917,0L24.374,21.458a2.014,2.014,0,0,1,0,2.917A2.25,2.25,0,0,1,22.916,25Z" transform="translate(109.1 3993.119) rotate(180)"/>
      </g>
    </g>
  </g>
</svg>
