<svg xmlns="http://www.w3.org/2000/svg" viewBox="0 0 48.909 48.906">
  <defs>
    <style>
      .cls-1 {
        fill: #5c6670;
      }
    </style>
  </defs>
  <g id="Group_3219" data-name="Group 3219" transform="translate(-218 -1599.997)">
    <g id="Group_2377" data-name="Group 2377" transform="translate(258.701 1601.153) rotate(45)">
      <g id="Group_2376" data-name="Group 2376" transform="translate(0 0)">
        <path id="Path_1203" data-name="Path 1203" class="cls-1" d="M213.054,2.2A3.824,3.824,0,0,0,210.66.049,3.524,3.524,0,0,0,206.614,1.9,17.443,17.443,0,0,0,204.8,9.735V35.81a.856.856,0,0,0,.02.156l2.248,11.62a2.776,2.776,0,0,0,2.736,2.385h0a2.769,2.769,0,0,0,2.737-2.346l2.248-11.669a.856.856,0,0,0,.02-.156V9.735A17.937,17.937,0,0,0,213.054,2.2Zm.059,33.532-2.238,11.63a1.1,1.1,0,0,1-2.189-.039l-2.238-11.591v-26a15.854,15.854,0,0,1,1.652-7.1,1.876,1.876,0,0,1,2.1-.987,2.164,2.164,0,0,1,1.339,1.231,15.953,15.953,0,0,1,1.583,6.841l-.01,26.007Z" transform="translate(-204.796 0.064)"/>
      </g>
    </g>
    <g id="Group_2379" data-name="Group 2379" transform="translate(231.551 1599.997) rotate(45)">
      <g id="Group_2378" data-name="Group 2378">
        <path id="Path_1204" data-name="Path 1204" class="cls-1" d="M21.257,188.126a.846.846,0,0,0-.821-.02l-20,10.829a.832.832,0,0,0-.44.733v5a.834.834,0,0,0,.841.831,1.024,1.024,0,0,0,.293-.049l20.006-7.5a.837.837,0,0,0,.538-.782v-8.337A.856.856,0,0,0,21.257,188.126ZM20.006,196.6,1.671,203.47v-3.3l18.335-9.93Z" transform="translate(0 -188.01)"/>
      </g>
    </g>
    <g id="Group_2381" data-name="Group 2381" transform="translate(251.588 1620.029) rotate(45)">
      <g id="Group_2380" data-name="Group 2380">
        <path id="Path_1205" data-name="Path 1205" class="cls-1" d="M311.137,198.9l-20.006-10.829a.838.838,0,0,0-1.231.733v8.337a.837.837,0,0,0,.538.782l20.006,7.5a.77.77,0,0,0,.293.049.808.808,0,0,0,.469-.147.835.835,0,0,0,.362-.684v-5A.842.842,0,0,0,311.137,198.9Zm-1.231,4.535-18.335-6.871v-6.353l18.335,9.93Z" transform="translate(-289.9 -187.974)"/>
      </g>
    </g>
    <g id="Group_2383" data-name="Group 2383" transform="translate(238.622 1608.241) rotate(45)">
      <g id="Group_2382" data-name="Group 2382">
        <path id="Path_1206" data-name="Path 1206" class="cls-1" d="M113.3,196.5a2.507,2.507,0,0,0-2.5,2.5v2.5h1.671V199a.831.831,0,0,1,1.661,0v.831H115.8V199A2.507,2.507,0,0,0,113.3,196.5Z" transform="translate(-110.8 -196.5)"/>
      </g>
    </g>
    <g id="Group_2385" data-name="Group 2385" transform="translate(230.377 1605.884) rotate(45)">
      <g id="Group_2384" data-name="Group 2384">
        <path id="Path_1207" data-name="Path 1207" class="cls-1" d="M36.6,239.1a2.507,2.507,0,0,0-2.5,2.5v2.5h1.671v-2.5a.831.831,0,1,1,1.661,0H39.1A2.507,2.507,0,0,0,36.6,239.1Z" transform="translate(-34.1 -239.1)"/>
      </g>
    </g>
    <g id="Group_2387" data-name="Group 2387" transform="translate(255.125 1624.744) rotate(45)">
      <g id="Group_2386" data-name="Group 2386">
        <path id="Path_1208" data-name="Path 1208" class="cls-1" d="M352.1,196.5a2.507,2.507,0,0,0-2.5,2.5v.831h1.671V199a.831.831,0,1,1,1.661,0v2.5H354.6V199A2.507,2.507,0,0,0,352.1,196.5Z" transform="translate(-349.6 -196.5)"/>
      </g>
    </g>
    <g id="Group_2389" data-name="Group 2389" transform="translate(257.481 1632.988) rotate(45)">
      <g id="Group_2388" data-name="Group 2388">
        <path id="Path_1209" data-name="Path 1209" class="cls-1" d="M428.8,239.1a2.507,2.507,0,0,0-2.5,2.5h1.671a.831.831,0,1,1,1.661,0v2.5H431.3v-2.5A2.507,2.507,0,0,0,428.8,239.1Z" transform="translate(-426.3 -239.1)"/>
      </g>
    </g>
    <g id="Group_2391" data-name="Group 2391" transform="translate(224.987 1624.239) rotate(45)">
      <g id="Group_2390" data-name="Group 2390">
        <path id="Path_1210" data-name="Path 1210" class="cls-1" d="M138.592,417.458l-9.021,1.505v-1.876l7.926-4.76-.86-1.427-8.337,5a.816.816,0,0,0-.4.713v3.333a.833.833,0,0,0,.293.635.846.846,0,0,0,.538.2.644.644,0,0,0,.137-.01l10-1.671Z" transform="translate(-127.9 -410.9)"/>
      </g>
    </g>
    <g id="Group_2393" data-name="Group 2393" transform="translate(234.911 1634.163) rotate(45)">
      <g id="Group_2392" data-name="Group 2392">
        <path id="Path_1211" data-name="Path 1211" class="cls-1" d="M282.065,415.9l-8.337-5-.86,1.427,7.926,4.76v1.876l-9.021-1.505L271.5,419.1l10,1.671a.644.644,0,0,0,.137.01.827.827,0,0,0,.831-.831v-3.333A.837.837,0,0,0,282.065,415.9Z" transform="translate(-271.5 -410.9)"/>
      </g>
    </g>
    <g id="Group_2395" data-name="Group 2395" transform="translate(256.921 1606.513) rotate(45)">
      <g id="Group_2394" data-name="Group 2394">
        <path id="Path_1212" data-name="Path 1212" class="cls-1" d="M235.039,52.958a2.035,2.035,0,0,0-1.9-1.358,1.968,1.968,0,0,0-1.876,1.4l-.567,1.671,1.583.538.577-1.7a.323.323,0,0,1,.3-.235.314.314,0,0,1,.3.225l.567,1.71,1.583-.528Z" transform="translate(-230.7 -51.6)"/>
      </g>
    </g>
  </g>
</svg>
