<svg xmlns="http://www.w3.org/2000/svg" viewBox="0 0 63 64.05">
  <defs>
    <style>
      .cls-1 {
        fill: #5c6670;
      }
    </style>
  </defs>
  <g id="Group_1684" data-name="Group 1684" transform="translate(-1133 -2816.145)">
    <g id="Group_978" data-name="Group 978" transform="translate(1133 2825.595)">
      <g id="Group_977" data-name="Group 977">
        <path id="Path_600" data-name="Path 600" class="cls-1" d="M58.59,84.679a7.343,7.343,0,1,0-9.043.827,5.28,5.28,0,0,0-2.3,4.344V97.2h-4.2V91.95a7.364,7.364,0,0,0-6.484-7.3,7.35,7.35,0,1,0-10.133,0,7.354,7.354,0,0,0-6.484,7.3V97.2h-4.2V89.85a5.28,5.28,0,0,0-2.3-4.344,7.359,7.359,0,1,0-9.043-.827A5.25,5.25,0,0,0,0,89.85V105.6a5.264,5.264,0,0,0,4.2,5.145V126.6H6.3V110.85h9.45v14.7a1.053,1.053,0,0,0,1.05,1.05h6.3a1.053,1.053,0,0,0,1.05-1.05v-16.8h6.3V124.5h-4.2v2.1h10.5v-2.1h-4.2V108.75h6.3v16.8a1.053,1.053,0,0,0,1.05,1.05h6.3a1.053,1.053,0,0,0,1.05-1.05v-14.7H56.7V126.6h2.1V110.745A5.264,5.264,0,0,0,63,105.6V89.85A5.25,5.25,0,0,0,58.59,84.679ZM48.3,79.35a5.25,5.25,0,1,1,5.25,5.25A5.249,5.249,0,0,1,48.3,79.35Zm-22.05,0A5.25,5.25,0,1,1,31.5,84.6,5.249,5.249,0,0,1,26.25,79.35Zm6.891,7.35L31.5,91.057,29.859,86.7ZM22.05,91.95A5.249,5.249,0,0,1,27.3,86.7h.328l2.9,7.717a1.051,1.051,0,0,0,1.969,0L35.385,86.7h.328a5.249,5.249,0,0,1,5.25,5.25V97.2h-4.2a1.053,1.053,0,0,0-1.05,1.05v4.2h-8.4v-4.2a1.053,1.053,0,0,0-1.05-1.05h-4.2V91.95ZM4.2,79.35A5.25,5.25,0,1,1,9.45,84.6,5.249,5.249,0,0,1,4.2,79.35ZM22.05,124.5h-4.2V109.8a1.053,1.053,0,0,0-1.05-1.05H5.25A3.159,3.159,0,0,1,2.1,105.6V89.85A3.159,3.159,0,0,1,5.25,86.7H10.5a3.159,3.159,0,0,1,3.15,3.15v8.4A1.053,1.053,0,0,0,14.7,99.3H25.2v3.15H10.5V93H8.4v10.5a1.053,1.053,0,0,0,1.05,1.05H18.9a3.159,3.159,0,0,1,3.15,3.15Zm16.918-17.85H24.032a5.162,5.162,0,0,0-.932-2.1H39.9A5.162,5.162,0,0,0,38.968,106.65ZM60.9,105.6a3.159,3.159,0,0,1-3.15,3.15H46.2a1.053,1.053,0,0,0-1.05,1.05v14.7h-4.2V107.7a3.159,3.159,0,0,1,3.15-3.15h9.45a1.053,1.053,0,0,0,1.05-1.05V93H52.5v9.45H37.8V99.3H48.3a1.053,1.053,0,0,0,1.05-1.05v-8.4A3.159,3.159,0,0,1,52.5,86.7h5.25a3.159,3.159,0,0,1,3.15,3.15Z" transform="translate(0 -72)"/>
      </g>
    </g>
    <g id="Group_980" data-name="Group 980" transform="translate(1163.45 2850.795)">
      <g id="Group_979" data-name="Group 979">
        <rect id="Rectangle_299" data-name="Rectangle 299" class="cls-1" width="2.1" height="2.1"/>
      </g>
    </g>
    <g id="Group_982" data-name="Group 982" transform="translate(1143.5 2816.145)">
      <g id="Group_981" data-name="Group 981">
        <path id="Path_601" data-name="Path 601" class="cls-1" d="M95.75,0H81.05A1.053,1.053,0,0,0,80,1.05V6.3a1.053,1.053,0,0,0,1.05,1.05h4.2v2.1a1.07,1.07,0,0,0,.577.945,1,1,0,0,0,.473.1,1.012,1.012,0,0,0,.63-.21l3.924-2.94h4.9A1.053,1.053,0,0,0,96.8,6.3V1.05A1.053,1.053,0,0,0,95.75,0ZM94.7,5.25H90.5a1.1,1.1,0,0,0-.63.21L87.35,7.35V6.3A1.053,1.053,0,0,0,86.3,5.25H82.1V2.1H94.7Z" transform="translate(-80)"/>
      </g>
    </g>
    <g id="Group_984" data-name="Group 984" transform="translate(1169.75 2819.295)">
      <g id="Group_983" data-name="Group 983">
        <rect id="Rectangle_300" data-name="Rectangle 300" class="cls-1" width="2.1" height="2.1"/>
      </g>
    </g>
    <g id="Group_986" data-name="Group 986" transform="translate(1173.95 2819.295)">
      <g id="Group_985" data-name="Group 985">
        <rect id="Rectangle_301" data-name="Rectangle 301" class="cls-1" width="2.1" height="2.1"/>
      </g>
    </g>
    <g id="Group_988" data-name="Group 988" transform="translate(1178.15 2819.295)">
      <g id="Group_987" data-name="Group 987">
        <rect id="Rectangle_302" data-name="Rectangle 302" class="cls-1" width="2.1" height="2.1"/>
      </g>
    </g>
  </g>
</svg>
