<svg id="Group_3822" data-name="Group 3822" xmlns="http://www.w3.org/2000/svg" viewBox="0 0 94.067 94.066">
  <defs>
    <style>
      .cls-1 {
        fill: #fff;
      }
    </style>
  </defs>
  <path id="Path_1010" data-name="Path 1010" class="cls-1" d="M47.033,4.7A42.33,42.33,0,1,1,4.7,47.033,42.382,42.382,0,0,1,47.033,4.7m0-4.7A47.033,47.033,0,1,0,94.067,47.033,47.028,47.028,0,0,0,47.033,0Z"/>
  <path id="Path_1011" data-name="Path 1011" class="cls-1" d="M179.9,125.508l-25.04-16.484c-4.323-2.844-7.861-.941-7.861,4.233v34.693c0,5.174,3.539,7.077,7.861,4.255l25.017-16.372C184.224,132.988,184.224,128.352,179.9,125.508Zm-3.337,6.876-22.24,14.558c-1.433.941-2.62.314-2.62-1.411V115.7c0-1.725,1.187-2.352,2.62-1.411l22.24,14.648A1.908,1.908,0,0,1,176.564,132.384Z" transform="translate(-114.077 -83.581)"/>
</svg>
