<svg width="40" height="41" viewBox="0 0 40 41" fill="none" xmlns="http://www.w3.org/2000/svg">
<g id="00/icon_food">
<path id="Vector" d="M13.167 16.2127V8.21273C13.167 7.83495 13.2948 7.51828 13.5503 7.26273C13.8059 7.00717 14.1225 6.87939 14.5003 6.87939C14.8781 6.87939 15.1948 7.00717 15.4503 7.26273C15.7059 7.51828 15.8337 7.83495 15.8337 8.21273V16.2127H17.167V8.21273C17.167 7.83495 17.2948 7.51828 17.5503 7.26273C17.8059 7.00717 18.1225 6.87939 18.5003 6.87939C18.8781 6.87939 19.1948 7.00717 19.4503 7.26273C19.7059 7.51828 19.8337 7.83495 19.8337 8.21273V16.2127C19.8337 17.4572 19.4503 18.5461 18.6837 19.4794C17.917 20.4127 16.967 21.0349 15.8337 21.3461V32.2127C15.8337 32.5905 15.7059 32.9072 15.4503 33.1627C15.1948 33.4183 14.8781 33.5461 14.5003 33.5461C14.1225 33.5461 13.8059 33.4183 13.5503 33.1627C13.2948 32.9072 13.167 32.5905 13.167 32.2127V21.3461C12.0337 21.0349 11.0837 20.4127 10.317 19.4794C9.55033 18.5461 9.16699 17.4572 9.16699 16.2127V8.21273C9.16699 7.83495 9.29477 7.51828 9.55033 7.26273C9.80588 7.00717 10.1225 6.87939 10.5003 6.87939C10.8781 6.87939 11.1948 7.00717 11.4503 7.26273C11.7059 7.51828 11.8337 7.83495 11.8337 8.21273V16.2127H13.167ZM26.5003 22.8794H23.8337C23.4559 22.8794 23.1392 22.7516 22.8837 22.4961C22.6281 22.2405 22.5003 21.9238 22.5003 21.5461V13.5461C22.5003 11.9905 23.0725 10.4905 24.217 9.04606C25.3614 7.60162 26.5448 6.87939 27.767 6.87939C28.167 6.87939 28.5003 7.03495 28.767 7.34606C29.0337 7.65717 29.167 8.02384 29.167 8.44606V32.2127C29.167 32.5905 29.0392 32.9072 28.7837 33.1627C28.5281 33.4183 28.2114 33.5461 27.8337 33.5461C27.4559 33.5461 27.1392 33.4183 26.8837 33.1627C26.6281 32.9072 26.5003 32.5905 26.5003 32.2127V22.8794Z" fill="#9D7C36"/>
</g>
</svg>
