<svg width="36" height="36" viewBox="0 0 36 36" fill="none" xmlns="http://www.w3.org/2000/svg">
<g id="00/icon_close">
<path id="Vector" d="M18 19.3998L13.1 24.2998C12.9167 24.4831 12.6834 24.5748 12.4 24.5748C12.1167 24.5748 11.8834 24.4831 11.7 24.2998C11.5167 24.1165 11.425 23.8831 11.425 23.5998C11.425 23.3165 11.5167 23.0831 11.7 22.8998L16.6 17.9998L11.7 13.0998C11.5167 12.9165 11.425 12.6831 11.425 12.3998C11.425 12.1165 11.5167 11.8831 11.7 11.6998C11.8834 11.5165 12.1167 11.4248 12.4 11.4248C12.6834 11.4248 12.9167 11.5165 13.1 11.6998L18 16.5998L22.9 11.6998C23.0834 11.5165 23.3167 11.4248 23.6 11.4248C23.8834 11.4248 24.1167 11.5165 24.3 11.6998C24.4834 11.8831 24.575 12.1165 24.575 12.3998C24.575 12.6831 24.4834 12.9165 24.3 13.0998L19.4 17.9998L24.3 22.8998C24.4834 23.0831 24.575 23.3165 24.575 23.5998C24.575 23.8831 24.4834 24.1165 24.3 24.2998C24.1167 24.4831 23.8834 24.5748 23.6 24.5748C23.3167 24.5748 23.0834 24.4831 22.9 24.2998L18 19.3998Z" fill="#9D7C36"/>
</g>
</svg>
