<svg width="40" height="41" viewBox="0 0 40 41" fill="none" xmlns="http://www.w3.org/2000/svg">
<g id="00/icon_laundry">
<path id="Vector" d="M11.0125 35.2129C10.2252 35.2129 9.55255 34.9341 8.99465 34.3764C8.43702 33.8185 8.1582 33.1459 8.1582 32.3585V8.06723C8.1582 7.27986 8.43702 6.60723 8.99465 6.04934C9.55255 5.49171 10.2252 5.21289 11.0125 5.21289H28.9881C29.7754 5.21289 30.4481 5.49171 31.006 6.04934C31.5636 6.60723 31.8424 7.27986 31.8424 8.06723V32.3585C31.8424 33.1459 31.5636 33.8185 31.006 34.3764C30.4481 34.9341 29.7754 35.2129 28.9881 35.2129H11.0125ZM11.0125 32.8445H28.9881C29.1097 32.8445 29.221 32.7938 29.322 32.6925C29.4233 32.5914 29.474 32.4801 29.474 32.3585V8.06723C29.474 7.94565 29.4233 7.83434 29.322 7.73328C29.221 7.63197 29.1097 7.58131 28.9881 7.58131H11.0125C10.891 7.58131 10.7797 7.63197 10.6786 7.73328C10.5773 7.83434 10.5266 7.94565 10.5266 8.06723V32.3585C10.5266 32.4801 10.5773 32.5914 10.6786 32.6925C10.7797 32.7938 10.891 32.8445 11.0125 32.8445ZM20.0003 30.658C22.0124 30.658 23.73 29.9466 25.1532 28.5237C26.5761 27.1005 27.2875 25.3829 27.2875 23.3708C27.2875 21.3587 26.5761 19.641 25.1532 18.2179C23.73 16.795 22.0124 16.0835 20.0003 16.0835C17.9882 16.0835 16.2706 16.795 14.8474 18.2179C13.4245 19.641 12.7131 21.3587 12.7131 23.3708C12.7131 25.3829 13.4245 27.1005 14.8474 28.5237C16.2706 29.9466 17.9882 30.658 20.0003 30.658ZM20.0003 28.5813C19.3161 28.5813 18.6541 28.4538 18.0144 28.1988C17.3747 27.9438 16.8099 27.5713 16.3202 27.0813L23.7108 19.6907C24.2008 20.1804 24.5733 20.7451 24.8283 21.3849C25.0833 22.0246 25.2108 22.6866 25.2108 23.3708C25.2108 24.8182 24.7043 26.0484 23.6911 27.0616C22.6779 28.0747 21.4477 28.5813 20.0003 28.5813ZM13.6845 12.3182C14.1319 12.3182 14.5069 12.1668 14.8095 11.8642C15.1122 11.5616 15.2635 11.1866 15.2635 10.7392C15.2635 10.2918 15.1122 9.91684 14.8095 9.61421C14.5069 9.31157 14.1319 9.16026 13.6845 9.16026C13.2372 9.16026 12.8622 9.31157 12.5595 9.61421C12.2569 9.91684 12.1056 10.2918 12.1056 10.7392C12.1056 11.1866 12.2569 11.5616 12.5595 11.8642C12.8622 12.1668 13.2372 12.3182 13.6845 12.3182ZM18.4214 12.3182C18.8687 12.3182 19.2437 12.1668 19.5464 11.8642C19.849 11.5616 20.0003 11.1866 20.0003 10.7392C20.0003 10.2918 19.849 9.91684 19.5464 9.61421C19.2437 9.31157 18.8687 9.16026 18.4214 9.16026C17.974 9.16026 17.599 9.31157 17.2964 9.61421C16.9937 9.91684 16.8424 10.2918 16.8424 10.7392C16.8424 11.1866 16.9937 11.5616 17.2964 11.8642C17.599 12.1668 17.974 12.3182 18.4214 12.3182Z" fill="#9D7C36"/>
</g>
</svg>
