<svg width="14" height="14" viewBox="0 0 14 14" fill="none" xmlns="http://www.w3.org/2000/svg">
<g id="00/icon_arrow-down">
<path id="Vector" d="M6.99842 9.03243L10.8003 5.23058C10.9005 5.13031 11.0199 5.08148 11.1584 5.08408C11.2968 5.08669 11.4162 5.13813 11.5166 5.2384C11.6169 5.33867 11.667 5.45803 11.667 5.59649C11.667 5.73495 11.6169 5.85436 11.5166 5.95471L7.64483 9.81865C7.55356 9.90983 7.45131 9.97742 7.33809 10.0214C7.22487 10.0655 7.11164 10.0875 6.99842 10.0875C6.8852 10.0875 6.77197 10.0655 6.65875 10.0214C6.54553 9.97742 6.44328 9.90983 6.35201 9.81865L2.48025 5.94689C2.37998 5.84662 2.33115 5.72856 2.33376 5.59271C2.33636 5.45677 2.3878 5.33867 2.48807 5.2384C2.58834 5.13813 2.70771 5.08799 2.84616 5.08799C2.98462 5.08799 3.10403 5.13813 3.20438 5.2384L6.99842 9.03243Z" fill="white"/>
</g>
</svg>
