<svg width="40" height="41" viewBox="0 0 40 41" fill="none" xmlns="http://www.w3.org/2000/svg">
<g id="00/icon_payment">
<path id="Vector" d="M22.9167 21.8986C21.7523 21.8986 20.7667 21.4953 19.9601 20.6886C19.1534 19.8819 18.7501 18.8964 18.7501 17.7319C18.7501 16.5675 19.1534 15.5819 19.9601 14.7753C20.7667 13.9686 21.7523 13.5653 22.9167 13.5653C24.0812 13.5653 25.0667 13.9686 25.8734 14.7753C26.6801 15.5819 27.0834 16.5675 27.0834 17.7319C27.0834 18.8964 26.6801 19.8819 25.8734 20.6886C25.0667 21.4953 24.0812 21.8986 22.9167 21.8986ZM11.923 27.059C11.0946 27.059 10.3855 26.764 9.79548 26.174C9.20548 25.584 8.91048 24.8747 8.91048 24.0461V11.4178C8.91048 10.5894 9.20548 9.88027 9.79548 9.29027C10.3855 8.70027 11.0946 8.40527 11.923 8.40527H33.9101C34.7387 8.40527 35.448 8.70027 36.038 9.29027C36.628 9.88027 36.923 10.5894 36.923 11.4178V24.0461C36.923 24.8747 36.628 25.584 36.038 26.174C35.448 26.764 34.7387 27.059 33.9101 27.059H11.923ZM14.423 24.559H31.4105C31.4105 23.7279 31.7055 23.0179 32.2955 22.429C32.8855 21.8404 33.5946 21.5461 34.423 21.5461V13.9178C33.5919 13.9178 32.882 13.6228 32.2934 13.0328C31.7048 12.4428 31.4105 11.7336 31.4105 10.9053H14.423C14.423 11.7364 14.128 12.4462 13.538 13.0349C12.948 13.6235 12.2388 13.9178 11.4105 13.9178V21.5461C12.2416 21.5461 12.9515 21.8411 13.5401 22.4311C14.1287 23.0211 14.423 23.7304 14.423 24.559ZM31.9551 32.8924H6.09007C5.26145 32.8924 4.55215 32.5974 3.96215 32.0074C3.37215 31.4174 3.07715 30.708 3.07715 29.8794V13.3732H5.57715V29.8794C5.57715 30.0075 5.63048 30.125 5.73715 30.2319C5.84409 30.3389 5.96173 30.3924 6.09007 30.3924H31.9551V32.8924ZM11.923 24.559H11.4105V10.9053H11.923C11.7841 10.9053 11.664 10.956 11.5626 11.0574C11.4612 11.1587 11.4105 11.2789 11.4105 11.4178V24.0461C11.4105 24.185 11.4612 24.3051 11.5626 24.4065C11.664 24.5082 11.7841 24.559 11.923 24.559Z" fill="#9D7C36"/>
</g>
</svg>
