<svg width="20" height="21" viewBox="0 0 20 21" fill="none" xmlns="http://www.w3.org/2000/svg">
<g id="00/icon_star-filled">
<path id="Vector" d="M10 14.4071L6.75813 16.3621C6.6373 16.4326 6.51626 16.4623 6.39501 16.451C6.27376 16.4398 6.16403 16.3989 6.06584 16.3285C5.96751 16.258 5.8916 16.1658 5.83813 16.0521C5.7848 15.9383 5.77626 15.8125 5.81251 15.6746L6.67313 11.9935L3.81105 9.51603C3.7041 9.42311 3.63598 9.31548 3.60667 9.19311C3.57723 9.07075 3.58494 8.95187 3.6298 8.83645C3.67466 8.72117 3.73931 8.62693 3.82376 8.55374C3.9082 8.48055 4.02362 8.4327 4.17001 8.4102L7.94709 8.0802L9.41355 4.60416C9.46688 4.47485 9.54778 4.37923 9.65626 4.31728C9.76473 4.25534 9.87931 4.22437 10 4.22437C10.1207 4.22437 10.2353 4.25534 10.3438 4.31728C10.4522 4.37923 10.5331 4.47485 10.5865 4.60416L12.0529 8.0802L15.83 8.4102C15.9764 8.4327 16.0918 8.48055 16.1763 8.55374C16.2607 8.62693 16.3254 8.72117 16.3702 8.83645C16.4151 8.95187 16.4228 9.07075 16.3933 9.19311C16.364 9.31548 16.2959 9.42311 16.189 9.51603L13.3269 11.9935L14.1875 15.6746C14.2238 15.8125 14.2152 15.9383 14.1619 16.0521C14.1084 16.1658 14.0325 16.258 13.9342 16.3285C13.836 16.3989 13.7263 16.4398 13.605 16.451C13.4838 16.4623 13.3627 16.4326 13.2419 16.3621L10 14.4071Z" fill="white"/>
</g>
</svg>
