<svg width="16" height="17" viewBox="0 0 16 17" fill="none" xmlns="http://www.w3.org/2000/svg">
<g id="00/icon_info">
<path id="Vector" d="M7.9987 11.8333C8.18759 11.8333 8.34592 11.7694 8.4737 11.6416C8.60148 11.5138 8.66536 11.3555 8.66536 11.1666V8.49992C8.66536 8.31103 8.60148 8.1527 8.4737 8.02492C8.34592 7.89714 8.18759 7.83325 7.9987 7.83325C7.80981 7.83325 7.65148 7.89714 7.5237 8.02492C7.39592 8.1527 7.33203 8.31103 7.33203 8.49992V11.1666C7.33203 11.3555 7.39592 11.5138 7.5237 11.6416C7.65148 11.7694 7.80981 11.8333 7.9987 11.8333ZM7.9987 6.49992C8.18759 6.49992 8.34592 6.43603 8.4737 6.30825C8.60148 6.18047 8.66536 6.02214 8.66536 5.83325C8.66536 5.64436 8.60148 5.48603 8.4737 5.35825C8.34592 5.23047 8.18759 5.16659 7.9987 5.16659C7.80981 5.16659 7.65148 5.23047 7.5237 5.35825C7.39592 5.48603 7.33203 5.64436 7.33203 5.83325C7.33203 6.02214 7.39592 6.18047 7.5237 6.30825C7.65148 6.43603 7.80981 6.49992 7.9987 6.49992ZM7.9987 15.1666C7.07648 15.1666 6.20981 14.9916 5.3987 14.6416C4.58759 14.2916 3.88203 13.8166 3.28203 13.2166C2.68203 12.6166 2.20703 11.911 1.85703 11.0999C1.50703 10.2888 1.33203 9.42214 1.33203 8.49992C1.33203 7.5777 1.50703 6.71103 1.85703 5.89992C2.20703 5.08881 2.68203 4.38325 3.28203 3.78325C3.88203 3.18325 4.58759 2.70825 5.3987 2.35825C6.20981 2.00825 7.07648 1.83325 7.9987 1.83325C8.92092 1.83325 9.78759 2.00825 10.5987 2.35825C11.4098 2.70825 12.1154 3.18325 12.7154 3.78325C13.3154 4.38325 13.7904 5.08881 14.1404 5.89992C14.4904 6.71103 14.6654 7.5777 14.6654 8.49992C14.6654 9.42214 14.4904 10.2888 14.1404 11.0999C13.7904 11.911 13.3154 12.6166 12.7154 13.2166C12.1154 13.8166 11.4098 14.2916 10.5987 14.6416C9.78759 14.9916 8.92092 15.1666 7.9987 15.1666ZM7.9987 13.8333C9.48759 13.8333 10.7487 13.3166 11.782 12.2833C12.8154 11.2499 13.332 9.98881 13.332 8.49992C13.332 7.01103 12.8154 5.74992 11.782 4.71659C10.7487 3.68325 9.48759 3.16659 7.9987 3.16659C6.50981 3.16659 5.2487 3.68325 4.21536 4.71659C3.18203 5.74992 2.66536 7.01103 2.66536 8.49992C2.66536 9.98881 3.18203 11.2499 4.21536 12.2833C5.2487 13.3166 6.50981 13.8333 7.9987 13.8333Z" fill="#9D7C36"/>
</g>
</svg>
