<svg width="24" height="24" viewBox="0 0 24 24" fill="none" xmlns="http://www.w3.org/2000/svg">
<g id="00/icon_arrow">
<path id="Vector" d="M15.4446 11.9995L8.92708 5.48201C8.75519 5.31012 8.67148 5.1055 8.67595 4.86814C8.68042 4.63078 8.7686 4.42608 8.94049 4.25405C9.11238 4.08216 9.31701 3.99622 9.55436 3.99622C9.79172 3.99622 9.99642 4.08216 10.1685 4.25405L16.7923 10.8914C16.9487 11.0478 17.0645 11.2231 17.1399 11.4172C17.2155 11.6113 17.2533 11.8054 17.2533 11.9995C17.2533 12.1936 17.2155 12.3877 17.1399 12.5818C17.0645 12.7759 16.9487 12.9512 16.7923 13.1076L10.155 19.7449C9.98315 19.9168 9.78076 20.0005 9.54787 19.996C9.31484 19.9916 9.11238 19.9034 8.94049 19.7315C8.7686 19.5596 8.68266 19.355 8.68266 19.1176C8.68266 18.8803 8.7686 18.6756 8.94049 18.5035L15.4446 11.9995Z" fill="#9D7C36"/>
</g>
</svg>
