<svg width="40" height="40" viewBox="0 0 40 40" fill="none" xmlns="http://www.w3.org/2000/svg">
<rect width="40" height="40" rx="20" fill="#9D7C36"/>
<path d="M23.2812 30.4297L22.875 29.9844C22.6042 29.6927 22.2578 29.2734 21.8359 28.7266C21.4193 28.1797 21.0625 27.651 20.7656 27.1406C20.4948 27.1667 20.2474 27.1797 20.0234 27.1797C18.263 27.1797 16.8802 26.6484 15.875 25.5859C14.8698 24.5182 14.3672 23.0807 14.3672 21.2734C14.3672 20.1172 14.5885 19.099 15.0312 18.2188C15.4792 17.3385 16.1328 16.651 16.9922 16.1562C17.8568 15.6615 18.875 15.4141 20.0469 15.4141C21.1771 15.4141 22.1641 15.6615 23.0078 16.1562C23.8568 16.6458 24.5052 17.3333 24.9531 18.2188C25.401 19.099 25.625 20.1172 25.625 21.2734C25.625 22.6276 25.3385 23.7839 24.7656 24.7422C24.1979 25.6953 23.388 26.375 22.3359 26.7812C22.8359 27.599 23.4922 28.4505 24.3047 29.3359L23.2812 30.4297ZM19.9922 25.6406C21.2057 25.6406 22.1224 25.2578 22.7422 24.4922C23.362 23.7266 23.6719 22.6536 23.6719 21.2734C23.6719 19.9401 23.362 18.888 22.7422 18.1172C22.1224 17.3411 21.2161 16.9531 20.0234 16.9531C18.8255 16.9531 17.9062 17.3438 17.2656 18.125C16.625 18.901 16.3047 19.9505 16.3047 21.2734C16.3047 22.6536 16.6146 23.7266 17.2344 24.4922C17.8594 25.2578 18.7786 25.6406 19.9922 25.6406Z" fill="white"/>
</svg>
