<svg width="20" height="21" viewBox="0 0 20 21" fill="none" xmlns="http://www.w3.org/2000/svg">
<g id="00/icon_external link">
<path id="Vector" d="M4.42443 17.2965C4.00345 17.2965 3.64714 17.1507 3.35547 16.859C3.0638 16.5674 2.91797 16.2111 2.91797 15.7901V4.63634C2.91797 4.21537 3.0638 3.85905 3.35547 3.56738C3.64714 3.27572 4.00345 3.12988 4.42443 3.12988H9.05568C9.23304 3.12988 9.38158 3.18974 9.5013 3.30947C9.62088 3.42905 9.68068 3.57752 9.68068 3.75488C9.68068 3.93224 9.62088 4.08072 9.5013 4.2003C9.38158 4.32002 9.23304 4.37988 9.05568 4.37988H4.42443C4.36026 4.37988 4.30151 4.40662 4.24818 4.46009C4.1947 4.51342 4.16797 4.57217 4.16797 4.63634V15.7901C4.16797 15.8543 4.1947 15.913 4.24818 15.9663C4.30151 16.0198 4.36026 16.0465 4.42443 16.0465H15.5782C15.6423 16.0465 15.7011 16.0198 15.7544 15.9663C15.8079 15.913 15.8346 15.8543 15.8346 15.7901V11.1588C15.8346 10.9815 15.8945 10.8329 16.0142 10.7132C16.1338 10.5936 16.2823 10.5338 16.4596 10.5338C16.637 10.5338 16.7855 10.5936 16.9051 10.7132C17.0248 10.8329 17.0846 10.9815 17.0846 11.1588V15.7901C17.0846 16.2111 16.9388 16.5674 16.6471 16.859C16.3555 17.1507 15.9991 17.2965 15.5782 17.2965H4.42443ZM15.8346 5.25801L8.53984 12.553C8.42443 12.6683 8.27936 12.7273 8.10463 12.7301C7.93005 12.7327 7.78234 12.6737 7.66151 12.553C7.54082 12.4322 7.48047 12.2858 7.48047 12.1138C7.48047 11.9419 7.54082 11.7955 7.66151 11.6747L14.9565 4.37988H12.293C12.1156 4.37988 11.9671 4.32002 11.8476 4.2003C11.7278 4.08072 11.668 3.93224 11.668 3.75488C11.668 3.57752 11.7278 3.42905 11.8476 3.30947C11.9671 3.18974 12.1156 3.12988 12.293 3.12988H16.3313C16.5462 3.12988 16.7254 3.20176 16.869 3.34551C17.0128 3.48912 17.0846 3.66835 17.0846 3.88322V7.92155C17.0846 8.09891 17.0248 8.24738 16.9051 8.36697C16.7855 8.48669 16.637 8.54655 16.4596 8.54655C16.2823 8.54655 16.1338 8.48669 16.0142 8.36697C15.8945 8.24738 15.8346 8.09891 15.8346 7.92155V5.25801Z" fill="#9D7C36"/>
</g>
</svg>
