<svg width="20" height="21" viewBox="0 0 20 21" fill="none" xmlns="http://www.w3.org/2000/svg">
<g id="00/icon_time">
<path id="Vector" d="M10.625 10.2468V6.95825C10.625 6.78117 10.5651 6.6327 10.4452 6.51284C10.3254 6.39311 10.1769 6.33325 9.9998 6.33325C9.82258 6.33325 9.67418 6.39311 9.55459 6.51284C9.43487 6.6327 9.37501 6.78117 9.37501 6.95825V10.4391C9.37501 10.5371 9.3932 10.6321 9.42959 10.7241C9.46584 10.816 9.523 10.901 9.60105 10.9791L12.4552 13.8333C12.5705 13.9487 12.7155 14.0077 12.8902 14.0103C13.0649 14.013 13.2126 13.9539 13.3333 13.8333C13.454 13.7126 13.5144 13.5662 13.5144 13.3941C13.5144 13.2221 13.454 13.0758 13.3333 12.9551L10.625 10.2468ZM10.0015 18.4166C8.90647 18.4166 7.87723 18.2088 6.91376 17.7933C5.95029 17.3777 5.11223 16.8137 4.39959 16.1014C3.68695 15.389 3.12272 14.5513 2.70689 13.5883C2.29119 12.6252 2.08334 11.5962 2.08334 10.5014C2.08334 9.40638 2.29112 8.37714 2.70668 7.41367C3.12223 6.4502 3.68619 5.61214 4.39855 4.8995C5.11091 4.18686 5.94862 3.62263 6.91168 3.20679C7.87473 2.7911 8.90369 2.58325 9.99855 2.58325C11.0936 2.58325 12.1228 2.79103 13.0863 3.20658C14.0497 3.62214 14.8878 4.1861 15.6004 4.89846C16.3131 5.61082 16.8773 6.44853 17.2931 7.41159C17.7088 8.37464 17.9167 9.4036 17.9167 10.4985C17.9167 11.5935 17.7089 12.6227 17.2933 13.5862C16.8778 14.5496 16.3138 15.3877 15.6015 16.1003C14.8891 16.813 14.0514 17.3772 13.0883 17.793C12.1253 18.2087 11.0963 18.4166 10.0015 18.4166ZM10 17.1666C11.8472 17.1666 13.4201 16.5173 14.7188 15.2187C16.0174 13.9201 16.6667 12.3471 16.6667 10.4999C16.6667 8.6527 16.0174 7.07978 14.7188 5.78117C13.4201 4.48256 11.8472 3.83325 10 3.83325C8.15279 3.83325 6.57987 4.48256 5.28126 5.78117C3.98265 7.07978 3.33334 8.6527 3.33334 10.4999C3.33334 12.3471 3.98265 13.9201 5.28126 15.2187C6.57987 16.5173 8.15279 17.1666 10 17.1666Z" fill="white"/>
</g>
</svg>
