<svg width="40" height="40" viewBox="0 0 40 40" fill="none" xmlns="http://www.w3.org/2000/svg">
<g id="00/icon_plus">
<path id="Vector" d="M18.7484 21.2503H10.415C10.0609 21.2503 9.76407 21.1305 9.52462 20.8907C9.2849 20.651 9.16504 20.3541 9.16504 19.9999C9.16504 19.6455 9.2849 19.3487 9.52462 19.1095C9.76407 18.87 10.0609 18.7503 10.415 18.7503H18.7484V10.417C18.7484 10.0628 18.8682 9.76602 19.108 9.52658C19.3477 9.28685 19.6446 9.16699 19.9988 9.16699C20.3532 9.16699 20.65 9.28685 20.8892 9.52658C21.1287 9.76602 21.2484 10.0628 21.2484 10.417V18.7503H29.5817C29.9359 18.7503 30.2327 18.8702 30.4721 19.1099C30.7118 19.3496 30.8317 19.6466 30.8317 20.0007C30.8317 20.3552 30.7118 20.652 30.4721 20.8912C30.2327 21.1306 29.9359 21.2503 29.5817 21.2503H21.2484V29.5837C21.2484 29.9378 21.1285 30.2346 20.8888 30.4741C20.6491 30.7138 20.3521 30.8337 19.998 30.8337C19.6435 30.8337 19.3467 30.7138 19.1075 30.4741C18.8681 30.2346 18.7484 29.9378 18.7484 29.5837V21.2503Z" fill="black"/>
</g>
</svg>
