<svg width="32" height="32" viewBox="0 0 32 32" fill="none" xmlns="http://www.w3.org/2000/svg">
<g id="00/icon_arrow_up">
<path id="Vector" d="M15 9.83044L8.10768 16.7228C7.90945 16.921 7.67745 17.0189 7.41168 17.0164C7.1459 17.0138 6.90957 16.9091 6.70268 16.7024C6.50957 16.4956 6.40957 16.2613 6.40268 15.9998C6.39579 15.7382 6.49579 15.504 6.70268 15.2971L15.1563 6.84344C15.2812 6.71855 15.4129 6.63055 15.5513 6.57944C15.6898 6.52811 15.8393 6.50244 16 6.50244C16.1607 6.50244 16.3102 6.52811 16.4487 6.57944C16.5871 6.63055 16.7188 6.71855 16.8437 6.84344L25.2973 15.2971C25.482 15.4818 25.5765 15.7104 25.5807 15.9831C25.5849 16.2558 25.4905 16.4956 25.2973 16.7024C25.0905 16.9091 24.8529 17.0124 24.5847 17.0124C24.3162 17.0124 24.0786 16.9091 23.8717 16.7024L17 9.83044V24.9998C17 25.2836 16.9042 25.5211 16.7127 25.7124C16.5213 25.904 16.2838 25.9998 16 25.9998C15.7162 25.9998 15.4787 25.904 15.2873 25.7124C15.0958 25.5211 15 25.2836 15 24.9998V9.83044Z" fill="white"/>
</g>
</svg>
