<svg width="16" height="16" viewBox="0 0 16 16" fill="none" xmlns="http://www.w3.org/2000/svg">
<g id="00/icon_calendar">
<path id="Vector" d="M3.53817 14.3324C3.2014 14.3324 2.91634 14.2157 2.68301 13.9824C2.44967 13.749 2.33301 13.464 2.33301 13.1272V4.2042C2.33301 3.86742 2.44967 3.58237 2.68301 3.34903C2.91634 3.1157 3.2014 2.99903 3.53817 2.99903H4.46117V1.58887H5.48684V2.99903H10.5382V1.58887H11.5382V2.99903H12.4612C12.798 2.99903 13.083 3.1157 13.3163 3.34903C13.5497 3.58237 13.6663 3.86742 13.6663 4.2042V13.1272C13.6663 13.464 13.5497 13.749 13.3163 13.9824C13.083 14.2157 12.798 14.3324 12.4612 14.3324H3.53817ZM3.53817 13.3324H12.4612C12.5125 13.3324 12.5595 13.311 12.6022 13.2682C12.645 13.2255 12.6663 13.1785 12.6663 13.1272V6.87087H3.33301V13.1272C3.33301 13.1785 3.3544 13.2255 3.39717 13.2682C3.43984 13.311 3.48684 13.3324 3.53817 13.3324ZM3.33301 5.87087H12.6663V4.2042C12.6663 4.15287 12.645 4.10587 12.6022 4.0632C12.5595 4.02042 12.5125 3.99903 12.4612 3.99903H3.53817C3.48684 3.99903 3.43984 4.02042 3.39717 4.0632C3.3544 4.10587 3.33301 4.15287 3.33301 4.2042V5.87087Z" fill="white"/>
</g>
</svg>
