<svg width="24" height="24" viewBox="0 0 24 24" fill="none" xmlns="http://www.w3.org/2000/svg">
<path d="M19.2357 21.3422L15.7165 17.8537C15.1266 18.0819 14.5205 18.2467 13.898 18.348C13.2756 18.4493 12.6433 18.5 12.001 18.5C9.89579 18.5 7.96787 17.9401 6.2172 16.8202C4.4667 15.7002 3.07929 14.2242 2.05495 12.3922C1.97162 12.2487 1.9107 12.1026 1.8722 11.9537C1.8337 11.8051 1.81445 11.6538 1.81445 11.5C1.81445 11.3462 1.83529 11.1932 1.87695 11.0412C1.91862 10.8894 1.98112 10.7449 2.06445 10.6077C2.46312 9.94491 2.88687 9.30358 3.3357 8.68375C3.78437 8.06375 4.30612 7.51533 4.90095 7.0385L2.6432 4.76525C2.50487 4.62691 2.43404 4.4555 2.4307 4.251C2.42754 4.0465 2.50354 3.86666 2.6587 3.7115C2.80354 3.56666 2.9792 3.49425 3.1857 3.49425C3.39204 3.49425 3.56762 3.56666 3.71245 3.7115L20.2895 20.2885C20.428 20.427 20.5014 20.5984 20.5097 20.8027C20.518 21.0072 20.4446 21.1871 20.2895 21.3422C20.1446 21.4871 19.969 21.5595 19.7625 21.5595C19.5561 21.5595 19.3805 21.4871 19.2357 21.3422ZM12.001 15.577C12.2228 15.577 12.4346 15.5638 12.6365 15.5375C12.8385 15.5112 13.0356 15.4537 13.228 15.3652L8.1357 10.273C8.05354 10.4653 7.9977 10.6625 7.9682 10.8645C7.9387 11.0663 7.92395 11.2782 7.92395 11.5C7.92395 12.6347 8.31979 13.5978 9.11145 14.3895C9.90312 15.1812 10.8663 15.577 12.001 15.577ZM12.001 4.5C14.1125 4.5 16.0493 5.0625 17.8115 6.1875C19.5736 7.3125 20.9637 8.79741 21.9817 10.6422C22.0585 10.7692 22.1178 10.9055 22.1595 11.051C22.2011 11.1965 22.222 11.3462 22.222 11.5C22.222 11.6538 22.2037 11.8035 22.1672 11.949C22.1307 12.0945 22.074 12.2307 21.997 12.3577C21.6931 12.9359 21.3535 13.4807 20.978 13.9922C20.6023 14.5037 20.1824 14.9852 19.7182 15.4365C19.5105 15.6442 19.2644 15.7397 18.9797 15.723C18.6952 15.7063 18.449 15.5942 18.2412 15.3865L16.1452 13.3C16.0414 13.1962 15.9728 13.0762 15.9395 12.9402C15.9061 12.8044 15.908 12.6627 15.9452 12.5152C15.9925 12.3436 16.0265 12.1769 16.047 12.0152C16.0676 11.8537 16.078 11.682 16.078 11.5C16.078 10.3653 15.6821 9.40216 14.8905 8.6105C14.0988 7.81883 13.1356 7.423 12.001 7.423C11.819 7.423 11.6488 7.43491 11.4905 7.45875C11.3321 7.48241 11.1702 7.518 11.0047 7.5655C10.8574 7.609 10.71 7.61408 10.5625 7.58075C10.4151 7.54741 10.2895 7.47883 10.1857 7.375L9.2547 6.44425C8.9702 6.15958 8.8757 5.82816 8.9712 5.45C9.0667 5.07183 9.30679 4.83083 9.69145 4.727C10.0696 4.65 10.4504 4.59291 10.8337 4.55575C11.217 4.51858 11.6061 4.5 12.001 4.5ZM13.9375 9.6115C14.1401 9.83466 14.3071 10.085 14.4385 10.3625C14.5698 10.64 14.6521 10.9301 14.6855 11.2327C14.7021 11.3532 14.657 11.4369 14.55 11.4837C14.443 11.5304 14.3426 11.507 14.249 11.4135L12.103 9.277C12.0093 9.18333 11.9885 9.083 12.0405 8.976C12.0923 8.869 12.1785 8.8155 12.299 8.8155C12.6221 8.84233 12.9202 8.92341 13.1932 9.05875C13.4664 9.19391 13.7145 9.37816 13.9375 9.6115Z" fill="#303030"/>
</svg>
