<svg width="16" height="17" viewBox="0 0 16 17" fill="none" xmlns="http://www.w3.org/2000/svg">
<g id="00/icon_arrow-down">
<path id="Vector" d="M7.9975 10.8226L12.3425 6.47759C12.4571 6.363 12.5935 6.30719 12.7517 6.31017C12.91 6.31315 13.0464 6.37194 13.1611 6.48653C13.2757 6.60113 13.333 6.73754 13.333 6.89578C13.333 7.05402 13.2757 7.19048 13.1611 7.30517L8.73625 11.7211C8.63194 11.8253 8.51509 11.9026 8.38569 11.9528C8.25629 12.0032 8.12689 12.0284 7.9975 12.0284C7.8681 12.0284 7.7387 12.0032 7.6093 11.9528C7.4799 11.9026 7.36305 11.8253 7.25874 11.7211L2.83387 7.29623C2.71928 7.18164 2.66348 7.04671 2.66646 6.89145C2.66944 6.7361 2.72822 6.60113 2.84282 6.48653C2.95741 6.37194 3.09383 6.31464 3.25206 6.31464C3.4103 6.31464 3.54677 6.37194 3.66146 6.48653L7.9975 10.8226Z" fill="black"/>
</g>
</svg>
