<svg width="24" height="24" viewBox="0 0 24 24" fill="none" xmlns="http://www.w3.org/2000/svg">
<g id="00/icon_wifi">
<path id="Vector" d="M12.0004 20.2104C11.4706 20.2104 11.0227 20.0275 10.6568 19.6617C10.291 19.2959 10.1081 18.848 10.1081 18.3181C10.1081 17.7883 10.291 17.3405 10.6568 16.9747C11.0227 16.6089 11.4706 16.426 12.0004 16.426C12.5302 16.426 12.978 16.6089 13.344 16.9747C13.7098 17.3405 13.8927 17.7883 13.8927 18.3181C13.8927 18.848 13.7098 19.2959 13.344 19.6617C12.978 20.0275 12.5302 20.2104 12.0004 20.2104ZM12.0004 10.8932C13.1357 10.8932 14.2095 11.0806 15.2218 11.4555C16.234 11.8303 17.1486 12.3488 17.9655 13.0109C18.1997 13.191 18.3208 13.4243 18.3286 13.7109C18.3364 13.9975 18.2358 14.2453 18.0268 14.4543C17.8274 14.6537 17.582 14.7543 17.2907 14.756C16.9993 14.7579 16.7364 14.6736 16.5021 14.503C15.8847 14.0309 15.1927 13.6596 14.4261 13.3892C13.6596 13.1189 12.851 12.9837 12.0004 12.9837C11.1498 12.9837 10.3412 13.1189 9.57461 13.3892C8.80803 13.6596 8.11604 14.0309 7.49863 14.503C7.26434 14.6736 7.00148 14.7556 6.71003 14.749C6.41874 14.7423 6.17336 14.6392 5.97391 14.4398C5.77446 14.2308 5.67622 13.983 5.67918 13.6964C5.68231 13.4099 5.80101 13.1766 6.03529 12.9963C6.85216 12.3344 7.76672 11.8184 8.77898 11.4482C9.79124 11.0782 10.865 10.8932 12.0004 10.8932ZM12.0004 5.27039C13.9287 5.27039 15.7348 5.5951 17.4186 6.24453C19.1025 6.89397 20.6076 7.80439 21.934 8.97581C22.1683 9.1751 22.2917 9.42196 22.3044 9.71638C22.3169 10.0108 22.2186 10.2625 22.0097 10.4715C21.8043 10.6769 21.5544 10.776 21.2599 10.7688C20.9657 10.7616 20.6984 10.6601 20.458 10.4642C19.3155 9.48272 18.0242 8.72013 16.5841 8.17643C15.1442 7.63274 13.6163 7.36089 12.0004 7.36089C10.3844 7.36089 8.85653 7.63274 7.41663 8.17643C5.97657 8.72013 4.68528 9.48272 3.54276 10.4642C3.30238 10.6601 3.03506 10.7616 2.7408 10.7688C2.44639 10.776 2.19649 10.6769 1.9911 10.4715C1.78212 10.2625 1.68387 10.0108 1.69637 9.71638C1.70902 9.42196 1.83249 9.1751 2.06677 8.97581C3.39313 7.80439 4.89824 6.89397 6.58211 6.24453C8.26598 5.5951 10.0721 5.27039 12.0004 5.27039Z" fill="#9D7C36"/>
</g>
</svg>
