<svg width="34" height="34" viewBox="0 0 34 34" fill="none" xmlns="http://www.w3.org/2000/svg">
<g id="00/icon_user">
<path id="Vector" d="M17 16.5641C15.6365 16.5641 14.4692 16.0787 13.4984 15.1078C12.5272 14.1367 12.0417 12.9693 12.0417 11.6058C12.0417 10.2423 12.5272 9.07504 13.4984 8.10415C14.4692 7.13302 15.6365 6.64746 17 6.64746C18.3635 6.64746 19.5308 7.13302 20.5016 8.10415C21.4728 9.07504 21.9583 10.2423 21.9583 11.6058C21.9583 12.9693 21.4728 14.1367 20.5016 15.1078C19.5308 16.0787 18.3635 16.5641 17 16.5641ZM6.375 25.2005V24.2031C6.375 23.5095 6.56342 22.867 6.94025 22.2758C7.31708 21.6846 7.82071 21.23 8.45112 20.9122C9.85126 20.2259 11.2638 19.711 12.6887 19.3677C14.1137 19.0244 15.5507 18.8528 17 18.8528C18.4492 18.8528 19.8863 19.0244 21.3113 19.3677C22.7362 19.711 24.1487 20.2259 25.5489 20.9122C26.1793 21.23 26.6829 21.6846 27.0597 22.2758C27.4366 22.867 27.625 23.5095 27.625 24.2031V25.2005C27.625 25.7978 27.4157 26.306 26.9971 26.7248C26.5784 27.1434 26.0703 27.3528 25.4727 27.3528H8.52727C7.92967 27.3528 7.42156 27.1434 7.00294 26.7248C6.58431 26.306 6.375 25.7978 6.375 25.2005ZM8.5 25.2278H25.5V24.2031C25.5 23.9163 25.4169 23.6506 25.2507 23.4063C25.0844 23.1621 24.8588 22.9629 24.5739 22.8084C23.3532 22.2073 22.1086 21.7518 20.8402 21.4421C19.5716 21.1325 18.2915 20.9778 17 20.9778C15.7085 20.9778 14.4284 21.1325 13.1598 21.4421C11.8914 21.7518 10.6468 22.2073 9.42615 22.8084C9.14116 22.9629 8.91556 23.1621 8.74933 23.4063C8.58311 23.6506 8.5 23.9163 8.5 24.2031V25.2278ZM17 14.4391C17.7792 14.4391 18.4462 14.1617 19.001 13.6068C19.5559 13.052 19.8333 12.385 19.8333 11.6058C19.8333 10.8266 19.5559 10.1596 19.001 9.60475C18.4462 9.04989 17.7792 8.77246 17 8.77246C16.2208 8.77246 15.5538 9.04989 14.999 9.60475C14.4441 10.1596 14.1667 10.8266 14.1667 11.6058C14.1667 12.385 14.4441 13.052 14.999 13.6068C15.5538 14.1617 16.2208 14.4391 17 14.4391Z" fill="#9D7C36"/>
</g>
</svg>
