<svg width="34" height="34" viewBox="0 0 34 34" fill="none" xmlns="http://www.w3.org/2000/svg">
<g id="00/icon_expand" clip-path="url(#clip0_3811_7910)">
<path id="Vector" d="M9.47146 23.0259L13.2435 19.2539C13.4567 19.0407 13.7071 18.9342 13.9948 18.9344C14.2825 18.9342 14.5329 19.0407 14.7461 19.2539C14.9593 19.4671 15.0658 19.7175 15.0657 20.0052C15.0658 20.2929 14.9593 20.5433 14.7461 20.7565L10.9896 24.513L14.0642 24.4977C14.362 24.4977 14.6176 24.6011 14.831 24.8078C15.044 25.0145 15.1505 25.2732 15.1505 25.5841C15.1505 25.895 15.0472 26.1538 14.8405 26.3605C14.6338 26.5672 14.375 26.6705 14.0642 26.6705L8.59695 26.6708C8.40946 26.6706 8.24442 26.6378 8.10184 26.5723C7.95926 26.5069 7.82762 26.4138 7.70691 26.2931C7.5862 26.1724 7.49312 26.0407 7.42767 25.8982C7.36223 25.7556 7.32942 25.5905 7.32925 25.4031L7.32925 19.905C7.32942 19.607 7.43293 19.3566 7.63979 19.1537C7.84632 18.9509 8.10501 18.8495 8.41588 18.8495C8.72676 18.8495 8.98295 18.9502 9.18447 19.1517C9.38615 19.3534 9.48699 19.6097 9.48699 19.9206L9.47146 23.0259ZM9.48699 10.9896L9.50227 14.0642C9.50227 14.362 9.39892 14.6176 9.19223 14.831C8.98554 15.044 8.72676 15.1506 8.41589 15.1506C8.10501 15.1506 7.84623 15.0472 7.63954 14.8405C7.43285 14.6338 7.3295 14.375 7.3295 14.0642L7.32925 8.59695C7.32942 8.40946 7.36223 8.24443 7.42767 8.10185C7.49312 7.95927 7.5862 7.82762 7.70691 7.70691C7.82762 7.5862 7.95926 7.49313 8.10184 7.42768C8.24442 7.36223 8.40946 7.32942 8.59695 7.32926L14.0642 7.32951C14.362 7.32951 14.615 7.43027 14.8232 7.63178C15.0313 7.83346 15.1353 8.08974 15.1353 8.40061C15.1351 8.71132 15.0343 8.96743 14.8327 9.16894C14.6311 9.37063 14.3749 9.47155 14.0642 9.47172L10.9741 9.47147L14.7461 13.2435C14.9593 13.4567 15.0658 13.7071 15.0657 13.9948C15.0658 14.2825 14.9593 14.5329 14.7461 14.7461C14.5329 14.9593 14.2825 15.0658 13.9948 15.0657C13.7071 15.0658 13.4567 14.9593 13.2435 14.7461L9.48699 10.9896ZM23.0259 24.5285L19.2539 20.7565C19.0407 20.5433 18.9342 20.2929 18.9343 20.0052C18.9342 19.7175 19.0407 19.4671 19.2539 19.2539C19.4671 19.0407 19.7175 18.9342 20.0052 18.9344C20.2929 18.9342 20.5433 19.0407 20.7565 19.2539L24.513 23.0104L24.4977 19.9358C24.4977 19.638 24.6011 19.3824 24.8078 19.169C25.0145 18.956 25.2732 18.8495 25.5841 18.8495C25.895 18.8495 26.1538 18.9528 26.3605 19.1595C26.5672 19.3662 26.6705 19.625 26.6705 19.9358L26.6707 25.4031C26.6706 25.5905 26.6378 25.7556 26.5723 25.8982C26.5069 26.0407 26.4138 26.1724 26.2931 26.2931C26.1724 26.4138 26.0407 26.5069 25.8982 26.5723C25.7556 26.6378 25.5905 26.6706 25.4031 26.6708H19.905C19.607 26.6706 19.3592 26.5697 19.1615 26.368C18.9636 26.1665 18.8647 25.9103 18.8647 25.5994C18.8649 25.2887 18.9657 25.0326 19.1673 24.8311C19.3689 24.6294 19.6251 24.5285 19.9358 24.5283L23.0259 24.5285ZM23.0259 9.47147L19.905 9.47147C19.6072 9.47147 19.3567 9.3733 19.1537 9.17696C18.9509 8.98045 18.8495 8.72676 18.8495 8.41589C18.8495 8.10502 18.9502 7.84882 19.1517 7.64731C19.3534 7.44563 19.6097 7.34478 19.9206 7.34478L25.4031 7.32926C25.5905 7.32943 25.7556 7.36223 25.8982 7.42768C26.0407 7.49312 26.1724 7.5862 26.2931 7.70691C26.4138 7.82762 26.5069 7.95926 26.5723 8.10184C26.6378 8.24442 26.6706 8.40946 26.6707 8.59695L26.6707 14.095C26.6706 14.393 26.5722 14.6434 26.3757 14.8463C26.1792 15.0491 25.9256 15.1506 25.6149 15.1508C25.3042 15.1506 25.048 15.0497 24.8463 14.848C24.6448 14.6465 24.544 14.3904 24.5438 14.0797L24.5285 10.9741L20.7565 14.7461C20.5433 14.9593 20.2929 15.0658 20.0052 15.0657C19.7175 15.0658 19.4671 14.9593 19.2539 14.7461C19.0407 14.5329 18.9342 14.2825 18.9343 13.9948C18.9342 13.7071 19.0407 13.4567 19.2539 13.2435L23.0259 9.47147Z" fill="#9D7C36"/>
</g>
<defs>
<clipPath id="clip0_3811_7910">
<rect width="34" height="34" fill="white"/>
</clipPath>
</defs>
</svg>
