<svg width="24" height="25" viewBox="0 0 24 25" fill="none" xmlns="http://www.w3.org/2000/svg">
<g id="00/icon_time">
<path id="Vector" d="M12.75 12.1962V8.25C12.75 8.0375 12.6781 7.85933 12.5343 7.7155C12.3904 7.57183 12.2122 7.5 11.9998 7.5C11.7871 7.5 11.609 7.57183 11.4655 7.7155C11.3218 7.85933 11.25 8.0375 11.25 8.25V12.427C11.25 12.5447 11.2718 12.6587 11.3155 12.769C11.359 12.8793 11.4276 12.9813 11.5213 13.075L14.9462 16.5C15.0846 16.6385 15.2586 16.7093 15.4682 16.7125C15.6779 16.7157 15.8552 16.6448 16 16.5C16.1448 16.3552 16.2172 16.1795 16.2172 15.973C16.2172 15.7667 16.1448 15.5911 16 15.4462L12.75 12.1962ZM12.0017 22C10.6877 22 9.45267 21.7507 8.2965 21.252C7.14033 20.7533 6.13467 20.0766 5.2795 19.2218C4.42433 18.3669 3.74725 17.3617 3.24825 16.206C2.74942 15.0503 2.5 13.8156 2.5 12.5017C2.5 11.1877 2.74933 9.95267 3.248 8.7965C3.74667 7.64033 4.42342 6.63467 5.27825 5.7795C6.13308 4.92433 7.13833 4.24725 8.294 3.74825C9.44967 3.24942 10.6844 3 11.9983 3C13.3123 3 14.5473 3.24933 15.7035 3.748C16.8597 4.24667 17.8653 4.92342 18.7205 5.77825C19.5757 6.63308 20.2528 7.63833 20.7518 8.794C21.2506 9.94967 21.5 11.1844 21.5 12.4983C21.5 13.8123 21.2507 15.0473 20.752 16.2035C20.2533 17.3597 19.5766 18.3653 18.7218 19.2205C17.8669 20.0757 16.8617 20.7528 15.706 21.2518C14.5503 21.7506 13.3156 22 12.0017 22ZM12 20.5C14.2167 20.5 16.1042 19.7208 17.6625 18.1625C19.2208 16.6042 20 14.7167 20 12.5C20 10.2833 19.2208 8.39583 17.6625 6.8375C16.1042 5.27917 14.2167 4.5 12 4.5C9.78333 4.5 7.89583 5.27917 6.3375 6.8375C4.77917 8.39583 4 10.2833 4 12.5C4 14.7167 4.77917 16.6042 6.3375 18.1625C7.89583 19.7208 9.78333 20.5 12 20.5Z" fill="#9D7C36"/>
</g>
</svg>
