<svg width="38" height="32" viewBox="0 0 38 32" fill="none" xmlns="http://www.w3.org/2000/svg">
<g id="Icons" clip-path="url(#clip0_4307_3916)">
<path id="Vector" d="M25.4899 9.076C26.9211 9.076 28.0814 7.91576 28.0814 6.48453C28.0814 5.0533 26.9211 3.89307 25.4899 3.89307C24.0587 3.89307 22.8984 5.0533 22.8984 6.48453C22.8984 7.91576 24.0587 9.076 25.4899 9.076Z" stroke="#F2D383" stroke-width="1.29573" stroke-linejoin="round"/>
<path id="Vector_2" d="M8.32031 19.0549L19.3211 17.2279" stroke="#FFE3A7" stroke-width="1.29573" stroke-linecap="round" stroke-linejoin="round"/>
<path id="Vector_3" d="M14.749 15.3943C13.991 16.1523 12.7601 16.1523 12.0021 15.3943C11.2441 14.6363 11.2441 13.4054 12.0021 12.6474C12.7601 11.8894 13.991 11.8894 14.749 12.6474C15.507 13.4054 15.507 14.6363 14.749 15.3943Z" stroke="#FFE3A7" stroke-width="1.29573" stroke-linecap="round" stroke-linejoin="round"/>
<path id="Vector_4" d="M15.6514 23.641C14.8934 24.399 13.6624 24.399 12.9044 23.641C12.1464 22.883 12.1464 21.6521 12.9044 20.8941C13.6624 20.1361 14.8934 20.1361 15.6514 20.8941C16.4094 21.6521 16.4094 22.883 15.6514 23.641Z" stroke="#FFE3A7" stroke-width="1.29573" stroke-linecap="round" stroke-linejoin="round"/>
<path id="Vector_5" d="M33.9182 9.26935C36.4189 12.0033 37.2612 15.2815 35.7776 16.7652C34.2162 18.3265 30.6659 17.3158 27.8477 14.4976C25.0359 11.6794 24.0188 8.13558 25.5802 6.56775" stroke="#F2D383" stroke-width="1.29573" stroke-linecap="round" stroke-linejoin="round"/>
<path id="Vector_6" d="M31.1212 13.8664C31.2508 13.4776 31.322 13.063 31.322 12.6484V4.5371C31.322 2.39266 29.5793 0.649902 27.4348 0.649902H19.33C18.2999 0.649902 17.3087 1.05806 16.5831 1.79015L2.66044 15.7063C1.14444 17.2223 1.14444 19.6842 2.66044 21.2067L10.7652 29.3115C12.2812 30.8275 14.7431 30.8275 16.2656 29.3115L27.7523 17.8248" stroke="#F2D383" stroke-width="1.29573" stroke-linecap="round" stroke-linejoin="round"/>
</g>
<defs>
<clipPath id="clip0_4307_3916">
<rect width="36.2805" height="31.0976" fill="white" transform="translate(0.871094)"/>
</clipPath>
</defs>
</svg>
