<svg width="24" height="25" viewBox="0 0 24 25" fill="none" xmlns="http://www.w3.org/2000/svg">
<g id="00/icon_time">
<path id="Vector" d="M12.75 12.0166V8.07031C12.75 7.85781 12.6781 7.67965 12.5343 7.53581C12.3904 7.39215 12.2122 7.32031 11.9998 7.32031C11.7871 7.32031 11.609 7.39215 11.4655 7.53581C11.3218 7.67965 11.25 7.85781 11.25 8.07031V12.2473C11.25 12.365 11.2718 12.479 11.3155 12.5893C11.359 12.6996 11.4276 12.8016 11.5213 12.8953L14.9462 16.3203C15.0846 16.4588 15.2586 16.5296 15.4682 16.5328C15.6779 16.536 15.8552 16.4651 16 16.3203C16.1448 16.1755 16.2172 15.9998 16.2172 15.7933C16.2172 15.587 16.1448 15.4114 16 15.2666L12.75 12.0166ZM12.0017 21.8203C10.6877 21.8203 9.45267 21.571 8.2965 21.0723C7.14033 20.5736 6.13467 19.8969 5.2795 19.0421C4.42433 18.1872 3.74725 17.182 3.24825 16.0263C2.74942 14.8706 2.5 13.6359 2.5 12.3221C2.5 11.0081 2.74933 9.77298 3.248 8.61681C3.74667 7.46065 4.42342 6.45498 5.27825 5.59981C6.13308 4.74465 7.13833 4.06756 8.294 3.56856C9.44967 3.06973 10.6844 2.82031 11.9983 2.82031C13.3123 2.82031 14.5473 3.06965 15.7035 3.56831C16.8597 4.06698 17.8653 4.74373 18.7205 5.59856C19.5757 6.4534 20.2528 7.45865 20.7518 8.61431C21.2506 9.76998 21.5 11.0047 21.5 12.3186C21.5 13.6326 21.2507 14.8676 20.752 16.0238C20.2533 17.18 19.5766 18.1856 18.7218 19.0408C17.8669 19.896 16.8617 20.5731 15.706 21.0721C14.5503 21.5709 13.3156 21.8203 12.0017 21.8203ZM12 20.3203C14.2167 20.3203 16.1042 19.5411 17.6625 17.9828C19.2208 16.4245 20 14.537 20 12.3203C20 10.1036 19.2208 8.21615 17.6625 6.65781C16.1042 5.09948 14.2167 4.32031 12 4.32031C9.78333 4.32031 7.89583 5.09948 6.3375 6.65781C4.77917 8.21615 4 10.1036 4 12.3203C4 14.537 4.77917 16.4245 6.3375 17.9828C7.89583 19.5411 9.78333 20.3203 12 20.3203Z" fill="white"/>
</g>
</svg>
