<svg width="12" height="12" viewBox="0 0 12 12" fill="none" xmlns="http://www.w3.org/2000/svg">
<g id="00/icon_arrow">
<path id="Vector" d="M7.72215 5.99968L4.46342 2.74094C4.37747 2.655 4.33562 2.55269 4.33785 2.43401C4.34009 2.31533 4.38418 2.21298 4.47012 2.12696C4.55607 2.04102 4.65838 1.99805 4.77706 1.99805C4.89574 1.99805 4.99809 2.04102 5.0841 2.12696L8.39605 5.44562C8.47421 5.52385 8.53214 5.61149 8.56985 5.70853C8.60763 5.80558 8.62652 5.90263 8.62652 5.99968C8.62652 6.09673 8.60763 6.19378 8.56985 6.29083C8.53214 6.38788 8.47421 6.47551 8.39605 6.55375L5.0774 9.8724C4.99145 9.95834 4.89026 10.0002 4.77382 9.99796C4.6573 9.99573 4.55607 9.95164 4.47012 9.86569C4.38418 9.77975 4.34121 9.67744 4.34121 9.55876C4.34121 9.44008 4.38418 9.33773 4.47012 9.25171L7.72215 5.99968Z" fill="#3A3D46"/>
</g>
</svg>
