<svg width="24" height="25" viewBox="0 0 24 25" fill="none" xmlns="http://www.w3.org/2000/svg">
<g id="00/icon_map">
<path id="Vector" d="M12.0001 20.0135C13.9565 18.2622 15.4536 16.5823 16.4914 14.974C17.5292 13.3657 18.0481 11.957 18.0481 10.748C18.0481 8.925 17.469 7.42633 16.3106 6.252C15.1523 5.07767 13.7155 4.4905 12.0001 4.4905C10.2848 4.4905 8.84798 5.07767 7.68965 6.252C6.53131 7.42633 5.95215 8.925 5.95215 10.748C5.95215 11.957 6.47107 13.3657 7.5089 14.974C8.54673 16.5823 10.0438 18.2622 12.0001 20.0135ZM12.0001 21.4403C11.8053 21.4403 11.6105 21.4067 11.4156 21.3395C11.2206 21.2722 11.0443 21.168 10.8866 21.027C9.98932 20.2 9.14957 19.3483 8.3674 18.472C7.5854 17.5958 6.90565 16.7199 6.32815 15.8443C5.75048 14.9686 5.2934 14.1007 4.9569 13.2405C4.6204 12.3802 4.45215 11.5493 4.45215 10.748C4.45215 8.44033 5.19856 6.57208 6.6914 5.14325C8.1844 3.71442 9.95398 3 12.0001 3C14.0463 3 15.8159 3.71442 17.3089 5.14325C18.8017 6.57208 19.5481 8.44033 19.5481 10.748C19.5481 11.5493 19.3799 12.3785 19.0434 13.2355C18.7069 14.0927 18.2515 14.9607 17.6771 15.8395C17.1026 16.7183 16.4244 17.5943 15.6424 18.4672C14.8604 19.3404 14.0206 20.1904 13.1231 21.0173C12.9678 21.1583 12.7912 21.264 12.5934 21.3345C12.3957 21.405 12.198 21.4403 12.0001 21.4403ZM12.0019 12.3652C12.4994 12.3652 12.9247 12.1881 13.2779 11.8338C13.6312 11.4794 13.8079 11.0535 13.8079 10.556C13.8079 10.0585 13.6307 9.63308 13.2764 9.27975C12.9221 8.92658 12.4961 8.75 11.9984 8.75C11.5009 8.75 11.0756 8.92717 10.7224 9.2815C10.3691 9.63583 10.1924 10.0618 10.1924 10.5595C10.1924 11.057 10.3696 11.4823 10.7239 11.8355C11.0782 12.1887 11.5042 12.3652 12.0019 12.3652Z" fill="#9D7C36"/>
</g>
</svg>
