<svg width="29" height="34" viewBox="0 0 29 34" fill="none" xmlns="http://www.w3.org/2000/svg">
<g id="Icons" clip-path="url(#clip0_4307_3926)">
<path id="Vector" d="M26.9081 18.4973V30.6174C26.9081 31.6763 26.0533 32.5311 24.9944 32.5311H4.58166C3.52275 32.5311 2.66797 31.6763 2.66797 30.6174V18.4973" stroke="#F2D383" stroke-width="1.2758" stroke-linecap="round" stroke-linejoin="round"/>
<path id="Vector_2" d="M1.39844 15.9465V11.4812C1.39844 10.4223 2.25322 9.5675 3.31213 9.5675H26.2765C27.3354 9.5675 28.1902 10.4223 28.1902 11.4812V15.9465H1.39844Z" stroke="#F2D383" stroke-width="1.2758" stroke-linejoin="round"/>
<path id="Vector_3" d="M7.77779 9.56535C5.30912 9.56535 3.3125 7.56872 3.3125 5.10006C3.3125 2.63139 5.30912 0.634766 7.77779 0.634766C11.6562 0.634766 14.7947 3.77323 14.7947 7.65165" stroke="#F2D383" stroke-width="1.2758" stroke-linejoin="round"/>
<path id="Vector_4" d="M21.8099 9.56535C24.2785 9.56535 26.2751 7.56872 26.2751 5.10006C26.2751 2.63139 24.2785 0.634766 21.8099 0.634766C17.9314 0.634766 14.793 3.77323 14.793 7.65165V32.5297" stroke="#F2D383" stroke-width="1.2758" stroke-linejoin="round"/>
</g>
<defs>
<clipPath id="clip0_4307_3926">
<rect width="28.0675" height="33.1707" fill="white" transform="translate(0.757812)"/>
</clipPath>
</defs>
</svg>
