<svg width="21" height="20" viewBox="0 0 21 20" fill="none" xmlns="http://www.w3.org/2000/svg">
<g id="00/icon_calendar">
<path id="Vector" d="M4.92345 17.9167C4.50248 17.9167 4.14616 17.7708 3.85449 17.4792C3.56283 17.1875 3.41699 16.8312 3.41699 16.4102L3.41699 5.25647C3.41699 4.8355 3.56283 4.47918 3.85449 4.18751C4.14616 3.89585 4.50248 3.75001 4.92345 3.75001H6.0772V1.9873L7.35928 1.9873V3.75001L13.6735 3.75001V1.9873H14.9235V3.75001H16.0772C16.4982 3.75001 16.8545 3.89585 17.1462 4.18751C17.4378 4.47918 17.5837 4.8355 17.5837 5.25647V16.4102C17.5837 16.8312 17.4378 17.1875 17.1462 17.4792C16.8545 17.7708 16.4982 17.9167 16.0772 17.9167H4.92345ZM4.92345 16.6667H16.0772C16.1414 16.6667 16.2001 16.6399 16.2535 16.5865C16.3069 16.5331 16.3337 16.4744 16.3337 16.4102V8.5898H4.66699V16.4102C4.66699 16.4744 4.69373 16.5331 4.7472 16.5865C4.80053 16.6399 4.85928 16.6667 4.92345 16.6667ZM4.66699 7.3398L16.3337 7.3398V5.25647C16.3337 5.1923 16.3069 5.13355 16.2535 5.08022C16.2001 5.02675 16.1414 5.00001 16.0772 5.00001H4.92345C4.85928 5.00001 4.80053 5.02675 4.7472 5.08022C4.69373 5.13355 4.66699 5.1923 4.66699 5.25647V7.3398Z" fill="#9D7C36"/>
</g>
</svg>
